<mxfile host="app.diagrams.net" agent="Mozilla/5.0 (Windows NT 10.0; Win64; x64) AppleWebKit/537.36 (KHTML, like Gecko) Chrome/136.0.0.0 Safari/537.36" version="27.0.9">
  <diagram name="Page-1" id="VEJxhaXpx9CiW7k6A9oO">
    <mxGraphModel dx="1426" dy="761" grid="1" gridSize="10" guides="1" tooltips="1" connect="1" arrows="1" fold="1" page="1" pageScale="1" pageWidth="8000" pageHeight="3000" math="0" shadow="0">
      <root>
        <mxCell id="0" />
        <mxCell id="1" parent="0" />
        <mxCell id="ne409beXSw5UdjGpdfzC-1" value="" style="shape=image;verticalLabelPosition=bottom;labelBackgroundColor=default;verticalAlign=top;aspect=fixed;imageAspect=0;image=data:image/gif,R0lGODlhugIZA3gAACH/C05FVFNDQVBFMi4wAwEAAAAh+QQEBwAAACwAAAAAugIZA6cSEhISEhISEhISEhISEhISEhISEhISEhISEhISEhISEhISEhISEhISEhISEhISEhISEhISEhISEhISEhISEhISEhISEhIXEhIYEhIZEhIaEhIdEhIgEhIhEhImFBItFhI1HRJBIxJZHhNwGBR8FxSNFxSXGRSeHBWmLRWwShS5ahPJhxPPlBPNkhfDiyC5hiabeDJ0aE9TYmo/bogxfaIgj8Aalsoam9EflM4fh8cdfMAibLcsQasoIKIeE50XE5oVE5cUE40TFYETGH0TGnYTH3ATHGkSH1wTI0MUIzUVGx4WGRsWFxcWFxcWFxcWFxcWFhYWFhYWFhYWFhYWFhYWFhYWFhYWFhYWFhYWFhYWFhYWFhYXFxcXFxcXFxcXFxcXFxcXFxcYGBgYGBgZGRkbGxsbGxsbGxsbGxscHBwbGxsbGxsbGxsbGxsbGxsbGxsbGxsbGxsbGxsbGxsbGxsbGxsbGxscHBwcHBwcHBwcHBwcHBweHh4gICAiIiIjIyMjIyMjIyMjIyMjIyMkJCQkJCQlJSUkJCQkJCQkJCQjIyMkJCQlJSUmJiYoKCgoKCgpKSkpKSkpKSkpKSkpKSkpKSkpKSkpKSkqKioqKioqKioqKioqKioqKiosLCwtLS0tLS0tLS0tLS0tLS0tLS0uLi4uLi4vLy8yMjIyMjIzMzMzMzMzMzMzMzM0NDQ1NTU2NjY3Nzc4ODg4ODg6Ojo9PT1CQkJFRUVJSUhMTExMTU5QUFBWVlVeWltnYGNtZGl0aHB8aXV9bXh+dnx+fn5+fX2AgICFhYWIiYmOj42Tk5OWlpaXl5eZmZmcnqKgqrWiusygyd+b0O2Oyu1+v+h1tt58stKUrLmnqKmoqKiqqqqtra2vr6+ysbK3t7e5ubm7u7u8vLy9vb2+vr6/v8HAwsPAxcTBxsLExLzJv7DUupjdv4Tkvn7pwHzqxYLs0JXt2KTs3bLu5b/m6c/Z59bU4tvK4ODL4OfP4+3X7fTW8/rl9fjz+ff8/fz9/v7+/v0I/gAfcOHyoGDBgQYNbkookGBChA8dJlwYkSFEgxcVWpR4kGNDhg8oYvSY8SNDkR03qjy5cmRLjRVjumQpM2XNgihNztwJk6dOmxNf/hwaUmjJkkVvHvWY1OdSkDmf3mwKtCrRqCSzQjWqlabTrkGVgu1pVWrYr0KpDjVLdu1YnC3ZwhWbFivXrXSn2s17tuxbtXKR7kXr1W/du3oR+wT8VrBiq4wfzyW8eLDhwm4P84VsOTPmwEw7y428efLlypIdl1a9c7Tov681U+acOnRtvLOv3v7c2PZq37lZn6b9G/dw3cV5Syadm/lx5577RiceHPhx4dORVzeeHftF17ul/oPmPl55aejgk4vvTZ69+eaxE6tvW3798vio55vubp1/+/vh0eeefefhR911/dUnIHwB7qeggwMuWGCD6MFGoYHaIfjfhPpVKJuG7z2HoXcRQghghyMmWKKH8m0XYnYs5jcTF3jgMdCNNd54Yyg60mijjjkC+aOOPArZY5A4DrnjkUr6yGSPXBSZ5JNG9ijlQEhi2WSWA13pZJVTWkllmGQuCaaWY5pZ5pdrRpkmm2iKeSacdLo5J5dc2rkmnk3qGeeefXrJ55t+0jmonIASKuiWjEK56Jt5PnpnoJA2iuifmNYpaaKXGmopkWMeCuqkilZaKqlzFipqpqp+yuqm/plGamqqsHrq6JhkALMNOLz26quv4/wq7LDEghNsscgOe2yyzPK6bLPJPgttsdJOq+y03zjji6aztlnrql12+6q43KLqLbmymjuuuuWGCWOKGzKI4oX0zmuviwT2Ms4vfoDk778AByzwwAQXbPDBCCes8MIJhWIMOLeoeCK+EspLsYkcXhzjgf69l57G8L74MYgEWkxyxSLW65Iv2TDs8sswxyzzzDT/+8g4t8Sb8r0nY2xyxyXvDLLKQI0MNMrvEn20z0L3vHGGSzPmiDg1V2311VhnjfAj4OicNM9Rhxz010OD/SBzRp8tNtJpr7g202Q7/TZjyPCi9d145623/svG9CKyhWa7rbTagwse+M+EH56x3IVPzHjgXe8t+eSUSx6KM39/GHbji2+uOOKGzwhuq+SSzq7pnI6a+rqrtxurq+Gym27rs2s5TuW45677zN90Cm7tttKKLqWyE0+78a+fevytxTNP5ujfwo568r7DDvzvyAd/bvPVlx698rbvLv745AsMTvenfy8896pTv/3y6Lc+vfZqus96nHF7Xvb+j/Ovf/8AbAjVykfAAorvG5lrUQAT5z8GLjB0DwSd4/5HQQdWEIIXnOBABmjADnpQbwgcW9s0iEELmrCEKCShBDt3QhWyMIUvdCHoOPjBGtqwZiFkG+AaCMMV+rBp/hmMIRBbKMQf5o+IRhzhC2l4wyY6UWE5hJsSk7jDCBZxiD3EIhU1h0QtXvGIWQQjCZn4xDKaEWBRfBqJZOjFLSowiG6UUdGqCMc22lGMX5ziHdtGxjP60Y9pnJsgORdHjnURjyvcRChCsYlGNnKRjnRkLCKpSEZGEpKXtGQkJ5lJSmLSkZ+UpCc1+UhSVpKSm+AkKE0ZylNSUpWlHKUsXznLVdZSlJ3MpS1pqctY9rKRsKwkOf5ITGKKg5e7TKYvN3lLVyoTmM1sZStTGU1WmpKav5TmNYOpzWZi85ndROYyx+lMXO4SkXuk4yH1iM52spOPxYynGQNJyHRyMYzv/lQnPvVZSKitk595BGg/17hEeRq0ifT8nD3f+M97stGdAs2nQwM60YFKjKIMRWEfD8pR8iWUhw+VaEZDKtCFylEnIj1pQ0eKUZXus6JY3OjMpMECf0ljBQX5AT1OsDdq1PRg1PhHOzoKxQS6lKQwhWhSU2rIHjLVny9lqUW99lSCzhBrQ9DHP37KkJvmdKc95WrBvErUhH3UilM1alORKlWTrlUg0Bue8+znOvrVFXtztev1rJc9vMaPrq263dVssAKa2hSnD9DpCaTxj3/A4wE3aOxjqcGPfyA2so09wQ+0+g+eMvYf8iABZf9RDM6ugBr1aGxNgypUyDa2swVh/m1pVTuEfPAjtLF9LU9jW1MdwEMH/mjsCrIq3NreVhqV3eoDPhta1Db2GcFdwWYzm7XztU+vfeVrXv16Xe7WD7vb1e5f7Tq/uILJvPDrrnjV6z25jhe9dN1re9n33RoJFmuGBQlZddoDepDgqzylRjsEnBCyLre38uhBTWt72qFS47E3gMeDIftb3NLUwAa56YQVmw/EPmAIzShIfh/g0wf4tsSxHSqHcTrhCP9gwR2eMDWa2w7D6gC3V7Nufde74/mmt8fpcy97g0zf2P3YyPir6kXTKsKSKrWtT3apTGU24gIjVrGs/W1wJYviggA3s5zNLGYtW+Iul9i3Yxbq/pdhK+LTwrgY9titl7fM1TPDY7qW/Wxj4Rzg3kL4tW4m8VBvEI8ws9lqZ61jlN/KZB0u1clTVDJVIU3pR1saypLmzZRjVmWDTJjCBqmtM8DKW38JeMS+/XCMVzvUG9u4wv9lCIHbvOGdxtkgOv3viAkcYYNEeNYfvrWdU83gMg+6xmLFWqJXetSWMtqtUGVrsxcdbWdXu9FSrDSm9blpmNkYxx8Os2Y5++fGDliseh53YxPMWXywoMTEJbOfSfxaFqQ7w8PlLAuGcOuCxLseQ53zP/ghYUDHu7PC9jOe3W1syLYDz+Cu2rKjOm1oW9XiS8Z4vDLd5EtXnNoXB3nG/sHY7bKaPG8Tl/azRT5pj6+c4xWDebZdfm2Nq7XmLNf0yXeeu5RbO+QyV+PIgz7ImJBXfe+Lb3Z9rPTwMh2875Ue0u/no/vy/Op60zGSoT5k+U39rjzeunfFHvbySl3IQD462sn+9LGbHXxcTztgvy5fIifJ6ljPe3WjDne3033pdm8639d35LcTPsna/jjR65nzjm/7niXXu+QZ5nNsC73lj8+84hPP6MUrtPGO1vzLOQ/VyE/+9AervM0dv3maA530r6+o50H686HD3vauV5HpUc97gake9DMXPc5nj9Y2El/Rx2f26HPfnt33/vkg+X3yKb584cfe+kuevsqH/n97zLce+82HvvjNevPrf//81Uc/95lvHrUX2fBJjzvbAy9/+FPd72sP7Pj3XzCt2x/sbVd2f+d09Id/7zeA8QNf9YeAXTd3+ceAcud+hQeBZId3/HeBDOF/FPh/ded1D/iBBwiCE0glwHd55Yd74HeC3pd+TeV8GIh60td9KjiDrMeC65eCJaN9tbeCN6h+5meDJOKCLyh5ftAyNdiDQIiCPqiESciDVqWDlld0tBeFhdMMtTCEWPgLv0CDobeETsiESBiGP3htULh6XdiEXBh8XsgbtbANWDiE4wAFaWiCRziGdgiGd/iFGyeDdYiHfqiHcyiFEWQMx/CGF5gN/n4TiIxXhiUoiHDEiJDIh2cohn9oHsawDVdoiM/HC+KwLYDYh584iXmoiJ+nROV0it9ETuHETNlkTajETa74S6l4iqtoTqoYi6wITrhoi7S4i9DUit4Ei460C85QDuRwjMiYjMlojMrYjM74jMz4jNIIjdNYjcp4DvzAD9a4jeQQjdw4jd74jdQojspQC9MkjMAoTr0YjNXEjun4TLNYi6iIjrr4iu0oi/R4i/aYS424iJKohmgIiqQ4hWYIkEPxCgNXiv9Ih6JYiQL5kA0ZigY5ijm4kI6ofJQokQw5kQ4ZkQPZMwjJDwrJfhDJkRp5kdSXkR/5iBbpjyTpkSW5/pEyiZLbR5EFEZIjiYMwuZMmuZIYaZM9GZODEYkvGZQ8OZMuqZNGuZQbiZME2Y85uYZCmZRSeZQ0WZBIGZUBaZVUuZVMeZW5sQnkwA1aqZJTWZZAmZVPSZQsJYGC14BuuYAi+JYRqIAGOIIhmJd4uZd0OX8eqJd9yYGA95d8KZeAaZiFeZd/YpcCOJeIGZgbGJmOqZiPWZmUeZmNeZiYGYCcWYCZmZifCZmTGZpfApVr2ZJo2ZFf2ZVmyZWpeZKsmZZgiZWzaZpzVJRqWXy2iXyoeZq4WZtsWZWr+Zo+mZKySUjB6ZW5yZu/GZuquZw/+ZzA2Zu6mZytOZxTaJ3H/kmcZ+mbSgmdxukRYkmW3imc4FmT0umcsMmdMUedzPmd09mc7Imd1fkWTlmf8lmeyhmf8KmexXkQjNmZhCmamkmam+mZAuqABZqgdkULA7egCBqhA2qZBlqhDBqgEqqgoDmhB8qhFpqhcdmhGkqgGwqiGNo6DsoPEOqhF3p2KzqiFNqiffehLBqhuxmd66mf13meO/ifpXGf72me/Cmk/tmd+NmfMqGd6TmfPEqFTDqkVpEK+1APT1qkrqmj24mlS5qd7omjPuqkWpqjR0qkVVqmYfqltGml9IlSXRqeYhqk+6mmTZqmZjqmcVqncLqjUEqGbYqeb+qlRpqnWWqn/noqp3s6qIK6pYSKqBARojQKoyLqqDJ6eDFqoi5aojWaqZD6qJJqqTM6qfEXqSe6qaB6f0Myqp2qqalKqp5KqaJ6qSQaq5Wqqqhaq7A6q6xKq7f6qp/aqqH6oTfqpmgarH46rErKEIigDMaAp4B6pYuqqIn6p07Vpz0aqM26ptc6p8AHpNl6qNDarYYarp9zrMZKrWD6rNJarAbBrcJqre3qrNFarvmJVuTqruoKr+DKrO/6AOx6r9i6r9par/gKsENprnR6pvZarQPrr02ZkAi7sAr7rwzrrelaRAIrsREbsAZLrBHbrxlLsfKKpA+LsedqEuuojvJ4jvcIj/l4/rK5qI/4uLLkFI++qLLvOLMtK480K7O/WI8xe7PzyLPSlAu1ALQ267MsK7TbpLT7iLQ4y7QoW7NLa7RT67RBS7VNC7NJi7VR20gcW7L5OrIaO6/xmrBgS7DiKrYga7YXO7Yii64hS6Zqm7Zwa7YHW7cQe7Z6+7F0W7Z5e7d+S7KAG7Z4K7hfO7gS0bZr+7eH27iK27eEG7huK7eF26SPq68TC7loO5948At2M7eYy7ehu7d7u6qma6u9qqupm6use7q7yqmoOycp+qKuu7q166qw+7qlCoC+aqoCGru/ursd2LrA67u9y7uqi7vC2ySzi6nEq7vHO7y3G7zRO5jP/mu7GOq4G3u5oNu9heuxpIu4mTu64iu6rbG96Eu2kbu+m3sx4Fu+4au96tu+lVuw8zu+3iu5i2u4Mve+8vu2+qu5+Fu/cZG+AMy+AxzA5Jsdnfu5BLzA3PvA+YtEEazAE0y/FizBGpzBHIzA5rvBjVq8yHu9ylu9BJi81IvCxqvCIzy9K0zCKQzDL+zCLSzC0mvD1puqOHzCMlzD0MvCN/zDPRzE2CvENEzEJQzEObzDgxfDR7zERszEQ/a/lNvBGOzB8VvBWAy/XEzFd3q+9/vBVpzAW+zFQ1EFtvAIEGzAVVzGWjytYZzFbPzFIHzFJeK/b0zGdqzHfGyxc1yo/mscx118sXj8x4y6x2Lsxuaax4mMyHIsyNvqsHXcx498wI5cvk/Mw5ncxDMsxXUZxaBcxKKcxHTVvLLKq6S8yXDpyX45xFA8yk58oqwsmJo8y5JJu7Y8mstby7Bjyriqyp8My50cyqmcy7hMzNRrxodMyYNsyN9aIsm6rBfMzMr8zNQMhYxcyW18ydVcsdpMx2PcyNe8yM7szc0Mydl8zpY8zuhcznELzt/hznbbze8MyNMszvj8zfY8yflsfPLMuOlMz/Mc0AT9z/xr0JaL0Ps7ufDMzQXdzhC9zv0s0BDrsryYslWrtU/LtS9r0VdrtUer0R8t0iHt0SWN0Vlr/tIZrdIpjdKRdAtTytEXLbUtTdNdC7Q7i9M564s5bbU9LdI/7dFBrbM77Y4gvdKYRNEHHdHbzM4SnRuFzNQN7dRNPdHYrNACbNVYHcg3EdVPrc5Vrc/LnM8P/dVKzdD7HLheHdZgPdVaLdVpHc9wPdZibc1vbdZysdZuXdfmfNYLDZZlzdZ+ndV8PRFjydWCHdh73dbVBsyt7Ni0zMk+LMyTXczIPMyUjcSxfNmVvdmZ/cqW/dm8LNqS3YHG7LyQfcuofdqnnLukvcqcrdmYHdq07dm1Pdu2ndu4bbyDjdiL3dv3XNgDvdXBzdh0rdhx7dDEzc/CDdDLHc7NTbLI/k3Xxm3X0Y3W1A3czF3dfR1pz63Ic23d3J2GnnDYxa3d0D3ewy17363c4d3d7S0Zep3cVP3b0y3eeJTaumzCpQ3aut3Zuw3gAi7bdOLLqPzfBJ7g/h3gCj7atz3gC468rP3LE37gDB7hDd7fDo7gzPugqx3bGB7iG37hIw7hJZ7hsN2r6A3eeB3fd+0T853d9w3f713PT+ji1/3XhK3eBZEK80Cl5z3jNo7f2Szk693iNX7kiY3jPL7USP7k02bkzp3kUw7laOgMWO4M2pDlWM7iS07lTv7lTy3lYW7fTE7PwPBaav4PuODlZg7m2E3k1Krfx/zawfzgKH7nHH7i/iKu4QORWmveDRQO4nxe6H6e4nje54i+54eedhXu2olu6ItO4o3+2I++ywMxDGv+D7ow6HZu6YRe6ZE96SYu6qrd2ghB5nFO41ZO3woL6I3VDdu94u7d6jIeUWeu6jru262Z5q+FC7Ou6ztO6zIk7Lx+63C+v4Au68Ge686e7Mj57LYu59B+7B7h68De7NUe5NIe1sbO7duu7d9ZD8wu7mJ+7m8+7d787eae7uju6s1hDNne7vDe5Ks+5BUr1EX9s0dd0zw71Dy971vb7zft0wK/0cpUDNzAjeEojs3Y8A6/jBEvjRA/8d1o8c5Y8ROv8c6IDb8w0ixd8EB98CDv/tIdbfIz/e8kf9I2ffKWROwv7u5u3Qvi8AuNoIm8hwrGEA62QO3qju9AX5Hhnt4wL0Esg/Pi5wniYAus/u7I/vNCD/VV7vQ+71KMEDlID31K3/QyX+9Fz+5E/8Z1k/Xj1zdBP/Vd//RR3u1pX/UNHQ5kP36ogDlK3vZc7/VKROcf/umjrueUTup7BfdxL34auN9KLOl+X+qAr+iOHuqLj/igzven7um4K/iD/3zhYOqG78qQ3/eRH+noU/T2vus8hPWXz3umf+91j/c4DvZuzvr3lPqnP3mpT/r0rvZ77fq1TvXtIfuzr3e1P+y6T8nDH/Own1G+//tYF/zWfve4/g/vxZ/jmpv8ys9zzA/uUl/mrq73qM7fj6/5dV751X96mf/95p/4ef75jH7+6r/Cl+796M/47a/48R9elj/+eVf+9Q/+ew/67O/5AMElFBeCBPHgKWgQYcKDCQkOZLjwAcEHFStStFhxU8aJXDhitAjS4saMIjt+9MiRZMiULFFyfLDyYsuZL1XadFmSpkacNXXClHny59CMQU0e3RkTJTiYTZ0+hRpV6lSqVa1exZpVK1WmRXsKzemVqM+wI78iBXp2p0mlY8GSNesW7U25a5Matfu1bdi5Ysu+BbwXLmC2eNWmravXcGK6f/vGdZy38eDHPHV23ZpZ82bOnT1//o6K2XJkxYfdCiYs2S9l1ZBZl2b8F3XlwqZlL06NmPRp3K8n5+Zte/Ds1oF7A1+NfPjxysRFg4YeXfp06lafMy9OXPho37e31469/Pvd8bq7iyfaHDvs3d7DGy//mzb59+Dbo78P/3J16Tf+/ZOHBJik+e+/E4aw5wSobmiHvwd+oIcEG1ZwMLrr4ktuPvOU0y8/+87rEMQPORxRQ/laUg9D10ikz8MWRXyRxQ1NzLC4Em2MkaDnKtQMQgWpaZAjaSh84IYApWLQQQhJGJJH0C6sL0ccZ5zyxO20ew/L/LQEkUsOseSioYgcEsghMQs6UyEyIUJzoTbNdLMgNtUc/rPOhOYMM8484VyTTzvpvNPPN/98SFBADy2U0DT3dAjPg8JxErokhSRyiHyKSdA/A6mp5z8WkiQQwGDyoRDIUOGx6Id8/IFHU1R18Oe/Fahh4QEd4IHQGgMj7SycRg1ldNBAFdVz0TKJBfZYYRE11tFin+0TWUKVZRbaX6VdNlFhF20WWG71pDbYaqPN9ltyx53WWW/BVRdbOddNtt1y2YUTUl47M1JASi2SBtMTmqyImlflsaadH2q1dNZ2EOwhQo589PEBIGm1iOJblwT4Xs18HXbeeOFNF+RswzU3ZHfF1RbdkeVV+d2Tu63zy/WCi5LKK2d2z0Wbs8QZPxip/txRY6wEdgpgS/2FdVOE7YGmQU3/WSFXVKn5D9WKlky66h/0kdViXCPMWGitoNTZSp5V5E5Gs7fsOUS1a7wZpxRrXrvLtm+Mm264z9Z7RRr95iJosamSJsimADYymAQrbodoHQhu59YHEn5AGn5qrYjyByOMmKMb4AGyyK+ZJHLwrMj+uW6Z0fZy7rL3Zpv1u6WMve+0/769Stjtlr1321vPDi/BTYcq638iP7KiUAEkAcF/CzyBU1kZ3Po/fGr174Tq/7F6cwGfbrzAFZLmZ3QCSye+KtTfBjzv19vn+/3c3U9999XTC953+YFnr374a9/f7HYGwJkML33ToVhU/j53wPStD3f8o1kA9ee/+cWPghDMGVlcd0EBqm6D7KsgAUGIQZ+NUHgMdFICn0I19KFQYw7U3f9497sO2u+DD6yhDO/Hl/zRcIIm/CEOgxjDEM6QJQZ0YRKVSB0Y0g+IPoSiBKPIwSFqJBSh2EQWs3hFLWoxFl3cBBe7KEYtktGLYDRjGLE4xjV28YtsRGMbtyjHLL6xjHRMYxo3Ycc5xtGPYOSjGv94RzDucZB9hCMgDynIRLoxjuNYYiQlWR1yKLKRiCSkJTO5SUye8ZKM5GQdF5lHOhryk6QsZCBR+UlThnKVjjwlHkupyjXukIpTfKIUdXnLXeaygJMEZjA7/tNEC/rSmELEJTJ7qUwN9nCZRCSh25h5TGjmsIi27AgShblNbsKEmCKcZjirWcViitOJILnhOJOpzmeek528hGc2uzlPejrlm0aMpznL+U5qutOf+OznPv8JTn7qk6Du1GY9FRrJe2LToAB9qEMLOtGBpnOgEKWoQDV60I1iNKELBSkKG2rRjkr0oiYtKUk5ijKYecxkLl2ZyBBFMmvF9GX0uum5WFpTl8F0ps6yV0iFOkmO9bRlKKOpTFO204/l9Fo+RSrLmPrUo7a0qjjdFk+XWjKbQtWqU+3qVXXK1Z8q9atkjapZsaqQoA7VrUks6la1eta5rhWsZXVqx8RK/tW7pjWvRu0rXSmiUoyelLAo5WhiC7vPj77VsU4aqTPzmVHFInaxlVXpYTUr2YBilrMR3Wz/OiKOx5aWeI3Ihgc/S9nLttayrw1tBJspWtCu1rC2TSluPUtbLjTDFqYFrsZ+8QvV8va2xs0tcncr287GNoOdda1zS1hb5WKUFtwIbnadBMniMpe63mUtbHUbXd1KV5rhNS/ekgve47LXGMfQbnypk41eDJC81RUvftNLu/U+FyN9TerJAgzVAR+1wACWKloPrOAEa3XBDm7XMbjxW/lWmDO8CMcv7IpWwQq4wU316obrOtYR85XDIlbqgBmsVhKn+MMv3ateA4ti/g+z2MQllvGZatGMcYTDxz8GMpB7HGQiF9nIQzZyko+sZCYH2Rz84EeTpRwOJE9ZyVW28pKtLA5kUKLDBH5xWGfc4hr/Va4utnGOcQxYMeWXvf2dLnrH62b/ylm/c94vR17xD36ss711/nOcA33eQat3uYDeaJ67i+hDCxrOhH60oe/75kYDZs99bmek+VtpSdPZ0Zze9KQZfVlF2xDPp75zqikt6k+zGtKg1jOf/axp+3r61a7udKl1qOtrZhbVq7Z1rn896mCHuti15nU0TXLpWcN60a0+9rNvHW1Tq5rYvrY2tJNtTWUbe9vkdHa1gV2ZTZADu5kO966Hre11/k/7283GNX8RnGY2r/nMZQ4xmcFM73vv28wPBnGM643mf4cZr/m+McERrmaFC7zfBja4Xxc+cHw7HOAwDtaKC87vi4v5xPqGOMcj/uWQb9zkE3/4vE9u8ZHT2N8o7/jBWS5ymq98zAmvOKOore5su7vdwu450Mf9c28THdlGl7bQr410cS896EV/+tGV+250x1vqQ4960qGOda47vevsznrTwf51n4ed52RX+tgZTfXJFnrrXoe72uVedrS/fe5pp3vc8353u+/d73gHfN8NzXbo7rzXTD+73gN/dcULfiflPnfbaa11xvO98n93/OUXT/m1Ef67jdd85jkvdsyH/t70o68Is6tu+G6fnvSbf73oY+/6xH/a83auO+0Pb/bd5x71vQd9RlQv+XQD3/K/bz3yub18cC8WlJ0UZSwX2Urov9KTrpRlKkeZfU1Wn/uwxP70abl97UufleM3P/i9L37yn7/9ocQFn9MPfeo/3/56RH/4u3//719//e6fP/urP+sTwPz7P/XjP/YLQPx7P/ozwATcPzFiPeaDtwlsPguswNvbjuErPA2cvNlTvgv0wOLTkhG0uhDMQMQzvtJDwdWrjFTYh3pIQd5LPhC0wdpjwRtcQdjDwcFTwRrsQdkLQt0Dwh0UQiMkQgp0wR9UQuI7QR0swihswuZiQhGs/sIZ9D0onMLPOz4ttEIa3ELcCz4vxMIx/B8TxMAlBMMvzMIhbEEnTEM4RMM5vEI1bMMKUjmYazmQy8OZs7mPw7mX80M9rDlC/EN7izmJG8RFvDmGyzlAdERBbESKk0RIpMSSy6qAm8SU0zhD9ERGtEROhLBCBEVE3MNAxMRSbLhNTESS60NWPMVITEVYJEVaPMTBqkM5zMUO3EUuzEE31EFEUAZjKMMuBMZjRMI35MU1LMZXo0NmtEMzTEYyjEZjnMbUk7Vq/MVr5EYpZENp9MZm9EFo1EVyXMY7DEdt5EFu5EBfXMd0LEd0DEO3S0Jwe0Z5/EZrhMdzBMd5fI92/hRDffRHEhzIJ0TGfTSoe+zHfNxGhAzIhixIDgFIelRGdzxCh6RIaoxHRHvFUGxFl5tFj4zFS+xIU6xFkTxJkzQzWuCzW3xElfxEW4xJlHTJSoRJVXxJm1xFmpzJm5RJnNTJnBTKoCTKo3IDW5gTngTKkPRJpfzJp3TKqGzKqdxJiVBIgWTId4zIq4TIrLzIrezFh9RKr6zHZuPKsRTHryTLihRLtUzLslRHt4xLuNxIrMQfc7RIuuRHu5xLtszIgwRLvGxLvcxLv/zAMwzLv+zGwMTHtzRMglxLjdzLrnRMySxMy0SRxDzMxYxMwOxMzqzMisCDX+CF0ATNvsRM/sXEyM1czZKsytccSqaEzaJ0zdisTdrsRIdjSX6oSdm0zdyESqr8zVHszdv0TaIETqmczeNkTuN0zuQUTtwkzp5Uqt0sTuhczueczqXUTk1UzuH0TuGMw8lES9T0TNNczeKbSNZkzIVEz/bky7p0Rs2EzPf8zPQ0yNOkoPWsT/PUT/KUS/ksT+I7ywAFUMIczMfMzyLkzwWFT8r0T/wcz8tETMFUzQcd0ANV0AklotEszQjFUAOl0P8cUQnFtsYE0fsMUQS9UBV1UfuE0RSNUQHdtAJlUfZ8URnVURq90f7k0Q21USDFLQhEQAJkwAWcpQYsQCU9Uv0LpQHsvyVF/tLyc1IHZNIkndIIjNImPUArzdIi3VIsrVIpHVMuJVIvLVMx7VIyXVMzNVI1PVM2jVM3DVMqRSQObdEZ1dDUxFE9LdEVFVIL7dMdpUJB9dE9PU9C/dPPrAJbeAQ/TVA+PdRFhdSKok8HzdEflVRMNc0GxdNB1dREDVUSjdQKRdFRNdFL/dRJLdUH8NQg3dRV5VRFbdUSVFVYFVVEJdU89c9XvdVfNdRZRVVA3ZvuxLjvlM7wzE7sBM9jjc7mZFaosk7qbFaPe1ZjtdZl3c7g1FZlHcpohdZtRdZw9dZkddZuPddqlblNnFbuBFdsXddxhVdF5FZ1pVd5ZVZZ1Vdc/t1VUNXVIhRGYqRVXh3WTP1XYjVV9xxYf6XUhWVVgj1Yg23Ygq3URAPWU43Yin1Yhq1VhO3XjQVZYc1YHgrWfb1YhaVYhxXZiR3ZlHXZli1UjGXZme1Yia1ZjV3Zm1VZky1ZkppXV3zXoBXXaxXaciXXdDXXbLVXoB1adFXapI1Xom3apQXJn3W5okXao31arY1ap+1aquVDrN3avoKFGLzOqYXae5Vao7XasEVbrlVb2ORZmdXZl6VZiMUdX+3Zk41PmL1bjg3ZuUVZv61bwt3AbLTbwv3bwOXX9Gxcj03VvZVcuj1cTEtcvFXczMXczc1ZzmVcvoXQy/1HxDVc/sA13c+d3MFFJ9DN0MXt3NN93fyAPJwV3L513doNXaFoW1TcXVnsXZIU269NW6Zl2+CNW7DlXeMl3qz9XVEs3rdt3o/UN+WtWup12+fFXua13uSF3u31Xe8F3u4V3+wdW/B1Xu0dX/Ql36/F3dbVXNhtXxF9X9SlXPh9XJulX9Wd39jl3/jt0f69X9oNYHQbYNHNX9vdX/8N1Po94Ny93REs4NJtYPf13BN0hgvmhn/ohwu+4AdmXfmtYAWW1Aj24NRF4BBWNGAokBX+B1woYQYG4A/+31Ul4QSuYRSW4YroFBbuBgmOYRN2YBvWzDiFUiUt4gA84jFN4jVdYiJ+/kACbGIofuIojWIqnmIFTFM7ndM2MgYW/ode2GItflMxrlMtNeIrBsAsNmMkRuMnbWM0bVM4HeM1VmL0E+FcfWH9xWEgFokd/o8e9uE7/tgfhmEazuFYvWH7PeRjVOECwQUDJmQ9VmQ+BuFIPuFJLuRELr4dBuRA1mRLDuI9prRPFuTIzeRF5sZGfmRILmXIdWX8tVhKnmFSpmVUfoB66GRPtuVXFuBdtonoHcnzLd/0Heb1Pd7hrV5iFl4DO4ZcOFtjXt5iVt9pluZqXmZgTklkvt6XMgVfSAZnGIdsEOds0AZtGGdxLudzFmduUOd0Pmd3Hmd4Hmd2fmdzrud2/rbnc6bneM5ndO5ncv7nbNhnf8bnglbngQZog+ZndRZohSboez5oh05oiNZniZbnia5oin7ohY5ojcbojZ5ni/7ni25oj75okkbokx7pgE7plZbokubomAbpdRbpl27pmu5omf7onYbpmVbpbnCGY+iFPpBe7vXWVq4IX+gGYHBUUwCEp4bqqJbqqabqqrbqq8bqrNbqrebqrvbqrwbrsBbrsSbrsjbrs0brtFbrtWbrtvbqU/AEXCiGbdgFXibZUy6NX0gGRLCwvvbrvwbswM6IWHAGX4DlVqYFbMCDbmDsxhbsx4bsyJbsbYqFbnADjX3cYaivboAyKMvlyQbt/tAW7dHmD2KoL4d9XGx41G7whV9o7cgjba2onuSxiCHgmgIxHKew7dyGjq3BHF4pHOnYbajYmgahleK2CslJFX3g7aewbU+RFKjBiuzRB1xhbqkI7tiGDlyAr4XF5n+r7Ip4hl4g7154Bu3eCmmQh2C47oywbavJHqgY7unw7XtRlRbyjPmOClhhAeSmivfeiuyhBtrGF+m+CuruHqnQAX5QEPT2DE9whmdGWvMt6oTQBUB+hnPQ8HM4bwfXCv3OnOoOmH84gaeplVBhgd32jxTnmnlgbv/gh/W+7akJEP6mBhdnnupxccyx7XmIlYXRB374h08RnyKpmge57R/5/o8AeZoGl5gAeW4+a4fsKe4oX4HhppoSP/LndvEgyZ4V3xp10Id4uG0xF/IhtwgYl4ceSHKqAZAg/wcxB3JZMfJduZrb/u2KcBWJ4QdWoYY+h4esYXEhxxwYN5CsAXIfP54675QTqO7i9o98MBAd14f+rnQP74xT6AYJV9pSpoXUegAO5mBMxwoA54goh+4QbxUSp24fr5Ush5UpR/MBJwHfpnUbhxr+Vm8SWPEQZ/J/KAZ9CJD6HnA2t3QWkAYaZ/MgMfWM2HVY9wdZ1x7mpnXqNu5/MPbdhvYg8W0CWfVl5++tQZVkT3M0J/cBZ294sO1hp/Zfd/QE1/Mjzwjf/tZ26Wah4aZu2gbzS1ceGQ8Qqln2yiHxR3/xIS/uXV/xZif1rQAEUDfgxv30he8MWndvEbcVfoiaGaf4yblt44byglcQctf2GvcHFrj1kif3+ub4BlnwYGd5jDfyZ4B5jl/h6IGepymdc/94aT/4FXZ5ifmHZ4iVqqF1/VZvfeiUfLDuyCl55N71eD+Q2zaQ6h7unhcfnL9zWWeeijAe0DkSWq/vlm/veM/4OReV6wb4S0dwSCfxg0eV+iZ3iWd4h5dgiKd7ub8Kcn/62rZ4WGEH5n7v7BF7ad/2+M5yW2f1IT95ZP91Hhd2Xgf260buYq/03Y77eed3o3f3WPeP/vGJ9o0HcAIx9ooh8Vgvd2znGktnetWvnOSJ78t/76pvd33he26/dKrpHpV/cgEpehG39ozofLdvffa+9oAnkHdn+2lvB4QfchDHe6toeMy25Yh/fqzYnrIP8RWemv+IcSb5DyBvkGTncpCn+UWvnj43eZK39H/Y8RBXdPCP913RFHb3lCgPkOVx8uwZ/znvc7N3Gu4HiH8nbvwreGKIvn/z9LV74PCHPnkkpAmE2A7iP3UMH0iT6JDgiQcY/7Hg+E/eRosICzakaNDhA4IFy/FbAVOmQGoedZJ4oMNfwRUIG978t8KiTH4CN1ITKLPeUnhIKzLEuJAFxJIwt3Lt/ur1K9iwYseSLWv2rENA2bZy4cK17Vu3XDfFrctW7la6d2HC3TvXLl+8DvvmBTxY8APCMGmtRev4MeTIkidT5krw6MbKW4dqHvsjn02HnDuTLm36tNimJ36y0MEvJOrYsmc/UOs3sGGHenHfPtx1t+/EePC0LT68ePFQyLkcR97cOPHlyp1Hh778efFajWlz7+7d8cqTPUuP5k6N6IPy39ezPz0S3oPz7efT56qW+vXqbbG3nW4dP4DI+bdfdfzxx8WAzOmnYH7LIdhggAQ6qF19FVp4IYYZarghhx1ueN9/IUooHYQiMkgigIkhpphuubHI4gPAqegiYg8w5iGO/jnquCOPPfr4o2O28TZkcIX1NuORMQL2Yo0yMpmbkkc+yRUu5zBzJZZZMtNMM1pyqeWWXnaZ5ZdkjkmmmGmaCeaZV5aJ5ZtutummmnDOGSeda+ppJ5t1yulnnnzu+aeXgOKJZ5iDbnnnnIkK+iihaCp6aKOMGlrppYA6Gimni/Y5qaWFgqppqJB6KqqplH6aaqlYYgOOlCs2SSOUTuI1pZFEIqlrlLriulg3rAjLyiyzDCtssccSa6yyuCib7LHQDivtsM5Gy+y02CKrrbDWZvsst9R2Cy651yrLirfblvtts+uqa2678LI7b7XuLmsvuvaKK26+8r5L77j+3itw/r8A78ttwf8qPPCx6TK8ML8OH4yvxOFafG7F+iKcscARa4wvL93EWiutSdrq66wjm1wyrzeiTLLKvJ4cM0wzv/wXzbvWzHKRO+cMo80969zizynfLDPPQ/cq9K9EHy300kM3HXXTQCdtddG/XW0007JqnTVXLncN89NK2zx10FJzrTaUYrO9Mti5jg132VjXvXbVeHtN99xIx+3z3V8HjvPgcr/td+GA9w112mhvLfjiZj9OeOQwup035IczvuTehmNOueZKX9755n87XbneSVNNuuSmr65646y/nvPsZdce+e2h5+6467GTjXrmn3vOut3Agy78YtuFXvzyqccY/koom0gvPfTTTx+L9ZtUb/3203d/ffbfax899+Rbfws35YdvPvXsS4+9+vF77/4m8M+/Pv7Z299+/vfr3z//5Ac+AY4PgO8zoPjEVz8Euk+B+ysgAR3IQAMuMIINpN8DE3jB7FXQfx4MoPUyuEECdhCEJoRgCCdIQhGqMIUWpCALX/g/GX5Qeuij4QlLiMITSjB+uvMd35rXldHBbnLDK2LvjKg4IR6PeM6zHRARZ7wj0i6KpUvc6ZhIRSgqMYvI86ITgxfGJqqOiFXsYu14h8Xdyc6MXEwiHNdoxdbJEY1zZN4X2fg7LS4xj3d8Iu7+KEYk1jGOU+zjGLfixkDa/pFze/QjGhf5w0Yako9gJOQhL3nGSkKSk4lEJCYtqccgdrKQpszkKKUoSkmqEZVnk50gyUg7VsKSkqcUZSy3yEhPhrKUrrTlL3m5yVv6EpfANKbraPnIT2pyksK0nTJJycxUXjGYxJxmLkE5TGtyE5nX7CU2j1nMcYbzmbiLpirJORgDLehBETqRidxpInZOKBvvpCeK5rmgAyUIn/Hs5z4D6iCAlmhEAiooPA2aHIT6c6H3FGg+FZrQicpTog3tD0MhetCHIrSiE72oRy/Kz4x2lKAcjehHNepQfZaUpO8MqUopqp2T/tOlNQ0QSE3KUpSKtJ0z3elNgSpRmNp0/qUWjSlRaWrUlLb0nrdIhiOCetSmCpWiOp0qT2M6UqVatahd5epWqxpWrEqVqS+9qlk3KtZ2ohWkPyXrUNuKVJM685uzVJ46t+nNbub1jbo6RTaQkYx0ltOufuVrYRELzsXqta+7NOw58ZrYve6qlZTNIzqrednJOrauioWJGJjRiwcMoxia7axlUVtLc3p2s4w9rGsby9lpZpaOn22tatsm2dc+9ra9jS1sFXMMYMAEGb+wLXB/m1tp8ha3s21uap8rW+i2cbfTva5zqatb1kZXu8zFrnLxAgxjbMUNzegFHqUbXPWG17uEde9p2Ztd8M4XmtZd72u7S9+p1Ta9/vBF7nLfe11fKAMKXAmFNnAByPq2d7+rhSyDI6xf/Dp4mf+13H0bTOG0LrWnA/Xqgd7K4a+u9cNgZSuIUXxiE5c4q1zYBTYa4RVbdKMWLIYriXE81hHv2MMu5mpSqxpkHA95xEXOaYpvzGMVt1itOvapPZvcYa0y2aBIXvGPhSxiHzt5yUrm8pS9euS5JjmrtvDGLMAC46h2GcwYxXKbqfxlOWeZyHKl6pPnLOY7n7XMcd6zn8MM5C3T+c9ApuuENRxZ7j7YtxJu9GUBmwux+GKwuny0hSv8XQpzWtGY3rSnE/3plmV41PHttKlFV2pRsxrSAT61XvEgWrKU9tKt/s40qm8N6lT7V9MCzrWr5cvfVQc7v8X2NdT6u2Bd/zrUx4btcM1iXG0CG9fOtjavl/3sa++a2bCudpKUPUjsehvAtCU2tsvda3A327PjPYt5R0tNc19Y2+nedrbHze5vc7vd6q6RuGXJ6X/re9EQJrjA+83vuhLYwGdBMC7mvW6F0xvZFd/3xSk+8XwnnOOKRHe3j21kPpfVzVwgNKDhLGghkzyugX6zlN8MYxk7hsa0aHmOvVznkb98zHjWuaFZ3nOc97jQK7fz0HuO8kMnHadkVjnM87ycpQsd6j7vs9WJXmWgL/TMaYbMLpxh46w3PeZXL7nRo851tZtc63pm/jrZ4252t089ylIPOtJThHBbV5fR9/57yAEvs01kY9KS8QUzxClsfO+d2hq3d+Aj72/GU367B39245tpcEdnXuKQnzyUTrEMeU+m1pcX/MI7n03Ne9zxrWe96iMJctBvOvbJnP0pdLGLXeii977vhe97v/vg6573wR8+8YF/fOP7HvnNZ34uGOH5gr/+AckgrmamzfnK3yb3ulD+84nvfOEz//fiL3/xz0/876t/+e0PPvjJ7/vo296UuR9/+t2f/PfLX//w53/+hV/vRd/0hc3spR7mcR/tkdrIuMI3OEMxRKAESiAxTKAFXiAGWmAFZiAHXqAxcIMzhILi1RtX/gDDMZBGvG0f6s2IA0JgMWxgB8bgBMKgDMogDdZgB96gBX4gNrjBCm6c47QgDnKgDg7hBRahERbDB4ag7Pld7SkgAlpe1zSCOLwCkPDCOIygxSlGw5UGxCVXtlGhFQKJbPACrEheFJqMGJIhWWBhE57eE/7g5yUbsTVDxJEhMGCfCqLhruhCjJ0GjbnCq2Wc2tghG85GHvIhEMKSIR7iWCTiGgUc32XaDlWiDmkQDLVQDt1QDUEPORziHngDDlliDHUiBmkiBO0COHzdacBYLYxQDV0iLOZQKfJQKHyiI8ZGKK4QKvaQKcIQLuZiWOziL5IQJ9piJo6iLwZQ9a2e/o0Q2xmyYTSCIcER3h3GRqUtnhxOozCWxjQuohz+Bjd2Y1d847k54a/VHyrR0jj6iDmSYMcxiRiMHncMA3lt4RyqSDuSI2W8YzxCodnsIz8+gD/aFzp+mzquEjQ6YkE+HvUxSbR1h/Y55D/GhUAOJGQ0JOwBJNBcJDlq5LAd5MUlJGYt5CGCJEfmIxe8m3ekIEVO4l14JEaihUYWIEzKjEwKI0pKITUmYDhWZLiZpDT6xR2SJOt04Xd8YTMaBiswSU7OZFnUpDNaUVM2yVMy5O2JZK/xnNzdXXbYXUqFgyOGA3XoQjc4Q97NXVHNXHvYHFeqZYTUg9jlh1hCZWWQ/iXapZxQyeXYCUhd2qVD4KVXtgXVpeVgBtmVwaXZFaaC/CVY8IA9oMADAIE9pIBn1MMIzIZgvpg3FARavuVhkpzX0UfYOUJihmZBQcU/OMMsQMdfEkFl+sQ7hMUO3MM+xAMJJEEyZCZZHIEyeAUR4AM/8IM6iMADVMNwwgNvjgURgMNyVsM7fMAPpMMICME9qMADWMMK1OZtjgdMbGbR6SVcqSZr+iVMCIE9zAMMcAU1aEVwDic/zKZkWIMK0GdZRIMJPIQ6lAV4pt3JgWXbld2ILGVWokxOQucpSENJyEAMfMAD6IIvhEAS8EIIPAQ9kAASAN8uIMEuyMAuPEAS/jDoByABL8hACCCBLxhnVDoELnRDQXjmS7peX1hjhWRjShacanomK+gjTAxBPsCDCOgAfKDoh5Kog8ZHC8REOwSBPcBAiDYoiZooiqroA/BAPIgAkfboOeRmNbhDfNhENaAHio4Wh3qoQ8iAL2ypQxiBPdRDChxBZOoAPrADm5oANSTpDaCHQ0ilFhJJjq7mjsZINFqDC/CAPCynDuSDVlhoT/DC7o3pA5Tphz6pg0Loie4CL1AoNbxAhJ5pgzoEiUZqpkqoDPDAkJrpA6BphW7FTgalVj6RUZaRUIbFEUgDOUQnNaRDNLBDDsQDNMSDLzzDePwAPQSDPXQDPrSD/g7MQzfUgwrkajS8Qw/kAzo4Qz00q2WSBTi06Iu+qDM8wCkgg7iK6ykgybgigzIgg9/NI+nVhz3eKFcMw7n+AmH8wjx0q2e2ZjQOwTnsqpAOgT2kwz2wgBB0A29WwzxkQww8wA7QwwtAq7RSq7Viq0MsqzAE7MCKhpoS6whQgzpogz28gEOgpzYM7LI2qwpUQzxEg0f4xDpUAzsc5wpUgzPEg6l+AMIqbFfUw7nugmCIa7pqH1z8wrmq61bsQtESTbiea7kexrneK746AytswjQOwa4eKb9aw6KKxIVyxDxwgz2UbGswq7PmqjSwg8pCAzwsazqUwwroxK92rK6y/oODGoE5lEAOsEM0nIDZwgPApkPIpm08LCdBFugepiO83iQdxspT7sA8oMDfPgM9XAM9pMN6bgWxFkPM5qkOrEN8FMOWsmkPXOkNxIM2RIOeggUuQC2+ruaD4utx9UXr+l1EXggy6GEa8so5dKs5EAY2tK63moOWGuszrG3M7gB8cIUMXEM+tAO/BkPo2sPoikDpni5R/IDxMmzy8mtPECsJeKw2SAN6zMAz4ENreC41rEA0QK6aPsA0pAM0HKoNsIM9mIA9QEPMpirz6ukp4CsyCMafCu+MmEO31gNXIAO+lqte6AK+6gJfuALwti42CLBDHAENeEQSpO8NbK33/j5ANFgm+Zpv535pNchDNojABydBLoxw+qYvRxhrOkhufh4nC0yDCuztlmLvsmoDNLzD+nIEdsJEqzIgHCLuTyquqjFuWXgvbAYDMCgDg9JAPcCGhQ6D53Iu+haDPZTAENBDD8BHnlba5Y4FOADDn8KoLmRDNmADGztwX7AxG3ODA18eS2KIS+Yu1CgDHGMDveLFL+xDQQBFQZyDL3DBvm6pDuzD2nquDshnBf+wlT7vFnfxFyupGD/EIsumxvZEDsymCyOvQ+xAPMRANZzvl34w93JtMPiCNKwAZcIDzs6DChwBJF8pTJzCPOyxz24FMmADN7Dxcc1IL7NxYJXg/hrDsQI7hB9igxpjQ9MmhivsMSD/gyD/wzn0AtXCxDWkQBJIA3YaQTTUQz7gJkx08N6KMimbcvrOgC9YAzx8sBEkAwu/7QokgT0YqxMrg4ryAD1c6d5usakKqS8UAwyksDezquH2JK7F6l0pMVl0cAnfAzs0bDnEwy/UL6NKwzw07zwj7D20QyUPwT2UAz1kKxk7hBl367cSqK8gZYYoJSEm2p9eM49ucgbDQ62eQz68wA9gZsXugzi3gBHgw8vOw0eH9EiXtEMAAT6ogzTotMimBz7UAz7Mg2VSwzzUwz4kaZXSwzfkAzvM87Lag0fcQP52coLGrA54RCIHNVfw/ulBzrS8ZXPFGvU7iEApfwQHd+3e8vNXhzX6zqw8SPSyEnZgY/U53HVE061DdHPM7q1H47Q0lEM9vEBhAylCR+IBxrTIneband1QMeZwOGZp8IA64OzWdsZmDgN5GuZnoxUv/CGHuGXO+VhBsJ1+qCYhuyZgUkZ/vl3V7eUgF3JyOCYSrOpA/vagAah/0l3QeXaAWp1o4wFpk0YSWEM9FOdp9CdrfyZ0N3dB2cI3sCKHlGZt09ltD1k97DZ1VHdvo4Vy4x1octh6E7d5vnd8E9l0/1x0/wdLr+OsAok/Yh9Dx0g24AIN3EM8mHR6oMNyIoE17MM8uIAHzzBY6ED+/p7FD+wnTFQaZ9tFQWgeesnKVb63V8B1ET/AiIujiQ/x4qb4SCaujPadgWLlGgGfMLErEnxwI8PEDuRDyx5nO3wAwKbAB3cqEqDqlHZuiCK3iEaqL8jblGKvDJBeaYGjX4S455W4ib+1IqqkVbZ4Qg/iuhX45qkNl2uIiyuNln9W7c7ArsJEEfxC+9ozg0vDyr7D34YsPzfrM7wsY8fH3JLswPa5XOaDwC7q7YK5Q2j5H6V5l+/plz8kLEH6j6w5hr2qvpm57rCjjaNSm7tWHT+oO1NpKj8AnEomTHywDs8DD7+DWT9ootpyegSsDIcwC8S6LkzvBsPEHc+4XbDx/kZaZKQ/BoofLuNYujuOuTbG4aQDJRF3jbJbCKbXSKiTE1IegbB2sYWfenyURDer7wnoMDwMNAzEOjJYwzu0p0M08ROjcymjezCA8daGwjZc47B/+bS/97ErtMns+45U+xBtNpYL2Hz392FOt3v3SH4bWXqjpnPENs05hEezA2zmp7cPQVUn6wfsLfbWKmW/gEifgzxYwzowabYutl+D9cjLw7zHRGrTNm6L55ItfLGHRcOD9nnvmc3zY8O7FXPTPMLD03cLvX9OtzgcogV8g9U9/Gsvxy2Md1ccN4+Y98zD3Vol/c2bxdJjnWKGptYDZtcvZtBjPcT7N6eHJMpo/kOgAkkv3CMqDUMwc9MmJJgweni+L+BhsP3Wl8XbPzsSAw3fA+bfa7amC1za03jXnBkZngI5iMHh5wq7kqPpTeXWMH7fi8UpjAPk6/2HmwzmQ6Xjdz6ARz61JT5PPkkviMMwrJ/rvz7sx77sy/4uHEM4zDGM203tduO0xZI5CLAgrX7rzz7xF7/xHz/yw37ti0MtHDGwr4zwJ//sJ0MySL/1i5/t437p5z6synjev3jf9IISGsMFIsMOkv8EGgP6S6D6l//5v3/6r/8wfKjlw9Gom4VuEi5X+Oaqm0CicjVAPBD4wJqKgQcRCiQCbkTCg26a9dqEkAsXihYPVhT4/u+fwIkZMQ7UCHJgr2LFkJ1UacyYypMsXRaDGTOly5krW9rM6bImzpg3X+5U2TOoymG7RooMOfCj0otPETYVmHTq0gdUPZaUKXTrT64of3LU6TUm2LFnfZ48+kDqVatYsT6glY1kXadRod7VyzQvXKts81YNnNWu4MIC5x72m7Dt4sOAFb/921jyYMh73Vqe6EsZFIe6fIV4ICP0A162QgexB2N0jA9IeMno9YBHPBECT09rIfrBEV+7HlBbwWsXcBmue/8WSPocCV4PYDsMpW12ZKgcCWN2fJDy4LjdreMNj/myYe2TvVcWf15z+vYZsbNfb55+5vn25R9MnL9+/nn89b/rSz3u3HsMPP4QowvBAMfr70AA0WvwP484qhCZpeqp8B9zBDNHw3p0waYRh6qJBxp4rDExnhGkiSead3ag5wVq0omGnR7ySeceFnSYx6AHognmHnUa4oGebuxRQThp5smGRhuNRFKFEqORJxh7UNBhHYcesIUcDf+58KAMK+QwMw878m87Bwsk78EJGVwwQjkZa5NNCeOE8D2R4tPzvjUnVHPA/vbz0007AwVvk1BC2cRRRxl99NFYJF20UUkjxfRSSSnVtNJMHwX10Vu48dTUUDed9NNULV210k06RdXVU1WltVVbNwHzn2VSJZOjcyBt9BwN59nmFi6j/kkhiVyiQeEBaVRI9gd4hjjnynSeoacH225gYdqBojlBOIGQoOEZfFYQLtkh7MGWHhPMRbfZakmohgVqfnTIGDB5ldTXf4Btddh/HI012FllrdTgWxNuuFaHGT5YYYQlhhhWiiPO+GJbRdV44Y5BZnVjiEN+9WOOOBb5Y1ZLnjhljDch9WVcV8a445ElhnNOQ++kE6FCdd6T50QRzTPox245RWmlqTrFFVeUdmpppTfxJRlkUzAiGXuUhTbcaau9MhhglOkBnge6/VagcMdF+50YhFP3BCLsGVsZHN5WNwV6eZhnRS438caXqZt+OmrBls5uaKMBZXxQovHc+ehD/iOvs/I/H2e8z8n5upxAzwcCunHJR7dcL0AFRTR1CeVScHHSM4dd9TdRp/1xwIYpxqEe72GHd3hE+BoeI/BZpxp5ejcbbRaAwIedtcVdQaAeocnn3hXCfeD43qm3vkd75CEhCWmed0iMZX4pWnbWbReac8h9/jz+zudX/H3HZ6doF13YV9/01xMiutj9737re9/qEITAobUOdPYrHeby10AFHvAjyEgflzCYQQ1ukIPkShaXjgGM9hnIfxDsnwRHSLn6TbB2JZQfAE2YwBT2DIb6cV0BCfjAF+KnhSh0YehuqEP61XCIOIzhAmcIOYhUp4NNdOITCVK+hADDGCy8/l0S8XfCFWLRgEj8oQMHeEQKftGK7hNignyYxtNdkYxcDGAQw7jDM5aRhGokYnamcywo7pGPTeSMZ9woxh5usY2FtKMR5RjHIs4xkImM4AoF+Mg7ro4LeMBDRTBpSUxiMhSbrOQlN6nJUIJyk50cpSdFmUlSYrIW2TjlK1XpSS6YMpawrEgqOYnKVX5Sl7Kk5S13iUteevKXw6zlMXOJyVt0wxV9dOYzERIiT1SkmMK05i5n2UtbGjOZyOTmN7O5zWv6UpveFGY4zRlMbFZTneXsJjDdCU52xvOc8xTnOunZTmLmM55caOU9+2nPdJITluPcJ0C3iU54InST/xxo/kIFulBvKvSbBi0lPyGK0YkWsxfOAAQ0d8CaDnbrCNGYBzwawsdaeKMW76yoPi/KUIm61KIzpaZGbUrRmsoTpzyVqU8futGe1hOVxPmpTmGa04i+VJYOtelOkdrTqFpkkJNsJBAPyUhDEjKrv7jaHpNwnFNUgx0hQIJydLGL2YBGNEjohb20pD0W8HET2cCFI7Vo1a3qNauKBKMkEblIv6ppc1UN7F9ZF8m8HhaBhtWqBBUrw70y9qqIlSxIcrdHGkljHdR4B7t0dK95rOMGJqKWPbqhj7k+wAjRkB4UxcAMJlrWi30F7GO5mlu+6payFCksG22bWDjedrAHcmxx/skY2dryFre7dW5mLAjF42VDBN3SwfN2AI9xSUMd2rjHN57XrQeM7wV8DGEOkRvcyzI3vewl7nsXy4XfmrG9k1TuGNV7XPgm8L76jW99e2vbJT5xBr6wBjysuyUdvGO7L+BMDbYkXiNkI6VPBMYxuohf9/53v8t9bnMDzNz51nHD/B0uh1Gs4Q8Ptr/ALbGHQ7xigeTRidtjxw3mEQNpnCMfM5Jej8oBD17s2HoPoJsJoMgZMmTYv+uVcYphDGIpA1jKI1bhk02s3ihjhKkHDapSh4pNp3ZZqD8lqpnxiWaCfhmoEl1mM6EZZwxK88xsrvNTk3pTNXsZzwEN85r7/pzRPcfUzmkuNKArCQxgHHWpUG10nv3pykPzmcxgLiikH+3nQbNS0oEu86QJ7WlLg5qmeb4zN3nhUTmv+iArbempdwprUxta1G2utK1jTetby1qqmRY0qfUM7Kmyedi1jvSmg11rXlPVxVheYIvp22EVx5jaWPEqq1ld17vCz9nTnrK0m7xlcDe72lQ2t+qgTWIsh9vbLD6xk8s97mhD+SqZxTY0z8fELML72/Rm97/J3W9+n9vfAXe3lts9cHk/Jt1XjnfB561wkET33s48r8MFLm6Iq/vhEve4xj+e8I2Tp+E07DjAI/7sd4Oc5SIPOcAHXPE9XjjlLm85yjme/nGb7xznGCf4y29Xcm6f3OALJ/nKeV70kZtc5xqhscydqOSa95zpP7+50oE+daxH2cpVNzqhkE71oY/k1sUuu68nOuZcI3rtlG57qHet67eXWptvhnoHQ3QKTP/Z7bNmu9/73mu+w33uyY773wWPbJ1yhNGDp/tR1Q54wkv+8Wd3vOELf2xho33UypY75TEPerOnMtUfvXsGXe3oy49+74rnPK5F//plE1v2n098JhlP+9XXvqmdPnzgG//KpGvdMkLf99WJn3Or/8dqp8egtoev/K+PffliP370fX7brlN/+nExPpOxbn3wFz/sW8e+15fO/cPY2/kHyTfypZ/+/uuLH73dH3/8+b39+Zsfdd+vf4rpT5CCrvySL/vk7/4MUDsorv0E4uLOT/2yDv/gLwEnEP0iEOOyARsO8P+y7MVcLgDxqgO7DQQFy/44EED6ICIY8AGoaAMFsAAtsAIhUAb3DwZn8AFrkOEIUAI/kP98kPwQjgRpCwcRsCqmY9tO749cMARpsAhvUAjpiAKJ8ASn8AV1MAjD7wd5sP92UAqhsLKiMAaDxhaY6fRCJInC8Am10AvXUAy/cLKarg3VEAg90L8y5mZqZmY4xWZYRmRkhmT60GT4EGbyEBAFUQ8r5mES8Q5VZhBNxRewwfQqrhbAYRcCkWYc0WIKcRHx/jATFxFnGJEQPdFjRrETEZEUT9EUDRETU7ERW/EQV9Fi/pATL3EPX9FlEqYKmfCA/M8K2dAGc/AX7aL5Kk7b4hAYnTAY3VAOlXEOt5AZkzEa3wgLI+4NIasLlxEZqdAa54f9Vu39jvEZtdEXs1EczVEY0ZHpzMFMmnAbB5Aa8Y8b7QsbnTEd67Ec7RErFlDOLi4c81EayfEeBbIZCRIg5Uj/DLIEhQseE1AeGasXd9Eh/REf68MNnGG2nqkFRxAa3XEcI5IjA7IgOzLnEHIk/3Ea6zALPVIhRbDj2jEkE3IIUccWtAEJnUkJN3IlZRIkP1In01AkYTKHSjIoidKG/hgS/SzP9VYv8m7P8xAv+DZv93bP7pxJF7RhE5QyK6NSK50S+HSPK39v8poyLGkq94yN97zS2JgSKrtSLM9SKhVvLb9yK+myLSvvLZWy9PpopZACLDMPLd1yLu0y9MbyL+GyLskS887BHNgyMVmvn+QSLxFTlHSRJVXuKAcyJn9SMz+CGKFI28AwNOGw+njSMitzJ31SNDHT++gRKENQIg8uJVNzNE1wPbyxg95PNWXzHCkyM02yN13TNGGzNo1yNxuyNFHzCo0TODmTNvNqHzno4nQzJ3nTN4tSOJFzM3/TOnuyOllzNQ1oOBdyObkTO2fTjmKOgzRSO68zOU+y/j3ZszvfUz6ZczuD0z3BDjw5UDxbciLLEz//Mz6LCBW2wSYxCCcFFEDvM0EZdDpd8jQb1DkvMD/JM4uScjJFLzIvdDAf89c4FDDvckMrCRfKMIPOMDAl80MPU0X9MvZW1DFBlDAbEw+0wfdUr0WlSkNvFEMFE0aX0kZdFEdnNEh5dEj1kktq4RtaCkVF1DCFtEedtEihlEhZdDLNskmp1DF1tPWKFELBECLN0zubUz8hyDOjIhv4Bz4d1D8XdE1J8zxFLE1ekj4DBUwVNDyz80tbc0wrlE+f7DYf4Hx8wU8flD/nNEznE1Hr80+Gkk4X1E4j1C4MlRf31D4JlU0v/jUkoDOE2lRCD/VOLTVU1dRTva1RFTVAIdVNJxRVK3VUydRRM3Ug0rMFO/VVT7VW+1RUYVVXF8lUQRU+U1VCJ5ULbfVXd9VVXywUCvQBlBBXqTNRjfVWY3UJpZVXo/VaGShXTQhLCzNDgbRbwXVIw3VKx7UiSPQXsAErYa9cuVVc3ZVc3zVFffRJ5TVKq5RDt1TTpHRH71VLvzVe2xVeBbZes9SaemEblnRdAZZf51VKCZZdGdZeG7ZfJbZivZVe29VLk6tVj7VjqxVZn3VRPRZbVZVaSZZUhzVPN7ZYG0tlr5FlS3ZVnbVQXVZbRzZSbfZjbzZmPzVbQxYCU5YO/n92ZjHVWnF2aKdVZpO2Z3nW24Dhgph2ZXPWsoJWOZHWaJu2aqH1aGkWTq8WZLuWJOVUY192alvWax+SY3V2bU8WZlG2Zr92Z98WbYuWUcdWayk0blkSb+tUbdvWbLMWbsN2awOXbt9UTLHWt+5WcOcoWIMrFHGRFkXxFiVlFiFXE0vRFWPxEzfxchXRc1Fxc0NXcllRdFWRdDGXcj+3ZVLXdDUXdTk3c2ERdkcXdE/Xdl93UVBGdEGRdWNXdR3Fcn23dof3djOFbCHJb7m2buXWbZ0XcOcWccGWeXt1cQ0X3ZQ3Zvn2O6H3efX2b793eQ+XcKOXfLNqf0yWQR23/sS29y/WN3wLV3qbt3vpF37LV2TZVnyJE6vql4cYNzbt13sHF3/Bd4ADNH7Nt3+pt4AbN3uF9X+xV4AXWH/TF4EJmIKVNnEleHwvWE83eCoitmAv1mED9mEXlkspVoQhFoUntoUtdoX1NYVh2ENdWIUh718HNmBDeIbTDodNOId3+IRjuIZ5uPOIWIhp+IWR+NNkeImNGA+MCohZOPPyNYltGHnn8YMr+H4PmIuJloO7WIsz2G63uGwDeI2udzzPeI0N+Iv3l4HB2I3LWIF9FYMvU4FDon1Rko0n2ILDGI/f2I6xuI0vtY79mHv5OI8hWI0JWYMBeY4TOZAPeWkH/rnKrFd+8/d9iS6N+zOOKVmPp9eTHTmSIbmRp9eQvdh9HTi4SriVoaqKmfiIpXiIlXiWrbiIFdaWY7mWf7iXXXmKC1bRnDiX1dKHf5mWSSmIdTmnYPmJbXiZifmYb3mYZ8+XldmagRmXq1mad/mZsRmZc9SYrzljQbk4SXmM5/eco1aM1/mR0Tl/J3mPTfk1F7mTJTmVR3me4RmfQ/me2bmSRRlYV5l96/mO1Rmg/dmd2/mgy3mf/xkKNVngGhqNFBqhS7mP+Tmd9RmOE5qhszOif26ifXajBVmk47mfLzqgNRqjswqVWRak4YubnTmcMXacbTqbqdn2cvopoXmb/m8anHc6LWU6miP2Sn96momtmYkap4fapyFNqZ0aqHtap6eap78Zqa+6m7WZqrN6poOaSYv6H746RF9ZnJnahC3anlO6o0n6pFdapR26ok1acdeakVkajTEZW2G6rt+Zo/l6ods6o+Oaj13abPfa40T6sAH7rj2akxcbrv26r5c3A/+aUsU4sQe6sfO6pAs6rR+brRk7wJxhtEm7tDH7sjubWOU6tVnbsT37tefaeXtBVziiF07bnW9bsxNYtztYsCP7syubGwdGQ84Btt/xkUG3d2vxd133VYR3uYkXuo1XunO3eKubumcXd7PburcbuyNXu7+bu8Pbu22xucd7/hSVG707d3jT+xTbm3djBRh0RYTYe72h+71pN2ZKxbzLm3an21GMW2gD+6Fbe7PderAHfLW9drgBBrjVWrKNq8CPjsBdO7YV3MB9m7MrvNlmu0KqI7cT3DxAPLRJHLI1HMMpHMUvfLcfYGCK28ENOsT9d8MFvMRB28QP/LcDXMV5+48FwhdqG8Kl9pxHHMczPMdPnMVtPLglvLcz4hxeHMYt+5GbmqvLDqqt/Ki1eqxltKqFWsu92svB+qyr3KrL/Mun2BcGVczJ+qnNWqp/GMyXGjLfHKvPfMzh/M7bXNN4ARvCQRzEIRwEXdABfdAJPdANPRzIIdEL3dAbfdAf/n3QF93RER3SK/3QE13RGf3S/5zTI13QJ93SN33UEz3UwaEZbMGb9bzLF6rPOz3TQx3TKZ3UDT3WX33Wcb3Waf3UUz3Py7qmcXrHJ3zFnZzYiSYZmAEVVnDZmZ2PyBAYblzekF3Zm/3unt0nFbsHadxqZXzJhRyFfAEZqn3cyX2DuoEWmFzrwr3cT+/cNzvbm6zIoz3deZyywMEz2D3f890WloHe2fDe9V3m+P3dM3uT672BU1zJjRyFwCHgHZ7cG/7bUzLiHx7bKJ5VUXvbh73H5VjireriKz7kT+/iLRxCQF7kn4nkNRPelW7VO7SHgd3XyVzOo9rOHS0cnqga/vhh51cLXHxAHRxiIUaABvBhHlxgIHbgHvYhHkjgCJShiY5AGlDq7goCg5IgGSrMmcKBy18+zIEJ51FezrZ+y5O6zsk+zmc+7ek85m1e7dte5uEeosC+iaih50ejNHhBec7qNu6+OZIFCOohpaihBdCmHWpDBMLKNZBgF3jBrHyB7x9gB+JhF84KOBa/8aFjF2Rgf5DDN4BDF3ShF8zqOY7gNjw/OF7r8kOArVQDBtLKF54jOp5o7Lt6ztt+7sP+mWjf9mGehINY2PO22xfe2L/j5DWIGthBzUOgRKBhRaLBbHigHrqhHlKASsJHIHIAeASiGpokBh6gR5SkRt6h/kfSIRikn/oFwhrmoRnaZUfInwS+fx7IIR/igXyiJEmoQR6aX3m65f6V5LUAQse8dNDiQYM3g94LagPtodCx7oHEiRQrTgRHkQuXihotbuK4MWPIiR0rfhQJMqVJlSS5YLQIM6bMmTRr2rT4UmJJiidbstQ5ciKtbCiL+lxpFOhPiT2VOj3Kc+nOpxObPph6NWhWi0OTbvX6wCrWsVrDStWK1axXsh7PLlULlerXqGvRlt2U8yY1eNqyjTjiDJo8EtF6wLsRT1u0dtFQDDlH4sGOeCIoyriWr90PeI9JGLH3LCJixe0kbtbBTjI8iBNZN4aIhMYzfCuorXhs+MEN/haxZ9deIZG1NHXa7gWDbPtBNRbUVNykmLcjLmdy4cplW/GRW7Bi7eZ9Dj68eJvR726PK7Ereux019tta5R91fPVu9NPT9T9W/t14evnfl9a/P3X3nXvIUVgfd/VRA0LE0nDTi+QFXZYO74kA0M0KXT2QA7ASXREYw/wEI9hRNhTwhD0XCOahRiatlpEOrzDWnARRXMCRDe8E4NttuEWzwe77djjbzY+IM0LvigjIQnJ8TBPPCOIF50u3fxD3VzzgTVeTPIxddaCXY5J5k3l+WfgW+qlCWB/bUL1pXVazilggGWtSeeBBea5n51o8vkmm+jJ+WWdbg6KV3gNTkRN/jrRzGMChUPcUw49KQhkz2C6pdbaPvXk0wIQ+LBTzTz3tMPapJWmAOMR0pyTzws1PuBajusIBE0+zN12TjD4fMoCrromR6uM85QDjxH4rJNcEhCOlxMuV/6DZX1LLacDqJLlw+kDP6iDGkzWOCfolu6JSVMS1tCjTmUSWVNPPR8+IIQ95Mo0bkzhlnkmguXO+QCehZp3qLXx6Wnuv4YmCLDACAM84L+EPrywwgQzXDGgiPppErplfgxyyOIhoSG0D0hLbcpZZowVNexM00IISFTDTghH+LILErywposvITxwM7EaJ5ynxzLxkI4Iiz6QBI4V3VCPOxLxYovPQOP8/gA1L/DygM5JyBDDB0js8nXYXfa758Bc5Wfxn2r7+xUXeOChUd1z1113KHjLTTfed/vdN956A77333YHXnct2RDO+OF7czG4441rZHjehSPO9+WPR0455pVnvjfnoEtOuuWTj9755pqf/jnk4YgMe+yyz2RNt+GdM23Kuv+TDOL16G5O6uZQW4/L96gzghHTvGMMPd3Y40yMiB3Eg/P7tGD3LLv3jvfvKQef+fAp1/P6eMnUw+oDQdyDjzzpNx2MPZFJE08071T/vArUFOMQRI1C6L90PGs84Tgd5FZXOtRpRHGs8xzmDthABJqOdJ9rnegq6EDVRdCADEwgBjXo/sEMhk6CCrQgCT84wg0mEIIhJCELU6fCvJVvdjSsoQ1vEq/dbc93wBMe8RpErN30Bh/Rg8hwimMOB1EDe5TTnu64VzfvUQt8dxMf8WYInq9Fw0EPMEIyPoADqY2IHsVxkIY2M8TfLKc51ZBHNkQAkTa+sUsFXOEFRbjCDsKwhSnkox1XNzQwFQxiHKOIw+4zMURGLJCJHGQjGfZIiS0yTom6oSUveUmMAEOK1NrGKU4xlU/e4pM++eQpNgHEDw2JR9Qo4jqStCSaZW1eXHCFKT8ZylOM8hSlNKUrXCKeHaRmRhLZgYzeIRGX+SIHlMHRZojkoxVASUoz8IU1YlTN/mueLVCBTMshHTnJhz2SkoUk2tsMybZuXqxtcDunOSm2TnW6DZ7zVKTRMInPfJpMIptUmcHQk0qJ7EZY6oiRQJAlg3vAipbiDOc9YeKqc9BDBT+oBzBeNdEuOgRo0lCBM1czj1ztylmpaeM92BFHeZx0mxsbpDfT6U5BYiyeOyGnS2lKz4p8E5Lh7NNN6wnOcsqUnWnLKU8eqs+JXONeFtkBDPZVE9TU4AVJfU50hvG7leG0hjY9V5ds8QGRkSx9sUPbOxG5U0kKdZwNXWtPwZJWRr61pTMFKk/ditefdqyqNQFC0somtl3IgGw0s8UurlYZXeiiFz9Dgi96USwj/oBjSnylyZmAoVW7yq6rBkKqJWtHQ7MOVZ46halRzxrUg/m0ru08LX70WlRF5pW1sU0tbVHLU8/qczdZcxSN+JE/atBoHfirh/7kUZB6lZE1QqtsTETLMtdGUq5hcm4muRnTgJlWtrDFLWdJW1tIxvW72Z3rP4mKW7V2d7Tl1W0+fwSZzzwjNTdox0DXwdv6wpcEM5hNsETDRevCBLpbtS162esdAd9QtNON03jbut5GbiIUodiEhS1M4QtfOBYannCFNZxhEH9YwxwWcYdDfGEUX/gW3DCxi1M84g2fOMYennGHN1FiGNv4xTLmcY19jOMd6xjIOcYwjVX8YxIL/tnIS7ZwLMahYIvY5kQpWpFo2HHfG9C3HfANRjxigC0AR9ki5PAxkoNs5iPTGM1DbjOTO1zkJBsZymOeXZnd7OQmI/nMLE5zk9n8ZjyfOc4hpm6Ezduw7RoYvOk19G0RzN1HN7ih7sWnlpVjKlTtgx7zSMEN5hGaSZ2j012mxze4xZppMLXOBNasow886UrX2UzYle6DVwvrAZFXuoh+6aFnm2tgMxrSi27vrCUiBHRQ9khkEkLSji2RVrc20sGui6yhPRMG9/pOir7rr1Vba2oPW7vflvS2Xb1rcZfXrde+JA2YuoN0jkcHq2Z1sXktbLK0G9sDDrcjb+1vb8MJ/sLmXivA6Vrtgpc74Qwf9ybEwe+Iyw4VWVKvwi9uIIhLnEwUD7jEDn5eh7Mk3fdGa7ct3vB1L1zkKy9vMYCx8ZiXiRmHFXjK8V2Xl8t8PDT3OCNBTsiWh6SED7zjCYt+dBfqkeguNHoMNeJ0P05wj1RX4AuZbsCoV92ETzchN2C+87DbBArJUEbS+7h1PE4d63+M4NfFPvayN/3seVyc1K2udbav3XAoFBzdq371vgN+6YLH+98N33WkJx6EaZ/74tGud8QTYxzhqLzlL4/5zFee8prvvOc3//nQZ57zoi896Usf+tOH4xdqR/zduf56xfNx8p5XPeo7b/vbj170/qx3fOwfR/jWw77xWQckyW0+bqBHV904xzjLna9y6Df/5syvfsmvj/zoUx/7KE/+yV/9/Kccv/vZVX6Bsz/98Ktf++tPP/vf7/74Wx/98ye//LkP/vJ/f/z5Hwn//y9O5oduBLd99Id/AIhr7Vd//beACOhzDohwCniABCiB4rV/FAh/BqiBH3eBCZiBE+iB97eBDAiCD4iBImh/DXiCKhiCLGiCLfhvHfiCAQeBIad/QueCEfiBI1iDQSd9OWiDKEiCPLiCJaiDQtiDyxeDOHh9kRd4wid7xFd3j+d3VLh3UMh4kTd8WhiFXJiFhbeFYNiFYviFWAh5ZHiGZliF/r+Xhof3hG6Yd4X3hk83h3dXh1J4hW4YfHB4eGEYOHIYh613h064h3QYiL6Hh66XiH7Ih1YIdX04hmqYh4YIiWXYiGy4hosYiZeoiZZIiY44iIBYiW1Ih4Voh4dYfIwzhCm4hD9ohEEIhD5YgKxIhDBYizN4hLGohLeYi68oixXIgUyogUl4fsHoirwIi764i7TIjKvojMQ4gLbYjNA4bcpYjM9YhBYojLRIjeFljLOIjdIYjriYjMj4izs4jdmYjuLYjY3WjsRmjsv4czLYi8OojuM4KAJYjfF4je84aex4j/54bvu4juR4jkgYkAkJkAtpkL52jNyokA3JbduI/o/lWJD1eJEWWZEHqYv9GJEYuZHyKJD5hpBqQo8aSXJOiIpth4mJY3edSIqnOIqZ6IUxmYihKIgrCXg6qYg1SZNo+JOS+IigyJOM+IktOZRIiZOI6JOTKJOgaIo3WZSbKJUz6ZQ3qQvkQJRWmZQwGZSc2JRdGZZLmYpKOZWe+JRmyZVkyZJeeZUquZZnaZNwuZWgeAtaqZZ1KTkh6ZFvEQvcQJEjGZgfiZKEyZHWGI0SmZggKZgPyZeLWZhvUQsVB4xD2Ji5pg194JiXWZmciY6PSZCg6Y2i6Y6GKZKm2ZeKGZpxwgvIMJi26Jm8Zgw115moCZmHyY+3eZoMyZi2/rmavjmasdmRupmavfkWxOALr0mDwFma+4ELy7CZzAmPGYmb1Lmbqhmc0vmP2Nmc3DmdpPmdwjlIiAAOlKCc9Sied2UMwwCO6WmdxRmZ3rmdximfA5mdvBmf9Kmf+cmf1Tk0eJAMYBedsKmd9rklxrAMu8AIJVmfJDmcv4mf/ume4Dmf/Xmd+ymhBeqgbvIIvYANv2Cg4VmEckaigEaie7ZmhKZmf5ZjvZAM3fAN5sANM8oN3dANNDqjNoqjM+oNO6qjOPqjNBqkNNqjQHqjRuqjR4qjRSqkSpqjTlqjUMoNTPqkSWqlO0qlUXqlTbqjU7qlVYqkWPqlWhqmSzqm/kNKpmZapmDKpTgKDvzAD2uapmxKpGcKpWjqpXKKpniapXt6p1Lap386pnnapoVKpzxqp4MaqIkqpnoqqI1qqHMapd8ADttwDLpgoijKonq2onC2YxQaooTCCLEACKUKCI7gCKZaqqiqqqVKC63Kqqoaq6Y6q6b6qrKaqrgKq7mqqrdKq7y6qsB6qsIKCL4arLuKrK1qrMOarL/aqsXarMeqq8oarcw6rb1arbVqrdh6rdLqrKp6C//AD926rd5qq9kqrNoKreSqreq6rO2arsT6rvFarev6rfdqrq6KrvU6r/tKrexKr/+Kr+U6rLCwB/fZoOCGoRdqofCZoRHK/rAPm7AD6p2vIK7n2bDEqbEQOrHtqaEYi5sTKrIfS7EL67ARi7InqxUWyw8gm7Ibi7AmC7PdKbMcW7MxW44jC7EqO7MiurM9W6ESe7M0Kxcs67I8a7MZm7RCq7Q4y7RP+7L7qLMdW5s/u7RR67RYS7RQqxWbQA6AWbJNu7Va67NU+5lTO7TERpd5ybZuKZZA+ZaiqJduy5Y7GZd3O7djKZdfeZR0u7dxm5N427Z6K7h+W7iE2zhyO7hw+7ZCWbc9ybiPa5Rpabh5G7l/27hgebmHu7mW67iYK7lUSbmIu7ify7l9A6obmptXi7RZ27pj+7plm7ZBS7a0G7u2C7Sh/qq7qvueuTtyJOuxVuu6vnu0xBu2XGu8wWu2DDq7u1u8rJu8c4G2Yiu71Iu70Iu9w5u9sBu9Zwu8Vbu8D6q948u92wuP04u85nu95Fu96cu+61u+7Ou1YKu8zcu7qfu87+u8x7uL6Fu7+1u/1gvA4Gu/62W0/Hu7A+y9whu/Ddy+/7uha1u5pau5puu5FYzBfUu6E8zBYUkL4nrBGty5FCzCFkzCozvCHZzCGzw6iqvCJvzCGYzCMMzCK2zDNHzDh/fB/BDCMyzDVdnDQHzCQhzDJfzDEgw6+IvA3cu8Any//hu7BxzA7uvA8PvACfzE37vAy8nAV8zE4lvFCtzE/lTsxeabCp6Sv2GcxV1sxW0sxmBcxuEFxV+MmOr7xnWsv2scvnisxmkcx328xHasunMsyH7sxnpcwIGcx4Z8x6u7yIoMyFMMwQrrxIyMyJUMyX+syYdsyZ2cyZz8yY3cu4V8FEicw0aMyj6cykRcwzjsykfswq0My4EbxKb8yqtsy7PMlKesyr0cy7zMysCcy7j8y7fcy8FszMisy2VZxMc8zM5czMvclrJMzLRMwkosyVjsydlMx47swIigDMawzQSMydxMyub8yAVIyOlMzmQMyugcye2MFVIsz9ocypfszqKMzRW4zvG8xYkMz5usz+9Iz/9czvXczaPMzgad/s+/y8YDrcVjPMn3PM4xVdASbc8B/c4Ifc4cvdD+F9FwvNEMPdEaDdFdfNEifdJ77M0Cjc8lzc8hzccuXdEYndD7bNEXS9E7bdIvndEe7c8hcaIpyqmb6mdEVtRIfdR4lqmdytQqmtRKttSB1mOC5tRVTdVDfWNQPdV51tWDFtVZHQq5UAtfTdRmvdVhXaJcbdVpjdae+tZS3dZKPddPrdZgHddYrdV0LdZX7dVDhtM23dEk/dOEfdP9TNM8DdSJ3dM1PX+IPdKC/dEq7dOHLdMtHdmU7dgzndnYB9krDdCL3dmYDdoHbdiDLdlBrdmKvYOfXdmovdqNzdqpzdii/l3aDb3ZpD3Il63Qqs3Ztw3Tp82+ePALXDPbsW3brz3Zvx3B0VzNu5zMz6zMz83M1AzN1tzMibjDtezc1w3d0my33I3d1j3d3l3dfDfewtzd5c3e0u3e6/3e6R3d8F142z3E8f3d1D3N6i3f4A25893fqBzYyC3cvq3bud3bD5DSzI3gA87gx/3g4sfbDn7gEF7hsn1gC37hyd3grt3h2ejhFp7goz3iwB3FOo3hHC7iFF7iyu1dEx7iKV7gtT3jVkzcxi3jtE3iLM7jMS69MA7kD+3iNK7jJm7ZQv7hSL7iPl4S+H3eAJ7f5r3fUP7k/j257U3fAS7l4X3fWR7l/liu5WD+5U4+5TLs5VWu31ye3WSu5uTN5v9t5aIr5mi+5XCe5nZe51f+5np+5mUu4Exe5EO+44BO4IGe5Czd4oce2jUV5Ije442+6Ib+aFVQC9qx5JBu2pKe44W+4TVu5LAd4Soe0Bqe6Jeu5Jse6p7u0I5O6Kmu6aK+2KT+6KcO66qu6Jne6a9u66bO6pg+J7Le6rnO6a4+7Aa453J+7Gg5536e58je523O32Ne3yDc5WGe7HP57Hi+7NBO5cy+7Xie7Xxu7eHu7ONu7tJ+7nT+7eJOQva95uSu7NfOt80e7/CO7enu7cM8671O67uO6sI+nuF867jN65Fe7KUu/uH9rusLf/D7bvDEDvEAL/EIX+siGOwU7+8V3/AX7/C4HvEYz/Ce7evBHfIT3/EE/+8gv/EjX9glD5EKv/Iw//EnT/Ixz+83//AmH+wcz/Msf+Q47/E67/OgLvQyb4B7Ldd9bdR1ndVNrdZO39VQz/R/rfR8jfRNz9ZVn/RXv9Z3fdZTj9dgT2O4wA/zkNdUz/Vhr/VY7/VuLfZuv/Zdf/ZSH/d0z/V2r6lw/fZ6H/dq/2M03/I2n/MqP/NfAuxDv9xFD/Qor/GEr/iDD/g/D/mGj+KN//hB7/iZT+E9b/Saz/mLP8+Vn/Gj7/KRT/SO//mTj/gG7vm+6Qyvzw3//tAPr//6pC/4mG/6iY/6q0/kt8/4tl/4BwIMOkQtuAD8l//7pZ/6ySjvgIvuz6/uzZ+5d87u0W/v8y6FnEQt3eDm1+/81o/v3B7n9R7+2i79dej900/v9w79+Z7+oUv+7S/+1B84w6BDutD95V/97q//5S7/5g8QePBwIUhQYMGCoRByOYiwYcGHCRdGZDjQoUWECi9OxGiwI0GNEC0+IPjApMmSJ01uUkmSS8uUJ2OeZKlypkuYL1vWlKmzZ86WD3ii9EkU6M6jP20WXZnU6NKgQ3FCpapS6k2sTIU6narUKtesUcEyvbm16lOvD+r9Y/uvG1q4XWmO5Wo2rVy8/nbjhkV6Fm/Zq2QFi/XL92vhwX3vGp6LuG5guor3Jj7slXFTx371/qXceHFnzJ8fR767+TJg0nFNg0aduTRk154nj44tF1jbf7hma4YtWjJn2r5fp87be3fl46qNA/99Wuvyy6uJS69NnTny68qJtxauvTb35MW3Px9PuLv47+TTmw8PPjvetW7Pu3fO/j191urn62/P/77/+prLz74AsStQtv8I9Ck66ECzLrwH34uQwfIEnK7B4PpT8MIKDRzQwtpuy22/DavDkLcOETwwNA1BPG9CB08cbj0XIZTRO8tiTJHFBGuU8Eb0SPSRQho95LBIFT800sQd1XpLyCVf/gQSvyOhTLLKFqO0sckpAVTySiapqoijhbgIySMyN1rozDHVFKlMNimS8yMz03zTTYnwbPPOjOxEU8869ZwTTj/3/LNPQT+iKFA+D3UUpEIHXTNSRek8JpdEC2X0UUkRbdRQUDcFtdM8PyUV0kwBjbNSTVellNBUPxX11EVdjbVUTlmd1M1TZ9VVVltNpTPYXGEVttVXVU0W2GUf9bVZVBsFZhtxwrHWWnGqvdZacrYNJ1tvwd1W3G27HVfba8nFFt1rzU2X3W/hVZfbcOW119tw3F23Xn691Tfeft/F9995wQXHGV9CJXbUYaGt1eGGb1UYYmOLVVbihzGO+M4f/rn0GEkeV4Qxwx617Bhk6noR55dGgnL5ZZhjlnlmmmu2+Wacc9Z5Z5VQMSYcW7zEsmQwpfzYypC/THpokXsjEumRUUS5yxKNnvroLK/0JRueu/b6a7DDFnvslz0Rx5aqt7x6baipHlJHtrNeWu22sSZ6bqvrjvvuqGfsiRFwyBZ8cMILNxxns9M+WW/G5e4bR8fdNvlptCjnW/Ki6Y7c7qY5V3o1ZHg5fHTSSze9a2N6eZvkzvduvfHLPWd6Qbhhf31z1z/HHG/NY18qnNODF3544VFxZnWpbddd9jCVn/15knpdWHqKdz324uuZ1bhihpHd3nqLtRcJeOLLN//8/rDBAb977MN3dvpfcWVffPcn/t7T+jPO/n07qb9fflptLH8CnB///hetAXIvgAqMn/3Ghz4IRlCCMgvH+hZowQbqL4EYhNazJObB/SGwgA7cIP7atDjcOa95KWSh71SYN6IEboIzpCEEZZg5FLqwhbfTYQ95+EPasW55uYMeDH04xBf2jiA3rGETnVg6Jj4uSDtEIhWLqMQqHtGIQLxiDrm4Qi2CEYhRfGIZzSi2KO5OilQSYxa/uEU3xhGOXbTcG7FIx9pZsY1kPGMf/YizNDJvjm3EoxALmTw9elGOhGTkIB15x0ZikY9/pGQlXRZIIkZSkYf0WyIh6cg6LvKR/pvUZCg5CbkjTtKSq6wkJpNIylGaspR5DOMgNxGKUGxCl7rE5S53GQtf3jKXvuwlMYfpS2AaM5jF3CUzf7nMY/IymsIM5iaS2cxpOpOawbymNKH5TW6CE5vifKYyzTnOcJ7Tm+rUZTeFOQ5WxjOe5EgnOu25TmSSc5v3bKc+talNa/ozm9MMKDv/SVB3HlSfBeWnQuuJT4jus5zohOUnLVpRjMoylrQcozw92krkdbKWF9UoSTkqyk+WNKMnPeUUR7pSQ+7xozPtoys9CVNEvlSlO2VpI3ka040C1aRCxalIO0pTpDrRpjrtaVBzaseiovKNP30qSqPqUqhS1ahx/lTlE4egDxYE5Qb/COsDdOCPsu6MGmkda1vgIbMf0IMESX3AUrPa1KFWtaVsdOpW+ypVq2oVsHsV2iyF2FUnSoOsYuXHWx9ADX6kVWdrPckN2mGSIeRjBXSlmV0Di9er8jWvfjWsXqPXQBDWL7UjXK3/QqjBEcL2giacLQAzSECBkO+PN4CHNCRrkhvIQ65DsMc9WPADfbClHZnlB1tOYNkHxJUEiv2HPEhAWeBe9gGZXQFyncvb7ebDGXKlhnLj+tx/dJceJ6BkBWl7WwZ2EH7eey1u4cvBD863fbG1bwhbi1r90o+/8c1v9d4rXwPbFsEX0W0fdWBd34q1HdJY/oEO4LFWG7D3wcEA6wN8C9249iCs3MXuA9qqXA+H9cE9WC9v41oM66bYt5BtB3jbi1//BtiA9SVwjhMswtoC+b4HLrCaQlvYv2L1s0QVrJJnh1galrctm1WJZS1LjRVQlrryCIY92LtWEMv1xFlm62UfTIKv4uYEa/VtXK2Bmxr3lhy9/e0ZPUtYxTVZtEfOM2g1qmckj3awpSVtkvccSig3McItsawO5kFeFlB2w15+LAvA++BivJXEZQbuWxdtEkev98UxNskP8sEPFq8XpJPzc6uZ7GrTGjrQsAR0n19961gL2smEBmyiaxjhT1v2q5cFM1sefQJKr9W7/JBH/g+S+w98RJrTJpFGO7xb3blWO7rkbUtYpcFlfTiWknfm9a5lbetc8zmkg1Y3q3FdaF0fGtbwVqSvOXvv0ZH73Os2d7xnXWt+8xXg7k73wHFocN61O0n2xnfDB6dvf6Ob3ghf47/nPWjW6piEA8axajUu2yEruMg87njGOdJgh6e8dO4VuY8P+F/6lrDlHv8xzPcbZBC6VuZCXjDJiexyn8/c5C//uH1RrnKkF47lPB/5zm0uYJwXvcc0J3rNbaXwhFNcjVsXZMQFxPCkhz1nEMd6xSXObq8TfOJN1XrXy871TO7bQ2AXe907G3CLvxvtb3d726vi91cC/qaCT6Xd/g2fPryfvd98j3vaD872iy+e8HfVu+Qjjx+6H17zKiH75Jdc8MvnHfRA9TyeE396te/d85nf/OY7H3rFy7vysh997Uk79KAzHehOl3rJdc7xn1M99746euuNH7OlP33HvLd686v+/OH3/ue/j7rzo2995kM/+9dn8PG9P7PkS1/o1A+57oW/ffQDf/wAThPjAw971D9+9qLfKuu/L/bXzz/29Fc9/FNvedLzP/mzvf7Tv/jLOgFMGnG4PwZsiUbgmv+jvbUzwAjkPwAkQHMrvXKTwALEQA68wK1qBrRpwAb8hV84QLNDQbh7PwocwELTQLlzwQ6cQA+0QPygBW4g/sEGhCcV7LsETMEK3D8hdBEYdDwEbMEjrMEhNBJjOAYd/L5sUJ0ebDz3G7wfXMHKuUIfREIglEEQnMFBMwZuGMEnPDxeAIeEWUIv/EA2tEE3VMMkJC2JmkOGiiiHyieDGqhqSig9ZKc6nMM7nCg77EM8bChCFERAPMR+ysOF4sNd2gVnKIdxmERKrMRKJAdLzERN3MRxwERO/ERN9ERQHMVxqAd+qAdSJEVRTMVPXEVW3ERXBEVyUAZaAChHZMSHSsRGFKhdxEV++sNApMNbNMQ95EU/HMZBLEZzqkKm4kIsbEYlnEIWjMaTQIZ/OJ5ppEFtBMMv7MY2hMMujENu/hQ4LaTCImRGyqPGNXzDA7RGbLRCZ9xCdRRHb2THIJTGRDpHfSzHbBxHe1xHcNwddzRHfoTHeQxHhHzGdNzGDCxIaGTIb8THh/THgJTHuxjIfqzHiiTIeOTIg1RIUdrHjszIiLxHkwRIiVzIuPAFchgGj4TIf6THkkTJk5TJmExI5sG99Ks+7VM/89NJn1S+jeNJ7ivKnSw/oQS5njvKpQxK8ftJ8mtKomTKpnPK/mG/npxKq8xKpHzKpOyvqtRKsexK7NtKozRLqtw9tFzLsZRKsuRKtywJkfxIi6TIlPw8mNxIkrxJkDS9msTJl7TLv+xLIwTMvdRLg8zLu/RL/ppsTJtEzInUyMXcQL6sy4YcycQUTMc0zMyUzMG0zJl8zMmMQdH8zMD0zM0kTHTES80szdQEzco8zdBkSZc8zNEsTNXETdiEzKlySJVETdcMTs6MzNAczhXByM4sztxcTcYUzuXUQKBsy7B8y7OUTrW0zvNjS+pMy/pxR7iczrgET/G8zu3UzvAkz/PMzoeIyvFUz/LEzuh8T/lMz/ikT/YMIe+szvlsz/rkz/t0T/vESv0M0Jg7oblUTNO0zQRNzthUUJNATuJsUAblTdYETuOsUHLEzAil0Oa80A59zgQshn1QBtmU0A29TeakTA71Kd/EUBP9TeXcTRQ90Nb0/lAVndEW/VAZjRIatVAQ1VAYfVEXXVHStNEi/VG6LFEiTakcvdEFPdEnDdIlTdEj3dHXVFIcBdIhBZH+RE//FFDu7FIA/dIChc//FFM0PVM1BVPzJNOb208vjdMxldMuXdMyhdM5zdM0ZVMz5VM83dM7JdA3FVSo+1M7HVQ3LVRCXb429VIq1U0sjdItlVQdBRldUAYpnNAsTVIHdU4r9dS469EYjdQr7VQjhVSkgVAp3VQELVVNpVQnddWuEFUhrVRTRdJWBdVUvUZS1dVXldVVhdUqDdUmHdZb/dRTfVSsU9VJBdZm9VUodVZbzcdiRdVfhdZgldZYDU5mndZo/sXWZ01WWiXScWXVGsXVc0VWdMWLbt1Wca1WZS1XYYUkXczFYLRFY/xFZKzXQkzGY8zXiAJGRcRXXwzYfQ1GgQXYRSTGfy1YYVRYbXqFXOime0UoiLVYhyVYhtXXi1XGjTXYjrXXgcXYj33YjCVZf+XYk/XYdYpXeJVXbTXWa31XLfXWbAVXmw1X1YRZnHXXdR3VY+1VmuXUmf3ZWvVZdU0Knh3aXGXadBVao53SpY1ac/XRpCXWmkVaqL3aoO3aouXar91asfXaWppasP1Wp7XasZWbV/iFWlhbtKXaeXXZrB0kQEVUOj1URU1URu3TQOXboTTUBsrPMNXbvhXc/r/NWz9d1MBlXKUcT8NtXMB9XMVNXD2NXMq93MWd3I8g3EbVXMu9272tXLwF3dIV3cMNT7ol2rg925tN29BsV5ltXbh9XbmNWSatW2ulXbK1XddVGtndXd+tXZ393Zyd3eHt3eIl3uOtjeBd3aa93Z5F3uV9IbNlXq1V3uYlzbZ9W+3N3rD9Xurd3usVX+Gt3vBNX95V3+RlX/Rd36lAXckl3dE13fqV38zFX7Ck39Tl3KnT3//F3P213/7l3/kl4AOu08014PwV4ABeYARuYAgGYN+bYAeu4NC94OCj4A3W4PXLYAsO4b+F3qc1XxJWWxMOi18ABhYGBmNoYRZu/l/4lWEaft8aHl/wnWEb3uHt3Y34wI1/mAcouOEcJmIcPuLzReITBlr37eEl1olfAGK2IAYdduLybeIiDsmX3WLdfWKp5eKq+GFjg4IqzmIrBuPoNd4kNmM2VuIrhtIoxg0qLmM3RuMSxmIc5uAPPl0PhkoR5uM/vt8+/soH9pMfngcyKNxALuAIHmA99mMQjmRAluTRHWSvvOSy9NtJ3mRBXuQE9uA4/gdjGFD/xWBOZuRHJmRT7mRKRmX29OKqZWI6XuM65oq1EOIUtmMUxmNapuU3NuJehuW5RbgonmNeFmbcRebp9WVdlmVgVmbYPdoXqQcyzuUu/mUebuPc/mXdZ8bmM6bAXkgGZXAGZSjncl6GZTDnc05ndUZndS5ncm5ndjZnd5bnd1aGcnjneqbneV7ne45nftbnflaGfTZngEaGXejmZpbmYIZBb9ZmaJZes7MFcRiGWngFjM5ojd5oju5oj/5okA5pkR5pkhbpW0CGb2gZiH7oWuZmLb7mhf5imJ7ppWgEcVDpMpyZW4gilm7omI7lwuJXRKxYlhVqky1ZjU1ZkF1ZkVXYhHXYpy7ZqFbqhaVqXHKGXMhpmxmGYYDqg1XEqTbqsEbYr+5FpEZZo07qtEZrom5qrwaniFbjlk7jEl1Ara4ZP8jBub7jWY5rrHXpbwbslV5o/vsjQSbqab+2ZsFO7GNGbFot7AY87J8e5slOZoeu7GVm7L4GNMhmQMmmabpW7NDGY8fG7GiW6Rrs7Pv77MX2adDmayJOZUz+TgZ2ZEvOZMTtvruumaW7bdpu5EI+5U/2ZAlOXN8m5doOblYW7uJmbtuulOLbbZfpbeJ+7lYe7utu7uXeblfeXM1W6Nfe5QhV7e9j7dHebNOW6J1Nb7l27dY+MvL2PvOG7Wzea/E24tIOb2eub39jvSOIBhVQiSFAhxE4iWrgB36IBxh4gGgwgZf5AXWQmSRIhgIPih3IB3aQcAqvmRuos5qZ7/vm7+8W8T9jb+w9YhNk4V84hZ4w/kEX14WhWGFgcHGj0AUXZ+GWOIVhcPETjIkUn3EWJwoe/wUYVwkZp3GcsPEfZz1roAcqe4ALJ7XH2iwamAcS4IUQQAIZUB1e2AVfCIEfeCsk8IVeSIJd+AAz/4AHCAJ7WHAZ+HKTQIJqYIdd2AUsf/MQeABesIUvZ/MFNwldgPM9h3Mk6IVq8PC7s+/9Duzzxm8TF236BnQg1gWZcAUgRoahEGNzMApzwI16aAlrxI1TSAldmPRKv/RMx41Nx4lOb4t6yLwdUIdoePIi+IVzmCuTwDJqU4FoOIFo0AbjkoZ4gIZ36AF4EAJ7APYWAPAeiAcRgHJ6eIFqGPZ4KHAj/piGd7CGeUgHaKD2ERD2aHiHHYh24Bp2eBABcH8H4uqGDtMZEF/0wdZvhk5R2cZtx7Vu5yawXTAHcziHczAHV4CIWeB3ggeGM8kGf+d3ZECTbCD4c9CGhQCGfyd4V2iIfe/3fw94gxh4gjcHg0cIhJ/4hR+Thuf3h4/umPnvFND1kxiCWz8JlqewXv+2ZgiBaECBIaAHY3+AGXiGaLMBdjh0zLr1m/ewADcxFtCBdWBwFDD6aEiBMHd5XJcGdQB2Xod6eNCBDO/wnaHu7MZ37sbufF/l7v565S7g41Zksyd7sQ977S5750Z5mBGCaKiHfICHCt+ul8/1zQoCejCB/l4fBl+ghnZ4euIy9h2Ihxg4dGS3h6bXexJ4+iSQhqPvcKVn8BSYfF4/gajfe2l4AV9QBhHo9TC/fK7XGa8f+w6u7rNve7h3e7B//f4dcUaHbWRAhnhPbZ7BMiKwBweXepifh3rYh7CaeXkI9uNnhzDnAXr4Bgx/rHc4CSPAh3VwtHs4d+BK+qW3/nMnfXiY/qU3q3koh+7nfHg4Amk4h3xA9Jl593nP7/dmafhv9Pe19H/IfZiM75zpdZhJgmp4coB4IHAgwYIGDyJMqBAhOIJcuBR8aHBTRIgOLQ6UWJDixYoeN37MiFGgRoIcRYYkOVLgSZUpH5Qc2BLmypg0/ie+tGnzwUydNVfyzPkTZ0eXRU0KfRn0qFGUIJnehLrUKdWmMpNK7Tk0a0FX//5B3akVK9KwW8tWjSqy4cK2bhFeI5HQmjoRb+/izUuQrVW1V80qHQv4aVqfRAuf/Ys4MNm+U/saJgw5McvGfisfjYx2MuPBaR9f1qyYM1fPjgUvlvzAK9jUm0NTBi36smzKD/nqza17N2/euGfXthzcNGbXpy2LRQ4UNenXs5MTh26cNmrgzGEfbn48+nLl2bGXni5dIGviw6ef115c/e3e7t/Dj/879nXr3lU/7879e37+tvWLByB7AoL3mWBc4IHHQwsmuOCCoTiIoIIONkjh/oQOQmhhhBUyeOGDG3ooIYgRcpFhhyNqGKGJD3HIYogtPrSiiCmeqGKEs3xFo4skygijjyGWiGKNQ36o44wdhhOfkksyuVA4RsIYJJQvAtkjlUIWSeSRO9o4JZYxfvkjj2Fe2aWWYprJ5ZlVkvmllEOiiWGbRr6ppp1bguklnVbOKaeeWtaJZ5xZPjTLLK78SaigZfq5ppt8Tplkk5NSquSTjqa56KN93hnooHh6yminkGLa6J2fhsppnqWOqmqUkBY4WqzU3efcf/4JVx99tcraH363/pqrcrhVWqyxeM3XWYC4mqersgMyi56z4UEbbLO8rqeWfftZKy226c0K/u62y3arnri7cmurUMQe2667BiVL7azjzUugr+pem26vwOLrrb7Z3ruvv+T2a+60Bn578HYEC5wvwwDz2zBikr5bscXfOFxtweEqTOu/5z5bb7QGJ1xyZug+DLK8AUMs7Mcd08uyygi/rJw3flicc7u6IJOxyOVybHLKMNsbccs+y0x0tONqLDHJNUM9tNAk7aIL0kbPvPCAvDCjs9eVgmPK1S5LHXXTRw98dtYel912U0z/vDHcSU8dt9NBE1Re2naj/fSyxzCD89eDv/dKN7+QrbbSQM+N9eJyo6x43XQXtUkooWySeeaXa655LJ1bjnnnnI8ueueflw466Zqv/u656qZvDnvooG+COuuytz476LbH/rrvu/9+e/Cud47LV6kjf/rwugsPfPK9P58578xD3/wv4pAzTvbjcN+999+D//324ZNfvvbmow/++OmnPz453PCCu/y0T5+7/bLXvvz99Os/v/PNA7B6xAsg9QqYv+jt738CLGDuDkjABCoPgf6LYPPw5ja+rS1mjpvcBvP2lbGBcG+Uu+AIJWc2DD7ubo1LHAo5yMIStvCEJVlhCP1mQhJ28IJ6s2EMcfjCHN4wiD0UIgyLCMQhItGIP1xiCGkowiMqsYYWFOIOp5hEKGKRiU/UIg+juEUpOrGLWQRj5K6oxTBa0Yti5GIa/o/oiqqRMWRqbCMb0WjHMs7xjnIc4xf7uMY4royPegxkHfHIxz/6kY6ApJkPF6k1MzqSbUQ8pCITOUhGTrKQeyQJqkh1KjYlClSe1FSmPvUqV4GSVaJE5ZhCeUpXpvKTm4JlK1X5SlvGkpSAGmUnWVlKUa2Slr9UVapCWUxVHlOWwzQmL4F5zF4K01S6bFU0FWXKXF6zlsrcpS+lmc1lIrOZs8SlNqcZTHKCc5vWBOYt1XlOd7bTnPH8pjfZiU17lpOe6ySmOPeEokoiMqAAHeglH5lHQ2qSkJHUYEIxCUlLInShRWuoQSlZUElqK6IQ3aRER0ZQPLriFB1lnEYF/npRho4UchzdqEJZ6tCDrtSkJa3kSSeaUhXOtKbfqaJOSRrTj/60pyptqUyDmtOjGjWpRAXqUp0oVJwq9aUWRaq8eEpVqVIUozBt6lUrmlWUutSrN+0bU7E61vM8laxpzaBNw4pRq0ZVrG4Fa1G5GletTvWudC2rXOtq1rm29Y/mTOZg+8nNaq4KnvfkZzcVhaN/MLOxiZXnYiOLWMJCE531ZOxlDUtNze7TsqCdrD5Ji890FlaymHUmqTKr2HyedrOifS1qXUvZcj52tretLWtV69l37la24fQtcTtb3NGudpy0Fa47k+tP40K3RnzF61cDO929ws0VyOgZYD26/tYUqrWr1D0reNnqXfFiF73W/a4L/drX665XvefVa3zpO1+74vev7h1vd32a3/eyV4Z5/S9/A9zI/g5Vv/C9r4INnEnythfBUCVweu3r3wbL98JydfBD91thCtcXxAwGcIYTTGILm5i/Hg4xhlE84RaLWMMFLvGLTxzjFH8Yxjq28Y5VvGAZ55jHQvYxh7fa4yATmcZHS210lxva4TY5uE9u7m/nGdspMxm5Va4slLV8XCeblrNejnJpnXvYMaMZzGb+rJpsW+Ytw1bMaoYzb5WLoHrUQ7dv/rKUw6znK/u5y3Pm857JDOg1A7fQae4zoq0s5xn9GMcsHjKSK00g/rjeuMZJdnF4OW1eIE9605nu9Kg/LekRi/qvRR7wkUNt6Z1+UMKkbjWqXw3qWrs617je9a17fWpfa9rW/Vp1dXn962PLCtO0BvasKa1rZps62M9GdrNT7WxjSxvb1QYrsSEs4GI/xRni5sZXxC3ubss62tuedrahXd53R3jF2lY3veF9Mk/b+8DydrdAgPGVf/8bF+jeN7XrHe9It7vg+X5wuhfeYZoq2eDf9nbb6gHwr3QD4euet8ONfG1+T7zhBx+4xiXuFAbir34TXKADFwjBAbp85dLr3/JajvKaq5zm/zPGxf/Ri5srEOgEtPnLDZhzCfIP6dEjuswbePQH/qZc50N/esyTDnWcS53lVBc6zLlu9Kx/XelTB7vTyR51sWv9dyXvOKs/rnCCWPzfGV/7yCPOdnC/PeQETzjfNw5yfUMc33UXvN6n6O+A793veQc8yRtv98GX+u4UZ7jjCc/4x8Md4yIvfOUjD/llL57hiTe56Ol+b89zHvOXD9kwvoKLza8e9bEHfd9J//DO017xtZe86Wfv9t1Prh5zHz3vif/53+s++bb3uLWbL2zgTzzLgzb0oxU9/UXjYRi5+HP1D01n5kqf0d/Hspu9T2jzU5/76he0+M/fffZbv/3pr1EqkgEOcYgjHPrfPzn2r3/8+184AKD/DaD/9R8B/uYfAgZgAfLfAibg/jGgAD5gAypgBULgBOrfAV6gA3Kg/nmDMeDB+AUalbnf+pHg/J0g9qGfCr6fCYZf/MHghPRe6emRL3yD1RBODhIOF/iCOPDC8Tkfuylf8c3g7akeDR7hQ+Ee8p2LLQyfDkLh1yACOYhB6lkeEl6hEWYh8z3fEAIhtyUhF8ZXNrxCFJrh1/hCMVih7GEhG2qhG4ohx32hEKJVGLZdkonDGephznCBN6xh7i3fHXZhIOId9PleEMrh6QEiEd4Ru+zhI4LNHzIhI9phIXqhJCLi37WhWb3gCl7fJy4KxUDiKFLKpYBiDLYg/Hmi/LGgC5ZfKqbg/imuIiqu3yu6Ym+hoISIIinyoqXkoi2qIix2ojACYyyyoiwSIy62YjCqXxHGIUk5Yi9K427EC+xt4iTOYSIe4iBS4hYKUiVOHmxE4zSSI7JgIjdmoya+4SKmY+itIzYqIjxuY3yNYzna40JUo/GdIx12IxwKIj+2oyFSHjhaozje40Ga4zxq4zVmojs+o0P+40K+44x5oyWeSz0OhA68w0AcATTMQ10IxA/Ugwo8wBFIAwvkhjWQpFtEgwncxQ3wAz/Mwwvsxg2gpG4kQTKMwA7cwzywwwe0RT46Y0Sq40MK5ESi4z5KZBQN4y3aGS0iSVsMwT3Aw0DkwDt8ADXc/uQP6AM7PAAP6ANKHoEv7MID6IIu9EIIIMEPHoFdjGVZUsMKCIQu7EIvmKUvhEBblqQI8EIIPIAMxMAHpCUS2CUvoEJfCoRNPgAQ0IMJJIEM4OVd+uVY2sVfBuYDEGY13CRmkqVZ1qVAIMEuyEBZ/iVeBoE9wEBcHoE9nEBbmOIxwiZUGqNsNiUz2uZszmJuJuNT6mYtKiMyOuVzrckuGkQSUIM2VCVBJIE0yOUD/AA9oMMIWIM9sAAP0EM32IMKUIM8QEM89EBV2qR1Yqd2Nic1zMM63EA8QAM87MA6PEBcRsMJUEM6RAM7aOYNyMMQnAMJPINcPIBiWicJzCc0/rxDDqhnPFjnM8yDCcxnfQ6BPXRDWArEg6bDPbCAebrnA+jAPHTDSFbDgQoDPdDkA9AAPfinQtTDdm0XL3gIMiRDMmwXMOwIMKgoMixDhPACjKrojGiXi8IoojxIjSIDizqIj8bojNbojTpIjtZobeLmbgoncN6mk1JpMVbpb8amDC5hQ+IURurAOvxAcgrEEUxDOwClc8IDNaiAOVgDCyABDTwDPqxAXOrnd/6nm8KpnMalQOypNKiDNtxDMNhDEERnfNpDOjwDPVzDOkxDPTxDhg7EDcxDPdADDDxAEThDNLAnPaQDDAABPnQqhSbqNXilYmqoV+5Amjanhron/nyiwANIwzDs52KaqFvE3Vcgw0jc6j+Yg0uYA8DVQ0Egw8WdgkbowsXhoEDcwsXlaub9W6/exK/+W7ASxLACXLESpD4qZFESJURaZHVk61BWBEZaQz3cAz80p0n+5ECEaQ6cp03ewDvEQFzS6Tn0QDx8ALzKK72Wp1xKwwv4gjKIQDXUg1caajAAgzI8KDqU66om5mYagT28AA/AQxHEAA3UAwoAwwzcwzDYA8Iqw5feqUCIrEbuKcm26gpEQwosZzDM6g5kw1ucQ43uwkj8Qo0izk3crIoOQ0HsgpBiq0CcAtASxC0Iac0SxM5uV85KhNIiQ88SxM/WaND647cG/uQlbqu3huMMhavjYWRIgic7wCSeNWeYCoE+rIBNbig05MOFroB+BgM+1EPbrm3bnuyebmg5wIMI9AA9pMADxGc1yMM9/CQ1tMMOzEMJEIE9uOTIjqk0VKg87AA9lEM8/AI+lMM8oIDgEq5JnkPbPu7nvsDJsup7rsCGUqUR4IN7auRbCOWWJmXWHqVRYi1Dxq7tthXsAqRZfC1C+u7rdm1OmQO0yiPuLmW3zi7y1q4SBm9FXkTv+u5BAq/zJpKyJa/VKiW3Yq/sLi/XUq+2Tgb0Rq89Tm/VSpH1dq/yEuLWqm8/smPlFB3TgZ38ot3M1W/ZSdA4jO/+GgQ53O/Z/l3d0m1d/G6d8fyDAJud1VUdAv+vAnsd/gbw2DVw0BUdBC+wBEdw2k0wBV2wBleQ7h7vuPLvCAtE+b4v4KHv+hYk7aow+CLl7lIFCGvv85LwCJtw8T6cK+CZ+a5w+15tC4trEzUvD6uE+NYwKd4wl6bv9hrvDPcwE79wCLswC+uKER8xJCbx7UaxE0+xD2ev1j6xEH9vEK/FFY9vFsNwE4NxF0MxFf+w+4rVlfImlJ7ZJ+mvGSNkH/4iltKmlfoxH/fmlP7xHAdnHWcpHbPZkQxylB7yLWpDGeLxPfqCMewxIQsyICNyogXykxZyIvcxJneyJrcgGbPxRThhJNvj/hRWIfcCMRdsFxGTcizL8BqT8Sxfb0fYYLKi8ijyoA++8cGlMBwrcSsP8Qmr8S3L8hCbAjJ8g/6BwzNDMzlA8zM78zRXMzRfczRPMzhkMzeHwzZ3MzhIszV/MzmDczlP8zhjMzpTMzt78zaL8znLszk/szcUgxgIsxZLBM+QR6w9ADIgLRcn8xjb8hKzbxgjdCkn9EDD8gqdgjmkaHkMKzbosxezcj6n8RaDcUETM0EXMw678cT9wlfMA7JWdBtb9DEb9ELTkBwz8idbMidfcky7tCHD9EtvclO6grQCXDaIcig7GlBzmUwTdU17ck4vsk1fSFIfdSYH9UzjtFMP/rVR/zRUK3UqHh7A1exTFzVTV3VXg7JVN7VQxxlZLxNDG7NGI7NCszUZPzTAYQNIp7Rar3RbczS4enReN/RHDzNGS7FAjPS/4eBJH3RhszRfEzZayzVKM7Zh23VJvfU/xPViO7Zi9/Uvf7HE3DVmXzRnq3RHL9XhJWtiP7Zep3VId3Y8XnZm17Vlk7ZrZ7RN7PRkU/Zhm3Ztl7b5UjVX7/ZUezVv/7ZvhzVY03RwlzWDAEPNXrVZg59x11lUMzf5DXdvH7dMO3dzT/d1S3dxZ3d3c/d3Qzem1B83a+D/YWAERmA4lLcEduAGBuB6o/d5Y6B6798H+gFSe3d4E7d+/lP3cy+3WP80bP91bp/2XMdhLu9yRPjCOLxeZW82a4N2gdv2Xt/2aqf2PJ5ygh8EIozDKhM4bgu4QKPbg1/4Z/u1iKsXGWo4QqShgyN2bBt4jE+4hLt4hb92TeXhih9EH9Y4hfs4jSM0iZu4Z9N1hDubFV9xEhu5hQ85hJ/4sL34gIc4LQt5vSD5ESv5k6/1lG95t3kd/Waw/Ya5BT8wAHdw2I25mZe5A1ewmrc5mzedm8c5nPfPHet4/9YvmJ+5nn/5AMscnxNwAlPwnA/6/Po51m1w15EOl7d2laN2kwfIlddwlhP5oxe5lq+0o8t4jwP5h9OEpJMwpTt5pW/6/oxvWJSjuI3DeGMDFqjbMKeDuKazOiLJOqwz+aWT+rrc+UGIeonj+qgD+4HVuqnfuqUb+3+4euuCpjXQw7o6pzokplcaBBGAwwgop04eRDXEZDxYqrbzAzxYOzXa+o2jOpWDY39jN3j/936vO7pvN39r9wiG4m5MpZh+6SlIw0qGaWK2w1rKgF2W5n4+pmmipmWeqemS6DwIqFxWQzvwxmvGe6MJt7qPNYADd363OzBGvAhKfHW7u7xvfAla/MRbCHG+hXEiJ0EcAbP7577/Zzv8QD5UKAt8aDTIg4CmA4FO7ujSp7OfbL5Tw59K7MNHN8hjfMWzO9J/fMf791gz/vqSk7uqS3lNSfqXujxozoA9lG1y3gDM46tGRgMK6CcJYKqmwu2hJmrj/vyc/qk0OLy4E3vU/3isE+Swe7rcdzpsS3q5nmtz6gBNdn1I1mo1sMMPxIMIgH0KjL3EUuzZg2xl7mkQNOaepqpvjPuqX/7U1325dznnN7rns5Wr7/sNsMNUnsM8/O0DGOekykMKxPw80IMKbKg93Dzk3oM8+MLqcq7PT+o+oKR51sM+tIDlxz3mF7/mU6/dPz2mQ73xh++S2IJCXH0U9jqkW/+v+7oXKf/2gz7zE42r64UQPCEUVj/2X/+xz7oiLT3Hs7/IJ/1Xr7/797bJ3znEHz38/od8JcP7/V88xVd1/gMEF4F48Ag0SNDgwIIJuYRiiDAhxIMLEzqMSFHhQ4wCLU7U+JFhx4wXQVYsOdJjyJNcJKI0KJLlxpYxGTZcOXOmTZI7J4Z78BNoUKFDiRY1ehRpUqVDw/F0yfGmzI06U1Z9SvUpzqkwta7EStMpWJNhu6okK7UmV7Rhv5a1CnXnA4FC5wrdRJcLXr129wKt6zcv36B/fxKWGzjo3cGICzM+PFQx4L6NIU9+vLgyZs2SBXP2TLkz6M+XE1s2bPhBZNGrD4Nb+hp2bNmxXY9GrZo069umHe/erNtxat6Whf/Ofby47d7BcZ9enlk58ebPjScX/u0cOnDpw6tP517aOPbQx8WDj979O2vr5Kmb144+fHug3uPXnn0ff36l9tln7w//vNHWK089+gKcLz3kDHzPvf8EXNBBBOPbbjMCf4LQwgHlUzBB3w7kcEIAGSywQ+ZK9M9CD0cE8UOB+NMPxhjx4y9DDDfUMEEcQ2wwRRN3JPFHFldUMUIhiyTyrxpPHK9HFDdE8kkfW5RySCqPtLJJJqN0Mkcb8XpRxjDFRIrGG70U8Uoug9TxQzZXdLNIOJUMEsou+5pzSjXbPPPBJXncUks76cQS0D8FzTPQ+sZclFGiyqQQUUPX5BPISCW09EI/L61SzzcpNbIusa5SK6q0/kpli9SzTFUV1VPfamutV1N9K6dZs9rK1VFzFRUuWqUap9FgGeXCG1bH8tUrW3mtdVdmjdX1WV5h3XXaaKtF1ixsZS3JrZeaxTVaZ7WFdlxple2211uT/XbVcsVVt9VwwXUXD21eERZfGX0xxtpzY/VW3nbh3TbgbAcm92Bz2TV42X/TbXjduPDkNNE9Nc100E7j/LTOSS+W08yPOebClm7yPRk/RMYRw+OMK/ZU5JhdltTimTdN8+WN7wzZZowxBRlSimmGuWeg0cxyaJ2LHvkBX77RBeWoleLCl3FwOVTom5HWulCuscY56YnB9rrlnw0Ue2ufs1Z7bLbTNrrP/qVlNnvuteEGzRRkvgGHHHD89juccP4GXPDBAx/c774NL/zvwxdHnG/EHW+cccIhVxwcb4op6Ou3mc4Z7a7dFv1uUEn/PGyePQu989Prbrv0jmumW+7aab/dbtTJnj331z333XXbexcedt1H57144FtfvuzhcU+e+N+jD/556aun3vnsob+eeeSt1z5J1cHHfvvxuyea++bLX/979slvH/735T9f6fS9n1/9+C8MJZRN/Peff//7XywEuIkACvCA/0vgAAu4QAP2D4EQFCABI9hACQLwgv6joAIz6EAHbmKDGLTgCAsYwgeSkIMFBCEKRVjBErLwhC6cIAw9mMEV/sqwhSl8IQ5jqMMZ8rCGKjRhEHl4Qx/mEIkapGEHbThEJsLQiEkk4g+P2MMkRtGKWfygE5coxC4WkYtAbOIXq4jFKV4xjPUzX/7wdz/6sY6NbxSf++QYNDrGEY9uzCP61qhHP/Lxjn6E4x/VGEhA6m+PhUQkIQd5yDY6so5He6QiJ9lISkYybvaD5CYZOcdFchKUl0ykJUnpyUqaEpOV6mMoS2nHT4qyk648pSxjKclUmu6WsmMlKkfJy1pmcpWw3CUte0nMX6rSkMJUZittOcxmHhOXxXymM4GZTGZW85XXRGY2fUnNbc5ymsvspjiNuUmIMQxd7zonweglsHUi/uydCivYsRKmznTOq574jKc9HcZPavkrYu1EZz/1eU93GnSg/1wYPfdZUIIe9KEJ7ddCAVYVdF0rYRiNp0YvCtB4CZShCA1pREeq0HlWNJ8QNSlIUdpQlU70pA8TaUtnKlOS0vSmNl1pSiVaLo467KcBHQk5w6nNaEJTl0TFJjiXmktCOVVjRk2qVJ8qzaZa9ZtQBZ0vqRrVcXZ1q+VUalaxelRvmnWsaAVr6sS61t2ddapflWtbuTrXotr1qkitql69Sle/3vWveYXrXgfbV8AeVrBpjWtgySpIvDa2sGFFLGQVS9jKGjaxbj1eWRc7WbU+9rOMDa1nO5vZuoq2ybSU1WzsLLta47EWs6oFbWpHa1rUtna2uL1tbGsr290maqMeZSdPSwpTlurUuMTF6U5d2tOMCheeNQ3qR5WLXJ9CV57Hne5wm1vc61LUus8F73ajm9NrdXS82PVncru7XPZKV70OZS5801vfmJI3u9XF73q/e9/4vrS/2v2vc4NrXwGD5LKStS1pdctg3tIWwg1e8IR962AFV5jCvdVwhB8sYQx/+KiuVR5nPbzhEnP4wibu8IpTjGK2WvjFGXbxWxMcYxDPeLMBAQAh+QQBBgD/ACynADAAhgGqAqcODg4PDw8QEBAQEBAQEBARERERERERERERERERERERERERERERERERERESEhISEhISEhISEhISEhISEhISEhITExMTExMTExMUFBQVFRUVFRUWFhYWFhYWFhYWFhYWFhYWFhYWFhYWFhYXFxcXFxcXFxcXFxcXFxcXFxcXFxcZGRkbGxseHh4hISEkJCQoKCgqKiosLCwuLi4wMDAyMjIzMzM0NDQ1NTU2NjY4ODg5OTk7Ozs8PDw+Pj4/Pz9CQkJDQ0NERERFRUVGRkZHR0dISEhJSUlKSkpLS0tMTExNTU1NTU1OTk5PT09PT09QUFBRUVFRUVFSUlJSUlJTU1NUVFRVVVVVVVVWVlZYWFhZWVlaWlpcXFxeXl5gYGBiYmJlZWVnZ2doaGhpaWlpaWlqampra2tra2tra2tra2tra2tra2tra2tra2tra2tra2tsbGxsbGxtbW1ubm5wcHBycnJ0dHR3d3d6enp9fX1/f3+AgICBgYGCgoKDg4OEhISFhYWFhYWGhoaHh4eHh4eIiIiIiIiIiIiIiIiIiIiIiIiJiYmJiYmJiYmJiYmJiYmKioqKioqKioqLi4uLi4uMjIyNjY2NjY2Ojo6Pj4+QkJCRkZGSkpKTk5OUlJSWlpaYmJibm5udnZ2goKCioqKlpaWoqKipqamsrKyvr6+xsbG0tLS4uLi7u7u8vLy9vb2+vr6/v7/AwMDBwcHCwsLDw8PDw8PDw8PDw8PDw8PExMTExMTExMTExMTExMTExMTExMTExMTExMTExMTExMTExMTExMTExMTExMTFxcXFxcXFxcXFxcXFxcXFxcXGxsbGxsbHx8fIx8jIyMjJycnLy8vMzMzNzc3Ozs7Q0NDT09PV1dXY2Nja2trc3Nze3t7g4ODi4uLj4+Pl5eXm5ubo6Ojs7Ozw8PDy8vL19fX4+Pj6+vr7+/v8/Pz9/f3+/v7+/v7+/v7+/v7+/v7+/v7+/v7+/v7+/v7+/v7+/v7+/v7+/v7+/v7+/v7+/v4yzTII/gD/CRxIsKDBgwgTKlzIsKHDhxAjSmwoa5asiRgzatzIsaPHjyBDihxJUmQLPnJKqlzJsqXLlzBjypxJs6bNmzhz6tzJs6fPn0CDCh1KtKjRo0gL3vCHLqnTp1Cj8tzBVKrVq1izfmRx5YfWr2DDih1LtqzZs2jTql3Ltq3btz4jwIgAt67duwlVYPGBt6/fv4ADCx5MuLDhw4gTH17aVLHjxzoZQ55MWWYLPWUqa97MubPnz6BDix5NWq1cuqVTj44Qw4Lq17Bjy55Nu7bt27hz696t8Yi/dLyD331hCpTw48iTK1/OvLnz5zJPQ59+1YQME9SzQ63BbZr27+DD/osfT768+auSz6uvKUNbsPXw48ufT7++febS7+vvmH+/f4wvoBLKfwQWaOCBCCaoYFDpLejgDfY05uCEFFZo4YUYZqjhejDkAMOGBLawR0oglmjiiSimqCJkDa4YH1USuggfC1h4JeONOOao44487tRfj+KpcAVfQBZp5JFIJllki0pCx2STzpVSzXtQVmnllVhmqeWWXHbp5ZdghinmmGSWaeaZaKap5ppstunmm3DGKeecdNZp55145qnnnnz26eefgAYq6KCEFmrooYgmquiijDbq6KOQRirppJRWaumlmGaq6aacdurpp325AosroJp1Eomlpqrqqqxi9GSr/lbBCOtXXNk466245trpj7o+JSSRvQYr7LCJvkrsUMYeG9RlmSnr7LPQyslrtD+x5hq12Gar7baYysptTy+cYty35JZrLo7TnjuTddipexMN23jn7rz01ptgsvaqJMM2VObr778Am5duwCMNTHBIAQ548MIMNxwcvg5rBGGMEVds8cUYM8duxh6JiCrHIIcs8l8Qj6yQtyZLRKOtKbfs8stfjXLKKDDXbPPNOOes88489+zzz0AHLfTQRBdt9NFIJ6300kw37fTTUEct9dRUV2311VhnrfXWXHft9ddghy322GSXbfbZaKet9tpst+3223DHLffcdGO1BiIERYDa/j9L4D3QXLXBMMNAiFBiw0ARZANZK2sMRAkleS9BOCKDCxRB5QJRPpAJ7WYuueURNJ656JaTXlMw/gwUjt6Epz6QEHvLBsPn//jjTxSIb/NYBK2UMpDteZNuO+0R0G476ZwT5I/voPfrT78mRMC8TYhMjwjrAq0x/T+wx4aI37MPVIoph1uuu2O8k26KKZGLXwrmxQ9kSim0Jy8+6Xr7/U8pyIeuIfB1C+BzpkQ0AArQLDPAXNCwd8AMjSMcRLsO0QAHmyXQLmgGxKDrrmRBoukhDxHxhP5GFg4IQmSD/4hA59ZgwCXsLQoGXMOHysIKG0wvgxGYw+/8Qbw5wUAG/gPBgwG9MMN/fMGAeMiBWejgiVTskCAwAKFAbOeFv1UxTrFLYN4IYgMFxm4sqEACF8tnOYJoEXEN/E8GgcaMfqXxjXBU0go6F7ToEa2NccyjHoG0xp+Jw4R7DKQgB3kcOw7tEpAjpCIXeaE++syRPesiIydJyQQZUmhRuGAlN8lJ+kCSZ5/cWSY7ScpSrmeORMsBGU3Jyla60iyh1BkiX0nLWirnknX84s9KaMte+jI3scwZHn9JzGK+BpVDwyUb3WjMZjqTM8HE2R+fSc1qWlMjyvzZLK/JzW4GJpo3A6c3x0nOcprznOhMpzrXyc52uvOd8IynPLdmghUMZA4G/oxC564gToZI8R+nQGE975nPfRqwDvZk1UAFgs8N6nMg/EThRv4ZUIIs9B8NHchDBRLRgSC0VVn0IhcVCJJVptCMIh2IJDc3z5a69KUwjalMZ0rTmtr0pjjNqU53ytOe+vSnQA2qUIdKVBOpYhWqGNoMInGHojq1nSW7GcqAVqunWjWdBtOZXoB11a56M6o2A2vNmOXVsnYzqzljDQbMyta2css3wBEaccbl1rr+Eq0425jQuEMNu/q1l2KFWXuY+dfClhKvN0OszRJm2MaaMrAvu4E7KObYylr2Uh0qItBeMIpMXPazoA2taEdL2tKa9rSoTa1qV8va1rr2tbCN/q1sZ0vb2tr2trjNrW53y9ve+va3wA2ucJUGi1jAYmg/4EMShstcniHCHzQTGiX8QYqhyeAKNGiudnGm2JrBAAsk3a54Tfbc6AatvEPzgR6OMN72pqy7MLNAa9xL3/o+xxP+OMXQtGCKMNj3vxaD78v0GjQ7cGOEAE4wwdArNDpoww8KjrCEJ0zhClv4whjOsIY3zOEOe/jDAF6C6RgYBR0ibm8zMN0MYrcG0tmAji0eiAsJIuK8vdDEoBtIis3IYhfTMVKoGwgzGGgKFDKQhRucsUBguME50NGApWBgkAUy5L0V2cYDQbKMX2hAJ1fKFMwYyCXs949LQMOinYsC/jPCLJAXQ3TNEE0oldn8D0qQGcxiJrOZ0axROLd5n37+xxXkDOKhZLNnnNNloRfNaLH082U2mF+jJw2rQ/Ms0datRjUozWlVPdplNhhmp0fdKUvvDNNCM4GkSc1qTX26ZTZ4datnTeuSILOOczBdrXfN6177+tfADrawh03sYhv72MhO9rlcgeNLXMKiV3Cc4Ta3ymkLZAWEpkS0BcI5HFMCx/8wQbOfvblt19na4a42GbFNEG1XqndPRByOh4c44/kDeU9mX/N+16+53NDI8+ZhvXeIb+Xpe1KtoN3j8kbG78EPcyKsHx0RgWO9kQ4RpJuLwhNpuYZrznIQR4TEJAlCcWWnxtQ6M8EoTc5yN8naZLGWqM9skOuW23xNKM8Zqg0UEAAh+QQBBwD/ACymADEAhwGrAqcRERERERERERERERESEhISEhISEhISEhISEhISEhISEhISEhITExMTExMUFBQVFRUVFRUWFhYWFhYWFhYWFhYWFhYWFhYXFxcXFxcXFxcYGBgYGBgaGhobGxsdHR0eHh4gICAhISEiIiIjIyMkJCQkJCQlJSUmJiYnJycoKCgqKioqKiorKyssLCwtLS0tLS0tLS0tLS0uLi4uLi4vLy8vLy8vLy8wMDAxMTEyMjIzMzM0NDQ1NTU2NjY3Nzc4ODg4ODg4ODg4ODg5OTk5OTk5OTk5OTk6Ojo8PDw+Pj5BQUFDQ0NGRkZJSUlKSkpMTExNTU1OTk5PT09QUFBRUVFRUVFSUlJTU1NUVFRVVVVXV1dZWVlaWlpcXFxeXl5hYWFiYmJjY2NlZWVmZmZnZ2doaGhpaWlpaWlqampqampqampra2tra2tra2tra2tsbGxsbGxsbGxtbW1ubm5vb29xcXF0dHR2dnZ5eXl7e3t9fX1+fn6AgICBgYGDg4OEhISFhYWGhoaHh4eIiIiJiYmJiYmKioqKioqLi4uMjIyMjIyMjIyNjY2NjY2Ojo6Ojo6Pj4+Pj4+QkJCRkZGSkpKSkpKTk5OTk5OTk5OUlJSVlZWXl5eZmZmbm5ucnJyenp6fn5+hoaGioqKkpKSlpaWmpqampqanp6enp6eoqKioqKioqKipqamqqqqqqqqrq6usrKytra2urq6vr6+xsbGzs7O1tbW4uLi6urq8vLy+vr7AwMDCwsLExMTGxsbGxsbHx8fHx8fIyMjIyMjJycnJycnJycnJycnJycnLy8vMzMzNzc3Ozs7Pz8/Q0NDR0dHS0tLT09PU1NTW1tbX19fY2NjZ2dnZ2dna2trb29vb29vc3Nzc3Nzc3Nzd3d3d3d3e3t7f39/h4eHh4eHj4+Pk5OTl5eXn5+fo6Ojp6enr6+vt7e3u7u7w8PDx8fHy8vLz8/Pz8/P09PT29vb39/f5+fn7+/v8/Pz9/f39/f3+/v7+/v7+/v7+/v7+/v4yzTII/gD/CRxIsKDBgwgTKlzIsKHDhxAjSnSIYAWCiRgzatzIsaPHjyBDihxJcmTFiyVTqlzJsqXLlzBjMtSxLpzMmzhz6tzJs6fPn0CDCh1KtKjRo0iTKl3KtKnTp1B5HvEXL6rVq1izglyRC5bWr2DDih1LtqzZs2jTql3Ltq3bt0VPwp1Lt65CDDAw2N3Ld+6NXrb6Ch5MuLDhw4gTK17MuLHjqDyoPp5MWWaOc9gqa97MubPnz6BDix5N+q3F0qhLy03NGnSJTYBay55Nu7bt27hz694tM3JV3sD3+g5OnC4EJCeKK1/OvLnz59CjS1+JV+/061E9yNmCvbv37+DD/osfTx7t8PLod079nb69zBBntLifT7++/fv48ytfrb//RgpLsODfgAQWaOCBCCYYlWQKNkjQeQ46OEIlfERo4YUYZqjhhv3xx+GAHn7YH002iWjiiSimqOKKmq3H4n1cxfLijDTWaOONOCoVYo7hVcdjeTgso8uPRBZp5JFIJimLP/Yk6eSTUEYp5ZRUVmnllVhmqeWWXHbp5ZdghinmmGSWaeaZaKap5ppstunmm3DGKeecdNZp55145qnnnnz26eefgAYq6KCEFmrooYgmquiijDbq6KOQRirppJRWaumlmGaqKVs7bhpWp55+RWKopJZq6qkZuYjqV1x5teqr/rDGGiqosi5Fa61JKfFLLrj26uuvhkIIrFKXZTbsscgmK+dpyh51a7M9vRYbtNRWa22Wwl7rU7ba8nRcct2GK+64NfpI7k7acXfuuuy2GyG37rYEb7wr6VCHGPTmq+++6T3L70cACvjvwAQXzByDBo80b8IcTVghwxBHLLFo/k78UMUWNzRqxhx37PFgqn48UYwil2zyySinrPLKLLfs8sswxyzzzDTXbPPNOOes88489+zzz0AHLfTQRBdt9NFIJ6300kw37fTTUEct9dRUV2311VhnrfXWXHft9ddghy322GSXbfbZejYzyEA3oCQQImsLBIXbrQ0CxUAI0I1I/hub5U2Q3Xiv8HcVeCPAt0CDxC0QAncjnglBCBCO+CA3FK6TP/4M1AbdmA9kSkWz+dNL4eMMJPpAzkyGQOWmK15R6QL5o0rho8cO++KKY876PwjMYbo/jfO++03amDLQ3ASpYrxAmwsuW+eLI6C4Kof/k/pjqxNkSvAVKW6K79F7rzjv1Zsyy+6Re24K+sOjDREYkt8MvfyZt2bK8jf7jbP+7p+YR/U2y0v/1OILX+RsfgNMoHMQWDMGlqYXtZMSBugWkUHQbRz1+4cv+OeLDI6Df2bJXusGggEM3E52lpvSHAAYkUw4TyDlyGAyVvDCZGSwHDRMywqYQBB/PE4g/jCAQTlMR4uB5FBNIBzeBAmyA8hRsCwUVKJ1BDI8ECrwiqRx4My0KLMdtA+LYAwjkpaIsyoET4xoTGOOuBgzNsJshWqMoxxn5IEp2qyOc8yjHvd4Gze+THl8DKQgFUTGmxXSZuS43SAXyUj8+NFlvohgIydJSfTgEWeHrBkgK8nJTn7nkS0DpSdHScpSJiWTNIOjKVfJSt2IcmWvVJkXW0nLWsoGlTMzoy13ycvQxDJlv0SZKntJzGI+5pI3Q6Yxl8nMZjrzmdCMpjSnSc1qWvOa2MymNrfJzW56cyfPsCM5ZFjCgfwig+SggEd2MD9EiJOcUzznQMiBAQ+cKpwE/hnnQJJRToHIUyDpXGc737nPfv7jn/+gpz1NFQq6DY9ZAmliCjlygyo6lCAQ/YdEo/fNjnr0oyANqUhHStKSmvSkKE2pSlfK0pa69KUwjalMZ0rTmn5lBEUYwf4ySrON2fSn1gxZzVoF1KJSE2MqM5fN/hIYozr1mQt7WbGeStVm8nRmSE2ZtKrKVWJG1WVfbdm3ukpWWyq1Zukqq1pZGVaWCZVm8JHPWuc6yqyiLGB0zWsnEVaztq5sBJZ4mF4Hu0i7nsywhE2sYhfL2MY69rGQjaxkJ0vZylr2spjNrGY3y9nOevazoA2taEdL2tKa9rSoTa1qV8vasSG2ZK8V/tke1vHD1tpWZojwhyhwFoZc2OG2wIVZbD92VpqloRd5CK5yWTYIf4QCZ3k4hySWS12UDddj1+1YFDbRhep6V2TNfe7NwoszDyABBN9NL8eKOzMfwCEJ6o2vxMh7s9zu9mZFSAN85cvf/vr3vwAOsIAHTOACG/jACE4wLVdYvR3YsQ3g+wfyNAdA/lUhwryb4g0qTLc2NPjBEZ4w8zg8kAtDzo6L2sE4M1gFDc/PggTB4EA26LYODuSDU2wuQdpW4vm1mG0vvmAGaTxjDyIAxYsKQgEHEoSFatQXvxjIHOyoCgMKpBEGdUWUBaKKekrZyhGdYhaWLJAmD2QHUJYy/pXBjOUpankgXXaygufspBI+UWYYgBud9zysYJqMnRms2Q5myedC4woGL6wZBoZp6Eavys8lCwKkRRaELMTP0ZguFS5jhgFCZ/rToG4KoHG2Az2H+tSX2jTM7IzJRKL61bCOtaxnTeta2/rWuM61rnfNazsZ9B+IiJ8H5IyILJBw0QNBBCIIgoH4NaIRzDb22xCx0V8HeyDDJkixjx1hZTPb2Y1Y9qNEGDvFlfCEs4teBP2hSOn9Dn0Rxhz3hucPc5vQdOnmHQLW3e7c+QN/jSL3PwAnkBJWbxARztvBKxw8ZaNvo4lj39+CZ/CBILxwC4dcwzHca5aq+mWsvhkMGZKRjI6bnE6T/piKFXnylvc65DbL8/gIFBAAIfkEAQcA/wAsqQAzAIQBqgKnEhISEhISEhISEhISEhISEhISEhISEhISExMTExMTFBQUFRUVFhYWFhYWFhYWFxcXFxcXFxcXFxcXGBgYGBgYGhoaGxsbHR0dHh4eICAgISEhIiIiIyMjJSUlJiYmJycnKCgoKCgoKSkpKSkpKSkpKioqKioqKioqKioqKysrKysrKysrLCwsLCwsLCwsLS0tLS0tLS0tLi4uLi4uLy8vLy8vLy8vLy8vLy8vLy8vLy8vMDAwMDAwMTExMTExMjIyMjIyMjIyMjIyMzMzMzMzMzMzNDQ0NjY2ODg4Ojo6PDw8Pz8/QUFBRERESEhIS0tLT09PT09PUFBQUFBQUVFRUVFRUlJSUlJSU1NTVVVVVlZWWFhYWVlZW1tbXV1dYGBgY2NjZmZmaWlpaWlpampqa2tra2tra2trbGxsbW1tbW1tbm5ub29vcHBwcXFxcXFxc3NzdHR0dnZ2d3d3eHh4eXl5enp6e3t7fX19fn5+f39/gYGBgoKChISEhISEhISEhYWFhoaGh4eHh4eHiIiIiIiIiYmJioqKi4uLi4uLjIyMjY2Nj4+PkJCQkZGRkpKSlJSUlpaWl5eXmJiYmpqanJycn5+foaGhoqKio6OjpKSkpKSkpKSkpaWlpaWlpaWlpaWlpqampqampqampqampqamp6enp6enp6enp6enqKioqKioqampqampqqqqq6urq6urrKysrKysra2tra2trq6ur6+vsLCwsbGxsbGxsrKys7OztbW1t7e3uLi4urq6u7u7vLy8vr6+v7+/wMDAwcHBwsLCw8PDxMTExsbGyMjIycnJysrKy8vLzMzMzc3Nzs7Oz8/P0NDQ0tLS09PT1NTU1dXV1tbW2NjY2dnZ2tra29vb3Nzc4ODg4+Pj5ubm6Ojo6urq7Ozs7e3t7u7u7+/v7+/v8PDw8PDw8fHx8/Pz9fX19vb29/f3+Pj4+Pj4+fn5+vr6+/v7+/v7/Pz8/f39/f39/v7+/v7+/v7+/v7+/v7+/v7+/v7+/v7+Ms0yCP4A/wkcSLCgwYMIEypcyLChw4cQI0pcSOAEgYkYM2rcyLGjx48gQ4ocSRKkhj5tSqpcybKly5cwY8qcSbOmzZs4c+rcybOnz59AgwodSrSo0aNFj/hTh7Sp06dQfyplGrWq1atYQ1aYoiSr169gw4odS7as2bNo06pdy7atW6QRYER4S7eu3YUVuDS5y7ev37+AAwseTLiw4cOIExOcqrix45xJlj6eTBlmBzxmKmvezLmz58+gQ4seTVpsxYulU4dOMGOu6tewY8ueTbu27du4c+vevZAx7990PYyKBLy48ePIkytfzry5ytPOo1eFLr160xvZmFnfzr279+/gw/6LRxqZ6vjzMmdIM4a+vfv38OPLn8+bOv37GuO6xs9fYgtblvQn4IAEFmjggQjm5FuCCBoxDzkMRijhhBRWaOGFGHZnX4b0nfQGhyCGKOKIJJZo2IImoodiiuNt1RWLMMYo44w01jiTfjZ+dwEaW+To449ABinkkEQWaeSRSCap5JJMNunkk1BGKeWUVFZp5ZVYZqnlllx26eWXYIYp5phklmnmmWimqeaabLbp5ptwxinnnHTWaeedeOap55589unnn4AGKuighBZq6KGIJqrooow26uijkEaK5IaSfnVSSpVmqummnCK0YqdRfQrqUy6OauqpqBJ6AhInpApVXv57uSrrrLS+KWqtQJWHq1GXZbbrr8AGeyWlwvLE2n7FJqvssszieWuzMwlHHLTUVmtthsReC1O22rqEnXbdhivuuPI94c865MKkHnvptuvuu9FxC+9HOM5b0n8B2qvvvvzG9my/GDkIIcAEF2zwwbjJi7BDHi7s8MMQu/VvxJ5KRjFEpV6s8cYcd+zxxyCHLPLIJJds8skop6zyyiy37PLLMMcs88w012zzzTjnrPPOPPfs889ABy300EQXbfTRSCet9NJMN+3001BHLfXUVFdt9dVYZ631WhGg9g8UiRBEgNeyFVKI2FAMZDYPmxHg6z9moz1QImEPRIARBBXCtv5AY+edtkARIFvIGmJ3U5M3XavtD0E8kB2bP/7s/Y/bA0H+N2Vjj1L54na/DbnkBFSx+dt9V6454BEYLpA/ydhNwDg1JZK4QGaswrjjsY0C+uWj6K7Z2G/3LrdAq6wCuugC9X556cm/HfjZyRPONwGqC2XL6ShDvrVaRuCdMvPbW+hN9SdbpLL5sEFx+cnap9x++BZCAn32nMNflhlvnwx+lsyv8X4V++HB+8yAO7NkbnNi81zkmjS7h5ygVQLBw/vAAIOBNOF9doCgWh5oCwQO5AR22FyslgQDDTqEbEaQ3D+QxQMVFtCAZGuh2AjSPSeNz344zOGR3ncyV9hOh/5ADGKOGngyIposGcgQohKXyCIemuyGTIyiFKdoGyOWLBHzo6IWt1ggJ5bMiyRLIRfHSEb8WJFkb5BeGdfIxvOAcWRvFFkV1tfGOtqxOmccmRjvyMc++tErcQwZFv9IyELqJo8iK6HKoGjIRjryNYEEmQ8fSclKhgaRIcMkyJBoyU56kjKR/BgjP0nKUpoyIZr82CBPycpWuvKVsIylLGdJy1ra8pa4zKUud8nLXl4IEwN5w/8qKBAjvG8NyNLIKuq3wv0Is35VIOY/jFk/ZG4KmAJ55kCiORBqDsSaHVkmQQIXzGF285jJ1NQe+cY4F35EhZOjoTsHIkO7+fKe+P7Mpz73yc9++vOfAA2oQAdK0IIa9KAITahCF8rQhjr0oRCNk8I+dqmIWvSVE/NYRjuWsYt6tJT1OhmsPkrST26UY7pCWa9KytJKTtRjrGlAS2dK01mddGPSqqlO+/jSjvWUY9/aqVDrmNKTrWuoSC3jTzcWUpPhK6lQ3eJNNeagckT1qlgF1FKzytWuevWrYA2rWMdK1rKa9axoTata18rWtrr1rXCNq1znSte62vWueM2rXvfK17769a+AHclWL9aEPtAxsIhdWCH8cYmULbaxKPvAFFqQ2Mo6rKklawEXfGDZzhrssSlLhD+webIm4OEJnk1tvwZLMQXMYAGqjf6tbG8DWpRtYRRhmK1u08XaiPUWYnDIRiB2S9xwiZa0JmuFN3hR3OY697nQja50p0vd6lr3utjNbmUJsB8o5I95TcifEZBlBjU2jiD4G8gXyFYFNU6uu9/1WnhpSF7zvrBP9esGdwcyCmYyzw7/C+AAyfY+WzAvGfndb/L86zUAQ1PA9SMgoZDQvlVE4AJza91AyCkQMCRDw/9AAoaL+eFtIqvEAokEh//hChBbeMT/SASImzkQD4NYxN1E8T8AOOE0avfHnUplxwJ3XyAb+chHCWXHjLAK7CH5yYsSMseInLIIjBLKWDaUkjlmBE5m+cuFkvLGLnCBdI7sApMEs7+aA7XljXlzzXCOs0vErDFMeFnOeM6znvfM5z77+c+ADrSgB01ooEVAjXQbJ/L+sYhFjNN7AkkEpFcc40WTmSCJcO+h51Y3wC260Y/G9KTNLKgDrs6/Ctzd6FxHEH9gL3DV80cSp4c9HlLu1Ko+NekITKixXS5udpMc3UAnObMtj2yFcF4E3pZs1/06iwQQdiKIrbZCHNuDJ+sePAvN7SspEmURmGO3x42lNmuMwswsGRJ8TO52T4nOF/PGKgkUEAAh+QQBBwD/ACyoADAAhQGpAqcJCQkLCwsNDQ0PDw8QEBARERERERERERERERERERERERERERERERERERERERESEhISEhISEhISEhISEhISEhITExMUFBQVFRUWFhYWFhYXFxcYGBgZGRkaGhocHBweHh4hISEkJCQmJiYmJiYnJycnJycoKCgoKCgoKCgpKSkpKSkpKSkqKioqKiorKysrKyssLCwtLS0tLS0uLi4vLy8wMDAxMTEyMjIzMzM0NDQ0NDQ1NTU1NTU1NTU2NjY2NjY2NjY2NjY2NjY2NjY3Nzc3Nzc4ODg4ODg5OTk7Ozs+Pj5BQUFDQ0NFRUVGRkZISEhKSkpLS0tMTExNTU1OTk5PT09RUVFTU1NTU1NUVFRVVVVWVlZYWFhZWVlbW1tdXV1eXl5gYGBiYmJkZGRmZmZnZ2doaGhqampqampra2tra2tsbGxtbW1ubm5wcHBxcXFycnJzc3N0dHR1dXV3d3d5eXl7e3t9fX1/f3+BgYGCgoKDg4OEhISFhYWGhoaHh4eHh4eHh4eHh4eHh4eHh4eHh4eHh4eHh4eIiIiIiIiIiIiIiIiKioqLi4uMjIyPj4+RkZGUlJSXl5eampqenp6hoaGioqKjo6OkpKSlpaWlpaWlpaWmpqampqampqampqanp6enp6enp6enp6eoqKioqKioqKioqKipqampqampqampqampqampqampqamqqqqqqqqsrKyurq6wsLCxsbGzs7O0tLS2tra3t7e4uLi6urq7u7u8vLy9vb2+vr6/v7/AwMDBwcHDw8PExMTHxsTJx8PMyMPOysPRy8PUzcLWzsLYz8La0MLb0cLd0sLe08Lf1MLg1cLh1cPi1sPj18Tk2MXl2cbm2sfm28nm28vl3M7l3dDk3dPk3tbj39jj39rj4Nzi4N3i4N7i4d/i4eDh4eHi4uLi4uLi4uLi4uLi4uLi4uLj4+Pj4+Pl5eXo6Ojs7Ozv7+/x8fHz8/P19fX4+Pj6+vr7+/v9/f39/f3+/v7+/v7+/v7+/v7+/v4yzTII/gD/CRxIsKDBgwgTKlzIsKHDhxAjSmRYzB++iRgzatzIsaPHjyBDihxJsqTJkyhTqlzJsqXLlzBjypxJs6bNmzhz6tzJs6fPhhJaSPhJtKjRo0gjBh2atKnTp1BtFomXLqrVq1izat3KtavXr2DDih1LtqzZszh5+JuHtq3btxxb7IIFt67du3jz6t3Lt6/fv4ADC865dLDhwz8LI17MuOaLYbcaS55MubLly5gza97M2XKStZ1Diy5ow5230ahTq17NurXr17Bje1Usu7Zf2rZz501CKZLu38CDCx9OvLjx40/VskXOfKvy5tCxdlByIrr169iza9/Ovbtd3N7D/s/80MaL+PPo06tfz769+ufu44uEL79+Rw9krNjfz7+///8ABsiVBjJoIOCBB2nQhAwINujggxBGKCGE9E3oX4UW8oeEJI1k6OGHIIYo4oiqgUfieiaemN5UVano4oswxijjjMmBRqN4csVy44489ujjj0ACJVSQ2aVI5JFIJqnkkkw26eSTUEYp5ZRUVmnllVhmqeWWXHbp5ZdghinmmGSWaeaZaKap5ppstunmm3DGKeecdNZp55145qnnnnz26eefgAYq6KCEFmrooYgmquiijDbq6KOQRirppJTKRoxFlWaq6aacbmRkp1B9CqpTLI5q6qmoUophqk3JRRer/rDGKuufos7KU6226vRYZLn26uuvZ362HLA+lXYascgmq+yUuC77EoEGOpuTCpMwIu212GY746ravsRtty1NVx245JZr7oHNnisSeeap6+678J73bbzz2UjvSfjpd+++/PYLHLT+kqQggwEXbPDBnc2LsETCLuxRCZDk4fDEFFd825AWY5RuxgaVyvHHIIfclcIiFwSLO+GUrPLKLLfs8sswxyzzzDTXbPPNOOes88489+zzz0AHLfTQRBdt9NFIJ6300kw37fTTUEct9dRUV2311VhnrfXWXHft9ddghy322GSXbfbZaKdtUA3RCqSIIgNNwZRsioQxkARz/6OI/hqSDXN323pPcXfeiggukAYa8O12h3cbrjfcjQ/USCM1DIRMTGoA7o8/A3mCt0BNVO6aP7MM3uI//vjNWA3H3K0DQf5A/g/e5QzkjycDIa466qfPLvvmos+uOOr+OH45TFMA7gnuAqnxOfGveWLH4Iz/48nwiNWwuwSvd+443rJfn7sG4VcvfOeeBC+B46aYEvzxP23O2vI4I14/4GpbaAf2NGOcv1jD2F3N5Pe/Ag6HgDZDYGrKUbubPY9JkICEcR5owAjNgnkCSQfnBDIMCbTNExv8RzkeOL2wAKMMroOd7GhnOwx+qQgtIIg7QniMFhDsH7MIoTtaEEOB6EEs/noonUBa8ATY+WaILXCH7YQIJv/9o3sCoWDwZpe3sfAqigWZohSjpIEqzqwN/KugGMfYIwXSzIwz08EUycjGNsKoizjTgr7cSMc6igiNMsNjzMBoxz76cUJwvFkg/0jIQhrSMnqEmSlceMhGOlI9HsDfzCKJs3Q08JGYzGR3EvkyYghQk6AMJXMGWTNS0myRokylKonDSZe1cpWwjKUsZWLKL4ZxlrjMpWZeyTJerkyNugymMC9TS5nJcZjITCZifKkyZpaMj8qMpjT5UsyYVXOa2MymNrfJzW5685vgDKc4x0nOcprznOh8VDtCOAz7CcQUIUyHOzlCjRA6AnDr/hxIO9sGz4HIs21vAFU+OTjPfmZwnhup50DuSZCB/mOfAzHoP/45kIB2CopUJIgWvZiRQRCElBjd4uDSSdKSmvSkKE2pSlfK0pa69KUwjalMZ0rTmtr0pjjNqU53yh5e+OMePA3qNzcmMqKGzGNCTWo2ScYyVyn1qdM0Ksik+rFdQfWqyWyYzYyF1a4Gk6ocA2vGeHNEr5o1lkxdWVpVJq6zunWVYrUYu95K11CutWR3FVm+6spXTALMZgqaQV8He8i8hsywINuQtQjLWD9WAhaVaKxkJ0vZylr2spjNrGY3y9nOevazoA2taEdL2tKa9rSoTa1qV8va1rr2tbCN/q1sZ+sucfhDibTNLcziWjHeUiwP8ZCEbofbMkX4I7I2E8Mu4kDc5pbMtxODrsPMMIw6OPe6H2uEPyxxMzu44xHYDW9vnTgz6S5MDJRgg3jXuzDjIrdm7r0ZCJQAAvbat2DmRVgS5tCE+/qXX7nwBzH+S+ACG/jACE6wghfM4AY7+MEQjnBLapA3NQzPChUuYRTbNgXsPVAHHu5h89owEAoTxMIDwfCJNTw7Dnt4bhg1lPNKjMBG5K0c7PRg50I4wrlpV6MingICZyyQGtT4xjn+II8fSOJEWaFtOghgRQFnitYJpBEa8IDkdmeKeb5BgDq4oRWGMWCBPHkgUd7d/huobOV/YFnLV+byPLVwKGeGTAeWlLCe93wWD1DSZh5whPn4TOhO2RlkOjj0x3QAzEI7mlPXdJkGoPnoSlNK0RxLdAhppgMrOM7SoH7Un0vZ6FCb+tQ5OQKmM3YEQaP61YiyxHthTeta2/rWuM61rnfN6177+tfALmQwcgfnK88RoY04tgya7GZHfHSOk3u25CQBxSwTJNnju7aymd0IZ+dujofaHkZjN7hL3u5uLdidP3ongd/5Q33D29z3xr1CCZgbg0FRN7tldyhgpHAghRvc8PaG7oEze3aOe5v6gqeISKgPowGPogQGPrygGJwg69vZqi2mA1QG++NninTLFBDHUZhpQMogT/mYNl4xPF/yPwEBACH5BAEHAP8ALKYAMQCHAaoCpwYGBggICAsLCw0NDQ8PDxAQEBAQEBERERERERERERISEhISEhISEhISEhMTExMTExQUFBUVFRUVFRYWFhYWFhcXFxcXFxcXFxcXFxgYGBgYGBoaGhsbGxwcHB0dHR8fHyEhISMjIyUlJScnJygoKCgoKCkpKSkpKSoqKioqKisrKysrKywsLC0tLS0tLS4uLi8vLzAwMDAwMDExMTExMTIyMjIyMjMzMzMzMzQ0NDQ0NDQ0NDU1NTY2Njc3Nzk5OTw8PD4+PkBAQEFBQUJCQkNDQ0REREVFRUZGRkdHR0hISEhISElJSUpKSkpKSktLS0xMTE5OTk9PT1BQUFBQUFFRUVFRUVJSUlJSUlNTU1VVVVZWVldXV1hYWFlZWVtbW1xcXF5eXmBgYGJiYmRkZGVlZWZmZmhoaGhoaGlpaWpqamtra2xsbGxsbG1tbXBwcHNzc3V1dXh4eHp6ent7e319fX9/f4KCgoSEhIWFhYaGhoaGhoeHh4eHh4eHh4iIiIiIiIiIiIiIiImJiYmJiYmJiYmJiYqKioqKioqKioqKiouLi4uLi4uLi4uLi4uLi4uLi4yMjIyMjIyMjI2NjY2NjY6Ojo6Ojo+Pj5CQkJGRkZKSkpSUlJaWlpiYmJqampycnJ6enqCgoKGhoaOjo6SkpKampqenp6enp6ioqKmpqampqaqqqqurq62tra6urrCwsLGxsbKysrS0tLa2tri4uLq6uru7u7y8vL6+vr+/v8DAwMDAwMHBwcLCwsLCwsPDw8PDw8TExMTExMTExMXFxcXFxcbGxsbGxsfHx8fHx8jIyMjIyMnJycrKysvLy83Nzc/Pz9HR0dPT09TU1NbW1tfX19jY2NnZ2dnZ2dra2tvb29vb29zc3N3d3d/f3+Dg4OHh4eLi4uTk5Obm5unp6evr6+/v7/Hx8fLy8vT09PX19fb29vf39/j4+Pn5+fn5+fr6+vv7+/z8/Pz8/P39/f39/f7+/v7+/v7+/v7+/v7+/v7+/v7+/v7+/jLNMgj+AP8JHEiwoMGDCBMqXMiwocOHECNKdMjDn7qJGDNq3Mixo8ePIEOKHEmypMmTKFOqXMmypcuXMGPKnEmzps2bOHPq3Mmzp8+fQIMKHUr05QUXF4oqXcq0ac4RfeI4nUq1qtWrWLNq3cq1q9evYMOKHUsWaMWLZdOqXdvxLNu3cOMq9GAliNy7ePPq3cu3r9+/gAMLHkz4H4MUDAorXlxzw5cjjCNLnky5suXLmDNr3szYLefPoAd6Dk1a84c5Z0qrXs26tevXsGPLnq0zhY8UtHPrfQBDg+7fwIMLH068uPHjyJP//mFRufOqK0x1ek69uvXr2LNr3/72cGLu4G3+eg9PfiYObdDKq1/Pvr379/CVj45Pn6OLaL3q69/Pv7///wBmNV6ABBo0YIEI/lMCLKEk6OCDEEYo4YT1OdEchf3pEM85GHbo4YcghijiiCTedVRSJbY3wh5SpejiizDGKOOMO81HY3Y23nidB1jYpeOPQAYp5JA0Hkikc66wg86RTDbp5JNQRinllFRWaeWVWGap5ZZcdunll2CGKeaYZJZp5plopqnmmmy26eabcMYp55x01mnnnXjmqeeefPbp55+ABirooIQWauihiCaq6KKMNuroo5BGKumklFZq6aVV5ojpppx26umnep0IalZQtTjqqaimiqmmqhbFaqv+Q20gxQ+w1mrrrYIaiatQjkG266/ABtvmq8LiRGyxNp1mBrLMNuuslaI+q9MDMvgm7bXYZqutncyhte1M0U337bjklpugruauhG66KcGAHrvwxisvecfO+9F9vNir7778Erduvx79CzBHC4oy8MEIJ8xZtwp/pAM8HDYs8cQUV0xatBZPNIImd2Ts8ccgf/WKP/GEbPLJKKes8sost+zyyzDHLPPMNNds880456zzzjz37PPPQAct9NBEF2300UgnrfTSTDft9NNQRy311FRXbfXVWGet9dZcd+3112CHLfbYZJctGwPf/RNFIAShPZAMnLDtWtwEXWDFQIGQs5j+N2vU3bdAgcgtEANR4C24YTIQ5Ejig6f9TyCFN05QIH/LpI7bgPtDkAxpR+GP5q59zvg/F7gx0OeL+TPMQBdcYMrpoA9euegDEQ575ZgL5M/rjYdz+uozRZP7GrwLxPlAka8mA++wmDK63QOZEnFh5FTeeuWmFG9Y8tmPbrtAqaSSfO7/mII7A4KbjyH5ZndIjjg2Ixa/46FFkfzMqNecf/seduKIzfvj31fWULmZsU+ACARNAB1yhNFVzBGHc4j8/rGG/UUhbTLYnxsc549xgEV1rHMd7No2O384kExz2J8YcCOQI+yvDizUnd6+4g9nDMQFLoDFCAeSgjnALnb+ZZKBAx0nxLoV5IRcGUPdUGQ8HbRtc0VMIH0uQL+YUdFm4vCdFLfIRSYtMGap0F4Xx0hGGXWAiTM7o82MAbwyuvGNJPoizMYBPzja8Y54fM0VawbBPPrxjwSS48sE6TIdIBGQiExke/ZIMzcUUJGQjCR4CNkySrLMCveTpCY3SR1GzuwHTuSkKEdJSqtYcmV9LKUqVzkbT8rMlTHLIitnScvVnFJlYaylLnepGTXWzJc0YyMvh0nMyNwyZXQspjKXycyFkMJgzYymNKdJzWpa85rYzKY2t8nNbnrzm+D0mhv2ZwUm6mB/b0AjSDrQgYGMM3blHMg5Y5dOgnTwU+/+HEg8BTLPgdRzJOx0JznNiU403tNTURwcFI1IEjQm1DALZV1BQhnOilr0ohjNqEY3ytGOevSjIA2pSEdK0pKa9KQoTalKV8rSllbFCBdyqUxnyi+MyaxUNM0pNeuVMp6ijC4+0qlQlykwlvVqqEgtpk9PtlSTKSupUN2lbWIoM2pZK6pYzeqtGEazcGn1q6Ms6srEqjIccCM9YE2rJJsaMnyp9a2KJGvK5IqygsH1rn+0kLdk9rDp4fWvgA2sYAdL2MIa9rCITaxiF8vYxjr2sZCNrGQnS9nKWvaymM2sZjfL2c569rOgDa1oR6ueQPgDmqRNrWrXY9OYLaEPWFj+rWxDZlrUyqy2NVuBFQ45294qjK4nc8EXcODb4k4MtzRD7syEMIckGPe5CZtqzSQgAwpA97rYpY0j/EGKmnnBFKnJrnjlBVyTlXe86E2vetfL3va6973wja9850vf+to3rbmzQgFb97YCHm8gBJSn49xgOoFckCBRKGB+98tEGfjXcQHm54ALrKhw5C4VQOSvQCoYuwMbT4McjJ0pcjeM2Fk4bRheIoAtiEEQ27OOi9LwPyphDIIEVCBWMEaN+WlOHQ9EC2hEBjIG4ggZp2LH/0iFjGls43bi2Mc8lieU/wFkgiCDFfcFyjFP1k+a6cCRWQ7zqYD5SliK+cxoVsrqlk2WBFjoMM1wrpSZXda6Kr6sA8mMs54jteaQ6UCYew50o+bcsjrX7AK5FLSiE9VnkHV50ZCOtKQnTelKW/rSmM60pjfN6U57ulbSoPA/OkBhR1SibncTiCP+xzqKzpiiF3CyqlNNOjQ6QtSkJvKpWUfrVdfN1ZWAtawVNY42tq54AWRACb2XvM/hzqDFQ5sW/wFCgRx7h7KDHbNvVzt1Iioa1rtA8gLB6sGNLnDeG92qx4dGytVO2XgL97jLjTjDpZvIjhifqz+tmUZ/7NF8NSS/B04mQrPMbpkkuMK35G+PATxmX37kfgICACH5BAEHAP8ALKYAMgCHAaoCpxERERERERERERERERERERERERERERERERERERERERERERERERERERERERISEhISEhISEhISEhISEhISEhISEhISEhMTExMTExMTExQUFBUVFRYWFhYWFhYWFhYWFhYWFhcXFxcXFxcXFxgYGBkZGRsbGxwcHB0dHR4eHiAgICEhISIiIiMjIyUlJSYmJigoKCoqKisrKy0tLS4uLi8vLzAwMDAwMDExMTIyMjIyMjMzMzQ0NDQ0NDQ0NDU1NTU1NTY2Njc3Nzg4ODk5OTs7Oz4+PkBAQEJCQkREREZGRkdHR0lJSUpKSkxMTE1NTU5OTk9PT09PT1BQUFFRUVJSUlNTU1RUVFdXV1paWl1dXV9fX2BgYGJiYmNjY2VlZWZmZmdnZ2hoaGlpaWpqamtra2xsbG1tbW1tbW5ubm9vb3BwcHBwcHFxcXJycnNzc3Nzc3Nzc3R0dHR0dHV1dXV1dXZ2dnZ2dnd3d3d3d3h4eHl5eXl5eXp6enp6ent7e319fX9/f4GBgYODg4WFhYaGhoeHh4iIiIiIiImJiYmJiYqKioqKioqKiouLi4uLi4uLi4uLi4uLi4uLi4uLi4yMjIyMjIyMjI2NjY2NjY2NjY6Ojo6Ojo+Pj5GRkZOTk5aWlpiYmJubm52dnZ+fn6CgoKGhoaKioqOjo6Wlpaenp6ioqKmpqaurq6urq6ysrK2tra2tra6urq+vr6+vr7CwsLKysrOzs7W1tbi4uLm5ubu7u729vb+/v8DAwMHBwcLCwsLCwsPDw8PDw8TExMTExMXFxcbGxsbGxsfHx8fHx8jIyMjIyMnJycvLy83Nzc/Pz9LS0tTU1NbW1tjY2Nra2tzc3N7e3t/f3+Dg4OHh4eLi4uPj4+Pj4+Tk5Obm5ufn5+np6erq6uvr6+3t7e7u7vDw8PHx8fLy8vLy8vPz8/Pz8/T09PX19fX19fb29vf39/n5+fn5+fr6+vv7+/z8/P39/f7+/v7+/v7+/v7+/v7+/v7+/v7+/v7+/v7+/jLNMgj+AP8JHEiwoMGDCBMqXMiwocOHECNKdPjDn7qJGDNq3Mixo8ePIEOKHElyZIxetEqqXMmypcuXMGPKnEmzps2bOHPq3Mmzp8+fQIMKHUq0qNGjSBOGkBEiqdOnUKP2lABDgtSrWLNqBanDXLetYMOKHUu2rNmzaNOqXcu2rdu3cIUSsRi3rt27CmfkWoW3r9+/gAMLHky4sOHDiBMr/kfV6uLHkHE2jky5MkwbyXJZ3sy5s+fPoEOLHk269NiKF02rFn2Dm7TVsGPLnk27tu3buHP7nKy791/evoPbbSFqkfDjyJMrX868ufPnNuemhk79Kurq2KNmEKIiu/fv4MP+ix9PvjzYpU3Nq7fJ4g2X9fDjy59Pv7596Nfv6/eYf7//jCl4McV/BBZo4IEIJqhgUcAt6GAISdzg4IQUVmjhhRgi2F+GBG7IoX8sYNLHhySWaOKJKKYoGnoq2tdgi/HpgI43MNZo44045qjjUdLtaN4MuPDl45BEFmnkkUgaRAorpCTp5JNQRinllFRWaeWVWGap5ZZcdunll2CGKeaYZJZp5plopqnmmmy26eabcMYp55x01mnnnXjmqeeefPbp55+ABirooIQWauihiCaq6KKMNuroo5BGKumklFZq6aWYZqrppvN5yKlYJ6X06aiklmoqRiyeCtaLql7V1Vf+rcYq66yZekprUkbsIuqtvPbqK6Gs/kpUsMIKhZlmxSar7LJt2spsT6299uy01FabJbHW3oRttjURZxy34IYr7o09jouTs+bCtF136bbr7rsJbgtvST/0gca8+Oarr3ro7htSv/5+FOCAARds8MHByYtwRhBKuPDDEEcsGsASQ0RxxQ6xoIkfGHfs8ceCpQryRAqPbPLJKKes8sost+zyyzDHLPPMNNds880456zzzjz37PPPQAct9NBEF2300UgnrfTSTDft9NNQRy311FRXbfXVWGet9dZcd+3112CHLfbYZJdt9tlou9nkQIccMtAU6QlEhtuySeCYQIc4MVD+CHdT1rYNA9lNkCd6CyRB3P/kHbgEZLBNt0AwFJ44JARJIPnfNq0tkD/+DKQK3wMR03ndffuTyt4SZGMZ55JLAPhA/jx+uDawn264BMTArvpAMDzOOQ+BN765P5LPpPk/qdj+Dxqg4608bIIPlIrw//D9eGTJv86Y9v/M0noIlAs0/eKPp3I9DNSnogrwhkuefdoT/XFvzkzBzxYxuefMuf38U7e//qNbjTZol7MQIM5m0evfh2bxPJtVRWcPhE3yqPS/iWQjgMRIoCoCmA0Dsi2AaGFd4LgXu8CFgID/ACGUKiiRbgSwGTCAwUBoEcBuyEAGA/GECs3COS3wLgn+BPGHJ3gnAxq5iXsJ/Af7DIc4G3DvLE6sXEGWyJgDKvCKWCRL83CGBupl8YtgPBILbTbGmvHgiWFMoxpttMWbTaF4a4yjHE1URprVcWZdnKMe95ihNtrMj3wMpCAHubod0kwVDSSkIhcZH0DSzJEz08buGEnJSpLnjjIrRv4syclOVscEVqQZKHWGSE+a8pTLwWTMVInKVrrylTmBpMzyCMta2tI0rHxZLl12xlv68peekWXM3gjMYhrzMbtsWTJZRstjOvOZ0IymNKdJzWpa85rYzKY2t8nNbnrzm+DMjToCWAwPCoSGA9GGCUwwEEg8wyOQQJw2yGnOf6BTIOr+ZKdAIGHITY1zIOWM2z3/kc92vrMj8STIPAFaz4EWdJ/91JQrKtc3IJqQIDaQYUeSiMSKVq6JaAynSEdK0pKa9KQoTalKV8rSlrr0pTCNqUxnStOa2vSmOM2pThV5MZaFaqdA1abIEBjBm70qqEi1ZrluphchJfWp0CwZy6S6smNB9arO7OnKooXVrgKTqioDa8q85dWy2nKpNtOqytZl1ra6cqg1a8973EpXT6o1ZXdF2cDqyldLihVlDeurYBeZ15MV1mQa49hgF8vYxjr2sZCNrGQnS9nKWvaymM2sZjfL2c569rOgDa1oR0va0pr2tKhNrWpXy9rWujaNh/D+x/Fq9oVe2OG1uK0ZXGn215MFwhygyK1wY8ZPU+TMC7mQw3CX27Lemsy5IytDMv7A3OqmLLazpVkeuLEJ63p3ZNAFWXg/NgVR+PC76MVYcXOG3ZyRQAglSK98I7bbmZ2BGYCYr373y9/++ve/AA6wgAdM4AIb+MC1bCMa5vcPJ/SNDF5M4BS8WE8bRPjB1ONB3xY8EAcTBMIUfRuF42ZhSBnwbjao4CH6dsHQaZCD9YwtRu/mhAqiAcUqZjEGXzyQDsZNxo8ywTGKMRAeHOMYA2EeQVRB5H3WExNN/ocq1pnkKCsxblMoRpStEDcjI1kgSvZclOMZNyh7jspgtjL+gtf8pGWqjAeSZLOc5wyXExcQEtejs55b5eaU8aDPKONBL/dMaFWNEmcmYAODC83oTwH6ZH+OKMyEYAWCNfrSmhLmy0IwaEx7+tNBiXTOeIBnUJv61KhOtapXzepWu/rVsI61rGd9JkhAYon1/AcmLB0Cfe6T1yFgsK0JYgJLQwITBAmBsW+9N8Ttem++/gckgC3s8Ank0I4SoeFIKLsT1m5xm/THJKvnO38skXGwI94Ig9htFJoO3LpLdt8YhbltEwQS32PwIahnN+rtO9mXY7a98XYI7bnu3vlmG7/RjTfqnXDctI44nB5tMiXQYhYSzzicNO0yOyN6yBoPOZsJKD4yOEP8PwEBACH5BAEHAP8ALKkAMwCEAaoCpw0NDQ4ODg8PDxAQEBAQEBERERERERERERISEhISEhISEhMTExQUFBQUFBUVFRUVFRUVFRYWFhYWFhYWFhcXFxcXFxcXFxcXFxcXFxgYGBkZGRoaGhsbGxsbGxwcHB0dHR4eHh8fHyAgICAgICEhISIiIiMjIyQkJCUlJSYmJicnJykpKSkpKSoqKisrKywsLCwsLC0tLS4uLi4uLi8vLzAwMDAwMDAwMDExMTExMTExMTExMTExMTIyMjIyMjIyMjIyMjMzMzMzMzMzMzQ0NDY2Njg4ODo6Ojw8PD4+PkFBQUREREZGRklJSUxMTE5OTlBQUFJSUlNTU1RUVFRUVFVVVVhYWFtbW11dXWBgYGNjY2VlZWdnZ2hoaGlpaWpqamtra2tra2xsbGxsbG1tbW5ubm9vb29vb3BwcHFxcXJycnNzc3R0dHZ2dnd3d3h4eHh4eHl5eXl5eXl5eXl5eXl5eXl5eXp6enp6enp6enp6enp6enp6ent7e3t7e3t7e3x8fHx8fH19fX9/f4CAgIKCgoODg4SEhIWFhYaGhoeHh4eHh4iIiIiIiIiIiImJiYmJiYmJiYmJiYuLi4yMjI2NjY+Pj5CQkJKSkpWVlZiYmJubm5+fn6KioqWlpaWlpaampqenp6enp6ioqKioqKmpqampqaqqqqqqqqurq6ysrK2tra6urq+vr7CwsLCwsLCwsLGxsbGxsbKysrKysrOzs7S0tLW1tbe3t7i4uLq6ury8vL6+vsDAwMHBwcPDw8TExMbGxsbGxsbGxsfHx8fHx8fHx8jIyMjIyMjIyMnJycnJycrKysrKysvLy8vLy8zMzM7OztDQ0NLS0tPT09XV1dfX19nZ2dra2tzc3N3d3d3d3d7e3t/f39/f3+Dg4ODg4OHh4eHh4eHh4eHh4eLi4uLi4uPj4+Pj4+Xl5ebm5ufn5+np6evr6+7u7vHx8fT09Pb29vj4+Pr6+vv7+/39/f39/f7+/v7+/v7+/v7+/v7+/v7+/v7+/v7+/jLNMgj+AP8JHEiwoMGDCBMqXMiwocOHECNKXFjEH7yJGDNq3Mixo8ePIEOKHEkSZMWLJVOqXMmypcuXMGPKnEmzps2bOHPq3Mmzp8+fQIMKHUq0qNGjSJMqXcoUZ4IWCZpKnUq1ascSjdpY3cq1q9evYMOKHUu2rNmzaNOqXVvziEW2cOPKPXhyrt27ajM4KYK3r9+/gAMLHky4sOHDiBMHtRDDguLHkF+GwOIksuXLmDNr3sy5s+fPoL3WDU268+jSqDGHgLMltevXsGPLnk27tu3bI59Gxc077oIfG3oLH068uPHjyJMrX8788unm0JGm6HQpuvXr2LNr3869O1XGjr3+i6epe7z5mDaySTvPvr379/Djy4/tFuX8+xh1ROuFv7///wAGKOCAQJVH4IH/GIjggCvI0smCEEYo4YQUVijecxbKJ4Q87WTo4YcghijiiCSWKJaCJo5HwiJapejiizDGKOOMMtVH43YY3hhdBk8YoeOPQAYp5JBEFmnkkUgmqeSSTDbp5JNQRinllFRWaeWVWGap5ZZcdunll2CGKeaYZJZp5plopqnmmmy26eabcMYp55x01mnnnXjmqeeefPbp55+ABirooIQWauihiCaq6KKMNuroo5BGalSOklZFaaWYZqrpppx6hWKnTGHVIqiklmqqoE28dapSl64qlF7+fLkq66y0rglerUWFkEVluPbq669XtgrsTcIOW9MJdHBh7LLMNgvkp87W9Ftw0VZr7bXYcllstilNVx234IYrLnwtGNHCuC9Bi25JNmyz3rrwxitvcjbOW5J+vNir7778vqZuvxr9CzBGMdTiycAIJ6zwYdsuvNCGHTos8cQUV3yYwBZnrPHGHHfs8ccghyzyyCSXbPLJKKes8sost+zyyzDHLPPMNNds880456zzzjz37PPPQAct9NBEF2300UgnrfTSTDft9NNQRy311FRXbfXVWGet9V1RTEJQAuH9Y0MjjcyWwBMDkf012pY1EsbXbwuk9kAWsP1PI14PlID+DQQ1wrdACewm0CR2g933ODRN4g9BNoT9hD+Ly5ZA2QJBDvdl/gCjdwKgDGQ53ZT/AzkRetsNedwJCi566GCb47l9MZVBCuOOg9J5Ooj7i7rta18GCuqB79453buTQjrgdtteuOqkFG5B3v+AkntQUKncmGtRRKHy5yhzv3WFmYR+svffhxUG6idbEHb57A/HxN8oV5+aDfCPH3n392cZBvdRCG4D92FQHfnIkrnNDU90+bOA+LakB+5p4VwCYQL39ADByuWvLP5oxkBa0IJWeC5/MchEkwaoEPoRZH02OB7gClI/s9QvcIyr3/qUNIkFtu+GOBSSBVRnMg/MMIf+QAyiEKFDwpGR4oBDTKISQ7RDlTUxZcHQ3BKnSEUKFVFk5pheFbfIxS5mJgYVPFkNvUjGMsbniiFDoxnXyMY2luWJKCsD+txIxzomR40fw6PHomA3O/rxj72B48mI0EJAGvKQiNSJHjs2xkQ68pGfEWQPfwjJSlrykhpZJMeOiMlOenIwkixZKEkWxU+a8pR20eTGsojKVrrylbCMpSxnScta2vKWuMylLnfJy176Ejv3q0LYiMC9MqxPlQpR30DKwD1hDoSY9zMmQZBZqGAOs5jHvGBGlCkQZlrzmdicpjYxhcIXsvAjqjMh3WL4tXP+8p3wjKc850nPetrznvj+zKc+98nPfvrznwANqEAHStCCGvSgCJVRwzi20IQ69KG4wtjHRAXRilqyXidrqMZgZdGOOvJWKNMVrzxK0j9qNGMntVgI3NCakrq0jhL12LReStOaSiqlFfOWTXfqRZCeLKYda9e7eErUKWLUZPgqqlKVCFSONXVjK6DFg5ZKVSDilGKrqIc8qsrVrnr1q2ANq1jHStaymvWsaE2rWtfK1ra69a1wjatc50rXutr1rnjNq173yte++vWv52mEPziRMsESFrCITWx0nqoxJjQCCoqNbMIUN9WTGTZlKXACCyTL2X751GQ/yIKPOkvaeV0WZac9WRLcwITSuhZejM3+mAV+kIHX2va2oEmtyarQCS3g9rfX+mzJ0jCINAD3uMhNrnKXy9zmOve50I2udKdb1iegD4YCsQH6mKC6MpRhIDZQ3fkG8gTVZQF93PyHdb/mv+1297vZFe8cCQWK/GH3H/u7Xxb8B0AB3g8U923G/caR3vqydyD5Hch+wdtfcRbKh4MLxgnDFoVgSDiCwxSGMAYShfVZeCCTSO8rLvwPUnjAAyAm8T/SW2ESMyHDGxZIhwny4UF5oArao66OK0XNikEzZUZIA3x3TGRHjVJk6uNhkZfMZJ/0mGJEaGSTp0woCKMsySmzACupzOVAPXliRhCGirtMZj0dOWRYRpnBB1AxuzK7OU9flhgr4vzmOtv5znjOs573zOc++/nPgA60xyYx5BUPeRLQ+4cHcvwPRJ9QhY1WYXr/UQlGT5rQJzx0ohcN4kRbANKTgHQ1pZi6A3pPgR9sLfI+CDwBsi4B6fAcqQNn6gSGDnKqTpDp/DHfQbltc3abm0DqlrZG5HpvxV4eQQi3OT2krdXBFh+x5WZsvcGPbGw7M8ieZ0NBe5tKdF7Yj1FGBEJ++9xWsvLJbsxodLv7SeFWmDrinZ2AAAAh+QQBBgD/ACyoADAAhQGqAqcMDAwODg4PDw8QEBARERERERERERERERERERESEhISEhISEhISEhISEhITExMUFBQVFRUVFRUWFhYXFxcYGBgYGBgaGhobGxsdHR0fHx8hISEjIyMkJCQlJSUmJiYnJycnJycoKCgoKCgoKCgoKCgpKSkpKSkpKSkpKSkqKioqKiorKyssLCwsLCwtLS0tLS0uLi4uLi4vLy8vLy8wMDAwMDAwMDAxMTExMTEyMjIzMzMzMzM0NDQ1NTU2NjY2NjY3Nzc4ODg6Ojo7Ozs+Pj4/Pz9BQUFERERGRkZHR0dHR0dISEhJSUlJSUlKSkpKSkpLS0tLS0tMTExMTExNTU1PT09QUFBSUlJTU1NVVVVWVlZYWFhbW1tcXFxeXl5gYGBiYmJjY2NlZWVmZmZnZ2doaGhoaGhpaWlqampqampqampqampra2tsbGxtbW1ubm5vb29wcHBxcXFycnJycnJzc3N0dHR1dXV1dXV2dnZ3d3d3d3d4eHh5eXl5eXl5eXl6enp6enp7e3t8fHx8fHx9fX1/f3+AgICBgYGCgoKEhISFhYWGhoaGhoaHh4eHh4eIiIiJiYmKioqLi4uNjY2Pj4+RkZGUlJSVlZWXl5eZmZmampqbm5ucnJycnJydnZ2enp6goKChoaGioqKkpKSlpaWmpqanp6eoqKipqamqqqqtra2vr6+xsbGzs7O2tra5ubm7u7u9vb2/v7/BwcHCwsLDw8PDw8PDw8PExMTExMTExMTExMTExMTExMTExMTExMTExMTExMTExMTExMTFxcXFxcXFxcXFxcXFxcXFxcXFxcXFxcXFxcXFxcXGxsbGxsbHx8fHx8fIyMjMzMzPz8/S0tLU1NTW1tbZ2dnb29vd3d3f39/h4eHj4+Pj4+Pk5OTk5OTl5eXl5eXm5ubn5+fo6Ojp6enq6urq6urr6+vs7Ozt7e3v7+/x8fH09PT29vb5+fn7+/v8/Pz9/f3+/v7+/v7+/v7+/v7+/v7+/v7+/v7+/v7+/v7+/v4yzTII/gD/CRxIsKDBgwgTKlzIsKHDhxAjSmRIi9q0iRgzatzIsaPHjyBDihxJsqTJkyhTqlzJsqXLlzBjypxJs6bNmzhz6tzJs6fPn0CDCh1KtGQPf++KKl3KtOlND5QEOZ1KtarVq1izat3KtavXr2DDih1LFucCFQvKql3LluPZtG3jyp17cMe7cnTz6t3Lt6/fv4ADCx5MuPDfo0kNK15c88QrU4wjS55MubLly5gza95cecKLCZxDiy74drTp0C2mwTrNurXr17Bjy55Nu3ZPxLZz80XiDZvu38CDCx9OvLjx40xLI1+OVTnz51NVhKoEvbr169iza9/OXS7u7uBt/n4PTz7mgx8Zyqtfz769+/fwnzuPT59jBjtf6uvfz7+///8AZiUEUgEWeNB4BiZ4wRdTJOjggxBGKOGEAM5H4X4xZKHEhRx26OGHIIbIGoIitkdiietBJRWKLLbo4oswxpgcWjKSZ2GN2tmFF4489ujjj0AGWdCJQi7nGGRFJqnkkkw26eSTUEYp5ZRUVmnllVhmqeWWXHbp5ZdghinmmGSWaeaZaKap5ppstunmm3DGKeecdNZp55145qnnnnz26eefgAYq6KCEFmrooYgmquiijDbq6KOQRirppJQOKos0ylSq6aacduopYUR+6pSKopZq6qmd3oiqUqquSpSO/q7GKuusgYZKq09H3qrrrry26RlovQLVarA4pbYascgmqyyVAya2bE48dHPNs9RWay2Pw17bUrbariQddd2GK+64D9pK7knmnlvSeemp6+678NpIY7wp3Zcfvfjmqy9xze5rFIH+jrRggwEXbPDBnP2K8EcYRAHEwhBHLLFg6U68UMUWJwQVIRl37PHHX3ELckGhqBLKyCinrPLKLLfs8sswxyzzzDTXbPPNOOes88489+zzz0AHLfTQRBdt9NFIJ6300kw37fTTUEct9dRUV2311VhnrfXWXHft9ddghy322GSXbfbZU0EyyUBUwCUQG5AQ5LZrZxEEyRUDLTC3/mHUDKQ2D3nPDQkVgRM0CeECLTDBG37HnTfi/0DiuEATQL7jS/74M5Apeg/0i+YChbM3a3UP5M/aiS8Qz2IL+CZQ5ngnXgNB/kzeuelI/qN4pq93I/fkmRM0ARumx2QKKgOxcXvkuV8y+mmlC2RK7LovcHlhC/QtPSqAy06QKZAv/w8qxCc+Aer/mDK57uWnn/s/lQ/EjoS//HJz8Gjnvxz+NfN/Wje+s5n4ZjZA/UmoFciz2bxqtsDTSO5+oGsSFSBHs2pUI2nUiOAvJgCs9EWwen77IBK+8opDmM4f1FvA7Exnu+dxiX/UeMELBsKKD6pABQO5xAet8JU4yOKE/mAYiApGaLpLCBGHYiKi+QiywrwxsYlhUQUTu5e4gkCxgEvy38y0aMAuevGL7sFAB2k2ifWB8YxoxBEXY7ZGmAWBimmMoxxZNAEXvuwKFJyjHvd4oTa+zI8ue0P7+EjIQiaojjdDpCEXychGSgaQLSujIydJSfYosmZivNk3vFHJTnpyO5BkmTLs98lSmnI5l6RZKmeGived8pWwzE0oVzbLWNrylrhkSSZtJslc+vKXm6llyoSJsjcC85jInMwqZYbHZDrzmYMh5sikCbJRQvOa2MymNrfJzW5685vgDKc4x0nOcpqTkMrAAAYGgooPcnAgk/jgRgpBkG9EMJ3r/hRIO4XXwXgSJAifwic73dlPeWqEngOx50AEqk+CwvODAPWU4phImid+ZEUCgeNEBwJF3Vn0nCANqUhHStKSmvSkKE2pSlfK0pa69KUwjalMZ0rTmtr0pl9yBS1igdOe+hRiGEsZqX5K1G+KTGVHTRmsisrUbQYVZblqqlSvqbCaJRVlxpqqVp351JHxxnVbDasvrzoysoLsW2JNKy67CjK2fuwBQGiXWud6SrN+LAN1uBdd9+rJftXMrR67ABgIxtfCTtKuHpvBFghr2MYasobycKxkJ0vZylr2spjNrGY3y9nOevazoA2taEdL2tKa9rSoTa1qV8va1rr2tbCN/q1sZzu1W0yDlLTNrW77Awl/nKxmU6DEFnZLXJchtmPHzVgi3qGJ4jpXZb39Lc2+8Ao4PPe6IKsqzZJrMTVMg2PYDa/FomuzRXgjE+JNb8S4OzH2SkwLoQiDeud7MPLWzL40s8APLEDf/vr3vwAOsIAHTOACG/jACE6wghfMYI6woX1tI4gg5YbEf1BhkMurwSBTyYZAcHRuD2bb3CactwpfWG5u07DwFsU/SMzNGxqMnik+uLzeEoQHbqMC/5RHuwi6mCAw9pyMaew2Gw8EjodSBu/+8YYxqmLJk/AMPJcMvw6+gcpB6OAVlKG9f1xhjEoeSJMJ8mR4Slkgk6Dy/TsFcuV/ImqXqlwmzCZgzQbbmVbU9FgQNnnnPvs5LBy0Y8vOZ8Y/G5pTee4YDxJ96EY7+iZyftniBvnoSj+K0RZbtEFhxoNmWvrTjoLzzDBgTFCb+tSoTrWqV83qVrv61bCOtaxnTetaXwYa8KRERKtsOOqtWSCZ8DUG5ABP9MGPepMw9guQreuB/Pofk/D1GIPt7GEXe1Fdhl3eoFi7wuEub3Q2XQATBzwbtk/b3mOht1+Xu92Je1G08NskqKhCu4Vvbpdon+IYJxBIYBhyDxRiE/+2bXuv+x/5Bje/I0fpmkXaZYG2tcQljumJ8aCVE894mUQts4g7vM7/CQgAIfkEAQcA/wAspgAwAIcBqwKnEBAQEREREREREREREREREREREREREREREhISEhISEhISEhISEhISExMTExMTFBQUFBQUFBQUFRUVFhYWFhYWFxcXFxcXGBgYGBgYGRkZGhoaGxsbHBwcHBwcHR0dHx8fICAgIiIiIyMjJCQkJiYmKCgoKSkpKioqKioqKioqKysrKysrLCwsLCwsLS0tLS0tLi4uLy8vLy8vMDAwMDAwMDAwMDAwMDAwMTExMjIyMzMzNDQ0NTU1NjY2Nzc3OTk5Ozs7PT09Pz8/QEBAQkJCQ0NDRERERUVFRkZGR0dHSEhISEhISUlJSkpKSkpKS0tLTExMTExMTU1NTk5OT09PUFBQUVFRUlJSVFRUVVVVV1dXWFhYWVlZW1tbXFxcXV1dX19fYGBgYWFhY2NjZWVlZ2dnaGhoampqa2trbGxsbW1tbW1tbW1tbW1tbm5ub29vcHBwcXFxc3NzdHR0dXV1d3d3eHh4enp6fHx8fX19f39/gICAgoKChISEhoaGh4eHh4eHh4eHh4eHiIiIiIiIiIiIiIiIiIiIiIiIiIiIiIiIiYmJiYmJioqKi4uLjIyMjY2Nj4+PkZGRk5OTlZWVl5eXmpqanJycnp6en5+foKCgoaGhoqKio6Ojo6OjpKSkpKSkpaWlpqampqamp6enqKioqKioqampqqqqq6urrKysrKysra2trq6urq6ur6+vsLCwsrKytLS0tbW1t7e3ubm5urq6u7u7vLy8vr6+v7+/wMDAwcHBwsLCxMTExcXFxsbGxsbGx8fHx8fHyMjIyMjIycnJycnJycnJysrKysrKysrKysrKysrKysrKysrKysrKy8vLy8vLy8vLy8vLzMzMzMzMzs7O0NDQ0tLS1dXV19fX2dnZ29vb3Nzc3d3d3t7e39/f4eHh4uLi4+Pj5eXl5ubm6Ojo6enp6+vr7e3t7+/v8PDw8fHx8vLy8/Pz8/Pz9PT09fX19vb29/f3+Pj4+vr6+/v7/f39/v7+/v7+/v7+/v7+/v7+/v7+Ms0yCP4A/wkcSLCgwYMIEypcyLChw4cQI0p0uIvXrokYM2rcyLGjx48gQ4ocSXKkAhQKSqpcybKly5cwY8psaEIWqJk4c+rcybOnz59AgwodSrSo0aNIkypdyrSp06dQo/YE4g+e1KtYs2oF+UMeuq1gw4odS7as2bNo06pdy7at27dw48qdS/fqyZR18+qNS8LRnb2AAwseTLiw4cOIEytezFgqj6qNI0ue+djq5MuYS2J4siOz58+gQ4seTbq06dOoh95NzRq0BjBOWsueTbu27du4c+veTdKJv3i8g9etLLx43A90xBhfzry58+fQo0uf7tHCCwvUs0fN4COE9u/gw/6LH0++vPnz6EcTT89eJopNktrLn0+/vv37+HGvzs9f4/7+AEZUAzjZBGjggQgmqOCCDOa0XoMLttDMLRBWaOGFGGaooXwo+IDChgH+B2J+Nd004okopqjiiiwqRpVlLcrX1Vcx1mjjjTjmqOOOPB4kYo/g9fUXkEQWaeSRSNb4YJLSueKPPUxGKeWUVFZp5ZVYZqnlllx26eWXYIYp5phklmnmmWimqeaabLbp5ptwxinnnHTWaeedeOap55589unnn4AGKuighBZq6KGIJqrooow26uijkEYq6aSUVmrppZhmqummW+GSCy6cnvVjqGGVSOqpqKaqKkQvrgpWV/7nuCrrrLTWautRo966VAiM1KHrr8AG6+eSwiJFbLFGYeBEZ8g26+yzZeYK7U+vxTbttdhmG2Wr2gJ1bLc6fTCHcuCWa+65KFqHHbo6ZfCDd+zGK++89Er5bb0qkZBJJPj26++/4EkLMEgCD+xRDeEUaPDCDDdc270OayQhhRFXbPHFl6mLcUcFb+yQCbOE4vHIJJc8F7cmR/RDPLGm7PLLMMcs88w012zzzTjnrPPOPPfs889ABy300EQXbfTRSCet9NJMN+3001BHLfXUVFdt9dVYZ6311lx37fXXYIct9thkl2322WinrfbabLft9ttwx71WLYcQpABe/+xwSP7dAtXwoW0KSDGQI44QhE1jt+D9jyNo2D3kP3vbLbhAkQ9kQQ0EHXLEQHdnPvk/ne+EjT8E1YC3Ff6QLhAaf7MmxecK8P1P6oYjroA4A/njC+cKvJK76gLF/jvmAlnweeqPhy6QP7LfjbtOvoxS+umjSC+QFK2nRnvwjQtkiim1M5a47KZ0D7oCj1dvt/nVE/+P8QNVDwbvBI0Cu/AZbi83iJUU/rP++zMLGszXM+UF8IDGSQKzfHYdBJoFgDyDoAMhBIbPjUwPeJCIBDG2A/c9BHhSwFsN9HcIxelvFCdByw5ul7vdBc8C4Fse8CAnuzSBoXVH0B8lsqe/V3QILf47LEfumjEQFLwAFr8jCAqyhybF1cCDBlzg+dLyBMVJUQHr6hsUFTfBLmZmgzlzRA29SMYy2sgCXNwZGs3Ixja6UThgxJkprPfGOtoRQmv8WQey2LNg/OKOgAzkgeJ4s3E8T5CITKQiCZNHn4lxkZCMJHkIaTNKSvKSmMwkVPYINDcQUJOgDGVuLEkzUs4sC1YQpSpXSZtG9qyDrIylLGf5ElPK7JG0zKUuI+NKnvVyl8AMpjANYsuYzXGYyEzmXH6pM07+zI/KjKY01VLMaVrzmtjMpja3yc1uevOb4AynOMdJznKuygpZ3IH+HMFH/TXiI27QHzoHok7gsZMg+v4zRQc6kKp5CqSeg2sn8N7pkXgCz595W6dAB6JPfqLKiVskyBU/UoOJDuSJdrOi3fhozo569KMgDalIR0rSkpr0pChNqUpXytKWuvSlMI2pTGdKU6TAYhZI9JkIfiCCn5mqpkAVJsp4BqugGvWo2uoYzYSE1KbGEmI2g2rNlCVFp1o1k0qdWbWuytVM+gY4PpMqzcRFrq6adZEa85m74HXWtrr1UmKdGQo0EZ+32rWOWZVZXmOGMIXd9a9mjKvMJgbYwpKxQ0zU2V4Ny9jGOvaxkI2sZCdL2cpa9rKYzaxmN8vZznr2s6ANrWhHS9rSmva0qE2talfL2ta69rXyyf6FLnLxs8W+DAyycANsd5syR/iDEz/zgzwuwdviGnc6tnXZExyhheM6t2KH8Icmfhbd6fpsBE8owXO3y7DkpqwGYOABd8cLMEr4AxXUle7PgjAHI5D3vfhKa8864AMPwPe++BVNdX+mBU2MIb8ADrCAB0zgAhv4wAhOsIIXzOAGO/gwNSBgI2ug24sqboADCSFBPJlhPkqBgMqLMEEmXOG+Xdh8Gh4Ih6/HUUZFd8R4Q4P+UvyPEQKvhPgE3igskEVfAE8cynux5WI8YxGS0IQ65jGk3PDHgTjzH1YIRjDomc5fNPkfbuAjNAXiiH0y9MqmULJAmEyQJ0d5yv+s8v6Vs0yQLS/Oyw/uIjNxZgErWDDOeMZUNV0GUJ/tYMV5DrSl5nyzF7wgsYJOtKJ30uee/QAS/lu0pBlFaJvxOI05s4AhJ81pRe05ZTv4hQs7TWpCPdmXla4ZDOlY6la7+tWwjrWsZ03rWtv61rjOta5Jigs+QqLE/+hAHAYX6felksvF7oAUIfEDy/HREcd+n6+BLWxijzjahCvzspv9qMQdUnecg2ESOSe71LkPfjIssQGZx7tvjxqLMZzdDPEn73Mfzx/AZlTizMe4cEe7csH73N7O7b5DQJt+AznE/fhtPiz+u4aBS/ghCJ7wg+/6o5f+mQVwefGOg+nTJms0zxB2AEuPm7xLqaZZne/cn4AAACH5BAEHAP8ALKYAMgCHAasCpxERERISEhISEhISEhISEhMTExMTExQUFBQUFBQUFBUVFRUVFRYWFhYWFhYWFhYWFhYWFhcXFxcXFxcXFxcXFxcXFxcXFxgYGBgYGBkZGRkZGRoaGhoaGhsbGxsbGxwcHB0dHR4eHh8fHyAgICMjIyUlJSYmJigoKCoqKisrKy0tLS0tLS4uLi4uLi4uLi8vLy8vLzAwMDAwMDAwMDExMTIyMjIyMjMzMzMzMzQ0NDQ0NDQ0NDU1NTU1NTc3Nzk5OTs7Ozw8PD4+PkBAQEFBQUJCQkREREVFRUdHR0hISEhISElJSUlJSUpKSkpKSkpKSktLS0tLS0xMTE1NTU1NTU1NTU5OTk5OTk9PT1BQUFFRUVNTU1VVVVhYWFtbW15eXl9fX2FhYWJiYmRkZGVlZWZmZmhoaGlpaWpqamtra2tra2xsbGxsbG1tbW1tbW5ubm5ubm5ubm9vb29vb3BwcHFxcXJycnNzc3R0dHV1dXd3d3l5eXt7e319fX9/f4CAgIGBgYODg4SEhIWFhYaGhoeHh4eHh4iIiIiIiImJiYmJiYmJiYmJiYqKioqKioqKioqKioqKiouLi4uLi4uLi4uLi4yMjIyMjI2NjY6Ojo+Pj5CQkJKSkpSUlJeXl5qamp2dnZ+fn6KioqWlpaenp6enp6ioqKmpqaqqqqurq6urq6ysrK2tra6urq6urq+vr6+vr7CwsLGxsbGxsbKysrOzs7S0tLW1tba2tri4uLq6uru7u7y8vL29vb+/v8DAwMHBwcPDw8TExMXFxcXFxcbGxsfHx8jIyMnJycrKysvLy8vLy8zMzM3Nzc7Ozs/Pz9HR0dPT09bW1tnZ2dra2tvb29zc3N3d3d3d3d7e3t7e3t/f39/f39/f3+Dg4ODg4OLi4uTk5OXl5ebm5ujo6Onp6evr6+zs7O3t7e7u7u/v7/Dw8PHx8fHx8fLy8vPz8/T09PX19ff39/n5+fr6+vv7+/z8/P39/f39/f7+/v7+/v7+/v7+/v7+/v7+/jLNMgj+AP8JHEiwoMGDCBMqXMiwocOHECNKdDgAxYCJGDNq3Mixo8ePIEOKHElyJIYoOkqqXMmypcuXMGPKnEmzps2bOHPq3Mmzp8+fQIMKHUq0qNGjSBMC8fcuqdOnUKP27MFUqtWrWLOCJLFIj9avYMOKHUu2rNmzaNOqXcu2rdu3QimsoAC3rt27CuXSxcu3L1wc8cr5HUy4sOHDiBMrXsy4sePHUqk2hUy5sswVt0hZ3sy5s+fPoEOLHk26tNuKF02rLo16tWvRK5Ltek27tu3buHPr3s2790zJvoP3laENmvDjyJMrX868ufPnQPVCn661NfXrUk2E0oS9u/fv4MP+ix9PHu3SyeXT3zyvvn1NBDo+uJ9Pv779+/jzJ7euv/9GEnqQ4d+ABBZo4IEIJhgVcAo2SBCDDjrIARhORGjhhRhmqOGG/fHH4YAnpfThiCSWaOKJKIrGXor3QcgifVx59eKMNNZo4404GiVdjuXtyOOPQAYp5JBEFmnkkUgmqeSSTDbp5JNQRinllFRWaeWVWGap5ZZcdunll2CGKeaYZJZp5plopqnmmmy26eabcMYp55x01mnnnXjmqeeefPbp55+ABirooIQWauihiCaq6KKMNuroo5BGKumkA3pIqVghXqrpppx2mtGKnmrlYqhXxUjqqaimKqmlqjqFgg/+KLQqFWCCyWrrrbjmOWquRGGmGa/ABitsmawO61OxxvIU22zJNuvss03uCi1OxBk37bXYZlujj9rahGy3MGnHHbjklmtugtKey5IT/sCjrkzwyffuvPTWK9639m4VYL789uvvcen+y1HAAms0YYUFJ6zwwp/hyzBEmT4s8cQUEwZqxRIRjLFCpm7s8ccghyzyyCSXbPLJKKes8sost+zyyzDHLPPMNNds880456zzzjz37PPPQAct9NBEF2300UgnrfTSTDft9NNQRy311FRXbfXVWGet9dZcd+3111o+M5AWqQkEByUEDVD2a4ggIsNAahOECBWcDUC3QG2/LZD+RQRRogXca88NuBoDdYIIQRT8jffhcN9Nkz8DmRK3QMRALhA4k9Pmjz+EC5T5P/4wbtkAnYPuj+Mo6C2QP2h7vrY/v/6jtjAD+QMO4q2bnnbpM1UzEByZU2LKQIh8Tpvjn5PieGV2D0QKKaqnTpApisu+Nimlqy06LKL/QwEczscu+/JgP7R5zOe/Bs7tMBvPsvvlcwiL+C3zDfNctFGSu8vpx+8/dMmgHcz697+ywK9IFFgbRISROVJYTiAJJN4D/yEDBZqFdLU73UAooDrQte6ARIrgRJKBglgJBBYTXIEJ/9GJCR5hhWhBAR8yCIaBrOAIBPGHJ6AUC1hg5HP+HfQeQWQgIs+xZW0y6OBeBlLEAjrxiWUhYMukCMUqWvGK4hHhyyjRPSx68YsvouLKxKgyHQQRjGhMI4c+sESXaYF8aoyjHBtExpTVEWV9mOEc98hHA2nRZX/soyAHScjC3PFkXCykIhc5nkCyzJErWx8jJ0lJ6hzSZMQQYCU3ycnjQFJln0xZDztJylLq5pIlQ6UpV8nKVooklChLpCtnScvNqHJktxSZGWvJy14yho0xe6Mvh0nMYhrzmMhMpjKXycxmOvOZ0IymNKdJzWqGRhRLNEUKl0iJCerAAR4BxwOJQYFsbnMg3SSIDtqoKWxG7pwCSScTwdkRcQ6EnOb+JAj+4ulNdl4qFEMsCAyJmLaPdBCIAh1iEy1ozYY69KEQjahEJ0rRilr0ohjNqEY3ytGOevSjIA2pSEdK0pKCzWEli5hJV6rMi7FMYyXrGEtnakxuPXKfLqMVTXdKTJiSzFc8DSovUUoyoo5sWUJNqit9OrJqKfWpprTpyowqMnFB9aqcdOnKtKqyeGH1q5OkasgAJCCwmpWQTBVZWkN2sLO6tY9iBdkI+nCGt9r1rnjNq173yte++vWvgA2sYAdL2MIa9rCITaxiF8vYxjr2sZCNrGQnS9nKWvaymM0s0uL6sRJE4QSaDa3KuikKmCHCHwB9GRIWsQXRutZkUgX+JU5bFoh4fOK1uBXZaVPrMjHcog65Da7HODtc+7lMDcnog3CXS7HdwkwP2tgfc6dbsNimjLgb20IowkDd7haMtDAD78vwMIg8ePe86E2vetfL3va6973wja9850tfq8ChdFRooxp4lzkq8E6LMgAf4Aiy34FUkCD3HUh+CczfsvkXcWULcNoYGigd9A8RbbSnQBhYNgdCWIJDdHD/1PC6B2KYIBr+B4edN0EtnjbEiPoBKojxO3kJxBQ0jmc50ZljgQDTbMVQ5xK1QIwea6GNxegxHGz8Dxyjc8fx7PE/fvwPOASZif6sr5aHBEvYdrlkFMjklsd8q1yCTAeSJLPimtdclnJSGGUUkCWb58wpM3/sB3ams573vJMvk+wDdRAwnwftqDxvzMITZJkOhEnoRi/KzyOjwC4dTelKW/rSmM60pjfN6U57+tOgDjWUEodOShSRyv/ABBc22Ea/sVrQmNjfB1Ydz/2RutanbqOqWd236pUT1tIlFAZXp0EIdpB1A65d7GZXO/ZBMHcEHLbpHMfBHObuc7ADnCYNXacBqC5vG+ygq10nt+xJmxL/rV7b0vZtt4W718nGm7lLJ2dR2/tMkBbZClR4737bm9sVk/Hw/E3wMOU7ZG6G2fqcXaCAAAAh+QQBBwD/ACypADMAhAGqAqcODg4PDw8QEBARERERERERERERERESEhISEhISEhISEhISEhITExMTExMUFBQVFRUVFRUWFhYWFhYWFhYXFxcXFxcYGBgYGBgZGRkZGRkZGRkaGhoaGhobGxscHBweHh4fHx8hISEkJCQlJSUmJiYoKCgoKCgpKSkpKSkpKSkpKSkpKSkpKSkpKSkpKSkqKioqKioqKioqKioqKioqKioqKiorKysrKyssLCwsLCwtLS0uLi4vLy8wMDAwMDAxMTEyMjIyMjIzMzMzMzM0NDQ0NDQ1NTU3Nzc4ODg7Ozs9PT1AQEBERERISEhMTExQUFBTU1NXV1dbW1teXl5fX19hYWFjY2NlZWVmZmZoaGhpaWlqampra2tra2tsbGxsbGxtbW1tbW1tbW1ubm5ubm5ubm5ubm5vb29vb29vb29wcHBxcXFxcXFzc3N0dHR3d3d5eXl7e3t+fn5/f3+BgYGCgoKEhISEhISFhYWGhoaGhoaGhoaHh4eHh4eHh4eHh4eIiIiIiIiIiIiIiIiIiIiIiIiJiYmJiYmJiYmJiYmKioqKioqLi4uMjIyNjY2Ojo6Pj4+QkJCQkJCRkZGRkZGSkpKTk5OUlJSVlZWWlpaXl5eYmJiYmJiZmZmampqampqbm5ucnJydnZ2enp6goKChoaGioqKjo6OkpKSkpKSkpKSlpaWlpaWmpqampqanp6eoqKioqKipqamrq6usrKywsLCzs7O3t7e6urq9vb2/v7/BwcHCwsLDw8PExMTExMTFxcXGxsbGxsbHx8fHx8fIyMjKysrLy8vLy8vMzMzNzc3Ozs7Pz8/Q0NDR0dHS0tLT09PV1dXW1tbX19fZ2dna2trc3Nze3t7f39/g4ODg4ODg4ODg4ODg4ODg4ODg4ODg4ODi4uLj4+Pk5OTl5eXm5ubn5+fn5+fo6Ojp6enp6ens7Ozu7u7w8PDy8vL09PT19fX4+Pj6+vr7+/v8/Pz9/f3+/v7+/v7+/v7+/v7+/v7+/v7+/v7+/v7+/v4yzTII/gD/CRxIsKDBgwgTKlzIsKHDhxAjSlyYQEaCiRgzatzIsaPHjyBDihxJEmTFiyVTqlzJsqXLlzBjJlxx65XMmzhz6tzJs6fPn0CDCh1KtKjRo0iTKl3KtKnTp1BZGvH3LqrVq1izdhzirpzWr2DDih1LtqzZs2jTql3Ltq3bt3Djyp079CTdu3jdhmgEJ6/fv4ADCx5MuLDhw4gTKy6ahOrix5BfNq4aubJlkRWaBLnMubPnz6BDix5NurRpmXZPq7bcoYqT1bBjy55Nu7bt27hzY5xKWbfvt7x/C2/7oc2U4ciTK1/OvLnz59Adpo5OfamDIyCqa9/Ovbv37+DD/osfjzg4+fMuR4hqhL69+/fw48ufT7qCjgr082O0j1+//4c+hAPNfwQWaOCBCCaoYEnmLWhgDsXc4uCEFFZo4YUYbjddhvJtyCF8NNn04YgklmjiiSji1WCK43HlFYswxijjjDTWaCOLHt5InQ7M7KLjj0AGKeSQRBZp5JFIJqnkkkw26eSTUEYp5ZRUVmnllVhmqeWWXHbp5ZdghinmmGSWaeaZaKap5ppstunmm3DGKeecdNZp55145qnnnnz26eefgAYq6KCEFmrooYgmquiijDbq6KOQRqpUjpJmRWmlV4WI6aacduopQSt+CpWLopZq6qmopnrTpaoWtVdf/q3GKuusZ05GK1K23mpUZpvp6uuvwD7JarA5hWDFE8Qmq+yyNobKLE7OPitTccdJa+212C44bLYpXZcdt+CGK+64M0ZL7kjqsXfuuuy2ixx/7pYEb7wjBTggvfjmq29o5u47kQ/G4OLvwAQXTNi2BlNkUcIZacrwwxBHXFa/Eh9EasUYZ6zxxhx37PHHIIcs8sgkl2zyySinrPLKLLfs8sswxyzzzDTXbPPNOOes88489+zzz0AHLfTQRBdt9NFIJ6300kw37fTTUEct9dRUV2311VhnVEF///gwCCMD+YDSbIMMQlACrwlUtmUJjP3PIF2cHbdAjJg9UAXIqm23/kAJ+EDQIH4LVIHbjOT9TwLN4FQE1074489AXbgdmz/hnL2342wnULlA/vwyUNuuDIT53WBz7k8Rn6f9j+Nz/zM4Qf6UfnjiNy0+kBOuxHI7SpfsrZorvifQuiuhV9a27K603nbrsRQveBkDEY8636oTr/rrA8ViOOJHjZ71WWVAb/LW35efHBOBl7yw+WV5T7L77C9IhervP24y/KStbXLb8Vs4dhHeGwTXVme/f7iCf2xp2+ZW5zm+JcB5+MtSHGQwkCZ47xI6gF0BayEDCrKlg+QQnTEG0sFaiK6AStKBB6VDkCJMj28DTN/hJJcWBApEhjb8RxFkmKQd9u+H/kAMInciCDJHyE6ISEwiibBXMiYq8YlQjKJqiPix5knxilgskBNHtkWRAaOBWQyjGN9DRY+FY4FjTKMa1wgXDwxwZEZkoxznCJ0ydsyOdMyjHvdIlC6GrAyt46MgB7kaPG7MkBp7Av0IychGfkaFJ/OhIydJyUp+BJEZi6MlN8nJwfgRZJ/spChHSUlMYsyKpEylKtcSSo+1smNfXKUsZ0nLWtrylrjMpS53ycte+vKXwAymMIuEBO8xYoDeiwX5OEIK7z2Ba8Us4DE1mL1ldiqaA5nmCav5Row0s4DPHAg26YbMAiqzm5Vy4dnchkMaYsQPOGzhC2dIkHYO8574/synPvfJz376858ADahAB0rQghr0oAhNqEIXytCGOvShEOUOwjQ20Yw5LKIYpSTFOHaxjHr0o7SqKMZeBdKS8jFXJEMpFzVj0pbSUaQVa80iXUrTMG50YzfVWHGoUNOeihGmEvOWT4dKVEPlNGPpKqpSkzgvkjV1ZPZaqlSBeFSMQUhgU82q+YAaMVLMghRaDatYx0rWspr1rGhNq1rXyta2uvWtcI2rXOdK17ra9a54zate98rXvvr1r4ANrGAHS1i8cBVih31YFW6hhsI6tmCD8AdYS1YHd3DisZjN7HASy7AmNAIKmg2tuxjhD1OYjLSmLZkImkAC0br2XJxN/tgPqnCE19o2XJGdLMlya7IktIEJtw0utmJrsAwcgQPCTa5yIXMLfwhjudCNrnSnS93qWve62M2udrfL3Yza0AeBFBtB4tA6JwywC+V1mxMCub6uic+BYQuv28h7u/OmV1E27IL3nDA2HwSwnNGz4S8KGI72RnadkNtvf/9LTYEc0J1+Gp01nwAMYAzEdgIpgjEsLJAyeIAgFc6mNWPB4X/E4j4DKcNz78Y1CpcYwzrccIo/PJAQkxOdfRonyVzIw+76eFGv3JgHomC4Hxs5UaaUGABRKLIiAPLIUEZUkDW2NQhH+cpYdsmSTVaEumX5y35yo8k8IOYmnhHMaNZTt5IjhgRhlDjNcJ7TlDNmClPoNs54zrOe98znPvv5z4AOtKAHTWiGWfMfjHiv696rScFZIZtHrMA8GfHCMtPt0YIbYKIJUgFGRxrTiI70PAulQNGBEXTb/NwlTvhCtJ2wdU70x6oduMDOfe6BqebbrAnY6pkOqm3vhdutVeflz/FUb61OX9mu57ZBHHuGwVaeq+kWvGeXLdmm4/KaC81t6lZ5fMXutrihtO2H6XhkPB63up0U7v8EBAAh+QQBBwD/ACynADAAhgGqAqcRERERERERERERERESEhISEhISEhISEhISEhISEhISEhITExMTExMUFBQUFBQVFRUVFRUVFRUWFhYWFhYWFhYWFhYWFhYWFhYWFhYXFxcXFxcXFxcXFxcYGBgYGBgYGBgZGRkZGRkaGhobGxscHBwdHR0eHh4gICAhISEjIyMmJiYoKCgpKSkpKSkqKiorKyssLCwtLS0uLi4vLy8wMDAxMTExMTEyMjIyMjIyMjIzMzMzMzM0NDQ0NDQ1NTU2NjY3Nzc4ODg6Ojo8PDw+Pj5AQEBDQ0NERERGRkZISEhJSUlKSkpKSkpLS0tLS0tMTExMTExMTExNTU1NTU1OTk5PT09PT09QUFBSUlJUVFRWVlZZWVldXV1gYGBkZGRnZ2dpaWlpaWlqampqampqampqampra2tra2tra2tra2tra2tsbGxsbGxsbGxsbGxsbGxtbW1tbW1tbW1tbW1tbW1tbW1tbW1tbW1tbW1ubm5ubm5ubm5ubm5ubm5ubm5vb29xcXFycnJzc3N1dXV5eXl8fHx/f3+BgYGEhISHh4eKioqLi4uNjY2Ojo6Pj4+QkJCRkZGSkpKUlJSWlpaZmZmcnJydnZ2fn5+goKCioqKjo6OkpKSkpKSlpaWlpaWlpaWmpqampqampqampqanp6enp6eoqKioqKioqKipqamqqqqqqqqrq6usrKytra2urq6vr6+wsLCxsbGysrKzs7O0tLS1tbW2tra3t7e5ubm5ubm5ubm5ubm6urq6urq6urq7u7u7u7u8vLy9vb29vb2+vr7AwMDBwcHDw8PExMTFxcXIyMjMzMzOzs7R0dHU1NTX19fa2trb29vc3Nzc3Nzd3d3e3t7e3t7e3t7f39/f39/f39/g4ODg4ODg4ODh4eHh4eHh4eHh4eHh4eHh4eHh4eHh4eHi4uLi4uLi4uLi4uLj4+Pj4+Pk5OTl5eXo6Ojr6+vv7+/y8vL19fX39/f5+fn7+/v8/Pz9/f39/f3+/v7+/v7+/v7+/v7+/v4yzTII/gD/CRxIsKDBgwgTKlzIsKHDhxAjSmy4zN+9iRgzatzIsaPHjyBDihxJUuQLZbdKqlzJsqXLlzBjypxJs6bNmzhz6tzJs6fPn0CDCh1KtKjRo0gLHnBxIKnTp1Cj8iRxZYjUq1izat3KtavXr2DDih1LtqzZs2iB+vAnL63bt3A7rm0bt67duwhRJBqEt6/fv4ADCx5MuLDhw4gTH17aVLHjxzoZQ55MWeYOevAqa97MubPnz6BDix5N+uzc0qhJr5CVKbXr17Bjy55Nu7bt20Ul494N2AUQF7yD943RrJjw48iTK1/OvLnz5zxPQ5+etQe1ZtSza9/Ovbv37+D9/uoOTz4y0/LocarIBCm9+/fw48ufT3+79Pr4Pd7Pzz8jAxwh9CfggAQWaOCBCCY1XoIM/nMCIV40KOGEFFZo4YUD7odhf0z4M8+GBIrARRIglmjiiSimqKJnC64IH1VWuSjjjDTWaOONSWmI43c67tidXnz5KOSQRBZp5JECtYgkdEou6eSTUEYp5ZRUVmnllVhmqeWWXHbp5ZdghinmmGSWaeaZaKap5ppstunmm3DGKeecdNZp55145qnnnnz26eefgAYq6KCEFmrooYgmquiijDbq6KOQRirppJRWaumlmGaqpjIWaTrWSSl5KuqopJaaUZOmSgVjqqy26uqo/j2+miNbsl4FZK245qproajuKlSvvgJ1WWbBFmvssWzGiixPq7W27LPQRovlBjFsIO1P1Fp7bU/EGbftt+CGW6Oy4sJkHXblpqvuuhICy65K7r5L0nrtyWvvvfiiR26+IO3Lr0f/BfjvwAQXLFy8BmP0YIQJN+zww6IJQSvEHklMF8UciUgixhx37HFgCH+M0Koil2zyyWL5izJBr/hjz8owxyzzzDTXbPPNOOes88489+zzz0AHLfTQRBdt9NFIJ6300kw37fTTUEct9dRUV2311VhnrfXWXHft9ddghy322GSXbfbZaKet9tpst+3221lN0ZhAaCRC0AFzd2H3/myS0DDQAdoKlIg0kFVD0AZYDJRIIn4nOfc/jA+0weOLJO44GorvnSTmAi2iuU2iAD5QMv4MNA7eAzFTumz++MP5Pwf0QJA/7zxGw+oCbcDHQK1P8XfjArku+eP+nPL3AcnwPs7dovCOu01oiC5484KjHvzzqI2zvCiw+J6k7AOJQrhjNLhzuOX/iCIK8AcAn773/0xO0Cm7O665KJ8f8Pop1GNofc8bCBzcQASL/vHsPD5DoGsW97PWDfCBz2GGMhqIPQh+hQbu29n/oPSIR/xMG9eISDuWl8C5ieJ5/0PD82gwtym0YyzGeJ7unIe+9s3udWT6zUBg8TwXAEcg/oR4HhJ++I8umE8sh3heDArhPIb9wwVImB0hzkTEf2TwcRi8G0Ey+JVbODF+W3Tf46xYJfn5zIw9458F18hGKTnQZ+kgYRvnSMc6eocEAtwZIxZhxz76UUZv7FkgeRYE8P3xkIjEEBp5hgX4JfKRkETQIHc2SZ3xAYeRzKQm8YPHn/WAi5sMpShHeZdK5myPpEylKruzyJ21UmfsSMcqZ0lL55gSZ8pIXi13yUvevDJnv8SZGntJzGLG5pY3i6Mxl8nMZrqkkz5DpTOnSU3IINNm16xZIavJzW4WJpg320UuvEnOcprznOhMpzrXyc52uvOd8IynPOe5xlPIMHB8/nheD/KoEWgMRBnQ/Ic9D4dPfQZOC+ww1UAlV1CC7PMj/hQIQAO30Nw1dCAPFQhCTXXFMGpxJAHcolI8+jeH0vOkKE2pSlfK0pa69KUwjalMZ0rTmtr0pjjNqU53ytOe+hRKwnCZz4SwjGD89KjxDBnMSIbUpq5TZTGDKsxu5dSqolOpK8MqyoZl1a6WU6ora5ZXx8pNrZ7MN1XUWbfIylZnghVl52qrXI1pVpPVtWT0mqteefnWk/XVZAHbq2BneVeRLWywiCXlX0vWoQ/1TGOJjaxkJ0vZylr2spjNrGY3y9nOevazoA2taEdL2tKa9rSoTa1qV8va1rr2tbCN/q1sZ0tblF7DH0fkGRiUMcXa+pZnhf2YC64gg98aN2eJ8AcmfJbc5fYMCYm4wnGnW7Pgesy6HUMEPSpB3e7GrLk+44Is2uDd8p4MuxxDq8/a0AxDmPe9HwNvzwhBDT7C974UQy/G9EuxLyCjt/gNsIAHTOACG/jACE6wghfM4AY7+MEQxoncCIIGHKJxCjj8Hw0y/LhLDoSFFH7dhAdS4cO1kMMfRvFA6teo0BFkHLhTBhpPeLe5qXCLc8NCIKM3O9y52HQxnjEKbbzCHMvSUYsQ4CkmKBBGBHQRTLboQLAQ5X9k9B9aUEaUsSBALQ8kyfOLspMDB2WCTrnKV9bC/ioinJRszqwHw2SznHcV0J2RoM4620Au58znXLlZZj1QZp8HTWiwBHCMwIxzoRctqj/HrAeOZrSkJ90TcNZMd5iktKYhFemVBaHTcG3kpkdN6lKb+tSoTrWqV83qVrv61bCOddCcQRASaOHLiwgCQwmyCENWiyCMuLVFAYHrw7F4EvYViK1xrWspf9nXAgw2Q4ntqBdKjsWtq6H7hCcQBf6jeMeLsj/kCLv+DXKG19P2DQfibXA7rsqLQlfuDLk4Q9pQcfDz9iJYjDcWJyLD8JPE5zZA70TY232JyDfl+H0AFsu6NJCuIM564OGHW9xNlqbZoS/OcVmD+mRwNuCAAgICACH5BAEHAP8ALKYAMQCHAasCpxERERERERERERERERERERISEhISEhISEhISEhISEhISEhISEhISEhMTExMTExMTExMTExQUFBQUFBUVFRUVFRYWFhYWFhYWFhYWFhYWFhYWFhcXFxcXFxcXFxcXFxcXFxcXFxgYGBkZGRsbGx8fHyEhISQkJCYmJicnJygoKCoqKisrKywsLCwsLC0tLS4uLi8vLzAwMDExMTExMTIyMjIyMjIyMjMzMzMzMzMzMzQ0NDQ0NDU1NTU1NTU1NTU1NTY2NjY2Njc3Nzc3Nzg4ODk5OTo6Ojs7Ozw8PD09PT4+Pj8/P0FBQUJCQkNDQ0NDQ0VFRUZGRkhISEhISElJSUpKSktLS0tLS0xMTE1NTU5OTlFRUVRUVFdXV1paWlxcXF9fX2JiYmNjY2VlZWZmZmdnZ2hoaGlpaWlpaWpqamtra2xsbGxsbG1tbW1tbW1tbW1tbW5ubm5ubm9vb3BwcHBwcHFxcXJycnR0dHZ2dnl5eXx8fH5+foGBgYKCgoODg4ODg4SEhIWFhYWFhYaGhoeHh4eHh4eHh4iIiImJiYqKiouLi4yMjI6Ojo+Pj5CQkJGRkZOTk5SUlJaWlpeXl5mZmZubm52dnZ6enp+fn6CgoKKioqOjo6SkpKWlpaampqampqenp6enp6enp6ioqKioqKioqKioqKioqKioqKmpqampqampqampqampqaqqqqqqqqqqqqurq62tra+vr7GxsbOzs7W1tbe3t7m5ubu7u76+vr+/v8DAwMLCwsPDw8PDw8TExMTExMTExMTExMXFxcXFxcXFxcbGxsbGxsbGxsbGxsfHx8jIyMnJycvLy83Nzc7Ozs/Pz9HR0dPT09TU1NbW1tjY2Nra2tzc3N7e3uDg4OHh4eLi4uLi4uLi4uLi4uLi4uLi4uLi4uLi4uLi4uLi4uLi4uLi4uTk5Ofn5+rq6uzs7O7u7vDw8PLy8vPz8/X19fb29vj4+Pn5+fr6+vz8/P39/f39/f7+/v7+/v7+/v7+/v7+/v7+/jLNMgj+AP8JHEiwoMGDCBMqXMiwocOHECNKdOjDH7yJGDNq3Mixo8ePIEOKHElyZMWLJVOqXMmypcuXMGPKnEmzps2bOHPq3Mmzp8+fQIMKHUq0qNGjCD248IC0qdOnUHkqZRq1qtWrWD+qyMUqq9evYMOKHUu2rNmzaNOqXcu2rdugJ9/KnUtX4ZB36erq3cu3r9+/gAMLHky4sOHDiBMr5plARYLFkCO/NNFoj+TLmDNr3sy5s+fPoEOHjSu6tGfSplNn9hAlhurXsGPLnk27tu3buEk2fpy7N90RYrT4Hk68uPHjyJMrX17TiEXm0K86Rxm9ulMSdr5Y3869u/fv4MP+i/e6e7x5myKOnDjPvr379/Djy59Pv35B1PbzSzxxSZH+/wAGKOCABBbImGMGJvhPeQoWOEM61jQo4YQUVmjhheHhhyF9LSiDy4YghijiiCSWiNhUJsKHYorubXUKizDGKOOMNNaIk4Y2cndXXjn26OOPQAYp5JDKaQKLJkQmqeSSTDbp5JNQRinllFRWaeWVWGap5ZZcdunll2CGKeaYZJZp5plopqnmmmy26eabcMYp55x01mnnnXjmqeeefPbp55+ABirooIQWauihiCaq6KKMNuroo5BGKumklFqHY6VeXYrpppx26mlCK36KVaiiWrVVV6WmquqqjWrKalH+OOD16qy01mrrrRsxiCtRlFm266/ABtulq8Le+FyxP7HmGrLMNutskLo+ixNwwklr7bXYhjhdtjZtyy1N2Gn37bjklltftOayJAERJaTr7rvwxnshsfJ2xJ9/9ear776yoctvR/7+u9GDEQps8MEIK0Zvwg11+CHDEEcssVykTvxQxRY3NMM41WTs8ccghyzyyCSXbPLJKKes8sost+zyyzDHLPPMNNds880456zzzjz37PPPQAct9NBEF2300UgnrfTSTDft9NNQRy311FRXbfXVWGet9dZcd+3112A7pQlv/8SACCID7UD2P4hI8loCagx0NkEexC2QOoshksX+QB6sjYgeBCUgh9xoD5TA3gItUrhACUBBECI7GO434jTNQnYW/vgzkBxrZ/72MAP5ww3fHoAS+mL+LN736AL584zkL7bOOuOLZ77sgmCE7s/gjN/+T+o2WT5QFqCYLtAWaxuvWgKLg6J63QO1sxgolPfdPOCMCz6Q84Hb/c8poNyeQO4CFb+F4b5TH7bQUkTuMoLrm+W5y/PHbyEYlLNcv/6ap3ZK7C1LwNpWJkD7XUgP3oPY/hwCv4gtECIxqB8i1saN/n2vbwMZhgXLAjyBrC50xoBd6GaXpC3kLyJQqJ8kVECQdFiwFi5goUCesUGy+MNtAokhj373OoGoQAX+tdDdmGLguwIOxHceoIpAfFcWJK7NfdkjCBENSEXQYNBlO2BiFbfIxRo9MGVfRJkcEtjFMprRRCNQIsuueMY2uvGNtQnjyWABQDja8Y4EYuMaB6gyY4AOj4AMZH7kaLJxkFCQiEzkefS4MkaqDHyKjKQkwUPIklVykpjMpCafksaX2YF3mwylKHFzyZGVUmQmHKUqVxkbR6Ysi6yMpSxBc8qQ1RJkY5ylLnd5mU66zJW8DKYwh4mQW36MjsRMpjL1sgkkLfOZ0IymNKdJzWpa85rYzKY2t8nNbnqTZrSo3yLUOA4LwsKX/9jER7YwgrSJk5zmRKcxakipcFpwnAT+KedAzqlEdXqEne68Jzz3KU96TmoWRVwbEtUoQ4BJMaFSpJsatfjNilr0ohjNqEY3ytGOevSjIA2pSEdK0pKa9KQoTalKV8rSlkokhfFw2cJcStNdYgxlNz3ZqWrK02XONGQ76qlQh2qtgJ2sV0RN6ix/CjKmfkxZSo3qKo1qMmpJ9aqh9BbLtLqycGH1q5ikasnSsx6wmvWsk3Kqx+6F1rbiUawkg+vICObWur5RrRlzmF33yte++vWvgA2sYAdL2MIa9rCITaxiF8vYxjr2sZCNrGQnS9nKWvaymM2sZjfL2c56FlKI8IczWRba0X72tE9dyi9V27Iw5MIOqI3+rcdK6zJAvKMSss2tbq0jV5FVoRFc2K1wD0bblhWXZSWIQlmHy1x99TZkNRADEZpL3Xotwh/+ZNl1s7uyItiBCdUN77ueC7ITRAEF4k2vetfL3va6973wja9850vf+tr3vucx4j92AMqyqVEN3svC2gA8kC2oMQv91W8MEqhf/krxvwEesPcMTBAEJ0oNZJND/bKgxAhacIIEqeBATsFGDQ6EG/oNrRQzvOEOS5CCFiQx2UycKCVyQRkhFMgO2qljY+T4H3JQ4yl+3Ah0nkIZI07i5n68XxvjOG083q+PNydkIhsZyfg9ozEztoMtW2wHsMyymD8FTJN5IJVjTvPuprw8MSmwWWL8JaOa5/yoMpdsBESAIp33zOefdNmgJ9uB4vpMaEXZmWRJ5CNODVnoRhvqzRHbgR8dTelKW/rSmM60pjfN6U57+tOgDrVlF3E+gaDzH42ALd9U/Y9FLIJupUb1qweCZ4IsYroeVCOpaa3GVNON1a6G9UAaMWtT4/pQHfzHB1v3YwECUHSBq50/bndm3YEyAb5L9rJ/1+wEPJuEzNMdtetYKL3xDW4DWcS1ExBrRDCYcoqjNhTPFmtsP6566E7cutv97nQj4nZ6FrVHIQ2xHTBa4AjXdKJ/OeiEO7xLBGfYn7EYZgAFBAAh+QQBBwD/ACymADMAhwGqAqcHBwcJCQkKCgoLCwsMDAwNDQ0ODg4PDw8PDw8QEBAQEBARERERERERERESEhISEhISEhITExMTExMTExMUFBQVFRUWFhYWFhYWFhYWFhYXFxcXFxcXFxcXFxcXFxcYGBgYGBgZGRkaGhobGxscHBwdHR0eHh4gICAiIiIkJCQnJycqKiorKystLS0uLi4vLy8wMDAxMTEzMzMzMzMzMzM0NDQ0NDQ0NDQ0NDQ1NTU1NTU2NjY3Nzc4ODg4ODg5OTk7Ozs8PDw9PT0+Pj5AQEBDQ0NGRkZJSUlMTExOTk5QUFBSUlJTU1NVVVVWVlZXV1dYWFhYWFhZWVlZWVlaWlpaWlpaWlpaWlpbW1tbW1tbW1tcXFxcXFxdXV1dXV1eXl5fX19fX19gYGBhYWFjY2NkZGRmZmZnZ2doaGhpaWlqampra2tsbGxtbW1tbW1ubm5vb29vb29wcHBwcHBycnJ0dHR4eHh7e3t+fn6BgYGDg4OFhYWFhYWGhoaHh4eHh4eHh4eIiIiIiIiJiYmJiYmJiYmJiYmJiYmJiYmKioqKioqKioqKioqLi4uLi4uLi4uLi4uLi4uLi4uLi4uLi4uMjIyMjIyMjIyNjY2Ojo6Pj4+QkJCRkZGUlJSWlpaYmJiampqcnJyenp6goKChoaGjo6OkpKSmpqanp6eoqKioqKiqqqqrq6usrKytra2vr6+xsbGysrK0tLS2tra4uLi5ubm6urq7u7u8vLy+vr6/v7/AwMDBwcHCwsLCwsLDw8PDw8PExMTExMTExMTFxcXFxcXFxcXFxcXFxcXGxsbGxsbGxsbHx8fHx8fIyMjJycnKysrLy8vNzc3Ozs7R0dHT09PW1tbX19fY2NjZ2dna2trb29vc3Nzd3d3e3t7h4eHk5OTn5+fs7Ozw8PDz8/P29vb4+Pj5+fn7+/v8/Pz8/Pz9/f3+/v7+/v7+/v7+/v7+/v7+/v7+/v7+/v7+/v7+/v7+/v7+/v7+/v7+/v7+/v7+/v7+/v7+/v7+/v4yzTII/gD/CRxIsKDBgwgTKlzIsKHDhxAjSnSowx+5iRgzatzIsaPHjyBDihxJciQJNE1KqlzJsqXLlzBjypxJs6bNmzhz6tzJs6fPn0CDCh1KtKjRo0gTPljxIKnTp1Cj9gyhBIjUq1izat3KtavXr2DDih1LtqzZs2iJArGYtq3btx7XXoRLt67dhCj20LnLt6/fv4ADCx5MuLDhw4gT/1vaVLHjxzg5tOAAubJlmD/QjbvMubPnz6BDix5NurTprxXnnl4tWsUrUaxjy55Nu7bt27hz6/bJeLfvv71/C7fbYhqv4ciTK1/OvLnz59Btpo5OPeuLbNKqa9/Ovbv37+DD/tOVTFm8eZ3kz6u/qeJUp/Xw48ufT7++/ejT7+uPy3a/f40gyEDCfwQWaOCBCCaoYFHBLejgPyfcccaDFFZo4YUYZrhffhoSyGGH/olghREglmjiiSimqCJnDa4oH1U/uCjjjDTWaOONR8mF43k67igeCnzs5eOQRBZp5JFIJqnkkkw26eSTUEYp5ZRUVmnllVhmqeWWXHbp5ZdghinmmGSWaeaZaKap5ppstunmm3DGKeecdNZp55145qnnnnz26eefgAYq6KCEFmrooYgmquiijDbq6KOQRirppJRWaumlfX2IqVcnpbTpp6CGKupDLY6KFVVWmarqqqxSqmmr/k4d0R+sUOUlJK245qrrnqXuSlR6vh6V2WbBFmvssWS+imxPrsG27LPQRgtlr9LiRG21NhV3HLbcduvtisp+G9N12Ylr7rnoJnhtuiutwMMK7MqkginvxWvvvfiCF26+IfXIr0ogzDDgvwQXbLBu6x6s0Ql2TKjwwxBH/Nm+EkdEccUPiUgixhx37DFfCX+sUAlvWCHyySinrPLKLLfs8sswxyzzzDTXbPPNOOes88489+zzz0AHLfTQRBdt9NFIJ6300kw37fTTUEct9dRUV2311VhnrfXWXHft9ddghy322GSXbfbZaIv5hiAEcVDeP0mwXdsDMBAkSN0CPdCY/mWCyJ13EgN1cvdAbtt9w0B62w24QEytMVAkkRD0wBsD9W3TKAMZ489A3xQukCCbz734P/7443jeeFtWuuSnk+7P6BwcLlDplOe9N+mnDMSUMAP58w3iD6jSe+g0YS5QJLl/7vk/ayRP2wOjn3LK6HRzJr3ko79ySuqxDyT9EsATdErrTPmtSuS21/7P9Udpr/Nk77+9GuQ6r572/dtBw3vO9uNf1g2yw9ny/NchcPwuZ0zRWQJjs4bW3ax/YjoF8Raztzf0DwZvSwIEyQLBB7SudLAL4ASXtMGHvGKCK4CXQO7QPyO0YCBhKKFYILiCOwwvDANpwcaiBA1oYCR1/nkjCAAlRxAYALEsRiTiQG4ARPkR8IlQJAsHbmezKepsFcKLoha3SMIR1uwbB+SiGMdIxu1YMWeR8FsZ18jGE8lwZm+UGRPbSMc6ZuiMOCMDDu3Ixz4mKI4xAyTM6KA+PxrykPbB483miMhGOvKRfBHky9IIyUpacjskcGLNFGkzMF7yk6BkjiRd1sNQmvKUu+HkJqlYMyyi8pWwlM0oW+bJWNrylrhUiSppRslc+vKXipkly4S5MkYC85jITKYyl8nMZjrzmdCMpjSnSc1qWvOa2CzTBJdnQeLdYGD/WII/qNERYyxPFdt8WzeXCE5xevFS6RzIOgXyzYGIk5wc/jHn29DZNnX2r54CcSerbgeDHS6miEfMSOIGckSCGpSgCc2mRCdK0Ypa9KIYzahGN8rRjnr0oyANqUhHStKSmvSkKE2pSld6r4u5rFMsjek0Q+YyVMn0ps/0l810WjNb4fSny6Rpy4B1s2EB9ajHdGnLmoXUpuZSqCyD6sq05dSqxlKpLCOXVbd6SqJWEX44m1e9uEpWS2J1ZTylWcDAWda2NlKqKmOYw9xKV0OeVWV3TVkpcjGLuvr1r4ANrGAHS9jCGvawiE2sYhfL2MY69rGQjaxkJ0vZylr2spjNrGY3y9nOevazoA0tGUFnvEWiIQiiTW3N4JoyFSiBBaqN/m3MIuGPUqCxtjkrwh5GJ9veqoy1KPNqzQSBjtL69rgiI23OuPAKByL3uRgD7smkK7I3TCMP0M0uxpSLszpk4w/aDS/EhEsz8or3vOhNr3rXy972uve98I2vfOdLX1DKbw2FXCjcHKjfG+T3vq2Dwe0aaM/75ndvSeDv3vwrOQAvym17+wbxhKFfCUqughfMYP/WcLv+qQKPEh4Ihfdm4fAJZJ7/wOBANPhOQpEgkwNRhTIet7xIGKOfA2mCMm5Mz3Yag8fhlN+PB4IJGAtExjR+m41xLBAdAxmg4RxyfadM5eHl7AaqcF6VtwyrXcoMwjnjgDH2x+Uyr4qYKbtB4y3NzGZRGflmL9bkzDiQ5TbbGVRoRpkP8nznPvs5Mqyc8xuc++dCM4rPIrsBoj/2ilrQwtCQjrSkJ03pSlv60pjOtKY3zWmL0o9w4BMIJiIRwBcThNSEk18kQv2PTKoPE5hom/o+LRAOsHrUpWYrqmutala/OVEd/ODrCCdC05l4ds6bIpl9BzznBXt4IRxe6/SLO8IFulCWQ1zq0si9APaNercTROum2LpIqE9vo8s26h43uFp7WxDgttvpYhfRTttbTYv2mBHy3TH/EvreAD+Tl2MW54AbHOD85lg4qlENBAUEACH5BAEHAP8ALKgAMACFAa0CpwUFBQcHBwsLCw4ODhAQEBERERERERERERERERISEhISEhISEhISEhISEhISEhMTExQUFBUVFRUVFRUVFRYWFhYWFhYWFhcXFxcXFxcXFxcXFxcXFxgYGBkZGRoaGhsbGx4eHiEhISQkJCYmJigoKCgoKCkpKSkpKSoqKioqKisrKywsLCwsLC4uLi8vLzAwMDAwMDExMTExMTExMTIyMjIyMjMzMzMzMzQ0NDQ0NDU1NTU1NTY2Njc3Nzg4ODo6Ojs7Ozw8PD09PT8/P0BAQEJCQkNDQ0VFRUZGRkdHR0hISElJSUpKSktLS0tLS0xMTExMTE1NTU1NTU5OTk5OTk9PT09PT1FRUVNTU1VVVVdXV1paWlxcXGBgYGNjY2RkZGVlZWZmZmdnZ2hoaGlpaWlpaWpqampqampqampqampqamtra2tra2tra2tra2tra2xsbGxsbG1tbW5ubm5ubm9vb3BwcHFxcXJycnNzc3V1dXZ2dnh4eHp6enx8fH5+foGBgYKCgoODg4SEhIWFhYaGhoaGhoeHh4iIiImJiYmJiYqKiouLi4yMjI6Ojo+Pj5KSkpSUlJeXl5qampycnJ+fn6GhoaOjo6SkpKWlpaampqampqampqenp6enp6enp6enp6enp6enp6ioqKioqKioqKioqKioqKioqKioqKioqKioqKioqKmpqampqampqampqaqqqqqqqqurq6urq62tra+vr7GxsbOzs7W1tbe3t7m5ubu7u729vb+/v8DAwMLCwsPDw8PDw8TExMTExMXFxcXFxcbGxsbGxsfHx8jIyMjIyMnJycrKyszMzM7OztDQ0NLS0tTU1NXV1dfX19jY2NjY2NnZ2dra2tra2tvb29zc3N3d3d7e3t/f3+Dg4ODg4OHh4eLi4uPj4+Tk5OXl5ebm5ufn5+jo6Ojo6Onp6enp6evr6+zs7O3t7e/v7/Ly8vT09Pf39/n5+fv7+/z8/P39/f39/f7+/v7+/v7+/v7+/v7+/v7+/v7+/jLNMgj+AP8JHEiwoMGDCBMqXMiwocOHECNKZLhMXryJGDNq3Mixo8ePIEOKHEmypMmTKFOqXMmypcuXMGPKnEmzps2bOHPq3Mmzp8+GO/xd/Em0qNGjSCGqIJYrqdOnUKNKnUq1qtWrWLNq3cq1q9evYI8ySMEgrNmzaFmOLZu2rdu3G1PwkgW3rt27ePPq3cu3r9+/gAMLzhl06ODDiHveeBcusePHkCNLnky5suXLmDNr3sxZZoYWGTqLHi1QxKM/pFOrXs26tevXsGPLhlp4tm2/tW/rztvCSpHdwIMLH068uPHjyH2uTc786gcwV5pLn069uvXr2LP/za29+03u3sP+ywRBZ4v48+jTq1/Pvn325e7jg5QARIT8+/jz69/Pv7///3j9IBSABBY0wiSHFKjgggw26OCD/sEH4X4STpgfEudsY+GGHHbo4YcgbgZeiOot1RSJKKao4oostghVhS5qB2OM2MlFF4045qjjjjz2WNCIPjK3WGNBFmnkkUgmqeSSTDbp5JNQRinllFRWaeWVWGap5ZZcdunll2CGKeaYZJZp5plopqnmmmy26eabcMYp55x01mnnnXjmqeeefPbp55+ABirooIQWauihiCaq6KKMNuroo5BGKulTxlg06aWYZqqpREBuKpWJnoYq6qiRzkhqUqaeepSNqrbq6qv+eXYKq09DzmrrrbjmOutnoenqk2mo+SrssMQyKWuxMgloGLI2fZAEDcxGK+20KaZKLUvPRXftttx2C+Cx3poEbrgkkWceueimq66MZK2bEn32uSvvvPTWe5+y9o50ICL59uvvv5lZC3BEvA7c0Q7lXGPwwgw3rNe4DicEasQUV2yxVgJfXFDGGnfs8ccghyzyyCSXbPLJKKes8sost+zyyzDHLPPMNNds880456zzzjz37PPPQAct9NBEF2300UgnrfTSTDft9NNQRy311FRXbfXVWGet9dZcowwDI4wMBANbAiHCb2wMMNDHQGYTxEAblSGi7T9pE4QI3AO9PRD+2G7P3XbeMNgduEAZ9CrQOTFJ4Y8/A7VB9j+Ly5Z2MwP5QyTdDGxSmT9hC5T25f4QM1AGmVcujtudQ+7P4HRLUbk/eP+TQQ4EMQ6TFKigMpAUj2+i+T+2sL5a2pEMtMnZmMcu2SZzp438JrGTHjsqqdNNh/GbsM6A6wKhsgn3stM+kDtFtdt1WJGrnP75E3YBPsrrw2+7ar6vXLfKhbNvYR/Kn2y+/l0Jx+XkB8AJrY8RhvtHOOa3ifv9gxjzSwvn8sYA0ImOcKXz0uLmJ4kWEIQc87NFClIwkGZEEC3+kMRARkiOylFOIC1IgS2aFD+GHEF4+ROb2x4nvLQIz4H+/8Dh45RUQ5Nd4X0FTKISdfSBBJ7MB+JbohSnyKIilsyKJLvD9ajIxS5+iHQrA6MXx0jGMqoGiyPznhnXyEb+xDCMQzSZMS7YxjracT1oFNk4TnfHPvqxO2JMWSBRJgvd/fGQiJROHkO2yEQ68pGQ9MkgT0aH/kXykphcTSM/tkmPHTGToAzlaJq4MiiK8pSotEwnO7ZKjWkxlbCMZWImaTJayvKWuMRlKy+mxlz68pfADKYwh0nMYhrzmMhMpjKXycxmOnNSjvgAQcQxP1Tk8B/GOGFGImE4H6wvmtOs5jWzOSpwDoSaA7Gm4cjZEW4OxJvzM6dA0Nm9cWozU9f+DOIOCdJDjfiBIDnAYQJ/yMNnGvSgCE2oQhfK0IY69KEQjahEJ0rRilr0ohjNqEY3ytGOrocX8oCHR0daTIh5bGIkTekvOeYxlnaMVSqNKS5N2rFayfSmOEVWwVIGrJz6NJQ01VhQL9YbI/z0qJd0qcayhdSmOnKoFoNqxczl1Kr+UakXg5dVt8rVR+ErZfvqqljLiFWLlbViSXjHOMbK1i7awh/0aKtc50rXutr1rnjNq173yte++vWvgA2sYAdL2MIa9rCITaxiF8vYxjr2sZCNrGQnWydtyAMclM0syBDhD0uobAzEWJtmR3uxs1LMtBHzAi/yQNrWUoyznk3+2R/eUTzX2va2zNkpypzwCC3g9rf+gq3KhJuyHljhB8BNbr1Q67AbgAG5yo3uuoiLMuo+kQ5EkK520XWHP9xhu+ANr3jHS97ymve86E2vetfL3vTCQHljI0gbYicFEjZui//gHUGkoDwHwkC0njPce/n5uPnuzr4CaQN+9bs7SxaqDetj8D9ysD5EIFiBDHQgBM/pQM7y03AQnp+EKTw/CxNkgcbT8D0JdQVjGGMgOeimiwdCBw+mExl7uyYqXiwQWVyTDi8USA6kKZAW83jCMj5yjQmCChwLBIGG2/GhPkBKQTICee3Ncqh2WTF4qswHptSymDdly5Fl4JNjTvPjpbhMMRKrLAeVVLOcI1Vmkc2un3POs55x4uWU5eDKew70oeocMio7sWQf2KOgFz0oNjP60ZCOtKQnTelKW/rSmM60pjdtNUZkYXQJZAR+ZYdfRqhwdJ9+cvVmRxBGRPEzrU617EI96gyU+tSEkzXfFjVBz1WwcnQk3e8g18K8pW5x2gPf4mLHgCPULnWfA/boMkhs1L0Oz4SSGwVjd7dpgw8RAKab3xChPdZdGXzNtlvz9Fa26G2PbeFmwLgDR2iQFS6OJMtALznN7zA52mE5EMcA+03wSBsaf4AuuMK19G/vBAQAIfkEAQcA/wAspwAwABMC6QKnEhISEhISEhISEhISExMTExMTFBQUFBQUFRUVFRUVFhYWFhYWFhYWFxcXFxcXFxcXFxcXGBgYGBgYGRkZGhoaGhoaGhoaGhoaGxsbGxsbGxsbGxsbHBwcHBwcHBwcHBwcHR0dHR0dHR0dHh4eHh4eHx8fICAgIiIiIyMjJCQkJSUlJiYmKCgoKSkpKioqKysrLCwsLS0tLi4uLi4uLy8vLy8vLy8vMDAwMDAwMDAwMDAwMTExMjIyMzMzNDQ0NDQ0NTU1NTU1NjY2NjY2NjY2NjY2Nzc3Nzc3Nzc3Nzc3ODg4ODg4ODg4OTk5OTk5Ojo6Ojo6Ojo6Ojo6Ojo6Ozs7Ozs7Ozs7PDw8PT09Pj4+QEBAQkJCRERER0dHSkpKTU1NUFBQVVVVWFhYXFxcYGBgZWVlZmZmaGhoampqa2trbGxsbW1tbW1tbm5ubm5ub29vb29vcHBwcXFxc3NzdHR0dnZ2d3d3eXl5enp6fHx8fn5+gICAgoKCg4ODg4ODhISEhYWFhYWFhoaGhoaGh4eHh4eHiIiIiIiIiYmJiYmJiYmJioqKioqKioqKioqKi4uLjIyMjIyMjo6OkJCQkpKSlJSUl5eXmpqanJycnp6eoaGho6OjpaWlpqampqamp6enp6enp6enqKioqampqampqampqqqqq6urrKysra2trq6usLCwsLCwsbGxsrKysrKys7OztLS0tbW1tbW1tra2t7e3uLi4ubm5urq6u7u7u7u7u7u7vLy8vLy8vLy8vLy8vLy8vb29vb29vb29vb29vr6+v7+/wMDAwsLCw8PDxcXFxsbGyMjIycnJy8vLzczNzs7O0dHR09PT1tbW2tra3Nzc39/f4ODg4ODg4ODg4eHh4eHh4uLi4+Pj5OTk5ubm5ubm5+fn6Ojo6urq7e3t7+/v8PDw8vLy8vLy9PT09fX19vb29/f3+Pj4+fn5+vr6+vr6+/v7/Pz8/f39/v7+/v7+/v7+/v7+/v7+/v7+/v7+/v7+/v7+/v7+/v7+Ms0yCP4A/wkcSLCgwYMIEypcyLChw4cQI0pseAzZsYkYM2rcyLGjx48gQ4ocSbKkyZMoS5bIcyaly5cwY8qcSbOmzZs4c+rcybOnz59AgwodSrSo0aNIkypdyrSp06dQo0plGMRfuqlYs2rdyvVoFKtdw4odS7bsRxJjuphdy7at27dw48qdS7eu3bt48+rdy7ev37ECXAj4S7iw4bYTwFQ5zLix48eQI0ueTLmy5cuYM2ve3LXqVc6gQ4su6Hm06dOZT/iJg7q169ewY8ueTbu27du4c2cOPFi3799SeQMfTlzpD3nliitfzry58+fQo0ufTr36Qy9grWvfHpFFKkzcw/6LH0++vPnz6NOrFy98vfvmD2I8eE9fOQ9pyurr38+/v///AAYo4IAJlUbggaDVQE0zCDbo4IMQRijhhBRWiFV7FmbIF4YadnjXCp5Y4uGIJJZo4okopqgicwau6OJWLb4oo1QFxLDAjDjmqOOOPPbo448yuYCEC0AW+ZMJLBmp5JJMNunkk1DuF2OUVI701WdVZhkSWmpp6eWXYIYp5phkvsVhmWgelNgVabbp5ptwxinnnA1NSaeYdt4JpifP5Kfnn4AGKuighBZq6KGIJqrooow26uijkEYq6aSUVmrppZhmqummnHbq6aeghirqqKSWauqpqKaq6qqsturqq/6wxirrrLTWauutuOaq66689urrr8AGK+ywxBZr7LHIJqvsssw26+yz0EYr7bTUVouRL8X4Yq12K7W07bfghivuqnmOq9yV5kLHZbrstuvuu4meCe9viS0277345quvluXuO1u//samGmsBF2zwwQiPKG/Cri3MMGrHJffwxBRXbDF66F6MmnfgaezxxyCHrJvDIlsW33wlc3afnym37PLLMDcGcMyNKegMzTjnrPPOZZHMM2E+/+wXiCIKbfTRSCet08xK38V003XVeCPUVFdt9dUPnYz1Xkh6u/XXYIdt9NNil5Vx2XOti/babLdtsSamaOL23HTXbffdeOet9/7efPft99+ABy744IQXbvjhiCeu+OKMN+7445BHLvnklFdu+eWYZ6755px37vnnoIcu+uikl2766ainrvrqrLfu+uuwxy777LTXbvvtuOeu++68975QGocQJEBv/3wR/ECCueZCDgQ98sNAAkTTmC5pDPTII8J/MdAhhzAv0PAEdT/QAygLdIj23wtQvfnHf79+fcr4M9A24Jsv/0BcEH+aC+j/448/boDeNBgjAF14YiD/E977/tc/AXjPf/54H/kI4o8Dpo9l/tjG+ARgwfocooOHqN8/0tDBf+TPNNwTCP8G4glRgEGABKTeQEQhiuyx0BMPdOAMPdG/CbLwff7Da58n2vcA9Rkrgb5LItqcwTIlNgSJTsxNDh4YxYWIsIo0+wY3sMgQ+XBxIckbTRre98WDQLGMBjljjr7QPzQWZA95WE4l2pcubmhQOff7XvnSAMUcEA8MUEwDkcJSix908IwCCKBAGAi9lrkgBgPBAxS5MMh/kAGKeECCWOJQiVUgMI//cEEcF+kPMiCPCynT3xSFR5AfUFF/XDmFF1r5vEYOZJW2dGOT1KjLfyijib0MpjCHCREPlE+YRSTmP0RRQmU685nE5KUuu7FFaFrzmtjkYjKJKQnsZfOb4OydNN04TjS6MpzoTGfttjlMMLRRnfCMJ+rKWUZ6ftENZP6Upz73+TljKnMJteSnQAdKUMLZk4vdLKhCF+o4diITlr20I0MnStHCHRSLv6yoRjfKN38S06HBZCZHR0rSuV20itQsqUpXytKLgbSXCW2pTGd6tJNG0aY0zalOd8rTnvr0p0ANqlCHStSiGvWoSE2qUpeauAd4YCBugOIPyhcGnC5EDwMxBSidClWpUhWKcnhq4LgqkKjmcaoDqSooN4JVgWiVIGT9h1kHglaBqHUgYRWcKl/ZSiqCJKDfIwguA0tXKh6TqYhNrGIXy9jGOvaxkI2sZCdL2cpa9rKYzaxmN8vZznr2s6ANrWhH6yxWzIIVxKxBIOZA2ta6tkxkc/7i2YKpttfa9rZUChoW64Xb3vp2SbFVYnCTOLDfGve4O9JtFZUbxYgh97nQVRF2sBRMjkX3utjtEHOdqLVhriy74A0vhIbrO5uJ97zoDdB2lbjeJBItvfCNL33I2zv68k5q8s2vfssjpEoGUwWXoON+B0zgAhv4wAhOsIIXzOAGO/jBEI6whCdM4Qpb+MIYzrCGN8zhDnv4wyAOsYhHTOISm/jEKE6xilfM4mQVwxjFIKYW8jDLFtv4xi45hD/kNsxH+GMTxMzBGIKA4yIbWSTt9R0LwACDIzv5yRnRMY+FKWVicsEP74Sylrd8kCT3zsu8G4Q8MsHlMpt5IJXwh/4piDmGVKDhzHDeMph3111hzkEaf4iznp1c5WHOgRqD2LOgB03oQhv60IhOtKIXzehGO/rRkI60pCfNuTEK74+KTN8tyXhFSwukrgLxdPH0J+p/iBAMmTY18XLAaVK/D9Ro20YelSFCUYBShHzMox8HAsg8uuGYUPSECGU9EFoTz9aXHkiub/lHKP66baJgmSR8+A9JLAOu5QNDRj9N1W3/IwxiFYi3H0HtaA9k2uWzNrZ57W1Qh8Hb4KY0j17qRvJBVN74zvffrOq7H4hU3wDfL73RaG9ixsAZNwu4wuPL7979QKILj/h5B17Ggg/zAf+WuMax23De/aDjGw+5yP5d5lFk4nPkKE+5ylfO8pa7/OUwj7nMZ07zmtv85jjPOVN8kWlJSAKuYbCe88Z3zKELxAPh/scjgi4Q8mX6enDt+c/Hx3SlG/0f1FZ6QJHevKqjzYCfFF6mGfm9B/5PgsCu4QUReMdQcjDs0Bu7Pxpo9ggSnYJqX5su+gd16AWUezl84Bx7eMxDZHp47zvE+wTDd29+7+/iKzuaz3f37aVa55Wi+BcfcE7Mez6pINfdx9eqyx+c/POoL6rmtbn61Lv+9bCPvexnT/va2/72uM+97nfP+977/vfAD77wh0/84hv/+MhPvvKXz/zmO58xBTiA9BMAgwRY3/oTmID1q5h4ABd43wVZ+L73ZzAD73NfSEhAghfSz/4qVCH9VZzADNxfhS/Q3/1a0IL74z9/99v//vm3f1GUAOinfuyXfu4HfwNYgOt3gAmoSQvIfg3Yfu8HgU5EgBJ4gEjwgFWEgek3gQhYgfxHf/9HfwFoL04kfyTofjlAAiSAAvqHgkrkgQa4AxaQfkGQA0iQAh3IgEgAAykQgjsYEAAh+QQBBwD/ACymADEAFALoAqcJCQkLCwsNDQ0PDw8QEBAQEBARERERERERERERERERERERERESEhISEhISEhISEhITExMTExMUFBQUFBQVFRUVFRUWFhYWFhYXFxcYGBgaGhocHBwdHR0fHx8hISEjIyMmJiYmJiYnJycoKCgpKSkqKiorKyssLCwsLCwtLS0tLS0uLi4uLi4vLy8wMDAxMTExMTEyMjIzMzM0NDQ1NTU2NjY3Nzc6Ojo7Ozs8PDw9PT09PT0+Pj4/Pz9AQEBBQUFCQkJDQ0NERERFRUVHR0dISEhJSUlLS0tMTExMTExNTU1OTk5OTk5PT09PT09PT09QUFBQUFBRUVFRUVFRUVFRUVFRUVFRUVFRUVFRUVFRUVFSUlJSUlJSUlJTU1NTU1NVVVVYWFhaWlpcXFxeXl5gYGBhYWFjY2NlZWVnZ2doaGhqampra2tsbGxubm5wcHBzc3N2dnZ5eXl8fHx+fn6AgICDg4OFhYWGhoaHh4eIiIiJiYmJiYmJiYmKioqKioqKioqKioqLi4uLi4uLi4uMjIyMjIyMjIyMjIyNjY2NjY2NjY2NjY2NjY2NjY2NjY2Ojo6Ojo6Ojo6Pj4+Pj4+QkJCRkZGSkpKTk5OWlpaZmZmbm5uenp6ioqKkpKSmpqanp6enp6enp6enp6eoqKioqKioqKioqKioqKioqKiqqqqurq6xsbGzs7O1tbW4uLi6urq8vLy9vb2+vr6/v7/AwMDBwcHCwsLCwsLDw8PDw8PDw8PExMTExMTExMTFxcXFxcXGxsbHx8fIyMjJycnKysrLy8vMzMzOzs7Ozs7Pz8/Q0NDQ0NDQ0NDR0dHR0dHR0dHR0dHR0dHR0dHR0dHR0dHR0dHS0tLS0tLS0tLS0tLS0tLS0tLT09PT09PT09PT09PT09PU1NTU1NTV1dXW1tbY2NjZ2dna2trb29vd3d3f39/h4eHj4+Pl5eXo6Ojr6+vt7e3u7u7w8PDy8vL09PT29vb5+fn7+/v9/f3+/v7+/v7+/v7+/v7+/v4yzTII/gD/CRxIsKDBgwgTKlzIsKHDhxAjSnTooISDiRgzatzIsaPHjyBDihxJsqTJkyhNVryYsqXLlzBjypxJs6bNmxJjvEuHs6fPn0CDCh1KtKjRo0iTKl3KtKnTp1CjSp1KtarVq1izat2K9Ia/elzDih1LtixIE7ZamV3Ltq3bt3Djyp1Lt67du3jz6t3Lt6/ftSv/Ch5M2C0GFRgKK17M2GqLWasaS55MubLly5gza97MubPnz6BDR6TxVbTp05xjxFuHurXr17Bjy55Nu7bt27hz697Nu/fQwL6DC1f64VKd4ciTK1/OvLnz59CjS59ukDRY6tizP7Suvbv3gxd+/pj4Tr68+fPo06tfz7696cOJ3cvvvUHNl/n48+vfz7+///8A4sddgAR65tV1BSaY2QdujKHggxBGKOGEFFZo4YU9AYfhhndVsEMIHIYo4ogklmjiiSimqOKKCw3I4otTfZDJHTDWaOONOOao4448gqRhj0Di9GOQRM6kEzpFJqnkkkw26eSTyx0I5ZRnpUXllVhmqeWWXHbJ1ZBehjkQfGKWSZALxcRi5ppstunmm3BquYo/+MRp55145qnnnnz26eefgAYq6KCEFmrooYgmquiijDbq6KOQRirppJRWaumlmGaq6aacdurpp6CGKuqopJZq6qmopqrqqqy26uqr/rDGKuustNZq66245qrrrrz26uuvwAYr7LDEFmvsscgmq+yyzDaLHJjONgdttMvpxBO12Gar7baWSsntcmip9e245JZrLp7Tnotbuura5oMtrrQr77z01huki/baphpr+fbr778AB5wsuwKHVtxxBSes8MIMd4dvw6E9DPFn4Y038cUYZ6zxa2Ru3Fl993ks8sgklyyYxCZLhnLKjM0QxxosxyzzzDRbRXDNfHkIIs489+zzz0APt3LQeMlII9FIJ6300gndzLRbTj/N1pFSV2311Sl7i7Vc4W7t9ddghy322GSXbfbZaKet9tpst+3223DHLffcdNdt99145633/t589+3334AHLvjghBdu+OGIJ6744ow37vjjkEcu+eSUV2755ZhnrvnmnHfu+eeghy766KSXbvrpqKeu+uqOKqPHQC6wJNAgrwukhOyi6aHEQA44wMZAg/w+We8E6c57CcW7QZDvA+lRu0AO7C6QHpgsP0PxLvCO+3r++DMQG7h3P9AnFZ3mTy/aoy/Q+QMxw5gD2Q/kz/MVsSM/MOnLbz/vz3cf/z8OsIL8/CE9AP6PPen4xEBuR5BTKFAg4EOeacQHPQc87xTC+4f7FgM/gnyigBV53ieUV0ERPg+AGfzEKv4XwPF9goUHZN2JziBAGUKEgjZ0CA5B84kH5rAh/sT7IRC3J0SSySGDRUwIYpJ4G2Dgj4kJ2SEUpzgzKVJxfd4TTS/UZyMMEFE4esAdO7L4D2AEsYxkZMcZxdJB+T0PAxjY3z/88UQAfnFFbkAicjAhQYG4g4zFKEEfi0FGdwiyLCUYAkH8UT2BqEAF7pBfMQZyyIut8YBeJMj1tGeW7WEyPgI54BqvSEolWfGKp6SiFQpYyla68pUNyeQrVwnLWtrylqmcYi6hmMdb+vKXV9wAKFspTGAa85jIRN0umejAZDrzmaOTpSul2UpgcBGa2Mzm5ZaZRGtq85vgjFwxX0nNUjYznOhM5+G4WUR2qvOd8Izn1cpJyl7K8574/pSbO3+4zxzSMp8ADWja6HnFfwr0oAj9Wj9tuFAZ2jOhEI0o08bpSopK9KIYzahGN8rRjnr0oyANqUhHStKSmvSkKE2pSlfK0paeShrDbAcg4TiQYJCxHRfwyAxwOIiYzhSUNh1IOzCwgbfBlCAyHUgxaCqQoAoEpzrlqU+VytR/OPUfQy2q2zqBuwNaRJPLu6NEXCDKrhLkqwPZZAVdyta2uvWtcI2rXOdK17ra9a54zate98rXvvr1r4ANrGAHS9jCGvawiI3TB27wgVdGLYfWSqxkJ6slrZWya5TNrGaZ9FgbdqyVj4nMZkdLWh4NjYn7Kq1qV8taznRWhgdr/q1sZyui0ybRtkWsGG13y9sJfbaUIOutcIcbINwK0bKkZJCDiMvc5s7ntazTmXOnS93qKsW4PzSadbfL3elAd3Xf7a54x0ve8pr3vOhNr3rXy972uve98I2vfOdL3/ra9774za9+98vf/vr3vwAOsIAHTOACG/jACE6wgheMofCmzsGom8M7LMHgClt4JIPwRydemQZbxOHCIA6xRiB8ut+SMg2z+LCIV8xihuhBw6+kQzwa2eIa29iXJDadEi4Rhhv7uMUv3rArg/zKDvygsT9OMohNfMUZqCEHSo5yhYnsygwLuZU3cAMQpMzlLnv5y2AOs5jHTOYym/nMaE6z/prXzObFPPQfMxgmG0j4DwZ+D4m4swKdAQhKF+AZd0iMM0HmvEBA45kgel7eMKs2A5mS0Qp9xmEYCTLGgZhRdsBIowNA+eIzyc4KOIQ07CQtRjJe2tKaXnTVbODEgdhAq3AGRjAG4oZhnqKOjKiqKmYtkFMQldZ1hDMowdBqgbw6rbKmta1xrWte/8PXsG6ztPMJR7EyEQO0m7a2xdvQ1e2UjKWcwQxiuO1yN1cFfSwlBgxq7nYTt9uqswG8U2cDMNTQ3fjuLUGniIFx5/vfAF/at185g2wH/OCq3TcUq03OdsgR4RCPuMQnTvGKW/ziGM+4xjfO8Y57/OP8HuYg/u69gWgP4g0EwQCdBzGIlN+bEYxIuQ0IMgi1VvUfIx9IyWmO8jGtvOVjejkjgI61Nq7vjXG8X/7W93ALDpCF9+4eCA84vzElfX117B0X/dH0/rFva0b/h/EEAscM6oHOvTM7ngvIchaq1XkwLF4By948tDNvemsH3p5BzvejKPzaf0+iCooxyb4bnqXzRl2jH374xju+VwyfpsEfT/nKW/7ymM+85jfP+c57/vOgD73oR0/60pv+9KhPvepXz/rWu/71sI+97CUTgQnYfgImuL3tM5AB2/8wAhXQQMk5EAMOGN/4HvCA8X84AQ3AHOaXeD7MIxEJmDN/A4yQhvbLiaH97mtDG9r/YQY8EInva8Mc5v/+N77xffGT3/zoT//625/DCXAg+9vvvva/H/7637/73Kd//CcNzPd/+SeA4EeA/od/0hCA3peABciADrh/EJhD41d+3xd/5jd/2uB+GHh+37cJOIADOcB+HbiAACgNrHAD2tcKmyANe7c69ieB0rAJbkCBMBgQACH5BAEHAP8ALKkAMwARAuYCpxISEhISEhISEhISEhISEhISEhISEhISEhISEhISEhISEhISEhISEhMTExMTExQUFBUVFRcXFxgYGBkZGRsbGx0dHR4eHiAgICAgICEhISIiIiMjIyQkJCYmJigoKCkpKSkpKSoqKioqKioqKisrKysrKysrKywsLCwsLC0tLS0tLS4uLi4uLi8vLy8vLy8vLy8vLy8vLy8vLy8vLy8vLy8vLy8vLy8vLy8vLzAwMDAwMDAwMDExMTExMTExMTIyMjIyMjMzMzMzMzQ0NDQ0NDQ0NDU1NTY2Njc3Nzg4ODk5OTs7Oz09PT8/P0FBQUREREdHR0pKSkxMTE1NTU9PT1BQUFBQUFBQUFBQUFBQUFBQUFBQUFFRUVFRUVFRUVJSUlJSUlJSUlNTU1NTU1NTU1RUVFRUVFVVVVVVVVZWVllZWVtbW15eXmFhYWNjY2ZmZmhoaGpqamtra2xsbG5ubm9vb3FxcXJycnR0dHZ2dnl5eXt7e3x8fH19fX5+fn9/f4CAgIKCgoODg4SEhIWFhYaGhoeHh4eHh4iIiImJiYmJiYqKiouLi4yMjI2NjY6OjpCQkJGRkZKSkpOTk5SUlJWVlZaWlpeXl5mZmZubm52dnZ6enp+fn6GhoaKioqOjo6Ojo6SkpKWlpaWlpaampqenp6ioqKioqKmpqampqaqqqqqqqqurq6urq6ysrKysrK2tra2tra6urq+vr7CwsLKysrS0tLe3t7m5ubu7u729vb+/v8DAwMHBwcLCwsLCwsPDw8PDw8PDw8TExMTExMXFxcbGxsfHx8jIyMnJycrKysvLy8zMzM3Nzc7OztDQ0NPT09bW1tjY2Nvb293d3d7e3uDg4OHh4ePj4+Tk5Obm5ujo6Ovr6+3t7e7u7u/v7/Dw8PDw8PPz8/f39/r6+vz8/P39/f7+/v7+/v7+/v7+/v7+/v7+/v7+/v7+/v7+/v7+/v7+/v7+/v7+/v7+/v7+/v7+/v7+/v7+/v7+/v7+/v7+/v7+/v7+/v7+/jLNMgj+AP8JHEiwoMGDCBMqXMiwocOHECNKXGhAhIGJGDNq3Mixo8ePIEOKHEmypMmTKEdi8CMnpcuXMGPKnEmzps2bOHPq3Mmzp8+fQIMKHUq0qNGjSJMqXcq0qdOnUKNKJWjEn7ipWLNq3cq1aNWrXcOKHUu2LMcJaJyYXcu2rdu3cOPKnUu3rt27ePPq3cu3r1+sEVRE+Eu4sOG1E8Y0Ocy4sePHkCNLnky5suXLmDNr3hz1K+fPoEMTXGJVtOnTlzsEsoO6tevXsGPLnk27tu3buHNHrnhRt+/fUHkDH048qTmwxZMrX868ufPn0KNLn069oOfq2LM/9NAqk/bv4MP+ix9Pvrz58+ilC0/PXvn69vCBs4BGLL79+/jz69/Pv7////+QhhyABGY2QzTHFKjgggw26OCDEEYoIVPvTWhhXoENduGGd5WQincchijiiCSWaOKJKOp2XYosZrViizBGhcIDMdZo44045qjjjjyaVGGPQOa0UhxBFmnkkUgmqeSS573I5JMhOQnllGeloRaVWGap5ZZcdunlWBl+KWZCFLyBxZhopqnmmmy26eabcMYp55x01mnnnXjmqeeefPbp55+ABirooIQWauihiCaq6KKMNuroo5BGKumklFZq6aWYZqrpppx26umnoIYq6qiklmrqqaimquqqrLbq6qv+sMYq66y01mrrrbjmquuuvPbq66/ABivssMQWa+yxyCa71o/KOrdSS81GK+201EYqZbXEXYstcGhdue234IYrbpsiICHCuMMlthi67Lbr7rtAagsvbALOe5tqrNmr77789rsgs/6eBnDAph1H8MEIJ6wwdfIujBl3IDos8cQUV4zawBZPhnHGkc1XH8cghyzyyHlFURrJkx2YIMost+zyy8FZBLNjYc7MmIcR26zzzjz3fFLDPtcFdNB0zTAB0UgnrfTSA23MtFtDPi311FSLPHTVY12NdVgTWLn112CHLfbYZJdt9tlop6322my37fbbcMct99x012333Xjnrff+3nz37fffgAcu+OCEF2744YgnrvjijDfu+OOQRy755JRXbvnlmGeu+eacd+7556CHLvropJdu+umop666ZhH09s8UjBBkgOunIYKI7DoMZHvuu0H7j+2yTzEQI4zw/o8BRBCEiPGzKy+8QBFE4DsidMh+DXzYtK67PwTpQLtp/vjD/PP/hE++Y7OTMlD4svtuftNdrO+P782vrz70EXxcfjFNG9ANfIzQnkDkcIrufc80pBjfQEiRwN0YwHcMDN5ATnEK5sVPIAwkX/0w6Lvo3Q6D1RPI7K5XIGXob3UPYR8Kf0OE5K3wIRt8IcmyQUIZMkRmNrzhATczhfPlECH+KvxhQoIoRI5R4oNFPAgRkwibHjLxIDFE2AbpEMQuaOh1QZTDDsOSPvm1T34+xJEAiyOCcwmED0F0gwoGwoYg7sGMZinjLLw4EBHsQX5s6JEK4Egc2hHBeP+44j90AMgtcpF2hJQdQVoIJGzU8ImQjKQkM7JESBqDf5PMpCY3eZAxStKTkSzGCTlJylIysZJPdKQpV8nKVq4OlJBkBBJdSctaig6Vp+ReJv9oy176knOwfCIaLvjLYhozcrhMYjKL2IUwHvOZ0CRcMJnIy2ha85rYVNsyhSjLbHrzm3WbZhL3qElVgvOc6FzbNn94yXS6851jE2cR5SlEUcLznvj+nNo6c2jOfPrznwCdFz1/2M2AGvSgCE2oQhfK0IY69KEQjahEJ0rRilr0ohjNqEar5YmB2KGKaxRIF4JIB0Fq5BS6xJ9HQTqQkaa0pHDrqEA+mtIuhPQfLh0ITDuCUoJEb6U1vWlOBbJTuVVThN0r5EcAebxFKnUgiWzaRqdK1apa9apYzapWt8rVrnr1q2ANq1jHStaymvWsaE2rWtfK1ra69a1wjWtNnJbDZ8n1rnhVktZeuNcVdiuvgA0sj2omSXUJ9rCIhVFfUVivSXZAEPlKrGQnGyK62tCyNjQYZTfLWQgtdnUQ66xoR0sgzL7QtCv0GGlXy1r8NFaSB0L+RmtnS9vzoBaFhI2khzBR2976VjufVV1wVTej3xr3uM+5LXKXy9zmOve50I2udKdL3epa97rYza52t8vd7nr3u+ANr3jHS97ymve86E2vetfL3va6973wja9850vf6ypXdU7wQxTqy9/+dgQR/uhEJgEs4EmKAA0z8K+CFwyR3EISBGZgAYMnTOGDEDiTjPCHTCUJhUBQocIgrvB9Uzfi1MmDEyFO8YIvPMk1tAIOKo4xf0t8Ohqbzg7QEISMdyzfDG84kqvQhi14TOQiG/nISE6ykpfM5CY7+clQjrKUp9woA1xxCr47nuuekGUiCFIOIRwk7eTgOzbQrgthPt7+lbO8QS4v8sth9t7XUkoMKy8wpVoeyB6qeOUs0i6Is9hgMehsZwzieYN7rmmfU6rFrSVBhQGswPAwqVKBuKEYlE6CpEVaDGO0VJCYHoglfiqQVXhaIJGetE+veOlMbxqnnf60o+2QZirb+rgDtWH0DHnrXvuabPuUIRFOcb9fG7u1uZbhrjMZAXse+9mkDfYLieBsaFt7s8l+YQUqYNInVmAVBby2uCUr7RUSodzjTre6LZbtFXqi2uuOt7znTe962/ve+M63vvfN7377+9+9jkCYiedTYjrCES4MZML/wYiEkxrVxNz2wNMs8OHFbiARMDjCMb7whmO821jrokD+iPhAMDaNfOGj35+LHT39+UN/Ii/fod3nDw2ifH79IwiepzY78gGvacYjHvOMZzsN0g4RHZSe7lTu81kaIOjFA7ruEGF0OkqSCM0EuNanSs5JZtyZWw97RNG9ukfv/IlJoLXY107RdqMQGwVlu9znTve62/3ueM+73vfO9777/e+AD7zgB0/4whv+8IhPvOIXz/jGO/7xLIOA5FEg+cpPYAKS1zUFLGCBCxDhAqAHPQc4AHobUqAVqE+96lUvQwhYoBXhi73sZS/DCXAA9rPP/dlTZ3vc6572L4TABXz/e7J3TvjEL37rh1984K8Q+c2P/fKT//va3z76xudc73Mer4sneF/6wWe+7KXxhPBJQxf+IMT0Z68LQsyeEAEBACH5BAEHAP8ALKgAMACFAakCpwkJCQsLCw0NDQ8PDxAQEBAQEBERERERERERERERERERERERERISEhISEhISEhISEhISEhMTExQUFBQUFBUVFRYWFhcXFxgYGBkZGRsbGx4eHiEhISUlJSYmJigoKCgoKCgoKCgoKCkpKSkpKSkpKSkpKSkpKSkpKSoqKioqKioqKisrKywsLCwsLC0tLS4uLi8vLzAwMDExMTExMTMzMzMzMzQ0NDQ0NDU1NTU1NTU1NTU1NTU1NTU1NTY2NjY2NjY2NjY2NjY2NjY2Njc3Nzg4ODk5OTo6Ojw8PD4+PkBAQEJCQkREREVFRUZGRkhISEpKSktLS0xMTE1NTU5OTk9PT1FRUVNTU1RUVFVVVVVVVVdXV1hYWFlZWVtbW11dXV9fX2FhYWNjY2VlZWZmZmdnZ2hoaGlpaWpqampqamtra2tra2xsbG5ubm9vb3BwcHFxcXNzc3R0dHZ2dnh4eHp6ent7e319fX9/f4GBgYKCgoODg4SEhIWFhYaGhoeHh4eHh4eHh4eHh4eHh4eHh4eHh4eHh4eHh4iIiIiIiIiIiImJiYqKioyMjI2NjY+Pj5CQkJKSkpOTk5WVlZiYmJqampycnJ6enqCgoKGhoaOjo6SkpKWlpaampqenp6enp6ioqKioqKmpqampqampqaqqqqqqqqqqqqqqqqurq6urq6urq6urq6ysrKysrK2tra2tra6urq+vr7GxsbOzs7S0tLW1tbe3t7i4uLu7u7y8vL6+vsDAwMHBwcHBwcLCwsLCwsPDw8PDw8PDw8TEw8XEw8bFxMbFxMfGxMjHxMrIxMzJw8/Kw9LMwtXOwtnQwt3SwuDUwuHVwuLWw+PWw+PXxOTYxeXZx+XayObbyubby+bczuXd0OXe0+Te1eTf1+Pf2ePg2+Pg3eLh3uLh4OLi4uLi4uLi4uLi4uLi4uPj4+Pj4+Tk5OTk5Obm5unp6ezs7O/v7/Hx8fPz8/X19fj4+Pr6+vv7+/39/f39/f7+/v7+/v7+/v7+/v7+/jLNMgj+AP8JHEiwoMGDCBMqXMiwocOHECNKZKjMH76JGDNq3Mixo8ePIEOKHEmypMmTKFOqXMmypcuXMGPKnEmzps2bOHPq3Mmzp8+GDlI4+Em0qNGjSCMGHZq0qdOnUG0GeTcuqtWrWLNq3cq1q9evYMOKHUu2rNmzOHf4m4e2rdu3HFPwkgW3rt27ePPq3cu3r9+/gAMLzrl0sOHDPwsjXsy45gpesxpLnky5suXLmDNr3szZ8pG1nUOLLkjjnbjRqFOrXs26tevXsGPLnk07puLauPEesQQpt+/fwIMLH068uHGfatkeX541OfPnVjMscQG9uvXr2LNr38697O3u4GX+ZkizJbz58+jTq1/PXrvz9vBBvo9Pf2OGM1rq69/Pv7///wBCZYELFgRoYEEVKAHCgQw26OCDEEYo4YTtzUdhfbs9cuGGHHbo4YcgVvZdiOiNSKJ5U5124oostujiizDqZGGM2clFF4045qjjjjzuaGKPx/0I5JBEFmnkkUgmqeSSTDbp5JNQRinllFRWaeWVWGap5ZZcdunll2CGKeaYZJZp5plopqnmmmy26eabcMYp55x01mnnnXjmqeeefPbp55+ABirooIQWauihiCaq6KKMNuroo5AWhYxFkVZq6aWYSiRkpk9tymlTU1X16aiklqrojKYmZWOqrLbq6p3+nr66U6yy5vRYZLXmquuuXn6mHK89laYisMQWa+yxgg5YILI4gTCJH8xGK+20J6JKrUvWXsuSdNRp6+234PZHa7gijVceueimq+522a4bUrvufnRffvHWa++9tCmL70gJLrjvvwAHLPBwvg7ckbN9GKzwwgzrNW7DBz0McUEpTmzxxRhrBW/GBJ3ijqgchyzyyCSXbPLJKKes8sost+zyyzDHLPPMNNds880456zzzjz37PPPQAct9NBEF2300UgnrfTSTDft9NNQRy311FRXbfXVWGet9dZcd+311yPHsKxAiSQy0BRMyZYIGAM54EAbAyWyhmTEtD32P4lM0Xb+2njPLZAFFviNdyMEOaA32Wa3HcNAjTSyuEDNxLTG3f74M1AnbgsExuGt+XPjP24fM5A/dTMWwzJt30CQP4mD7gA5o5f+D+Cy+3NO4a1X/jjonFfOeeQwTXF3J50MtEbm/1T+Wid17E24QJ0IjlgMsjug+uWcu9169AMBvv3zAjkgOPG7Gz5QKKHsDvxPyq9GvMuAw3832BLWIb3KQtFPFjGyr9y+/gAEzv/8Z7nV8M9lyDsSJHoznAQG8EGyKN5AzlHAfxDDAWMjRgXJkcDmhYUXZUjd6lrnNtgJhHRdIkIKCOKOCiojBd36R0UG0o4UrFAgehCLHj6XgiesbhL+A7FhO0anjC7lbyDXCx/fdue6s9yicAVhogOZiCQL8E1lbbjfA7fIRRwNUGVfTJkVONfFMpqRRVZ0mRascMY2uvFDYURZHE+WxTfa8Y4RSmPL9IjHPvrxj5aZo8lCIUFAGvKQ6snA/FKmSJcdo3+IjKQksyPIkiFDdJPMpCafw8eVdVJlhNykKEcpnEqSzJSkTKUqVymTT6asjqyMpSxFg0qR1TJkY5ylLnd5GVeibI28DKYwEXNLjhUzY7AcpjKXuRdfnsyZzIymNKdJzWpa85rYzKY2t8nNbnrzm+AMp6LWUcFjxE8gx6jgOc7JkWpU0BF3I+dAzDm2dE6QnXD+yJQ80clOewpknYvEiDsHAk+C7PMf9JynOvGZqSQ2cSBSvKJGBkGQTjp0ioWTqDg3ytGOevSjIA2pSEdK0pKa9KQoTalKV8rSlrr0pTCNqUzBowt/3GOmOMWmxDC204uFKqdApebGRLaqoBp1mT21WFIndqujOlWYBWOZsJ5K1aoCa6kQy5BVt6rKoYbMqxzjFlfHKkqsNsxcZE3rJMGaMbZi7D7nUqtcAakvlvVrrnjN66HcejGt6vWvbcTEKTAB2MIa9rCITaxiF8vYxjr2sZCNrGQnS9nKWvaymM2sZjfL2c569rOgDa1oR0va0pp2TuPwhztOy9qRmZVhr13+WB7eAcTW2hZjifAHYVk2Bl7M4bbAnVhsFTZcg/X2t8FNrsIa4Q9NtOwO74iEcqdL3QYecWVgsEQaqsvde+V2tyv7bss2sAQOdPe87iruwI4AhyWg973owoU/kAHf+tr3vvjNr373y9/++ve/AA6wf2PAtzUIzgoF9mD4xjYF6SXwBg6+oUDWADeBEJggBh4IgjGsYNAx2MFpc2ig0AbR/zWCb+So4AUzuMEEMpcgMZDwFP5HYgubGMUqxuBANDgQDqatwoO6wdhucAxM/gMOdwtFEQXSCAtk4HxGDgU+jfyPG8TQCsegr0CEjMQiDwTJBFEy45wM5fOxk16AOub+xW5wDhMK+M1w/koGGsmyDDgCfHHOc6XUbLEb8HliN7gBFfVMaEZBk2QWyGWhF82oP0PMzxVU2Q0UzehKH4rOnhS0pTfN6ZoUwdENK8KdO03qP2kCvKVOtapXzepWu/rVsI61rGdN61pfzRfdezLj2Pi3uzUCyAMCciMcUVFe/6NxFU1iIyaRRDLvunu+BrYLhE3s7hlbUEa23gj35mYUhi8Ftbtd23Lnj/L1zh/ZcyjruB27toF7dOIOX+sExQsRxi174oub4IIiuEQAmXdxS0T5dpeISZTPoXnbW7/3nYJ+/9t8MAM1w4gMSVtbXEuHHhngNGoyCzzy4iDfksQHF8ZmN/cnIAAh+QQBBwD/ACymADEAhwGqAqcGBgYICAgLCwsMDAwODg4PDw8QEBAQEBARERERERERERESEhISEhISEhISEhITExMTExMUFBQVFRUWFhYWFhYXFxcXFxcXFxcXFxcYGBgYGBgZGRkaGhobGxsdHR0eHh4gICAhISEjIyMlJSUmJiYnJycnJycoKCgoKCgpKSkqKioqKiorKyssLCwtLS0uLi4vLy8wMDAxMTExMTEyMjIyMjIzMzM0NDQ0NDQ1NTU1NTU2NjY3Nzc5OTk7Ozs9PT0/Pz9BQUFCQkJDQ0NERERFRUVGRkZHR0dISEhISEhJSUlKSkpKSkpLS0tMTExMTExMTExNTU1NTU1OTk5PT09PT09PT09QUFBQUFBRUVFSUlJTU1NUVFRVVVVXV1daWlpcXFxeXl5gYGBiYmJkZGRlZWVmZmZoaGhoaGhpaWlqampra2tsbGxsbGxtbW1vb29ycnJ1dXV4eHh7e3t8fHx+fn6AgICBgYGDg4OEhISGhoaGhoaHh4eHh4eHh4eIiIiIiIiIiIiIiIiJiYmJiYmJiYmJiYmKioqKioqKioqKioqLi4uLi4uLi4uLi4uLi4uLi4uMjIyMjIyMjIyNjY2NjY2Ojo6Ojo6Pj4+QkJCRkZGSkpKUlJSWlpaYmJiampqcnJyenp6goKChoaGjo6OkpKSmpqanp6enp6eoqKipqampqamqqqqrq6utra2urq6wsLCxsbGysrK0tLS2tra4uLi6urq7u7u8vLy+vr6/v7/AwMDAwMDBwcHCwsLCwsLDw8PDw8PExMTExMTExMTFxcXFxcXGxsbGxsbHx8fHx8fIyMjIyMjKysrMzMzNzc3Ozs7Q0NDR0dHS0tLT09PV1dXW1tbX19fX19fY2NjZ2dna2trb29vc3Nze3t7f39/h4eHi4uLj4+Pl5eXn5+fq6urs7Ozu7u7w8PDx8fHz8/P09PT19fX39/f4+Pj5+fn6+vr7+/v7+/v8/Pz8/Pz9/f39/f3+/v7+/v7+/v7+/v7+/v7+/v7+/v7+/v4yzTII/gD/CRxIsKDBgwgTKlzIsKHDhxAjSnSow5+6iRgzatzIsaPHjyBDihxJsqTJkyhTqlzJsqXLlzBjypxJs6bNmzhz6tzJs6fPn0CDCh1K9OUFFxeKKl3KtGnOEXjeOJ1KtarVq1izat3KtavXr2DDih1LFmjFi2XTql3b8Szbt3DjKvTQRYjcu3jz6t3Lt6/fv4ADCx5M+F+DFQ0KK15cc0OXIIwjS55MubLly5gza97M2C3nz6AHeg5NWjOIOmpKq17NurXr17Bjy56tcwWPFbRz623AAoLu38CDCx9OvLjx48iT//ZhUbnzqixYfXpOvbr169iza9/+9nBi7uBt/noPT36mDWvMyqtfz769+/fwlY+OT5/ji2rD6uvfz7+///8AZjVegAQaNGCBCP5jQiugJOjggxBGKOGE9THhzzoU+qeDPmhl6OGHIIYo4ogklhjXUUmZ2B5UUqno4oswxijjjDvNR2N2Nt54nQde2KXjj0AGKeSQNB5IpHOuoGPOkUw26eSTUEYp5ZRUVmnllVhmqeWWXHbp5ZdghinmmGSWaeaZaKap5ppstunmm3DGKeecdNZp55145qnnnnz26eefgAYq6KCEFmrooYgmquiijDbq6KOQRirppJRWaumlVeaI6aacdurpp3qhCGpWLI5q6qmocqppqkWtyupQ/htsAcSrtNZqq6BG3iqUY5Dp6uuvwLbparA4DUusTaetceyyzDZrpajO6sSbb9FWa+212NrJXIfZyhTddN2GK+64CeZK7krmnpvSfcqo6+678JJnbLwf3WcMvfjmqy9x6e7rUb/+crQguAEXbPDBmm2L8EcbcrvwwxBHLPFn0E48EQmV0GHxxhx3/NUr/sDj8cgkl2zyySinrPLKLLfs8sswxyzzzDTXbPPNOOes88489+zzz0AHLfTQRBdt9NFIJ6300kw37fTTUEct9dRUV2311VhnrfXWXHft9ddghy22bA18948UgRBU9kAxcJK2a24TdAEOAwVCzmLeKDvQ/gV6/xPI2wI1IEXdgcQwUAOGD+RI4oaZ7ffggTfQdyB9x6TO2gIF4g9BMZgthT+buwY64xdkMRDoi/mTn0AXXGDK6aEH3jfokBtWO+h9Yy6QP69Hvvo/qtMUje5r9C5Q5wPVrloMvcNiCummC2TKOYuN03frfZtivO0Dac+44AOlkkrtuv9jSu4NAH5+huWP7eE44cyMmPyOhyaF8i+jLrP+7n/YiSMz41//vnK/mbVvgAgEjQAdUgTGScwRgHvI/P6xBv5JwXP8e4Pj/DEOsASPda6Dndpm5w8HkmkO/BMDbgQiBv7RYYW7u9tX/NGMgbjABbAQ4UBWMAfYxa5M/jFwoOOCKLeCmJArY5Bbio5Ht8NxjogJpM8F6ueyKc4sHOCIoha32KQFuswYv+OiGMc4Iw8sEWZmnBkYycjGNqrIiy0TR/zcSMc62vE1VpQZBO/Ixz4SCI4sA+TKcHBEPxrykO3JY8yygD9EOvKR3BGkyiSZMkZC8pKYxI4iYdaDJmbyk6AMZVUoibI9ivKUqJzNJl+2SpdhMZWwjOVqSHmyNcrylrjMTBpltsuY2TKXwAxm6n74MjkK85jITOZCSCEKZTrzmdCMpjSnSc1qWvOa2MymNrfJzW5y7Q38y8ISs8A/OJwRJB7wwEDAGTtxDoScsTMnQfwhjk+x853j/iznOT+SznWGM5/xPCM9PwXFwD2xiCQ5Y0ENc9C9FcST3oyoRCdK0Ypa9KIYzahGN8rRjnr0oyANqUhHStKSmvSkKE0pVYhwIZW69KX+qtjLSgXTmkJzXibDacno4iOb+hSZAEsZr35KVGHqlGRHHVmyispUXNoGhi+bVlOnSlVdKSxm36qqVkEZVJR19WQ1QM9Wx3rJpHrMXmRNKyK/ajK2lmxgao1rHy2EoZg1TK54zate98rXvvr1r4ANrGAHS9jCGvawiE2sYhfL2MY69rGQjaxkJ0vZylr2spjNrGY3y9n2aK6ZnQ2taNkjU5cZAQ9VGK1qPfZZmbU2Zi/o/kINVktbi7mVZCvwQiFry9uAvRZmv31ZEOrAhN4a92BPlRkEWkCt4zr3ubJxhD9IITMwrCI10M0uvG47Mu5q97vgDa94x0ve8pr3vOhNr3rXy972jlV3Wahc69hWOeQNZA19w4Hj3tCiszlOCpWDr3yXGIP6Og6/A9EvQfjLqGHoLhU/nK9AKhi7CyYvgxuMnSl0N4zYOdhsEFbifS2IwdhpcJ5zXJSE/1GJew2knwLJgjFc/A8cjHPGA+nCGZGBDMWtOBU0dsSKW0wQGP9DxjS28TtxLBAdEwQZrHAvUGhZMhxQmWQ4eEPlpMxlT/WSla3sspjHrJQrj+wIsMgh5pnXXKkwr6x1VGSZB5BBYzbb+VFm9hgOfnnnPqs4zm92s8oukIrt+fnQhspzx6xMTEQ7+tGQjrSkJ03pSlv60pjOtKY3zelURaO///BAfx1RCblF7x+OcIQn50aQSqxanYo7detGDWpRK67Uezt1qlcNUVfvDdaLGsfvWmc8AUoOduS7nT9yJ1Djle13H/wHsXUoO2QfTtnMblQ0rneB2gUCgIdj3N++x7hUk++MlDvcsTPHbW+DO3DiLly4FecI8kG005pRNMcYLTMcWBLfAB+ToFNWukYG/OBa0vfG+B2zLG95PwEBACH5BAEHAP8ALKYAMgCHAaoCpxERERERERERERERERERERERERERERERERERERERERERERERERERERERERERERISEhISEhISEhISEhISEhMTExMTExMTExMTExQUFBQUFBUVFRUVFRYWFhYWFhYWFhYWFhcXFxcXFxcXFxgYGBgYGBoaGhwcHB4eHh8fHyAgICIiIiMjIyQkJCUlJSYmJigoKCoqKisrKy0tLS4uLi8vLzAwMDAwMDExMTIyMjIyMjMzMzQ0NDQ0NDQ0NDU1NTU1NTY2Njc3Nzg4ODk5OTs7Oz4+PkBAQEJCQkREREZGRkdHR0lJSUpKSkxMTE1NTU5OTk9PT09PT1BQUFFRUVJSUlNTU1RUVFdXV1lZWV1dXV9fX2BgYGJiYmNjY2VlZWZmZmdnZ2lpaWpqampqamtra2xsbGxsbGxsbG1tbW1tbW5ubm5ubm9vb3BwcHFxcXJycnNzc3R0dHV1dXd3d3d3d3h4eHh4eHl5eXl5eXp6enp6ent7e3t7e3x8fH19fX5+foCAgIKCgoODg4WFhYaGhoeHh4eHh4iIiIiIiImJiYqKioqKioqKiouLi4uLi4uLi4yMjIyMjI2NjY6Ojo6Ojo+Pj5CQkJCQkJGRkZGRkZGRkZKSkpKSkpOTk5OTk5SUlJWVlZaWlpeXl5mZmZqampubm52dnZ+fn6GhoaOjo6SkpKampqenp6mpqaqqqqysrK6urrCwsLGxsbKysrKysrS0tLa2tri4uLq6ury8vL6+vsDAwMDAwMHBwcLCwsPDw8PDw8TExMTExMTExMTExMXFxcXFxcXFxcbGxsbGxsbGxsfHx8jIyMrKyszMzM/Pz9HR0dPT09XV1djY2Nvb29zc3N7e3t/f3+Dg4ODg4OHh4eLi4uPj4+Tk5OXl5ebm5ufn5+fn5+jo6Onp6evr6+zs7O3t7e7u7u/v7+/v7/Dw8PHx8fLy8vPz8/X19fb29vf39/j4+Pr6+vv7+/z8/P39/f7+/v7+/v7+/v7+/v7+/v7+/v7+/v7+/v7+/jLNMgj+AP8JHEiwoMGDCBMqXMiwocOHECNKdPjDX7uJGDNq3Mixo8ePIEOKHElypAxmt0qqXMmypcuXMGPKnEmzps2bOHPq3Mmzp8+fQIMKHUq0qNGjSBOGkBEiqdOnUKP2jAAjgtSrWLNqBZmjnLWtYMOKHUu2rNmzaNOqXcu2rdu3cIUSsRi3rt27CmnoioW3r9+/gAMLHky4sOHDiBMr/kfV6uLHkHE2jky5MkwbvmpZ3sy5s+fPoEOLHk269NiKF02rFp1DHLXVsGPLnk27tu3buHP/rKq7N+DJvoPfZSFqkPDjyJMrX868ufPnNuemhk79Kurq2KNuKOIiu/fv4MP+ix9PvjzYpU3Nq7epYk2W9fDjy59Pv7596Nfv6/eYf7//jCqMccV/BBZo4IEIJqhgUcAt6OA/HhwBw4MUVmjhhRhm6B9dGhbYX4f+scBJICCWaOKJKKao4mborVhfgy7G19VXMdZo44045qjjT9LtWJ5efPko5JBEFmmkkai4gsqRTDbp5JNQRinllFRWaeWVWGap5ZZcdunll2CGKeaYZJZp5plopqnmmmy26eabcMYp55x01mnnnXjmqeeefPbp55+ABirooIQWauihiCaq6KKMNuroo5BGKumklFZq6aWYZjrfh5qOdVJKnYYq6qikYtRiqWDBiCpWM67q6qv+sGLKaaxOGdGLLbTmquuuhKrKK4O8/YoUZpoJa+yxyK45a7I+tfYas9BGKy2WwU47VbXW7kSccdl26+23NvYILk7LjhvTdt2Zq+667Cboa7st8SBHGPDWa++96pWLr0j67gtSgFj4K/DABAv3bsEdRTghwgw37PBoHD7cUb8SQ8RCJyRWrPHGHAd2ascTHQzyyCSXbPLJKKes8sost+zyyzDHLPPMNNds880456zzzjz37PPPQAct9NBEF2300UgnrfTSTDft9NNQRy311FRXbfXVWGet9dZcd+3112CHLfbYZJcN55IDIYLIQFOkJxAZa8sWgWMCIeLEQCFEQIb+ZWrbMNDcBH1yt0ARuP0PInsTrnfacQsEw+CHO0JQBH7XjUjlNKEtkD/+DNRK3gMN07ncdP/jzyp4RzCMZZxDTjlB/jRe+DYD+bO64rebrg1BMDTOOQ9/Q966TZr/swrqAq0Bet3Ixwb4QKsk/k/ejUd2POavDxSL6yFILlD0f0fQ+CrVwyD9Kq0ATzjk15s9UR9r3MyU+2wNkzvNnNOvP3X529z/asYwxs1CYLiZPW9/HYpF82iGrZk1sDTHk9L/JKKN0f1jGAc0hgW1QcC0WRAtwyMc5kwnuxDQbnMS/GBEumHBZsBgYf9ohgW7IQMZDOQTKjQL57QwEBgkAXb+n+ihDLzRphEe8B/qI5zhbDDCszBxcgVJImMKiMAqWpEsy6vZGqR3xS56sUgTnFkYZTYFyH3xjGi8URZpVsY0uvGNKhpjzOQIsy3C8Y54zNAaZ7bHPPrxj4BkXQ5j1ooFBvKQiJRPH2O2SJgZ436JjKQkxUPHlz1ykpjMZHZMQMWYcfJmhdSkKEe5nEq6zJSkTKUqV5mTRr7MjqyMpSxNg0qW1XJlbZylLnfZGVe6LJe8DKYwFXNLlRUzZbAcpjKXycxmOvOZ0IymNKdJzWpa85rYzKY2t8nN3LTDgsbooEBkOJBtmMAEA3EENDziCMNtA5zijKEFzYlOgThikJn++uZAwuk2cgqEnulcZ0faSZB37jOe/vwHQO2JT0y9YnKl++HflgjDjRzRiBGd3BKb2M2OevSjIA2pSEdK0pKa9KQoTalKV8rSlrr0pTCNqUxnStOaIpJiK/uUTXdqzY8Z8IEwaxVPhxpNcdEMSERNqjNF1jKmsoxYSo2qMnGqMmdJ9arBBOrLnLqybWH1q7I06syomjJ0gfWsqvSpzNrzHrS6VZNkRVlcTwawt9p1klxVmcLuytdERmysf5XZxTLW18Ia9rCITaxiF8vYxjr2sZCNrGQnS9nKWvaymM2sZjfL2c569rOgDa1oR0va0pr2tKj9IiL8UTyZhYEZfEj+rWxlptaY5TVlfyhHEGfL25bdMxU2A4Mu6NDb4qrstihD7snC4As9GPe5Jltta2PGB3FcArrYBZlyTbbdkj1BFAHLrngr9lubSddmJigCCsbLXofVFmbCJW5750vf+tr3vvjNr373y9/++ve/AGblGtcQP4E4oXRk4OIBp8DFeNpAwQiWHg9KR+CBHJggCYYo2xrstgc7ioB0s8H/EFG6CoYugxuM52oJYgO6OeF/UwjxiEtsQQzSTYMD4aDbVtwoEyRDgALhQTKSMRDlEaQVQP5HO93miiS34pxFTjIS3TaFAA5ECG4TMpGTZzgkpzOeTfYclJMn5QCbuUnHPBn+D7axuzO7+c1vAbHNulc9ONt5VWk2GQ/yXDIe8ICjdw50qD5ZMxNYYQqCTvSo+EyyPTe0ZUI4tKInrSlfsiwEf6a0pjc9FEfbjAeOqDOnR03qUpv61KhOtapXzepWu/rVsAaTIxyRxHj+QxKIFkgI6mnPAk8vBL6eNUFMkGslS4IgmE4nrfFmOFzjjddK9jUBg+09gRCaUSFkzAhjN9ETmi53c8udP9qsa9/5I4kREJ4/XLftEnrbduETN7mnVzpF9e1vI3QE93yNuPBJr994gxwili1CxmEv3/tOm/Tm9m/pmXDesY64mxg9MiU0oxkSz7ibLL0yORf6xxoPuZoJKA6yNUP8PwEBACH5BAEHAP8ALKkAMwCEAaoCpw4ODg8PDxAQEBAQEBERERERERERERISEhISEhISEhMTExQUFBQUFBUVFRUVFRUVFRYWFhYWFhYWFhcXFxcXFxcXFxcXFxgYGBgYGBkZGRoaGhsbGxwcHB0dHR4eHh8fHyAgICAgICEhISIiIiQkJCUlJSYmJicnJygoKCkpKSoqKioqKisrKywsLCwsLCwsLCwsLC0tLS0tLS0tLS0tLS4uLi4uLi8vLy8vLzAwMDAwMDExMTExMTExMTExMTIyMjIyMjIyMjMzMzMzMzQ0NDU1NTc3Nzk5OTs7Oz4+Pj8/P0JCQkREREdHR0lJSUxMTE5OTlBQUFJSUlNTU1ZWVltbW19fX2JiYmRkZGZmZmhoaGlpaWpqampqamtra2tra2tra2xsbGxsbG1tbW1tbW5ubm5ubm9vb3BwcHFxcXJycnR0dHV1dXZ2dnh4eHl5eXp6enp6enp6enp6enp6enp6enp6ent7e3x8fHx8fH19fX5+fn5+fn9/f39/f4CAgICAgIGBgYGBgYKCgoKCgoODg4ODg4SEhISEhIWFhYWFhYaGhoaGhoeHh4eHh4iIiIiIiImJiYmJiYqKiouLi42NjY+Pj5GRkZOTk5aWlpiYmJubm52dnZ+fn6KioqSkpKWlpaampqenp6enp6ioqKioqKioqKmpqampqaqqqqurq6urq6ysrK6urq6urq+vr7CwsLCwsLCwsLGxsbGxsbKysrOzs7S0tLW1tba2tre3t7m5ubu7u76+vsDAwMLCwsPDw8XFxcbGxsfHx8fHx8fHx8jIyMnJycnJycrKysrKysvLy8vLy8zMzM3Nzc7Ozs7Ozs/Pz9DQ0NHR0dPT09TU1NXV1dfX19nZ2dra2tvb29zc3N3d3d7e3t/f39/f3+Dg4ODg4ODg4OHh4eHh4eHh4eHh4eLi4uLi4uPj4+Pj4+Tk5OTk5Obm5unp6e7u7vPz8/b29vj4+Pr6+vz8/P39/f7+/v7+/v7+/v7+/v7+/v7+/v7+/v7+/v7+/jLNMgj+AP8JHEiwoMGDCBMqXMiwocOHECNKXFjEH7yJGDNq3Mixo8ePIEOKHEkSZMWLJVOqXMmypcuXMGPKnEmzps2bOHPq3Mmzp8+fQIMKHUq0qNGjSJMqXcoUJ4IVCJpKnUq1akcRhs5Y3cq1q9evYMOKHUu2rNmzaNOqXVsTiUW2cOPKPXhyrt27ajNIQYK3r9+/gAMLHky4sOHDiBMHrTCjguLHkF96qNIksuXLmDNr3sy5s+fPoL3WDU268+jSqDGHyKMltevXsGPLnk27tu3bI59Gxc07roIZEXoLH068uPHjyJMrX8788unm0JGaCJUpuvXr2LNr3869O1XGjr3+i6epe7z5mDiwITvPvr379/Djy4/tFuX8+xiBUAuGv7///wAGKOCAQJVH4IH/GIjggCe0wsmCEEYo4YQUVijecxbKRwQ972To4YcghijiiCSWKJaCJo6HFRoptujiizDGKONM9c24HYY2RqcXXzn26OOPQAYp5JBEFmnkkUgmqeSSTDbp5JNQRinllFRWaeWVWGap5ZZcdunll2CGKeaYZJZp5plopqnmmmy26eabcMYp55x01mnnnXjmqeeefPbp55+ABirooIQWauihiCaq6KKMNuroo0XhCGlVkk5q6aWYZqqpVyhuyhRWWnkq6qikBurEW6UqVWmqQu3I6qv+sMaqJniyFjVZZbXmquuuVa7K602+/lpTCXyIIeyxyCbrY6fK1oQAcM1GK+201G4ZbLUpTVcdttx26y18KxixwrcvMUtuSemtd+667LabXI3ulqQff/HWa++9rpmLr0b67ovRC6504u/ABBd82LUGL7Rhhwk37PDDEB/Wb8QIDRGPOxRnrPHGHHfs8ccghyzyyCSXbPLJKKes8sost+zyyzDHLPPMNNds880456zzzjz37PPPQAct9NBEF2300UgnrfTSTDft9NNQRy311FRXbfXVWGd9lhSUEIRAeP/oAAkksyEAxUBje322ZZB84bXbAqU9UAVr/wNJ1wMhoAP+QZDsLRACuwlESd1f810OTZT4Q5AOYEPhj+KyIUC2QI/7nSDckflDb4IIhDLQ4wRVgPnjRORd9+OYA06QP57/XQE6n9sXkxmlLN54KJ6zc/hrCGCOu+VmXxZK6r0PhHvodYdSSul/Jx8K4YH/U0rqFeD9Tyi7BwVVyo25JoUUKYOOsvhaW4jJ5CeTX75YX2BucgVgry//cExYbvL2qelgf8nq8w85ll8gnxQCpwPyfSF6/SOL5vLWuc/97x+i69IcyHeFcQmECeSbgwUp98Cy+EMZA1nBCl7hQILMYA5LSqBC9Be6xTHvbwXZX1nsp7qBsHBuTKIE+ubHwx4KqQL+0SsZB+JXMnXAzodITKKNVCiyUrROiVCMYomAmDIqoiwYm5OiFrdYISaGDB3Z46IYx0jGzsxggybTYRnXyMb7eBFkb/zYEV7YxjraUTxWPJkZ3HfHPvoxOnH0WCA7JoW6/fGQiDxOHk1GBBkm8pGQjGRQBskxNUrykphMzSKFSESSGTGToAxlZyi5MSeK8pSohMwmSbbKkWExlbCM5WBIqTEwyvKWuMylLnfJy1768pfADKYwh0nMYhrzmMhc4kCoADYikM8M8aOlQuA3EDOQj5kDceb/oLm6Dj7qf9gUiDarGU1vYoSaArEmOJv5zHJ6Kn43hOHiPhK9eEJwcTT+jGEy98nPfvrznwANqEAHStCCGvSgCE2oQhfK0IY69KEQjahEJ0pRRSFsYxetqEY3mqyJeQxUHA3pLeFlsoxmzFUiTSkqaXWyW6n0paE0KcVkGrHVtAamOJWkRzv2rODk9KdA9RRNIaatoBq1jyw12U45lq6jOrWNJC3ZvJ5KVTIudWNX1ViDHlTVrmpxqA9zhT7m4dWymvWsaE2rWtfK1ra69a1wjatc50rXutr1rnjNq173yte++vWvgA2sYAdL2MIa9rCI3RMk/CGwky22sYmNrGS7k9WMMcEQhpysZg2WOE+g7LEoQ4EUXrDZ0hosqSXTQRWKYNrW+gu0jmX+LMqUkAcnuPa29qosxRgwAwbg9rfAjQ1sTUaFUGQhuMj1FmpJlgY/pCG50I2udKdL3epa97rYza52t8vd6ELBfTUMm/uYED0zmMGG0WvfQKAQPSu4D53/+K7XCDje8p5XIDpILx8FFYoHhjeA/7MCAQ2IwP+FIrzK+F854Nvf+Q4EwAMRsA0J3M1BDVFwWYSvFF4pkCY0UxjCGIgU4sfhf1ACvrHYXCk4wIGBUCLDYNvw5jycTRCLmMRZ9BMHqAC+7vp4U9KM2DhPdoQ03PfHSLZUK0MGvyAm+clQPkqQIUYEU0b5yom68MmajLLXhRHLYBbUlB92BGHkOMxo7tPCkkHG5ZNxIBW1S7Oc+zRmh7miznPOs573zOc++/nPgA60oAdN6EIjjRJHhuCRKWG9f3CgxyZudAXoSIkXwvcflYD0pREdukU3+tEuljSl6TioBf6tgRwM3ej8wQTTOZB4q3si4Njxuc0B7onqiyAHW928Vx+qbQysm9wEUgHLjY3XCTI2JKBHEEoQD4VxI56wd1hstEEC2Xqz9trW/LEK7NHQ4PYSnhM2ZEY2Mtzo1pKWTbZjSKf73VMat8HaIW/tBAQAIfkEAQcA/wAsqAAwAIUBqgKnDQ0NDw8PEBAQEREREREREREREREREREREREREhISEhISEhISEhISEhISExMTFBQUFBQUFRUVFRUVFhYWFxcXGBgYGhoaGxsbHR0dICAgIiIiJCQkJSUlJiYmJiYmJycnKCgoKCgoKCgoKCgoKSkpKSkpKSkpKSkpKioqKysrKysrLCwsLCwsLS0tLi4uLi4uLy8vLy8vLy8vMDAwMDAwMTExMTExMTExMjIyMzMzMzMzNDQ0NTU1NjY2Nzc3ODg4OTk5Ozs7PT09Pj4+QEBAQkJCRERERUVFRkZGR0dHSEhISUlJSkpKS0tLS0tLTExMTU1NTU1NTk5OUFBQUVFRUlJSUlJSU1NTVFRUVlZWV1dXWVlZW1tbXV1dX19fYWFhY2NjZGRkZWVlZmZmZ2dnaGhoaGhoaGhoaGhoaGhoaWlpaWlpaWlpaWlpaWlpa2trbGxsbm5ucHBwcXFxc3NzdHR0dXV1d3d3eHh4eXl5enp6e3t7e3t7fHx8fX19fn5+fn5+f39/f39/gICAgYGBgoKCg4ODhISEhISEhYWFhoaGhoaGh4eHh4eHh4eHiIiIiIiIiYmJioqKjIyMjY2Njo6OkJCQkpKSlJSUlpaWmJiYmZmZmpqam5ubnJycnZ2dn5+foKCgoqKio6OjpKSkpaWlpqamp6enqKioqampqqqqra2tr6+vsbGxs7Oztra2ubm5u7u7vb29v7+/wcHBwsLCw8PDw8PDw8PDxMTExMTExMTExMTExMTExMTExMTExMTExMTExMTExMTExMTExcXFxcXFxcXFxcXFxcXFxcXFx8fHycnJysrKzc3Nz8/P09PT1dXV2NjY2tra3Nzc3d3d3d3d3t7e39/f39/f4ODg4ODg4ODg4eHh4eHh4eHh4eHh4eHh4eHh4eHh4eHh4uLi4uLi4+Pj5OTk5eXl5+fn6Ojo6urq7e3t8PDw9PT09/f3+vr6+/v7/Pz8/f39/f39/v7+/v7+/v7+/v7+/v7+/v7+/v7+/v7+/v7+Ms0yCP4A/wkcSLCgwYMIEypcyLChw4cQI0pkSIvZsokYM2rcyLGjx48gQ4ocSbKkyZMoU6pcybKly5cwY8qcSbOmzZs4c+rcybOnz59AgwodSrQkD3/viipdyrTpzQ+XCDmdSrWq1atYs2rdyrWr169gw4odSxbnAhQLyqpdy5bj2bRt48qde1BHu3B08+rdy7ev37+AAwseTLjw36NJDSteXBNFLFWMI0ueTLmy5cuYM2veXJlCCwqcQ4su+Ha06dAqfr06zbq169ewY8ueTbt2T8S2c/NFoo6a7t/AgwsfTry48eNMSyNfjlU58+dTTXSSBL269evYs2vfzl0u7u7gbf5+D08+poQgG8qrX8++vfv38J87j0+fI4Y4XOrr38+/v///AGYVBFIBFnjQeAYmiIEYVCTo4IMQRijhhADOR+F+L0xRxIUcdujhhyCGyBqCIrZHYonrQSUViiy26OKLMMaYHFoykmdhjdrZhReOPPbo449ABlnQiUIu5xhkRSap5JJMNunkk1BGKeWUVFZp5ZVYZqnlllx26eWXYIYp5phklmnmmWimqeaabLbp5ptwxinnnHTWaeedeOap55589unnn4AGKuighBZq6KGIJqrooow26uijkEYq6aSUDirLMr9UqummnHbqKWFEfuqUiqKWauqpnd6IqlKqrkqUjv6uxirrrIGGSqtPR96q6668tukZaL0C1WqwOKW2GrHIJqsslQMmtmxOPKQzzbPUVmttjzReW9Ow2rIkHXXdhivuuA/aSu5J5p5b0nnpqevuu/DamG28KN2XH7345qsvcc3uaxSB/o60YIMBF2zwwZz9ivBHFyRhw8IQRyyxYOlOvFDFFidEasYcd+yxV9x+bFAoqoQi8skop6zyyiy37PLLMMcs88w012zzzTjnrPPOPPfs889ABy300EQXbfTRSCet9NJMN+3001BHLfXUVFdt9dVYZ6311lx37fXXYIct9thkl232VJBMMlAUcAn0BiQEte3aWQRBQvA/C8htmP4zA6W9w0B51x0F4HJPMrhAC1AQR99wA374P5A0LhAFj6sTkz/+DGRK4AL9krlA6OjNGt0D+YMK4fEstkA0pftz9wI0EOSP5Hnv+I8/pgBOATKl24635JjHPvkbpcdkyulucw557gJhIvpppAtkyuKIL2C5YgvwLT0qfyMuvPSP5y05KsQjToHa0kuOd/n/mGLK95QP1I6Ev2RaM+Zn588c/vd/zlo4vpOZ8mY2QP1NqBXIo9m8ZrZA07jPZvxrUhQeN7NnPANpzfDfLygArPb5LxzKg4T//nGEr7xiEK173fduR7vncSmCzWhBCwbCCv+hAwUoGAgmRjiFr8hBFv6tA8NAUFDC0mFiiChAh5iKaD6CrHCANFghWJAkEBp0D3EFeaILkxTBmXXRgGAMoxjfg4EOziwO7BujGtfIoy/GzI0w+8EV2UjHOrKIAltsGRUoaMc++vFCcHxZIF2Gxj8a8pAQwqPNFInIRjrykZIZZMtQwTxIWvKS6mEkzcpos3OYA5OgDOV2JMkyZNhPlKhMJXI0OTNWyoySqoylLINDypXVcpa4zKUuW8LJmhVyl8AM5mZumTJiokyOwkymMifjypjtcZnQjOZgjHkyaorMlNLMpja3yc1uevOb4AynOMdJznKa85zoNCQyMICBgaDCf+bg4EAmMcKN+IEg5/7w3zrbKZB3DiSeHaQnQX7wqX26E57yFIhAPXLPgeRzIAbtJ0IDOkKCeipxToyb3KL4ET4QZI4YHYgWnSjFdJr0pChNqUpXytKWuvSlMI2pTGdK05ra9KY4zalOd8rTnm7JFbOAhU+HSlSIYQxlGyuqUsEZMpU1NWWwWqpUu3nUk+VqqljNpsJo9lSUGSurYIVmVUXGG9+E9azCbCDMunqyb6H1rboc68fk6jF2wfWusmSryOyF176isl80o2vHLiCGHvr1sJfU68degIUkIPaxkPRH6iBL2cpa9rKYzaxmN8vZznr2s6ANrWhHS9rSmva0qE2talfL2ta69rWwjf6tbGdL29pGrRbLuIVtd8vb/4jQZDSTwiW20NvitkyxHkNuxwTRjkwY97kp+23NwBALOkD3uh/bKgHV+rIz/CIP2A1vxqRLM0iooxPiTW/ElMsx9mbsCp34gnrnezDyzsy+MrtAEPhJ3/76978ADrCAB0zgAhv4wAhOsIIXzGCNvIF9bCPILxGXQ4FEIY3Ko0EaWfkGPYhUbg9em9wmjLcK/+PCGhXphhVFgwhCQm7m0GD0TPHBEI5wB22LQgTf0LYW++/FBInxQH4x4xq3TYQfVdQOkME7gcTBjKpo8j8m4Zl5ShkVCf1HHKT8jx90kArIaMZAqNDBJUv5yQSJ8v48q6zQK2d5ywNFVC9b2cyX7e6UDc6zrKzpsR94Us+ADnRYOJjHlZ1PfYJOdKf43LEdMJpjO9hBSRVN6UnV2WWKS2OlNx2pR2fM0fWE2Q6eyelSQ2rOMsMAMk3N6la7+tWwjrWsZ03rWtv61rjOta53LZuLKJQSFv1Hlqd8t2FnotgYmMM80Te5u02C2f9ogbOBPZBhT6LYZjx2tZO97EWJWSCYU6HsWmg73OlOyv7w3QKA54/voYB94QbcCmdHuHJXMnHoDqChaNG3SVwRdoIjHPswwb7EUQ9yGH5c5Nz9Pb/JO+DVG3jBFdc3TdPs0i0jdM0oYA598/rjZfK0xRF2AEuQm9xMqI6Zxi+OTQAFBAAh+QQBBwD/ACymADAAhwGrAqcQEBARERERERERERERERERERERERERERESEhISEhISEhISEhISEhITExMTExMUFBQUFBQUFBQVFRUWFhYWFhYXFxcXFxcYGBgYGBgZGRkaGhobGxscHBwcHBwdHR0eHh4fHx8gICAiIiIlJSUnJycoKCgpKSkqKioqKiorKysrKyssLCwsLCwsLCwtLS0tLS0uLi4uLi4vLy8vLy8wMDAwMDAwMDAwMDAxMTEyMjIzMzM0NDQ0NDQ1NTU2NjY4ODg7Ozs9PT0/Pz9BQUFDQ0NFRUVGRkZHR0dISEhJSUlKSkpLS0tMTExNTU1OTk5OTk5PT09QUFBRUVFSUlJTU1NUVFRVVVVVVVVWVlZXV1dXV1dYWFhZWVlaWlpbW1tcXFxdXV1eXl5hYWFjY2NlZWVnZ2dqampsbGxsbGxtbW1tbW1tbW1tbW1tbW1ubm5vb29wcHBxcXFzc3N0dHR1dXV3d3d4eHh6enp8fHx9fX1/f3+AgICCgoKEhISGhoaHh4eHh4eHh4eHh4eIiIiIiIiIiIiIiIiIiIiIiIiIiIiJiYmKioqKioqLi4uMjIyNjY2Ojo6QkJCRkZGTk5OUlJSWlpaYmJiZmZmampqbm5udnZ2enp6fn5+goKCgoKChoaGioqKjo6Ojo6OkpKSlpaWmpqanp6eoqKipqamqqqqrq6usrKytra2tra2urq6vr6+wsLCysrKzs7O0tLS1tbW2tra4uLi5ubm6urq7u7u8vLy8vLy9vb2/v7+/v7/AwMDBwcHCwsLDw8PExMTGxsbHx8fIyMjJycnKysrKysrLy8vMzMzNzc3Nzc3Nzc3Nzc3Ozs7Ozs7Ozs7Ozs7Ozs7Ozs7Ozs7Ozs7Ozs7Q0NDT09PV1dXY2NjZ2dnb29vc3Nze3t7g4ODi4uLj4+Pk5OTm5ubn5+fp6enr6+vt7e3v7+/w8PDx8fHy8vLz8/P09PT09PT09PT09PT19fX29vb4+Pj5+fn7+/v8/Pz9/f3+/v7+/v7+/v7+/v7+/v4yzTII/gD/CRxIsKDBgwgTKlzIsKHDhxAjSnT4C9iviRgzatzIsaPHjyBDihxJcqQCFApKqlzJsqXLlzBjymxY4tWmmThz6tzJs6fPn0CDCh1KtKjRo0iTKl3KtKnTp1Cj9gTiz53Uq1izagX54566rWDDih1LtqzZs2jTql3Ltq3bt3Djyp1L9+rJlHXz6o1Lwg+dvYADCx5MuLDhw4gTK17MWGqPqo0jS5752Orky5hLZojyI7Pnz6BDix5NurTp06iH3k3NGnSGLkVay55Nu7bt27hz695NUom/eLyD160svHhcEHfKGF/OvLnz59CjS5/u0cILC9SzR8WQo4P27+DD/osfT768+fPoRxNPz16milKV2sufT7++/fv4ca/Oz1/j/v4ARjRDN8sEaOCBCCao4IIM5rRegwu+kA0wEFZo4YUYZqihfCj8gMKGAf4HYn413TTiiSimqOKKLCpGlWUtytfVVzHWaOONOOao4448HiRij+D19ReQRBZp5JFI1vhgktK54s89TEYp5ZRUVmnllVhmqeWWXHbp5ZdghinmmGSWaeaZaKap5ppstunmm3DGKeecdNZp55145qnnnnz26eefgAYq6KCEFmrooYgmquiijDbq6KOQRirppJRWaumlmGaq6aZb7dLLLpye9WOoYZVI6qmopqoqRC+uCtaM/q7GKuustNZ61Ki2LiVCH3Lk6uuvwPq5ZLBIDUusUZt1duyyzDZbJq7O/vRabNFWa+21UbaKLVDGbqsTcsp5K+645KJoHXbl6sSdd+m26+678ErZbbwqkUAKJfTmq+++4EHLL0j+/uvRgAUKbPDBCNc2b8IaSUghwxBHLPFl507cUcAWO2Rqxhx37LFc2n4cEawil2zyySinrPLKLLfs8sswxyzzzDTXbPPNOOes88489+zzz0AHLfTQRBdt9NFIJ6300kw37fTTUEct9dRUV2311VhnrfXWXHft9ddghy322GSXbfbZaK9liyEEKYDXPzwYwrZANnxomwJNDNRI/iMEZdNYLm//08gZbd8xkNxt5y0Q4gNZYANBhlD7j9uQKz554Dhl4w9BNrwthT+bC3SG3aw1YbkCc/8D+uMC+c0Y4OIM5M8wA7n9iuyhC6QA4QKt3rjloBuue+D+lFK7ArHrNIzxA3U+kBSlMP9PE6SnBnrtvP9zyims/+P6YoCnfkr2bgv/T/SJDxR99xZYHn0YxxNUCvmoa3h92iNWwrfN9+N/1hnZoxnl/EdA5hyBBze7Tmt4gED+5Y5m/SvghcJgOY7pAQ8SiWDGeNC9h+SuCW+zQf/OQLzcleIkaOEB8mRHO91Z4BS4g1zq0hQG0hWhf3eoXv9e0SG0UAIF/uSQXTIGgoIXwCKGRKwemgJngw5iroHDS8sSAgfFyaGLbk7EnAS36BkNyqwRM+SiGMeYIwtoMWZmvJk4kkfGNrqRRV6M2Smk98Y62jFDabRZB65IM2IQ446ADGSD4gizNQrykIhMZGTyWDMwKvKRkGQPIV82SZdxMJKYzGR49ngzNwRQk6AMJXMq2TJSsuwKUhClKlcZHEbS7JKsjKUsZ+kTU67MkbTMpS5D48qZ9VJmhtylMIcZGVuqbI7ETKYyDfPLmHHSZn5cpjSnmRdjUvOa2MymNrfJzW5685vgDKc4x0nOcpoTZlK4Ig/65wY+9o8RH3FD/9I5kHXmrp0E/unfKTrArlPRUyD2HAg+kfgPeHpEnrn7J9zY6c7c7bOfpGKiEwtSxTNixAYV5dxECVJRPp7zoyANqUhHStKSmvSkKE2pSlfK0pa69KUwjalMZ0rTmto0O7CgxRFrJoIfiMBmG7upULUZspmRbKhITeq7MLYyISn1qcpcWMukyrIMQEFZUM2qLpmqMg3ARqtgpaVvgFMzqq4MXGFNKysrVjMM6ACiao2rXFNlVpWpgBTxmateH8nVlPUVZTPwRsH2SlhB1jVlErpIYRd7xw4pMWZ/ZaxkJ0vZylr2spjNrGY3y9nOevazoA2taEdL2tKa9rSoTa1qV8va1rr2tbCN/q1sZ0vb2gKrF77ohc0ia7IvvOKTtg3uyRrhD1DYzBD34IRwl8vc8/C2ZEjwwxSaS12PGcIfnjgudm1GgiiooLrgtdhzRfaCLuggvOiFGCX8kQrtZrdmQrjDEdJL34OxlWYayMEG6svf/tLmuu+lGRdIES7/GvjACE6wghfM4AY7+MEQjrCEJ0zh8zQhgIy0gRs4FzgANi9wnhxIE/h44ba9rcSNC+GGP0wQD9MNxNkbcaRK8UBGnqF/IGzeCEuoPgtccRi5E8cAz1fjt934gyHccT5N6GNINeKPA3nmP6QQTYCqs8pT5iOWG8HPgZwCytprskCeTBApUxnMPLgy/pgV+o8td7nCbWzmyywghQrC+c6osubJAlozHoQYz4A+lZxd9oIXPDbQiE40UvRssh+kAoaKjnSlBt0yH1vUZRYIpqQ3DSlGl4wHxGghp0fNKCn7ktIseyEdSc3qVrv61bCOtaxnTeta2/rWuM51anfBx0esWCAdiIPe9icQOg+7zFV8BFbFPOZUFrvXv/5HsI/dOGcLjtjSTjZWGwU7FtbuhQSdXPZ8V2zg+ePXQ1ad9NzGxtl9G9Kqe+DucMc+c0ebUYDL3uC+bW3G6a57cmMfwBth7XQbgn76Jp+xFzdDBQDcEAI/HMF1vVJUr8wCf6a4xtHkaZHx+ZWw3LjICslkcZXR2c79CQgAIfkEAQcA/wAspgAyAIcBqwKnEREREhISEhISEhISEhISExMTExMTFBQUFBQUFRUVFRUVFhYWFhYWFhYWFhYWFhYWFhYWFhYWFhYWFhYWFxcXFxcXFxcXGBgYGBgYGRkZGRkZGRkZGhoaGxsbHBwcHR0dHh4eHx8fICAgIiIiJCQkJiYmJycnKSkpKysrLCwsLS0tLi4uLi4uLi4uLy8vLy8vLy8vMDAwMDAwMDAwMTExMTExMjIyMzMzMzMzNDQ0NDQ0NTU1NjY2Nzc3OTk5Ojo6PDw8PT09Pj4+Pz8/QEBAQEBAQUFBQkJCQ0NDQ0NDRERERUVFRkZGR0dHR0dHSEhISUlJSUlJSkpKS0tLTExMTExMTU1NTU1NTk5OT09PUFBQUlJSU1NTVlZWWVlZXFxcXl5eYWFhY2NjZWVlZmZmZ2dnaGhoaWlpampqa2trbGxsbGxsbW1tbW1tbm5ubm5ub29vb29vcHBwcXFxcnJyc3NzdHR0dXV1dnZ2d3d3eXl5e3t7fX19fn5+f39/gICAgYGBgoKChISEhISEhYWFhoaGh4eHh4eHiIiIiIiIiYmJiYmJiYmJioqKioqKioqKioqKioqKi4uLi4uLi4uLi4uLjIyMjIyMjY2Njo6Oj4+PkJCQkpKSlJSUl5eXmpqanZ2dn5+foqKipKSkpqamp6enqKioqampqqqqq6urq6urrKysra2trq6urq6ur6+vr6+vsLCwsbGxsbGxsrKys7OztLS0tbW1tra2uLi4ubm5u7u7vb29v7+/wMDAwcHBwsLCw8PDw8PDxMTExcXFxcXFxsbGxsbGx8fHycnJysrKy8vLzMzMzc3Nz8/P0dHR09PT1NTU1tbW19fX2dnZ2tra29vb3Nzc3t7e3t7e39/f4ODg4ODg4eHh4eHh4eHh4uLi4+Pj5OTk5eXl5ubm6Ojo6enp6+vr7Ozs7u7u7+/v8PDw8fHx8fHx8vLy8/Pz9PT09fX19/f3+fn5+vr6+/v7/Pz8/f39/f39/v7+/v7+/v7+/v7+/v7+/v7+Ms0yCP4A/wkcSLCgwYMIEypcyLChw4cQI0p0OADFgIkYM2rcyLGjx48gQ4ocSXJkBSYySqpcybKly5cwY8qcSbOmzZs4c+rcybOnz59AgwodSrSo0aNIE/7w9y6p06dQo/bcwVSq1atYs4IkgWmP1q9gw4odS7as2bNo06pdy7at27dCK6ioALeu3bsK5dLFy7cvXBztxPkdTLiw4cOIEytezLix48dSqTaFTLmyTBa6UFnezLmz58+gQ4seTbq024oXTasujXq1a9EpjuV6Tbu27du4c+vezbv3TMm+g/etEU6a8OPIkytfzry58+dA9UKfrrU19etSS4B6hL279+/gw/6LH08e7dLJ5dPfPK++fU0FPka4n0+/vv37+PMnt66//0YSdYTh34AEFmjggQgmGBVwCjZIEIMOOtiBGFhEaOGFGGao4Yb98cfhgCel9OGIJJZo4okoisZeivdByCJ9JGTi1Ys01mjjjTjmaJR0OpbHY49ABinkkEQWaeSRSCap5JJMNunkk1BGKeWUVFZp5ZVYZqnlllx26eWXYIYp5phklmnmmWimqeaabLbp5ptwxinnnHTWaeedeOap55589unnn4AGKuighBZq6KGIJqrooow26uijkEYq6aSUDuhhpWKFiOmmnHbqaUYrfqqVi6JexdWMpaaq6qqRXsqqU/4o9IDCq1IBJhituOaqq56k7koUZpr5KuywxJrparE+HYssT7HNtuyz0EbrZK/S4kSccdVmq+22Nv7IrU3KfguTdtyJa+656CZIbbosSeEPPOzKBJ988dZr773ihYvvVgHu6++/AB+3bsAcDUywRhNWePDCDDf8mb4OQ6RpxBRXbDFhoV4skcEaKxQjqh2HLPLIJJds8skop6zyyiy37PLLMMcs88w012zzzTjnrPPOPPfs889ABy300EQXbfTRSCet9NJMN+3001BHLfXUVFdt9dVYZ6311lx37fXXYIctdpbODLRFagK9QQlBA6D9WiKJiPhP2wQlcgVnA9wtEP7ccltEECVbDET3QHYLPkAaA3WSCEEVBL734oLrTZM/A5ky+D/FUC6QN5e/5o8/iAvUuT+k4B36P59LjoLcqK8t+gDgDES64cPI7g3jrqPujw6Cnz6TNQO9cTklphDeOW2Sd06K75TlPRAppPTNuimOzz1A7ssbDvk/sGz/TwVvPE8K76JLPjZEn9Oc/mvgxD7z8S/Dfz6HsJQ+s98zz0WbKcXPvP78AISOMmrnP80F0CzyM1IF3AaRYVyOFAYExwIJZ8B/yICBCDxd6gZSAdb5w3UJLNIEJ6IMFMxKILAw4DhUcMJ/dKKCS2ghWlCAqs+BYSAqWAJB/OGJKMUCFv4Y6RzrKrAXgciAfKJji9tkMMSCIPGAUIxiWf4XMypK8YpYzOJ4RiizNzBPi2AMI4us+DIyukwHrBOjGtf4IQ8UMWZbMB8b50hHB5mxZXdkGR9AVsc++hFEGHQZF/9IyEIa0jB5XJkp7HfIRjoyPIOEWSRfBo7bPfKSmJxOIlVWDAJm8pOgPM4kBRnIlv0wlKhMpW42mTJWqvKVsIylSUrJMi/K8pa45IwrT7ZLk6Exl8AMJmPcSLM4CvOYyEymMpfJzGY685nQjKY0p0nNalrzmtjMZmhEUURTRFB/AqFEBXXwAI+Aw4DFIGLlvllEcRJEB2/cFDfXORBwgPMf7v4cCDnNiU51CsSb9bxnPgUCz0+FgiCsqwhCn0hLiSR0iWyT4RHZps2KWvSiGM2oRjfK0Y569KMgDalIR0rSkpr0pChNqUpXytKWQhFiKJuYS2fqzIy9jGMoOxVNd8pMb73Mpy6zFU+HikycngxYRE0qMGF6MqaarFlKjaosjWqya0n1qqoEasucWrISfKJcWA1rJm3qMrK2bF5iTesluUoyEtBBQGqNqyGpWjK6kqwDY1CYXPfaR7aODAR1uCFfB0vYwhr2sIhNrGIXy9jGOvaxkI2sZCdL2cpa9rKYzaxmN8vZznr2s6ANrWhHS9rSmlZpfhXZCJhQgtO6tmXiFP7FzBLhj4PKTAqY6MJrd5syrbLMtysDRDt6yNvikoy2to3ZGHRhB+M6N2SphS7+YmaGYvDxudhtGHJnpodwZCK74HUYcFUW3Y5p4ROCDa96AxbbmbVXZnhIRB7WS9/62ve++M2vfvfL3/76978ADrBVbCmQK7wxDb673BV8x0UZhM9wBEHwQC5IEAL/w8ARTjDaFsw4tDmYbQ39kw7+l4g3esOADkQbBOvJRdoidMP/SwPaRmzAEhPkxANJ8fMi2OIKUhhRPkBFMYLnAYKYYsjh9Cc+kfwPVBAzbcd4ZxG3UAwmb6GIPjgGk99Q5MoxmRJKpgSTnVzEN0RZn/EUsP6aRRjimI7yt51cs5xz1UuS6aCSc86zns1CxDafrAKU8N6eB72pOo/MB4YWmQ5+SehGY+rNK/PAHB7s6EpHKtEho/HMdGBMS3vaUZBWWQUY/elSm/rUqE61qlfN6la7+tWwjrWsv9S4gVCCEkh8skByy8E3Aq7XlMZE7v7hAd2Gc9i1Pnau38hrgSgZn9UjYrCHbajDyc4fkuvgDnPXNkuijpFt86Q/vP293H1ObtYWyAad7UFuD8Dbs3uduCtYbbnxjYOs+/XrTpeI07XtdJRgcPXuLTp7xw3ff6vevwnn73TjU9CzjjiaQp0yFbBwZhXAs8Q3jiZMdyzI/eO4yA3HRHE3+9lk7SM3gQICACH5BAEHAP8ALKkAMwCEAaoCpw4ODg8PDxAQEBERERERERERERERERISEhISEhISEhISEhISEhMTExMTExQUFBUVFRUVFRYWFhYWFhYWFhcXFxcXFxgYGBgYGBgYGBkZGRkZGRkZGRoaGhsbGxwcHB4eHiAgICIiIiUlJSYmJigoKCgoKCgoKCkpKSkpKSkpKSkpKSkpKSkpKSkpKSoqKioqKioqKioqKioqKioqKioqKioqKisrKysrKywsLCwsLC0tLS0tLS4uLi8vLzAwMDExMTIyMjMzMzU1NTc3Nzo6Oj09PUBAQENDQ0VFRUhISElJSUtLS0xMTE1NTU9PT1BQUFJSUlRUVFZWVlhYWFlZWVpaWltbW1xcXF1dXV5eXl9fX2JiYmRkZGdnZ2lpaWpqamtra2tra2tra2xsbGxsbG1tbW1tbW1tbW1tbW5ubm5ubm9vb29vb3BwcHFxcXFxcXJycnNzc3V1dXZ2dnh4eHl5eXp6enp6enp6ent7e3x8fH19fX5+foCAgIGBgYODg4SEhISEhIWFhYaGhoaGhoeHh4eHh4eHh4eHh4iIiIiIiIiIiImJiYmJiYqKiouLi4uLi4yMjI2NjY2NjY+Pj5CQkJGRkZKSkpOTk5SUlJeXl5mZmZubm5ycnJ6enqGhoaKioqSkpKWlpaampqampqampqenp6ioqKioqKmpqampqaqqqqurq6ysrKysrKysrK2tra2tra6urq6urq6urq+vr6+vr7GxsbS0tLa2tri4uLm5ubu7u7y8vL29vb+/v8DAwMHBwcLCwsPDw8TExMXFxcfHx8jIyMrKysvLy83Nzc7Ozs/Pz8/Pz9DQ0NHR0dLS0tPT09TU1NbW1tfX19jY2Nra2tvb293d3d7e3uDg4ODg4ODg4ODg4ODg4ODg4OHh4eHh4eHh4eLi4uTk5OXl5ebm5ujo6Onp6erq6uvr6+7u7vDw8PPz8/X19ff39/j4+Pn5+fv7+/z8/P39/f39/f7+/v7+/v7+/v7+/v7+/v7+/v7+/v7+/v7+/jLNMgj+AP8JHEiwoMGDCBMqXMiwocOHECNKXJhARoKJGDNq3Mixo8ePIEOKHEkSZMWLJVOqXMmypcuXMGMmLHHrk8ybOHPq3Mmzp8+fQIMKHUq0qNGjSJMqXcq0qdOnUFkK8dcuqtWrWLN2FAJPndavYMOKHUu2rNmzaNOqXcu2rdu3cOPKnTv0JN27eN2GICQnr9+/gAMLHky4sOHDiBMrLkqE6uLHkF82rhq5smWRF5oMucy5s+fPoEOLHk26tGmZdk+rtszhSpLVsGPLnk27tu3buHNjnEpZt++3vH8LbwuCDpfhyJMrX868ufPn0B2mjk59aQMgGqpr3869u/fv4MP+ix+PODj58y5HgLKEvr379/Djy59PusKOCvTzY7SPX7//hz5gs8x/BBZo4IEIJqhgSeYtaOAOyvzi4IQUVmjhhRhuN12G8m3IIXw02fThiCSWaOKJKOLVYIrjCfGOVyzGKOOMNNZo440seogjdTkYo8uOQAYp5JBEFmnkkUgmqeSSTDbp5JNQRinllFRWaeWVWGap5ZZcdunll2CGKeaYZJZp5plopqnmmmy26eabcMYp55x01mnnnXjmqeeefPbp55+ABirooIQWauihiCaq6KKMNuroo5BGKqlSOk6aVaWWXhVippx26umnBK0IKlRcwTjqqaimquqqMWHKalH+e/X16qy01ormZLYihWuuRmW2Ga/ABisslK4OmxMIWSxh7LLMNnujqM7iBG20MhV3HLXYZqvtgsVum9J12Xkr7rjklkvjtOaOpB576bbr7rvI8QdvSfLOO1KAA9qr7778hoZuvxP9sIyEABds8MGDdYswRRYtnNGmDkcs8cRl/UvxQUG8ePHGHHfs8ccghyzyyCSXbPLJKKes8sost+zyyzDHLPPMNNds880456zzzjz37PPPQAct9NBEF2300UgnrfTSTDft9NNQRy311FRXbfXVWGet9dYaVdDfPz4oAslAPqA0myKKEJRAEwOhbVkCZv+jSBhq0y0QJGkPVAH+FG3nLVACPhCkSOACVRA3JHz/7Yy0Xzfhjz8DhRF3bP6Eo7bfjxMOGdzjDOQPMQPBTYrnkOutBulChM62QI/b/Y/hBPmDSuiL3yRE46TMLlATKGXit2qk/J6A66SQovljcI8tECmuw+06KqPrnfg/xaf+9+rUk4I97AOhcrriRz3OdVpqfI+y1+OnnxwSx5vcsGo+tF+y+CnTrz6FWmB/sv37l36a2ymD2/0uZLap+C8MX/uH/UghQLZwznOg+1sCoqdA/3XpDjIYSBLsd4cdxM5/tpBBBtkiwnJ4DhkDEaEtSOekHYxQOqGy3t8KcrwGOjBuNYybEOSHpB0O8If+QAwiePhnskkoT4hITCKKuHe+yZWMHJ1TohSnmCEilgx6VMyiFhfExJN10WTFiOAWx0jG/FiRZOOwXBnXyMY2AsYDCSziEd1IxzpW54wjw6PIhiBDO/rxj8r5YsnU4DpAGvKQuNFjyBQJMijoD5GQjKRqXKgyH0rykpjMpEsY+TEjavKToISMIEk2ypFBMZSoTCVhOOkxLKrylbCkSylFNsuQhTGWuMylLnfJy1768pfADKYwh0nMYhrzmMjk0xDsp4YE2g8V6OOIJ+wHha8t03/N/GD3oumpaw4kmywUCDTjiJFp+q+aA/GmQMDJOv+NE1RC6OPkcuiRQ9Qwhmr+o6HanJjMfvrznwANqEAHStCCGvSgCE2oQhfK0IY69KEQjahEJ0rRilo0SgrrWEY5BrGLevSVFvtYqT5K0pI6a6Mbi5VJV5rJXZ3MpSbzFUtnGkmUXqw1r6GpTgEZUo/1tGPW2qlQ7WhTioFrqEhNKqR+yrF1KfWpW6yXF++TMnxB9apTZOrGIEQwrHo1iEWd2CdWIaKvmvWsaE2rWtfK1ra69a1wjatc50rXutr1rnjNq173yte++vWvgA2sYAdL2MIa9rCITayJwioxxkYMC7cgg2InOzFF+KOsJgsEPDpB2c56FjqOdRgSCOGEz5q2X5DwByhSltrVomwETnj+4Wln+67QLowHVggCbXfrLstitmS+TVkR6oAE3hq3XLZFmAR+QM7jOve5ltGFP4wB3epa97rYza52t8vd7nr3u+ANr19t6INClo0gd3CdDxIYBtfxjiBNKOT7/tEE8/2DvOaNW3rJxl738pNQNgyD/d4rEB/YD4HaXJ4NieG/cMyXFBYM8IDNZuADOtN/DPyvn+jHTSgUoxgDuV2IkQFigUDBAwT58EAgwU1UlPgfqKDq3airt695+MUiFogQSDyQE6f4xSxurp/UebJ48lC8SIZULT/mASlML8lQhhQrOWbAlAmBkFHO8qOW7DGvaVjLYA7zTqa8MSG4UsxoHhTGHFPmgTWfL41pjnOgyHyxIRjjxXLOs5643DFQgOK3eg60oAdN6EIb+tCITrSiF83oRveMm/+AhH0rYD5P6m0LK55jBfoICRm6+W6YLlwCJU0QSg/E0oULdaQ13UdDPZB1YhRdOP92B9SpjnSu66I/VijBKCow1hOc9X1r3U4Zrk1RcDPf3EJ37LsJr7gCQZuxNYe27cVNEcS+bwKU3bxmR/rZfZt2O61MZ0ebG8p85hilC3nudlep3BMjssmM7O56VwlvBgoIACH5BAEIAP8ALKcAMACGAaoCpxERERERERERERERERISEhISEhISEhISEhISEhISEhISEhMTExMTExQUFBQUFBUVFRUVFRYWFhYWFhYWFhYWFhYWFhYWFhYWFhYWFhYWFhYWFhYWFhcXFxcXFxcXFxgYGBgYGBgYGBkZGRkZGRoaGhsbGxwcHB0dHR8fHyEhISMjIyYmJikpKSsrKywsLC0tLS4uLi8vLzAwMDAwMDExMTIyMjIyMjMzMzQ0NDQ0NDU1NTY2Njc3Nzc3Nzg4ODk5OTk5OTs7Ozw8PD4+PkFBQUREREhISEtLS01NTU1NTU1NTU1NTU1NTU5OTk5OTk5OTk5OTk5OTk5OTk9PT09PT09PT1BQUFBQUFFRUVFRUVJSUlJSUlJSUlNTU1RUVFRUVFVVVVZWVldXV1hYWFxcXF9fX2JiYmVlZWdnZ2lpaWtra21tbW5ubnBwcHNzc3V1dXh4eHt7e319fYCAgIGBgYKCgoKCgoODg4SEhISEhIWFhYWFhYaGhoaGhoaGhoeHh4eHh4eHh4iIiIiIiIiIiIiIiIiIiIiIiImJiYmJiYmJiYmJiYmJiYqKioqKiouLi4yMjI2NjY6Ojo+Pj5GRkZOTk5aWlpeXl5mZmZubm52dnZ+fn6CgoKGhoaGhoaKioqKioqOjo6Ojo6Ojo6SkpKSkpKSkpKSkpKWlpaWlpaWlpaWlpaWlpaWlpaWlpaampqioqKmpqaqqqqurq62tra6urq+vr7GxsbOzs7W1tbe3t7q6uru7u729vb6+vr+/v8DAwMDAwMHBwcLCwsLCwsPDw8PDw8PDw8PDw8PDw8TExMTExMTExMTExMXFxcbGxsfHx8fHx8jIyMnJycrKysrKysvLy8zMzM3Nzc/Pz9HR0dTU1NbW1tjY2Nra2tvb293d3d7e3uDg4OHh4eLi4uPj4+Tk5OXl5ebm5unp6ezs7O7u7vHx8fPz8/T09PX19ff39/n5+fv7+/z8/P39/f39/f7+/v7+/v7+/v7+/v7+/v7+/v7+/v7+/v7+/jLNMgj+AP8JHEiwoMGDCBMqXMiwocOHECNKbDjN37yJGDNq3Mixo8ePIEOKHElSpA5/7UqqXMmypcuXMGPKnEmzps2bOHPq3Mmzp8+fQIMKHUq0qNGjSAseaHEgqdOnUKPy7PCig9SrWLNq/Ugj26+tYMOKHUu2rNmzaNOqXcvW48mUbePKncvxLd27ePMmnAEum96/gAMLHky4sOHDiBMrXpx4aVPGkCPrdCy5smWZK0BRusy5s+fPoEOLHk26tOm1dk+rLp16tWvQDGyMeE27tu3buHPr3kp5t2/CLXq0+E08MAo4Z4orX868ufPn0KNLN9p6uvWsQVBe344VRZkj3MP+ix9Pvrz5kr3Pq+eZfr37myCg9HhPv779+/jz63dffb9/t9r9J2BHKfTxxoAIJqjgggw26GBW7T0ooUARTvhgDvGoY+GGHHbo4YT9fZjgEf64I2KDLNzCyYkstujiizDGaFuFMt5HlVU17tdVMDn26OOPQEIWYpDqDUmkeTN849eRTDbp5JNQRrkRjVJeR2WVWGap5ZZcdunll2CGKeaYZJZp5plopqnmmmy26eabcMYp55x01mnnnXjmqeeefPbp55+ABirooIQWauihiCaq6KKMNuroo5BGKumklFZq6aWYZqrpppx26umnoIYq6qikJviMRaWmZWSqrLbq6qv+HF0Jq1Q3zipWV1/ZquuuYK7Ka1K+/noUX0sKa+yxyGIqa7JCLcssUJlt9uy01FYbaLDW7oRttjnFNhu34IY7YK3iAkVuuT4dlxy67LbrbpTbvutSdnDJi5N34Nmr777NOcuvSv7+SxIISswn8MEIJ7xfvAoDWG/DLBV4IMQUV2yxdAFfjFHGGkuEoYYdhyzyX/SOHFLJJn+U4oopt+zyy4txDPNB58480Q3dVGPzzjw7xXDPA9XijzxAF2300UgnrfTSTDft9NNQRy311FRXbfXVWGet9dZcd+3112CHLfbYZJdt9tlop6322my37fbbcMct99x012333Xjnrff+3nz37fffgAcu+OCEuzjDYwIVUshAShyAeCWL31aJGgMd0AEbAxWCjmTgzDBQBzj+o7gSlR9AeeKR/9OB6QM98kjppKPuOYWIP1LI7DY1juMM/viTueMDmeO7bb0zU3kHsAzkTzyR8X666qH3/krpxgvkzzifHzC99cP/4/jzvcfuPe69P1/T4bu/sv0/jSPeO22FTP+KLc9bjrlAr2wO2QzniA/6QOqr3wFS94rUre55sEge7cSnPtwdAHeweIX4PgS8qv2vcDEqwwSlxhSrdfA148Be1d6HQRgZIQdWIyHVVLga9VmtglSDYZcoIa0Vds8hkOtZDnDnkA/+Q4X+r4DhOLrnDBi+whxnCYY/nnfBH/pDgd47QPV+KEI5CUd53bNFC4YjEOENpBpbHIgt9FcWO/gjDgN5wQuweIuBbFFn1kPinLgoEB7KcAa4Wx1BeEgWXZiBIE3EI0HuKCY9WhBxU8vCBkvIyEaaiYVSg2TU2GA+R1rykl4yQeim5gMUYvKToMSSJKE2yqdF4nWhTKUqj2RIqrVyauSo4ipnGahSOs2WTXPGFGnJy16KSJNWe6XUIujLYhrTQrhkWjnIccxmOjNBwoxaNKF2ymda85r4SebStKm0HWLzm2ia5tPE6TRFgvOc6AwPN5O2TqRRMp3wjOdzgFm1Tsrznvj+9E07j7ZPo1UznwANqGvI2TRQsEygCE2oQhfK0IY69KEQjahEJ0rRilr0ohgFjAph0URydO8ZTeRINwbSBno6cSAcDZ1HBwLS0MmiHLbaaEc/GtKNjFQgJY1e91I6kJUKpKUDeamt7IhIQQqEoBoJKVH3mEdEejKjUI2qVKdK1apa9apYzapWt8rVrnr1q2ANq1jHStaymvWsfuvF0KpWhBKh9a1klRnQahY1XMH1rqD5WdH0CjRi4fWvXJVrzwTLs2gB9rBY5WvPFMszbyH2sTHzIQevSDV1QfayUGXszlA2NXxh9rODIezORGszghkMtKiFqGZtttqZSSy1sHX+KGlnNluYfSy2uI1La2FGIhNRbWW5Da5wh0vc4ho3LxM7rnKXy9zmOve50I2udKdL3epa97rYza52t8vd7nr3u+ANr3jHS97ymve8owmHP85RtUL446Doje/XavsyukKtDdmgg3z3axD3wjdq/q3aG8ChCP4aWGv0dVmCWwYGUPzxwBBu73sl/F+oWcAGm4zweRecsuDQUWpDgIMRNExiqAWYao/wByiqZoMy+KDE6OWwyWQ8sheQ4QYwzrGOd8zjHvv4x0AOspCHTOQiG/nISHaRDNXwvBy0ksmMgyGUSzeQLLyTdgOZwZSjSJAtOxlxW27fQLbMZYFYmVOHq7L+CtnQSiAKkYgwhIUKpazCNJt5zW3uXhARN8SBFBFxsGDmppw8EDA4wxmFNumhW9dEWCBaIJFoYiSe8WjoVXnRAiG0QAxdaTAoutKPaHSlIx26SMgiyVrpJ9ByoGpUu5paJpWaCWItzSu/+tbuajXPWH3DqBnBDGXAtbDRBTpEStObw042uHS9M15XLQe2Vra0p4VUpRV72th+FrNt5oNtzywHxMy2uMdN7nKbWzxwOLe6183udrv73fCOt7zLpo2nzrp1jwDD5y6H7zTyG9KR2Le+BeK6pzbREo+wtwnwPXDo3e8frvP3wyMR8KN2oOGZMgcTdQpFx03xem7UHhZfS/fw8FWOfEvcNxY7LkXlVZEp65vzAR6eqWz4L3SKe/j3Mvc8pogv4rR7quIciDvI3TxzhdA56xLX8wP8HJVRfOq8deNsquUgllPPuqSqnbRruzLcWg87o7xtW7KbJyAAIfkEAQUA/wAspgAyAIcBqgKnDg4ODw8PDw8PEBAQEBAQEREREREREREREREREREREREREREREREREREREREREREREREREhISEhISExMTFBQUFRUVFhYWFhYWFxcXFxcXGBgYGBgYGhoaGxsbHR0dHh4eICAgISEhIiIiJCQkJCQkJSUlJiYmJycnJycnJycnKCgoKCgoKCgoKSkpKSkpKioqKioqKysrKysrLCwsLS0tLi4uLy8vMDAwMTExMjIyMzMzMzMzNDQ0NDQ0NTU1Nzc3OTk5Pj4+QkJCRkZGSUlJS0tLTExMTExMTU1NTk5OT09PT09PUFBQUFBQUFBQUFBQUFBQUVFRUVFRUVFRUVFRUVFRUlJSUlJSU1NTU1NTVVVVVlZWV1dXWFhYWVlZWlpaW1tbXFxcXV1dXl5eX19fYmJiZGRkZ2dnaWlpa2trbW1tb29vcXFxcnJydHR0dnZ2eXl5enp6fHx8fX19fn5+f39/gICAgYGBgoKCg4ODhISEhYWFh4eHh4eHh4eHh4eHh4eHh4eHh4eHh4eHh4eHh4eHh4eHh4eHiIiIiIiIiIiIiIiIiIiIiIiIiIiIiIiIiYmJiYmJiYmJiYmJioqKioqKioqKioqKi4uLi4uLjIyMjY2Njo6Oj4+Pk5OTlpaWmZmZnJycn5+foqKio6OjpaWlpqamp6enqqqqrKysr6+vsbGxs7OztbW1t7e3ubm5urq6vLy8vb29vr6+v7+/wcHBwcHBwsLCw8PDw8PDxMTExMTExMTExMTExMTExMTExMTExMTExMTExMTExMTExcXFxcXFxcXFxcXFxcXFxcXFxcXFxcXFxcXFxsbGxsbGxsbGx8fHyMjIycnJysrKy8vLzMzMzc3Nzs7O0NDQ0dHR09PT1tbW2dnZ29vb3d3d39/f4eHh4uLi5OTk5ubm6enp6+vr7u7u8PDw8vLy8/Pz9fX19vb29/f3+Pj4+fn5+vr6+/v7+/v7/Pz8/Pz8/f39/f39/v7+/v7+/v7+/v7+/v7+/v7+/v7+/v7+Ms0yCP4A/wkcSLCgwYMIEypcyLChw4cQI0p06MOfuokYM2rcyLGjx48gQ4ocSbKkyZMoU6pcybKly5cwY8qcSbOmzZs4c+rcybOnz59AgwodSvRlBhoZiipdyrRpzhWsSDmdSrWq1atYs2rdyrWr169gw4odSxZoxYtl06pd2xEIu3Js48qdS7eu3bt48+rdy7ev37+AAwt2KAGGhMGIE9cUweiN4seQI0ueTLmy5cuYM2vezLny2c6gNW8o0iO06dOoU6tezbq169c6Cx+GTfsuBzJEauvezbu379/AgwsfTlw3EIvFk1f98KaM8ufQo0ufTr269biyr2u/yeFHiO3gw/6LH0++vPnz6NN//Ky+PUcTojq5n0+/vv37+PPr3581O///N4CjzX8EFmjggQgm2B57CtJHAzWxNCjhhBRWaOGFGGZY11FJaVjeCq2U4uGIJJZo4oko8sRgitUBsQ5cLMYo44w01mjjjdKJgoooOPbo449ABinkkEQWaeSRSCap5JJMNunkk1BGKeWUVFZp5ZVYZqnlllx26eWXYIYp5phklmnmmWimqeaabLbp5ptwxinnnHTWaeedeOap55589unnn4AGKuighBZq6KGIJqqoRCsu6uijkEYqqVocTnoVVFJZqummnAraaKdF7fAWqKSWauqpqG7kX6pBMeYYq/6wxirrrJF+SutNo5V266689mrjqr7WdFtuwRZr7LHIYnkcWsnCxJxzzUYr7bTtAUttShT04MG13Hbr7bcN2gouSPDJN+656KarLnjWrstRgAO6K++89CYmbr0QPRghvvz26++/j1UKcEQ3fIPNwAgnrPDCDDfs8MMQRyzxxBRXbPHFGGes8cYcd+zxxyCHLPLIJJds8skop6zyyiy37PLLMMcs88w012zzzTjnrPPOPPfs889ABy300EQXbfTRSCet9FKizPbPDYwQ1IPT/0SNmgRpDMSI1QJlgIRkjHw9ENWMxEGQBGsQxPU/Eogt0NoSDKG2rgKR7TZMqTiNhP4/BK1BtT98nybBLwP5Ew5BGXAdOGL+wH24QP5Qc/YphS/O9tr+3DA2GQT5k3bdf6/9Ut4DIWEKQVNQffrVXJuydgZZC3SOYqbcLUHrZo/9+T+mrF537AKZonndnA9kyhRjq3730igPQbfFhjEfFuAZUy99g2QsT7H113eVSSYZS0B19+TTFgfw0I9fL/cS3WA5I38vfkqHAv1iuVeNn/34P/4kM3nh+/PRFLT3kCFYzhMw6NziVkEDglDjfl3xhycIAoNxFE5yA4HBKiqHpRsMr24F+eA/6CcQEX7FhFR7HtsI4sHyufAyGVDfxHpgwhfa8IY4FA77KpYJ0eXwh/5AVJAHSFixGAbxiEhMImh2SDFUUE6JUIyiFBNjRIwlg3BTzKIWw8PEiYkjgFsMoxjH+JUqXqyHZEyjGoHTRYm1cY1wjKMcbzLEjLFhd3PMox73yJI3QmyAfAykICVjRovRcJCITKQiH+LHh6FxkZCMJF3qiLFCSvKSmJxjIx3mxEx68pOgDKUoR0nKUprylKhMpSpXycpWuvKVsFyYKiyXCRJyDxXbGsgoPjKFXP6jB7S05eJwSZBkQBBRsyRILRU4EGLqkpe+BKYyhdlMX/7DmJBKhQjHJ0IiJtAjVGvh2EKIOHLG8pzoTKc618nOdrrznfCMpzznSc962vOe+P7Mpz73yc9++vOfWroXQAdK0FMJzGKYKqhC5yhQh7kFRguNqEQ11S6JuWqiGM2ooxrasFxp9KNRrGjEhgXSkpq0T8vC2LNOylIcihRi3flOS2dK0zZxlGHlqqlOd1qmlz4MXjwNqtFuujB9CfWoSE2qUpcqGDcw9alQjapUp0rVqlr1qljNqla3ytWuevWrYA2rWMdK1rKa9axoTata18rWDDHCHzxqq1zn+pqDVmwMrMAjXfc6rbfG1WJ8YEco+ErYwm7Gpw4bAiOQZ9jGOjYyfsVYCYqwgsdalleIbZgNxqDCy3r2s3bJhD92ebEgvEFuoE3tqTLLsBAEYQSqjf6tbGdL29ra9ra4za1ud8vb3vpWrSnE4w1IiD4kUA19UyAhEvAYTvQFl4XEJYhxCYJc5eo1T9MVyBoshwT6uU9t8RvI/Ahiv4GEg2yWE99Atitd774vvAIZ70DK6yf6aeEZUoum/9ZLwmTs9x+bsOYp8BtfEq7hvyO0L4EFoq2B9ADBa+jvfwNMkAH/9sL/AeYxI9aDQ2L4w3ay5MQyAEgQm/jEJNkkw3qwBvSh+MVpErHEPEBJGNv4xhBR8cJ68Egc+/jHBsmAjCOWgS8C+chd0rHCHoxFJDv5yVCOMpNeJeUqW/nKWM6ylrfM5S4DJhOM7RpBNsEGxJV5IOAbCH2JlUkQDwBBmW9WszLDPMIxn7lrd/5HmrtG5z3/w81+yt/Y9te//0EuvZj74JoLtzv1Fs5xhUOwBJ7IP0R3TtGU3lPYzga8TDA3zFs7290YoejnLTZ5arNdpz+tNbiNuoZeRqWSE6bhWNvas0OGWAZ6fOteE7bWF+swrNsTEAAh+QQBBwD/ACymADMAhwGqAqcHBwcJCQkKCgoLCwsMDAwNDQ0ODg4PDw8PDw8QEBAQEBARERERERERERESEhISEhISEhITExMTExMTExMUFBQVFRUWFhYWFhYWFhYWFhYWFhYXFxcXFxcXFxcXFxcXFxcYGBgZGRkZGRkaGhobGxscHBwdHR0fHx8gICAjIyMnJycpKSkrKyssLCwuLi4vLy8wMDAyMjIzMzMzMzMzMzM0NDQ0NDQ0NDQ1NTU1NTU2NjY3Nzc4ODg5OTk7Ozs8PDw/Pz9BQUFCQkJERERGRkZISEhJSUlLS0tNTU1OTk5PT09QUFBQUFBRUVFRUVFSUlJUVFRVVVVWVlZWVlZXV1dYWFhZWVlZWVlaWlpaWlpbW1tbW1tcXFxcXFxdXV1dXV1dXV1eXl5eXl5eXl5fX19fX19fX19fX19gYGBgYGBhYWFiYmJkZGRlZWVoaGhra2tvb29zc3N4eHh8fHx/f3+Dg4OFhYWGhoaGhoaHh4eHh4eHh4eIiIiIiIiIiIiIiIiJiYmJiYmJiYmJiYmKioqKioqKioqKioqKioqKioqKioqLi4uLi4uLi4uLi4uLi4uLi4uLi4uLi4uLi4uLi4uMjIyMjIyMjIyNjY2Ojo6Pj4+RkZGTk5OVlZWXl5eYmJiampqbm5udnZ2enp6fn5+hoaGjo6OlpaWmpqanp6eoqKipqamrq6utra2vr6+xsbGysrKzs7O1tbW2tra4uLi5ubm6urq7u7u8vLy+vr6/v7/AwMDBwcHCwsLCwsLDw8PDw8PExMTExMTExMTFxcXFxcXFxcXFxcXFxcXGxsbGxsbGxsbHx8fHx8fIyMjJycnKysrLy8vNzc3Ozs7R0dHT09PW1tbX19fY2NjZ2dna2trb29vc3Nzd3d3e3t7h4eHk5OTn5+fs7Ozw8PDz8/P29vb4+Pj5+fn7+/v8/Pz8/Pz9/f3+/v7+/v7+/v7+/v7+/v7+/v7+/v7+/v7+/v7+/v7+/v7+/v7+/v7+/v7+/v7+/v7+/v7+/v7+/v4yzTII/gD/CRxIsKDBgwgTKlzIsKHDhxAjSnSYwx+5iRgzatzIsaPHjyBDihxJcqQJOFdKqlzJsqXLlzBjypxJs6bNmzhz6tzJs6fPn0CDCh1KtKjRo0gTPmDxIKnTp1Cj9gRxxIbUq1izat3KtavXr2DDih1LtqzZs2iJ+rCYtq3btx7XXoRLt67dhCkEybnLt6/fv4ADCx5MuLDhw4gT/1vaVLHjxzg7uOgAubJlmDzKhbvMubPnz6BDix5NurTprxXnnl4teoWsU6xjy55Nu7bt27hz6/bJeLfvv71/C7fbAtqt4ciTK1/OvLnz59Btpo5OPSsMb9Sqa9/Ovbv37+DD/tOVTFm8eZ3kz6u/qaKUpvXw48ufT7++/ejT7+uPy3a/f40i7JDCfwQWaOCBCCaoYFHBLejgPyfEocaDFFZo4YUYZrhffhoSyGGH/o1gxhEglmjiiSimqCJnDa4oH1VWuSjjjDTWaOONRsmF43k67iheCoTs5eOQRBZp5JFIJqnkkkw26eSTUEYp5ZRUVmnllVhmqeWWXHbp5ZdghinmmGSWaeaZaKap5ppstunmm3DGKeecdNZp55145qnnnnz26eefgAYq6KCEFmrooYgmquiijDbq6KOQRirppJRWaumlfX2IqVcnpbTpp6CGKupDLY6KFYympqrqqpVqyqpT/kf09ypUeQk566245rpnqboSlV6vR2W2GbDEFmssma4e25NrsCnr7LPQQslrtDhNS61NLhh37bbcdutist7GdF124ZZr7rkJWovuSizswMK6MrX3Hrz01msveODeG1KP+qoUIAr9BizwwLupS7BGEa5x8MIMNwxavg5HBHHED4lIIsUYZ6wxXwZvrFAJbTjh8cgkl2zyySinrPLKLLfs8sswxyzzzDTXbPPNOOes88489+zzz0AHLfTQRBdt9NFIJ6300kw37fTTUEct9dRUV2311VhnrfXWXHft9ddghy322GSLCYcfBHVQ3j9IoF3bAzAQ5EfcAj3QmGV+uF03/hIDdTL3QGrLLXLdd//jB98CMfXGQJBAQtADgxuu90ylDGSMPwN9E7hAfmD+NuL/+OPP4oRzJvrjpIfuD+gdxCiQP46XPpA/qAzElDCzf/N47KrbVLlAkNTO+eb/vCE8bQ+AjgoqoNvN2fKPg+4KKnT/0zpBqETu/ECopM6U3qrwvhgc3B9f1PQ2T5b+2qs1bvPpZce/HTS41wy//GURP7P++GsIju41Y4rNBBibN6RuZvcTEyo8J7t/QIKB/4DB2pCQQLIk8AGpEx3rXAfBJVXwIa6AIAveJRBPQJAILhiIGT4olgSyYA6z84cZBuKCIkwJGtDASPXqRhAbuG4x/gSBwQ7LIsTH9XCH7OufEpdIlg4UTmZOtBkrVMHEKlqRSSx8WRavyMUuevE5UawZJCb3xTKa0URbbFkaWWaDIZ7xjXCkUBhptoYZxvGOeEzQGle2R5XFgXx5DKQg9TPH/T1xkIhMpCLp0seUjXGRkIzkdkqQxJgVUmbfAKAkN8lJ5TQSZTjspChHuZtLWvKQMJsiKVfJStl88mSvbKUsZ0nLiZgSZo+spS53qZhYlsyXJGsjL4dJzGIa85jITKYyl8nMZjrzmdCMpjSnSc0zQZB4D+xhCQbiBH+QayPGIJ4qrrm2bA7EBtsUSDc7iClyMg6C6OSmNzsSzrWNM23l/oRnOv+xzlUVDgZEMOJAitiR7QlkiP8M6ED+6cZqOvShEI2oRCdK0Ypa9KIYzahGN8rRjnr0oyANqUhHStKSmvSk9ZqYyjqF0pY+s2MqQ5VLZ6pMfsnMpjGrFU13ekyYpuxXMxMWT4c6TJWmjFlETWotfYoypp4sW8dRqlRZaVSUjWuqWB0lUKGoPprJK6tg3WRVT4ZTmP0rrGhdpFNNlrC0unWQYzVZXEtmCl3Q4q14zate98rXvvr1r4ANrGAHS9jCGvawiE2sYhfL2MY69rGQjaxkJ0vZylr2spjNrGY368XO/W5mO4ADEDhL2pittWQpOIIKSsvalj3QFGL0/gdsaVYEQTyhtbhN2WlJttWY2aEcositcEvm2ZqJQRaAHK5yM7bbkTXXY2+ABgyXS92IFZdmcvCG+KrL3YH1Fmbf7a54x0ve8pr3vOhNr3rXy972uve9nGTfG5K7mLsh4YAGtQF9HyDf1MGgcAbkpnz3a1/83k2/j+vvotR2t28wUBgGXeDj7mbOg07wfm8o3P0gwT4HDwTCd5PwQikMQQkOhILsLFQJKDkQVSiDcdg0Bj4HEocXn3OfTjCGjNXJPh3TeJ//cDGMy7ljgRCvxtrkpo/hy+Qmx7BmNlCF+ZxMZVbd0mUMrlkHjFG/KntZVcD0mA0y+eUym7krK67k18s6kMszu/lSYd4YD+L85jrbWSZXblkH4HDAO/t5UXTOmA0CjTFX1OKuf060ohfN6EY7+tGQjrSkJ03pSi/TfYCLHCYg4boVEwQSkdMfqAdCyeRiAhNpixymjaxpTpMayKM2Mvti/Q8WAxqCGIzhBgniD70ZNHTHc2KX/aHJxejtghlcHeB+2OsR8zrYqCxU3h5XvTFW73oDOZyzs506J6YOEvsF3bQXWu2/GfmH2m6g4UjXuoZa+t2WLgKhKWaDNsP73mjKM8vSjO9+W3reEQtHNaqBoIAAACH5BAEHAP8ALKgAMACFAa0CpwUFBQcHBwsLCw4ODhAQEBERERERERERERERERISEhISEhISEhISEhISEhISEhMTExQUFBUVFRUVFRUVFRYWFhYWFhYWFhcXFxcXFxcXFxcXFxcXFxgYGBkZGRoaGhsbGx4eHiEhISQkJCYmJigoKCgoKCkpKSkpKSoqKioqKisrKywsLCwsLC4uLi8vLzAwMDAwMDExMTExMTExMTIyMjIyMjMzMzMzMzQ0NDQ0NDU1NTU1NTY2Njc3Nzk5OTo6Ojw8PD09PT4+Pj8/P0BAQEFBQUNDQ0REREVFRUZGRkhISElJSUpKSktLS0tLS0xMTExMTE1NTU1NTU5OTk5OTk9PT1BQUFFRUVNTU1VVVVdXV1paWl1dXWFhYWNjY2RkZGVlZWZmZmdnZ2hoaGlpaWlpaWpqampqampqampqampqamtra2tra2tra2tra2tra2xsbGxsbG1tbW5ubm5ubm9vb3BwcHNzc3V1dXl5eX19fYCAgIKCgoSEhIaGhoeHh4iIiIiIiIiIiImJiYmJiYqKioqKioqKiouLi4uLi4uLi4uLi4uLi4yMjIyMjIyMjI2NjY6Ojo+Pj5CQkJGRkZKSkpSUlJaWlpiYmJqampycnJ+fn6GhoaOjo6Wlpaampqampqampqenp6enp6enp6enp6enp6enp6ioqKioqKioqKioqKioqKioqKioqKmpqampqaqqqqurq6ysrK2tra+vr7GxsbOzs7a2tri4uLq6ury8vL29vb+/v8DAwMLCwsLCwsPDw8PDw8TExMTExMXFxcXFxcbGxsbGxsjIyMnJycvLy8zMzM3Nzc/Pz9DQ0NHR0dLS0tPT09TU1NXV1dbW1tfX19jY2NnZ2dra2tra2tvb29zc3N3d3d7e3t/f3+Dg4OHh4eLi4uPj4+Pj4+Tk5OXl5eXl5ebm5ufn5+jo6Orq6uzs7O7u7vDw8PLy8vT09Pb29vj4+Pr6+vv7+/z8/P39/f39/f7+/v7+/v7+/v7+/v7+/v7+/v7+/jLNMgj+AP8JHEiwoMGDCBMqXMiwocOHECNKZJgsHryJGDNq3Mixo8ePIEOKHEmypMmTKFOqXMmypcuXMGPKnEmzps2bOHPq3Mmzp8+GO/xd/Em0qNGjSCGyUKYrqdOnUKNKnUq1qtWrWLNq3cq1q9evYI8ySMEgrNmzaFmOLZu2rdu3G0/gAgW3rt27ePPq3cu3r9+/gAMLzhl06ODDiHvegJcusePHkCNLnky5suXLmDNr3sxZZoYWGTqLHi0whKI8pFOrXs26tevXsGPLhlp4tm2/tW/rztsii5LdwIMLH068uPHjyH2uTc786ocuUJpLn069uvXr2LP/za29+03u3sP+ywSBp4v48+jTq1/Pvn325e7jg4TAA4T8+/jz69/Pv7///3j9IBSABBY0wiaQFKjgggw26OCD/sEH4X4STpgfEuJYY+GGHHbo4YcgbgZeiOot1RSJKKao4oostghVhS5qB2OM2MlFF4045qjjjjz2WNCIPjK3WGNBFmnkkUgmqeSSTDbp5JNQRinllFRWaeWVWGap5ZZcdunll2CGKeaYZJZp5plopqnmmmy26eabcMYp55x01mnnnXjmqeeefPbp55+ABirooIQWauihiCaq6KKMNuroo5BGKulTxMTzzqSYZqrpphIByalUJn4q6qikRjpjqUmdiupRNq7q6qv+sObpaaw+DUnrrbjmqiutn4W2q0+mofbrsMQWy+SsxsokoGHJ2vSBEz00K+201KaoarUsPRcdttx26y2AyH5rUrjikgTCHeaVq+667MpIVrspQdCDffDWa++9+N63bL4jjaCJI/wGLPDAmV1LcES9HtxRDuFMo/DDEEesF7kSJ8RCMidWrPHGHGdlcMcFfQzyyCSXbPLJKKes8sost+zyyzDHLPPMNNds880456zzzjz37PPPQAct9NBEF2300UgnrfTSTDft9NNQRy311FRXbfXVWGet9dZcd+3112CHLbbLMCiiyEAwsCVQIIHIxgADwv7DNkEMSFFZIFcM9Db+QYG0QbffAplNd95rt603DHwjLlAGvgpE5EtS+OPPQG2o/Y/kbjOwzED+hEO34Y5Z7s/ZAr3tuUD+EDNQBgzcePnkepP+uuL/1M25P4D/wzhBsEO+yioDSWE5KDfWQvtqb1syECig1557YsMTXjsDoIOSO+u5/043HcuDQrvtAq0Cit2LN/5PO0W9O3ZYmMPc/voTdkH+y++7XD9pc8O8N/z8D5fH8y1TX/+4Eo7T0a93A2zQ+xRhvveBYn//IAYCv5IL3snOdJxT3eJa9yXJ9e4SLeBd72qRghQMZBkT9IodeHeJgZSwHJzbnEBakIJaNOl+C0HC8XaHNrpZ7nj+YJEFQY4HwX/s0HJKwuHKrjC/BDrxiTj6gPla5oMcQPGKWMzicZSoMkjITotgDOODWBczMorxjGhMo2a4mDLxqfGNcJQPDcuIRJYZQ4NxzKMew8NGlJFDHHsMpCAHGRYzvsyLhEykIonTx5M1cpGQjKQkPVPHldEBgJPMpCbXmMKVPbJkTNykKEdpGSnGrIqkTKUqVxmRT5IMkayMpSzzYkiX1XKWuMxlJl05Mjfq8pfADKYwh0nMYhrzmMhMpjKXycxmOvOZS4LEB0Q4kFXw8B/G6ORELNE4H7xPmtQM3zWzSSpw3q6a49SmRLg5EG/2zpyo6501G0fOUV3TiD7+HOJH9ECQHOzQfET8ITQHStCCGvSgCE2oQhfK0IY69KEQjahEJ0rRilr0ohjNqEavogt4uGOjIJUlxUgWqpCaNJUiI1lKR9aqk7p0kyMdma1eStOaxiphLwuWTXeayJiCzKcd681veErUPa4UZNoqqlLjCFSONXVj5EnXUqd6xqN2jD70oqpWtxqofb3MXwDjqlifaFWOlXVjSVjHN8bK1gHWwh/zaKtc50rXutr1rnjNq173yte++vWvgA2sYAdL2MIa9rCITaxiF8vYxjr2sZCNrGQn2xptxGOtlM1sxQLhD07ADA3K4KdmR/uws2rMtBXrAi7qQNrWEoyznn3+GR/gkQnX2va2u8Gpy5SgCCzg9rfwgi3MhPsyH2QBCMBNrrpQKzEZdIEHyo2ut4jrMuq2DAh4MIJ0t1stO+xhhdwNr3jHS97ymve86E2vetfL3vbKFQbPSxtB2pA7KZiQctwTiPAIIoXnQRAGcatd4+A7RMvRN3j3FUgb8vuP/QYPk4Vqw/sc/I8cvC8QCX7d8iAowYGIA4KcpVvjJNw7Clu4dxgO5z8eqLYOK+oKxjDGQHLQzRgPhA4hHIgxkDEQBjZuFTIWSCyuSQcZLm6aAoFxkCtc4yXjmCA77vE1gXyoD5jyZRlQRPPcy+VI8bJj7oSZD1DZ5TJD6pYry0DmKM3MZkZ9mWMnhlkOLtnmOicKzSpjXCXtzOc+ryTML8uBlv1M6D/hOWVWnuLKPvDHQjt6T29+tKQnTelKW/rSmM60pjfN6U572mSKyMLqzKcIBuuOwYpo4epEHbgvZsCKPYa17nIcOFbrjtSmzgCqVb04WwtuUaPTGwMMmLrVcTCedJOd5L43P8nlbiwWFDax8cg619WPAcr2BxANhTdh565vxp5fIJSnN+mx7Xu00/L8oD2QbpeOAd++HvjkRu7SmTsQiDs0yvQMswz48tMAz1KkNRbngBucz4nu96APznApDVw8AQEAIfkEAQcA/wAspwAwAIYBqgKnDg4ODw8PEBAQEBAQEBAQEREREREREREREREREREREREREREREREREREREhISEhISEhISEhISEhISEhISEhISExMTExMTExMTFBQUFRUVFRUVFhYWFhYWFhYWFhYWFhYWFhYWFhYWFhYWFxcXFxcXFxcXFxcXFxcXFxcXFxcXFxcXGBgYGhoaGxsbICAgJCQkKSkpLCwsLS0tLy8vMTExMjIyMzMzNDQ0NTU1NjY2Nzc3ODg4Ojo6PDw8Pj4+QkJCRERERkZGSEhISkpKS0tLTExMTExMTU1NTU1NTU1NTk5OTk5OTk5OT09PT09PUFBQUFBQUFBQUFBQUVFRUVFRUVFRU1NTVFRUVVVVVlZWV1dXWFhYWlpaW1tbXFxcXV1dXl5eX19fYGBgYWFhYmJiZGRkZWVlZmZmZ2dnaGhoaWlpampqampqampqampqampqampqa2tra2tra2trbGxsbW1tbm5ucHBwcXFxdXV1eXl5fHx8f39/gYGBg4ODhISEhYWFhoaGhoaGh4eHh4eHiIiIiIiIiIiIiIiIiYmJiYmJiYmJiYmJioqKi4uLi4uLjY2Njo6Oj4+PkJCQkZGRk5OTlJSUlpaWlpaWl5eXl5eXmJiYmJiYmZmZmZmZmZmZmpqampqam5ubnJycnZ2dnp6en5+foKCgoKCgo6OjpqamqamprKysr6+vsrKytbW1uLi4urq6vLy8vb29vr6+v7+/wMDAwcHBwsLCw8PDxMTExMTExMTExMTExMTExMTExMTExMTExMTExMTExMTExMTExMTExMTExMTExcXFxcXFxcXFxcXFxsbGx8fHx8fHyMjIycnJysrKysrKy8vLzMzMzc3Nzs7Ozs7Oz8/P0NDQ09PT1dXV2NjY2tra3Nzc3t7e4ODg4eHh4uLi5OTk5ubm6enp7Ozs7+/v8fHx8/Pz9vb2+Pj4+vr6+/v7/Pz8/f39/v7+/v7+/v7+/v7+/v7+/v7+/v7+/v7+/v7+/v7+/v7+/v7+/v7+/v7+Ms0yCP4A/wkcSLCgwYMIEypcyLChw4cQI0psaOuWrYkYM2rcyLGjx48gQ4ocSVKkCz1lSqpcybKly5cwY8qcSbOmzZs4c+rcybOnz59AgwodSrSo0aNIC+Lwpy6p06dQo/LkwVSq1atYs350AYaI1q9gw4odS7as2bNo06pdy7at27c+I8CIALeu3bsJVyDJgbev37+AAwseTLiw4cOIEx9e2lSx48c6GUOeTFmmC0J5KmvezLmz58+gQ4seTVqtXLqlU48+rbo1aBvszrmeTbu27du4c+vezfvlkKq9g+OF4QqV8OPIkytfzry58+c8WUOfjvWEjBPUs0ulca2W9u/gw/6LH0++vHmyks+rv0njW7b18OPLn0+/vv3v0u/r95h/v/+ML6AyyX8EFmjggQgmqGBS6S3ooEANPrigBTWwIOGFGGao4YYc2geDDjB0aOBJKYlo4okopqjiip1FyKJ8VDX24nwuhOHVjDjmqOOOPPYoVH8+jreCEXwFaeSRSCap5JIQAsdkdi4++Zwq2UAj5ZVYZqnlllx26eWXYIYp5phklmnmmWimqeaabLbp5ptwxinnnHTWaeedeOap55589unnn4AGKuighBZq6KGIJqrooow26uijkEYq6aSUVmrppZhmqummnHbq6aeghuqXLLTIIqpZJJ6q6qqstqpRlP6uWhVjrF9xdSOtuOaq66dA7uqUXkX6KuywxC4Ka7FDHYtsUJdltuyz0EZLZ6/SxjVXtUPBJhu23HbrLZezftsTccaJa+656OpIbboyWYcdu+xZ4x289NZrr4LK3qsSDeC8p++/AAes3roCi0RwwSAFOCDCDDfssHD5PvyqkxKDRKGFFWes8caeucuxR6l+LPLIJAcWcckKhYuyRDUasfLLMMcsFiqrlCvzzTjnrPPOPPfs889ABy300EQXbfTRSCet9NJMN+3001BHLfXUVFdt9dVYZ6311lx37fXXYIct9thkl2322WinrfbabLft9ttwxy333HTXbbdVchxCUP4EqP2DhN4DXWsbDDQQ9MgNA0WgDWSyyDHQI4/sjcRAhxxSuEB8E2T5QCe8K9Ahk2MegeOfA4456TYF489A4mT++eqB900bDKH/448/diTODeOqDHT73qjfXnsElwvkD+qdE+RP76IH47s4ezNv0yHSH+L6P3JI/4/grVUuEO0DqbIKFbozjvoqq0gevirFE0+QKrUnHz7qfJuuiun/jN7h73f3D900zisa//xnlusNzYAE1FA5xmG06xiNe6qRA+qGNkAKwi5LSKjd0Piwh4hYAn8kGwf0IHLB/HnuECWkQd+oMEA5hMgsN5BeBSOQO+P5Y3h1goEMBmKJEgbhhf7/IMMA9aCDs1iiFb4rIQw6aMMwBC4I0yIIDYqXP4LcgIqyI8ut/nEDxCVOilhMIIEqKLRlBFCMaEzjk1rguaGdIItBW4X21EjHOvKIjEEjBwPtyMc++jE5bzQaJCL3x0IaUkN4BFoif3bFQzrykQoKZNGooEFIWvKS9VmkzzTZMztMEJOgDKV52Gi0HXhRlKhMpSrPwkmeDXKVsIzlciRJNFoOTYSyzKUud9PKnZlxl8AMpmtIWTRbCk2OwkymMkHTS53pcZnQjKY0NWLMoL1ymtjMZmCamTNuavOb4AynOMdJznKa85zoTKc618nOdrqzaydoweNKeAPPYcGbDP5h4j9WUcJ4ztOK9hwgHuTZKn8K5BH0DGgJN6JPfhLEoP9AKEAHcs8LDtRVspvi3qxIRZCcEnNg3OhAGsm5d5r0pChNqUpXytKWuvSlMI2pTGdK05ra9KY4zalOd8rTnqKoFa9AItFm0Ic7+PSo6TxZzlQmNFsh9anlPNjOhhQsqFpVm0rFWVZv9oJDOOuqYJ2mVHU21pxpK6xojeZvZCQ04qQirXBNZllx5jGi0UBecc3rLrcqM375S6+AXeVcbzZYmSkssIhNJV9jtliYXSyxkAXlh4AotBdYwg+RzaxmN8vZznr2s6ANrWhHS9rSmva0qE2talfL2ta69rWwjf6tbGdL29ra9ra4za1ud8vbVdKiFrQomg/0AMXeGjdoKLSZ0BD6VqLVAAw7OK50fVbYmL3ACJSdrnZlltyidZdoQThEFLZLXplVF2bnfZkf2CGK8rp3ZT1MH9G+4Io6vPe+I0vvyuo6tDtYow/4DfDGvju0PICjEQJOsIIXzOAGO/jBEI6whCdM4Qpb+MIYLokE97bCGopuIDSYoAE3LJB6EoTEfpMdivPXYQ6DWMQqRp2JLSWOCy7jeg5NXN9QKMUVDtAObRyg9QhS44HcuG85/vDrejwQFl4QyJdaxTIGAgn5/QMSzXio5+ww5ZHacxld/gcWCCoQMA8EygORMv6VrYxlLZ85zFz8cpjHnGGkVPNnnYNjnffMZ7TgM2Y3QGafB52rO/ssz0WTwTSmQehGx+rPMLsBLh1N6UpDBdG1FLSlN90pSL/sBp7mtKhHzRJiutGTpE61qlfN6la7+tWwjrWsZ03rWtv61hmThYchAYmHYuFxh+NcG4MtkBaQOaK/FkjnPAy5h+6615xLdkSJ/Q8rR/SUxjactCklCxmWkIZJHB4Vjyds5cmXxWf0xwgx5+29eVh4iRs38oJ8bm7XrtmJO2Xl2kdF0JWbch7mG+oOIeJ7ExJz+t4c5vodvzYewsO4Jo2he3YCkkb84rMG9UKBdgNUY/zjbpo4zwUwfaCAAAAh+QQBBwD/ACymADEAhwGrAqcQEBARERERERERERERERERERESEhISEhISEhISEhISEhISEhISEhITExMTExMUFBQUFBQVFRUWFhYWFhYWFhYWFhYWFhYXFxcXFxcYGBgYGBgZGRkbGxscHBweHh4fHx8gICAhISEiIiIjIyMkJCQkJCQlJSUnJycoKCgpKSkqKiorKyssLCwtLS0tLS0uLi4uLi4vLy8wMDAwMDAxMTExMTEyMjIzMzMzMzM0NDQ1NTU2NjY2NjY3Nzc3Nzc4ODg4ODg4ODg4ODg5OTk5OTk5OTk6Ojo6Ojo6Ojo7Ozs7Ozs8PDw9PT0+Pj5AQEBBQUFDQ0NFRUVHR0dISEhLS0tNTU1QUFBTU1NVVVVYWFhaWlpeXl5fX19hYWFiYmJkZGRlZWVnZ2doaGhoaGhpaWlpaWlqampqampqampqampqampra2tra2tra2tsbGxsbGxsbGxsbGxubm5vb29xcXFycnJ0dHR2dnZ4eHh7e3t+fn6AgICBgYGDg4OEhISFhYWGhoaHh4eIiIiIiIiIiIiJiYmKioqKioqLi4uLi4uLi4uMjIyMjIyNjY2NjY2Ojo6Pj4+QkJCSkpKUlJSWlpaXl5eYmJiZmZmampqbm5ucnJydnZ2fn5+goKChoaGioqKjo6Ojo6OkpKSlpaWlpaWlpaWmpqampqanp6enp6eoqKipqamqqqqrq6usrKytra2urq6vr6+wr7CwsLCxsbGysrKzsrO0s7S1tbW1tbW2tra4t7i5uLm6ubq7uru8vLy+vb6/v7/BwcHCwsLDw8PExMTFxcXHx8fJyMnLysvNzc3Pz8/S0tLU1NTV1dXV1dXV1dXW1tbW1tbW1tbW1tbX19fX19fX19fX19fY2NjY2NjZ2dnb29vd3d3f39/h4eHi4uLj4+Pl5eXm5ubn5+fp6enq6urr6+vt7e3v7+/x8fHz8/P09PT19fX29vb39/f4+Pj5+fn6+vr7+/v7+/v8/Pz9/f39/f3+/v7+/v7+/v7+/v7+/v7+/v7+/v4yzTII/gD/CRxIsKDBgwgTKlzIsKHDhxAjSnSYQEWCiRgzatzIsaPHjyBDihxJcmTFiyVTqlzJsqXLlzBjMqwR7pnMmzhz6tzJs6fPn0CDCh1KtKjRo0iTKl3KtKnTp1B5HvG3LqrVq1izgmRxbJfWr2DDih1LtqzZs2jTql3Ltq3bt0VPwp1Lt65CDC4w2N3Ldy4MXqz6Ch5MuLDhw4gTK17MuLHjqDqoPp5MWSYOdeIqa97MubPnz6BDix5NurTp02/lol7teYSjPKxjy55Nu7bt27hz6yYZueru33V7Ax8OF4OUGcSTK1/OvLnz59Cje8SrV7r1pxy+VLnOvbv37+DD/osf/1U4+fM5p/pGzx7mCDtd2sufT7++/fv4b6vOzz8jhCAh9CfggAQWaOCBCCaooFPmLZigCZoc4uCEFFZo4YUYyrdfhvxtyCF+NNn04YgklmjiiSgypl6K9HHlFYswxijjjDTWKJSHNnpHXY7izVBMLjwGKeSQRBaZIyz+yGPkkkw26eSTUEYp5ZRUVmnllVhmqeWWXHbp5ZdghinmmGSWaeaZaKap5ppstunmm3DGKeecdNZp55145qnnnnz26eefgAYq6KCEFmrooYgmquiijDbq6KOQRirppJRWaumlC+GIKViabqpViJ6GKuqopEK0YqlauYjqqqy2ammn/q4qBWusSDnxyyy05qrrrn42yGtSl2X267DEFmusrrMey5NrsCnr7LPQRulrtD1NS+1OxiF37bbcdovijt7qlN124ZZr7rkHWosuS+quq5IOecjh7rz01htesvZ69F+A+fbr778A49duwBtBKCHBCCessGf4LkyRRQ53BGrEFFds8V6nXiyRqhp37PHHIIcs8sgkl2zyySinrPLKLLfs8sswxyzzzDTXbPPNOOes88489+zzz0AHLfTQRBdt9NFIJ6300kw37fTTUEct9dRUV2311VhnrfXWXHft9dcZLjPIQDOgJFAiYwtUhdmrDULuPwkkwMZAaG8WN0FuD1QR/t7y6j23QIOkLVACbw8yCUEJ5IC3tnCzLZM//gzEBtuQD3SK46f5U4zeCWwukD/fDLTMZAkw/o8/glcU+ufGcH7KQKAjLjjkjCdgBez+/A236TJx87rabKvy+z+Ty1b54AkIrorgoz9WOkGnvF2R4Kf03bjupwgON/ax1H67QKdErzfvYDvkxfcuH59+5KuFD/Pd5ccPXR66t5yX/GiBAw7M6uPvP3H9Y1kAS1MMzzkJA5h7yCDY9g32/UMV8PuHMRz4jQia5XmwExwGMLC607UOeVCSQ/0iMgkVEEQcDpyFCkwokGQ4UBwrTIsKokAQfxxOIC5wgbBOl4yBxNBM/hY0HQIJojjOqcVxQqyOQExnwf85ETQDVFkUU2aFtz3xiljk0RBflgPyZfGLYDzRFFE2xpOJMIxoTCOJOqDElrFRjXCMoxwz58CWCW+OeMyjgLboMj62zBgG1KMgB8meMpoMHB0kpCIX6Z03vsyPLLsjIydJSegYsmSXrKQmN8lJoUByZWfspChHabw6CtCUK6siKVfJStJ8UmVdbKUsZ7mZTI7MliILJS13ycvEONJlv+ylMIdJzGIa85jITKYyl8nMZjrzmdCMpjSnSc1qGoQZbQRHCjc4kGM4EBwU8EgO1JeIbG5Tid4cCDgw0IFRYZMg2hzILLgpkHQKBJzi/iSnOeVJz3/Y8x/rbKeoOsE200FsIEUEYUdmwMSCEuSgAklo46xJ0Ypa9KIYzahGN8rRjnr0oyANqUhHStKSmvSkKE2pSlfKUo6MgAgjeFnDRDaxltr0mBljGcduytNhzjRk4GrZX1bR06L2cmAmC5ZRl8rUZ/0UZMxqqlRHidSSVZVk2ZqqVjcZVJaNa6tgneRVR5bTlb0nPmFN6yCf+rF9qfWtcJXUWEUGoUTE9a5qZKvH9IrXvvr1r4ANrGAHS9jCGvawiE2sYhfL2MY69rGQjaxkJ0vZylr2spjNrGY3y9nOevazoBUUXzU22ovhIRyPCK1qR5YIf3ziZWM4/kazVkvbjpXWYl1d2Rd4YYfa+vZig/BHJ17GB3VU4rfITa5zbluxKTgCC8qNLsGCO1yXUfdlIpDCCaTLXX/lVmU28EIQukveel3XZa19rcuaYAcalve98I2vfOdL3/ra9774za9+98tfnunyHzloIxustzaCsEF3VmCbFawHNyXOoH4RzEH9AmxgArPtwANJMEEWjLg2HioH2nSgFRysvgUSpIEDgaDZJjiQCioxuAQp20DkoL4Rk63EDHSgigfCYoG4mFFBMMYH/xEEgQLYGMeYcRtVMWRH9JMVSRaIKtg54yEDWIlYEPJAioxQJCuZIEweiJOVCOUUU7m/aLbR/gYTiDIM1C3NcC4VLkE2TlSmLAexjLOeQ+UCFrYMA6rcs6AvNeePBaHQHgsCHRg86EZD6pVtzrOjJ01pn9SZi2+utKYRBemTrfmRiNy0qEdN6lKb+tSoTrWqV83qVrv61Qnq5z8Sgb4OGHnWdCAIBqyXCLsOBNBidoSux0u3hMqa1gOxNUESketf89rXAgG2QBzhCGgnCoOf0yAHYTfkuA0vdnqbnT+8hzvdYft02u6gP7qdgG8nMnm4CySizp23aGNAd4OwXtwKB+G39bp2CQ2c9ExX739sEN/6JtxABtFvujEa1hvttMk+7TIXzCIWEM+4mRDdMRAnUuMg3zTFBv+c6QEFBAAh+QQBBwD/ACypADMAhAGqAqcSEhISEhISEhISEhISEhISEhISEhISEhITExMTExMUFBQVFRUWFhYWFhYWFhYXFxcXFxcXFxcXFxcYGBgZGRkaGhobGxscHBweHh4gICAhISEiIiIjIyMlJSUmJiYnJycoKCgoKCgpKSkpKSkpKSkqKioqKioqKioqKiorKysrKysrKyssLCwsLCwsLCwtLS0tLS0tLS0uLi4uLi4vLy8vLy8vLy8vLy8vLy8wMDAwMDAxMTExMTEyMjIyMjIzMzMzMzMzMzMzMzMzMzMzMzMzMzMzMzM0NDQ1NTU1NTU3Nzc6Ojo8PDxAQEBERERISEhLS0tMTExNTU1PT09RUVFRUVFSUlJSUlJTU1NUVFRWVlZYWFhaWlpdXV1gYGBkZGRlZWVmZmZnZ2doaGhpaWlqampsbGxtbW1tbW1ubm5ubm5vb29vb29wcHBwcHBxcXFycnJzc3N0dHR1dXV2dnZ3d3d4eHh5eXl6enp7e3t8fHx+fn5/f3+BgYGCgoKDg4OEhISGhoaGhoaHh4eJiYmKioqLi4uMjIyNjY2Ojo6Ojo6QkJCRkZGSkpKUlJSVlZWWlpaXl5eZmZmampqbm5udnZ2enp6goKChoaGioqKioqKioqKioqKioqKioqKioqKioqKjo6Ojo6Ojo6Ojo6OkpKSkpKSkpKSkpKSkpKSlpaWmpqanp6enp6eoqKipqampqamqqqqrq6urq6usrKytra2urq6wsLCxsbGzs7O1tbW2tra3t7e5ubm6urq8vLy+vr6/v7/BwcHDw8PExMTFxcXFxcXGxsbGxsbHx8fIyMjIyMjKysrMzMzOzs7Pz8/R0dHT09PW1tbY2Njb29vd3d3f39/g4ODi4uLk5OTo6Ojr6+vt7e3u7u7v7+/w8PDx8fHx8fHy8vLy8vLy8vLy8vLy8vLz8/Pz8/P19fX29vb39/f4+Pj4+Pj5+fn6+vr7+/v7+/v8/Pz9/f3+/v7+/v7+/v7+/v7+/v7+/v7+/v7+/v7+/v7+/v7+/v4yzTII/gD/CRxIsKDBgwgTKlzIsKHDhxAjSlxI4ASBiRgzatzIsaPHjyBDihxJEmQGPGJKqlzJsqXLlzBjypxJs6bNmzhz6tzJs6fPn0CDCh1KtKjRo0WT+EOHtKnTp1B/KmUatarVq1hDVuDiJKvXr2DDih1LtqzZs2jTql3Ltq1bpBFgRHhLt67dhRSoLLnLt6/fv4ADCx5MuLDhw4gTE5yquLHjnEuWPp5MGaYHQXMqa97MubPnz6BDix5NWmzFi6VThz6turXnI+64uZ5Nu7bt27hz697NeyTj3sDthrh1Kbjx48iTK1/OvLlzmqyfS7cafbp1pzCeCbvOvbv37+DD/osfjzUyVfLoadqg1iy9+/fw48ufT5959fr4N8adm79/RhWqPOLfgAQWaOCBCCYY1G8KNshggwkmoMMEEFZo4YUYZqjhfPdtmF8Gd4Th4YgklmjiiSh29mCK763IYnpbdfXijDTWaOONOAa1X47jVeDFEzwGKeSQRBZp5JFIJqnkkkw26eSTUEYp5ZRUVmnllVhmqeWWXHbp5ZdghinmmGSWaeaZaKap5ppstunmm3DGKeecdNZp55145qnnnnz26eefgAYq6KCEFmrooYgmquiijDbq6KOQRirppJRW2leHln51UkqZdurpp6A25GKoUY1K6lMUcHXqqqy22ugJ/kqc4GpUee0166245oqnqboCZV6vR12WGbDEFmssmJgey1Oyyuq0hDvdNCvttNQmyWu1Mw1XHLbcduvticx++1K44raU3Xblpqvuuv1B4U867Ma0Xnvx1mvvvd2Ri69HO+6rEoAC+ivwwATfdm3BGB2MsEQTDHHBwhBHLPFk+k7cEIgiWqzxxhzXpXDHB30MckExjmzyySinrPLKLLfs8sswxyzzzDTXbPPNOOes88489+zzz0AHLfTQRBdt9NFIJ6300kw37fTTUEct9dRUV2311VhnrfXWXHft9ddghy322GSXbbZzEaD2jxSGEESA2rQRQojbOhBESN2aEWDG/kByuy3FQIYYgvc/BPAn0N0DvW333wJFEMHeh7edODY1YZM23/4QpAPcs/njz+AEMP6P55BT9vYqA3nudumei07AEan7U7riqaPeeATEpE65QG/LRpMhlwtkhiuacz7bKqCLvsoqolOs90DL+z2QK66ADrtAy7sO9yqlOz439pITTsDuQjGTu82qn63WEdfXTLv6HmZDPs0W3Vy/a2aUTnP6NfMPv4aO+F7/Mve/s0iheTN735fepwb+HcFwUuCfGYxnltPFbnWxQ2CTgveQE8hKIHrg3xNgMBAv8A8PH1SLB29xwYGcAA+x84KUYJBCh8DtCIP7h+H+oYMcUrCC/nDrodsIwr4pYWN+BUyiEpfkv5khwxhLjKIUjcRBmlVxZq6w3RS3yMUaNVFmR+yiGMdIxt5cUWaGEGAZ18hGBX0xZm+EGQ7bSMc6EuiMMdNCFezIxz7KJ44vA6TL1KA/PxrykN7BoxxziMhGOvKRXxFky9IIyUpaMjiKfBkNbxbGS3ryk7WRJMueCMpSmpI0mXRZKluWxVO68pWbEeXKOgnLWtrylg5ZJcsoicte+vKXwAymMIdJzGIa85jITKYyl8nMZjozSJ0YyBscSEKBVIF/atihRlxBwNtJk5oDuWY3swmqaApkmt08QjX/Ic6BkLMj3CSI476ZznW2UyDv/iTVHBOnOR9+hJE39OdAhMjPZxr0oAhNqEIXytCGOvShEI2oRCdK0Ypa9KIYzahGN8rRjnr0o5CqmMo2BdKSDlNkKEPpyUpm0pb6sl80o8AUbOXSmtZSpSb7Vc08MIhh2fSnpxRpyoSKMtj4DqhI/SROR6atpDr1kkQ9WVRNdq6nWvWROqXZvK7K1UNOdWQwnRnAukpWPi4VZGftmIQoUNa2tvGrbo2rXOdK17ra9a54zate98rXvvr1r4ANrGAHS9jCGvawiE2sYhfL2MY69rGQjaxkJ0vZyu4Grh1rAh6AZNnOqowQ/tgWzUAr2pnBgAtD8KxqTxZWmXlgCipY/q1sO0ZamxnCH+ak2RMGcYXZ+tZimOVYcDcWCHdU4rfIhVhta9aFWxQyudDF13A1Nl2LoeEZfYiudvd129zOjBba6MV2x0ve8pr3vOhNr3rXy972uve98FVJ4QYiBf29zwn6m+dAzKCGgcItfyWEmxr6mzgI2ldt+JXnDvnrX0V1kxjzxV43xTcQPDgQghKEG/9u8T5sPDjC/1jFhN9n4XRiuJsTTJQS0ge8hwnEEFAciH7/8QVjxPgfSnAxO42BjHDu0MYDgcSMY9HjF0dAxzBW8EBqfOMch5PHPlbxGwgc3yq3Spcqc9wPrczlLmNFlik7Qiu9TOZOYTllWrZZ5ASMcb4yu3lSYC4qLd9MZ0edGWUXuIA2Y3aBWBCvzoBmVJxPdoRBB/rQiCbJnU/WCTYn+tGQjrSkJ03pSlv60pjOtKY3vcYIUDlw8tyjQBCBiPbN+B+GMPUODSHqf+T50+HTIaxDPRBSq5ogqZbxnhFlQYH473m+9ofrBke6xGlYi45rsz/I1+vRjZh1wk4csWVnbIJMuFBvE13fpA04wXH7cITQnt269zi+zS50fFMjAQYXONANTm7iDrbNjlAFDXL63mHaZM0isE98+ztMhh7Ziq8dMyVM+d8I/9KiTYYNXhooIAAh+QQBBwD/ACyoADAAhQGpAqcHBwcKCgoLCwsNDQ0PDw8QEBARERERERERERERERERERERERERERESEhISEhISEhISEhISEhITExMUFBQVFRUVFRUWFhYXFxcZGRkbGxsdHR0hISElJSUnJycoKCgpKSkpKSkpKSkpKSkpKSkpKSkqKioqKioqKioqKioqKioqKiorKyssLCwtLS0uLi4vLy8wMDAyMjIyMjIzMzMzMzM0NDQ0NDQ0NDQ0NDQ0NDQ1NTU1NTU1NTU1NTU1NTU1NTU2NjY2NjY2NjY3Nzc3Nzc3Nzc3Nzc4ODg4ODg5OTk5OTk5OTk6Ojo6Ojo7Ozs8PDw+Pj5AQEBCQkJERERFRUVHR0dJSUlLS0tMTExOTk5RUVFUVFRYWFhbW1tdXV1fX19iYmJlZWVmZmZmZmZnZ2doaGhoaGhoaGhpaWlqampra2tra2tsbGxubm5vb29wcHBxcXFycnJ0dHR2dnZ4eHh6enp7e3t9fX1/f3+BgYGCgoKDg4OEhISFhYWGhoaHh4eHh4eHh4eHh4eHh4eHh4eHh4eHh4eHh4eIiIiIiIiIiIiIiIiIiIiLi4uNjY2QkJCSkpKUlJSWlpaZmZmbm5uenp6goKChoaGioqKioqKjo6OkpKSkpKSkpKSlpaWlpaWmpqampqampqanp6enp6enp6enp6eoqKioqKipqampqampqamqqqqrq6urq6usrKytra2urq6wsLCxsbG0tLS2tra4uLi6urq7u7u8vLy+vr6/v7+/v7/BwMDCwcHDwsHEw8HEw8LFxMLGxMLGxcLHxcLJxsLKx8LNyMHQysHVzcHa0MLe1MPj1sTj18Tk2MXk2Mbk2cfk2cjk2snk2svk28zk3M/k3dLj3tXj3tfj39ni4Nzi4N7i4d/h4eHh4eHh4eHh4eHi4uLi4uLi4uLi4uLi4uLi4uLi4uLj4+Pj4+Pk5OTk5OTl5eXn5+fq6urs7Ozv7+/x8fHz8/P19fX4+Pj6+vr7+/v9/f39/f3+/v7+/v7+/v7+/v7+/v4yzTII/gD/CRxIsKDBgwgTKlzIsKHDhxAjSmR4zB++iRgzatzIsaPHjyBDihxJsqTJkyhTqlzJsqXLlzBjypxJs6bNmzhz6tzJs6fPhg9QPPhJtKjRo0gjBh2atKnTp1Bt9minLarVq1izat3KtavXr2DDih1LtqzZszh7+JuHtq3btxxXCKsFt67du3jz6t3Lt6/fv4ADC865dLDhwz8LI17MuCYKXKwaS55MubLly5gza97M2XKTtZ1Diy5II9630ahTq17NurXr17Bjy55NO6bi2rjxKpHUKLfv38CDCx9OvLhxn2rZHl+eNTnz51Y1VJEBvbr169iza9/Ovezt7uBl/moIoyW8+fPo06tfz1678/bwQb6PT3+jhjZd6uvfz7+///8AQnVBCxcEaGBBFTjBwYEMNujggxBGKOGE7c1HYX1OWBLJhRx26OGHIIZY2XciokdiieZNVRWKLLbo4oswxqiThTJmJxddNeao44489sjjiT4eB2SQRBZp5JFIJqnkkkw26eSTUEYp5ZRUVmnllVhmqeWWXHbp5ZdghinmmGSWaeaZaKap5ppstunmm3DGKeecdNZp55145qnnnnz26eefgAYq6KCEFmrooYgmquiijDbq6KOQRloUMRZJaumlmGYq0ZCaPsVpp02pCOqopJbKKI2mJnVjqqy26iqe/p++ulOssub0WGS15qrrrl9+phyvPZV2GrDEFmvssYQOWCCyOHUASR7MRivttCiiSq1L1l7LknQxaOvtt+D6R2u4Io1XHrnopqvudtmuG1K77n50X37x1mvvvbQpi+9ICS64778AByzwcL4O3JEIlPRm8MIMN5zXuA4fBHHEBYlK8cUYZ9wcaBo3xIo7w3Ys8sgkl2zyySinrPLKLLfs8sswxyzzzDTXbPPNOOes88489+zzz0AHLfTQRBdt9NFIJ6300kw37fTTUEct9dRUV2311VhnrfXWXHft9ddgkwzDsgIposhAWTAlmyJfDPTAA20MZLZkwrhN9j+KZOG2/tp4r0HQBX6XrbBAD+hd9tluw0BQI4oLlExMa9ztjz8DhfK2QF8Y3po/suxNzED+hIwYDNi4fQNB/iD+z9sh+1O3QBdcEAro5RD0gOqTN7665pMH/s/jMGVxdyizC7TG5f9M/loodew9eCiqj46M6QSFovnbqofie+y+hzL46t2HonvhA6GCiubA/6T8asS/HLv7d4ctYR2+syyU/GR9I/rK6+PvP3D9Y1kAUSOM17UMeUh6xCOIg8D/PUgWxRNIOSgnEMuRTRgU/Mc3ENi8sPQCWoQ7HehUxzrQGXBLRUABQdqRQVmgoAUDqchA2IECFQpED2LRQy4GgoIqoG5D/gKpITtAdwwv3W8gIiQc33S3Or6NBUeEKwgTG8jEJF3AiSprQ/0cyMUu6miAKgNjyrSgOS+a8YwtuuLLkJBENLrxjR0SI8rkeDItwvGOeIyQGl22xzz68Y+AtAwdTYaKCAbykIhMjwbip7JFvowYJ0ykJCeZnUGWTB21o6QmN/mcPrLMkysrJCdHSUrhWJJkpyylKlfJypiAMotbbKUsZ7mZVIrMlh0jIy13ycvLvDJlbOylMIeJGFxqzJgZsyMxl8lMvvwSZc9spjSnSc1qWvOa2MymNrfJzW5685vgDKc4F6WODKLifQKh1EDKgU6OOCODjrhbOcvXTnVKsJ1w/tDUPAVyTrLZ8x/sZCRG3jmQeBJkn//o50D+GdCB5DNTbaSi7bCYkUH8jW8RXeJEx8nRjnr0oyANqUhHStKSmvSkKE2pSlfK0pa69KUwjalMZ6qeXPjjHjTNaTYnljGeYsxiOg3qNOFFslUJ9ajM9OnFlEqxWyH1qcMsWMuEBdWqWhVYTI3Ybr531a6OkqgjA6vIpEMdr5qVk1l1WAbIc9a2UlKsHYOrxubl1roiUl8t65dd98pXRMk1YxkCYl8Hi0ZLsMIShE2sYhfL2MY69rGQjaxkJ0vZylr2spjNrGY3y9nOevazoA2taEdL2tKa9rSoTa1q6cQNf7RjtbAl/llaGzZbht2hHZCIrW41pgh/ILZlZhBGB3dLXIfVdmHHNRgYcCGH4jqXYY3wRyZchod4SOK52M3ucJI7MC9IggzaDe+9evtblpHXZRyoggfEy153cVdgQWADFNpLX3TZwh+fq69+98vf/vr3vwAOsIAHTOACG1jAMODbGnynBQUPN20EyUL9EHiDCdvwHzCoX4IJsuCBNJjDD+abhDcqkDYKCsICgUH/GsG3b2TQggPB4EA2qLboEgQGF15D/1CM4RW3+MUPuGAGaTyQuBXqBmS7ATHy+w843A0VRRRIIy6ggfIxWaECgQOT/3EDGApEC0tGYpLDnOUnR/kfU64y/j+v3M4tDAqZF7tBOfZ34DrbmSsacGTLNOAIrt75z5GCM8VuIOiI3eAGVQS0ohsVzZJdQJeLjnSjCu0wQmdwZTdQpqQ3jSg9fxLRnA61qGuCBEo3DAl9HrWqAZWJ8q761bCOtaxnTeta2/rWuM61rneNNV8MhMqLO9c/2olmIwukBcZuhCP+JuxGfO8CbZREEoE9kEYIm9iNMPY/kF3tZf9a2IM68wPamLq9tc6AQYmgPzJJONz5Y3y884fvxo06Ej7g3G5DgbrZvbroCYrJ9Jbb9R7gO0XMGwWaU4S2yXe48elOEZG4XhvztreCHzzhCy+jy0zNMCVHktcg31KjFUkWO4qe7AKiDLnKt8TxhcmZzvoJCAAh+QQBBwD/ACymADEAhwGqAqcICAgKCgoMDAwNDQ0PDw8QEBAQEBARERERERERERESEhISEhISEhISEhITExMTExMUFBQVFRUWFhYWFhYXFxcXFxcXFxcXFxcXFxcYGBgZGRkaGhobGxscHBwdHR0fHx8hISEjIyMkJCQkJCQlJSUlJSUmJiYmJiYnJycoKCgpKSkqKiorKyssLCwtLS0uLi4vLy8vLy8vLy8wMDAwMDAxMTEyMjIyMjIzMzMzMzM0NDQ0NDQ1NTU1NTU3Nzc4ODg7Ozs9PT0+Pj5AQEBCQkJDQ0NERERFRUVFRUVGRkZHR0dHR0dJSUlJSUlKSkpLS0tMTExMTExMTExMTExNTU1NTU1OTk5OTk5PT09QUFBQUFBRUVFSUlJUVFRWVlZXV1dZWVlcXFxeXl5iYmJkZGRlZWVmZmZoaGhoaGhpaWlqampra2tsbGxsbGxtbW1vb29ycnJ1dXV4eHh7e3t9fX1+fn6BgYGCgoKEhISEhISFhYWGhoaHh4eHh4eHh4eIiIiIiIiIiIiIiIiJiYmJiYmJiYmJiYmKioqKioqKioqKioqLi4uLi4uLi4uLi4uLi4uLi4uMjIyMjIyMjIyNjY2NjY2Ojo6Ojo6Pj4+QkJCRkZGSkpKUlJSWlpaYmJiampqcnJyenp6goKChoaGjo6OkpKSmpqanp6enp6eoqKipqampqamqqqqrq6utra2urq6wsLCxsbGysrK0tLS2tra4uLi6urq7u7u8vLy+vr6/v7/AwMDAwMDBwcHCwsLCwsLDw8PDw8PExMTExMTExMTFxcXFxcXGxsbGxsbHx8fIyMjJycnKysrLy8vMzMzNzc3Ozs7Pz8/Q0NDR0dHS0tLT09PU1NTV1dXW1tbX19fZ2dna2trc3Nze3t7f39/g4ODh4eHi4uLj4+Pl5eXn5+fp6enr6+vt7e3v7+/x8fHz8/P19fX29vb39/f4+Pj5+fn6+vr7+/v7+/v8/Pz8/Pz9/f39/f3+/v7+/v7+/v7+/v7+/v7+/v7+/v7+/v4yzTII/gD/CRxIsKDBgwgTKlzIsKHDhxAjSnTYw5+6iRgzatzIsaPHjyBDihxJciSEHB1KqlzJsqXLlzBjypxJs6bNmzhz6tzJs6fPn0CDCh1KtKjRo0gTWnBhIanTp1Cj9hxRp43Uq1izat3KtavXr2DDih1LtqzZs2iJVryYtq3btx3Xwp1Lt67CD2CW2N3Lt6/fv4ADCx5MuLDhw4j/MVjBILHjxzk1bAECubLly5gza97MubPnz5Dlgh5NeqDo0qg9g8DzJrXr17Bjy55Nu7bt2z5X+FiBu7ffxY19C6+7Qx664ciTK1/OvLnz59BtArEYvXrWFrBEWd/Ovbv37+DD/oufC3y8+Z3lz6u3eWNasPXw48ufT7++/ein7+vnGEMbs/0ABijggAQWaGBX6R2oYEEJLujgCaZ04uCEFFZo4YUYGuiEP+tkWGB+HgL4wAsThGjiiSimqOKKny3VFIv1jUDHGjDWaOONOOaoo1Qg7hhejz5+90EYegVp5JFIJqnkkgY1yGR1rZQTzpNUVmnllVhmqeWWXHbp5ZdghinmmGSWaeaZaKap5ppstunmm3DGKeecdNZp55145qnnnnz26eefgAYq6KCEFmrooYgmquiijDbq6KOQRirppJRWaumlmGaq6aacdurpp6AuBGSoXJ2UEqmopqrqqhi5yGpX/lRZ9eqstNZK6qi2IoVrrkZpAEYRvAYr7LCLOklsURpoQdmxzDbrrJ27PrtTtNLmtFpr1War7bZeusqtT8Z+i1Nxx4lr7rno4jgdW+nehJ127cYr77wThktvS/beu9IL0vyi778AB6wetQJ71N9/BSes8MLK5cswRw4/rBGEEkps8cUYf7Zuxh8RzHFDI7748cgkl+yXtyZPdEIgcqTs8sswj/WKP/DEbPPNOOes88489+zzz0AHLfTQRBdt9NFIJ6300kw37fTTUEct9dRUV2311VhnrfXWXHft9ddghy322GSXbfbZaKet9tpst+3223DHLffcdNdtGwPB/VNF/iAE4T1QFZzwLVvgBFmwA0HkPNaN4AJZQKNAgTCuWBUDRU7DQH4P5MjlAmUOOeWdM/D4P5HjpI7ngfhDEA15r+GP6rK9zvk/Fmwx0OuP+QPOQBZYYMrtsHc++uugKzb766N7/o8/v4c+zO273xSN52s0LxDrf8dGQ/OwmDJ77QOZcs5j4zDe++imWD95+N5jPnsqqRSvvCnJM8C4KZJfqLzdJo4zZdGMMVoAXbOG0Q0Nd0VDIP9O1AlHGE2BCxxLFYo3tP1F8IKkgaBDkDC7kjkifw0ZoOuChz2BVEGBb8jb8sZBFt3xznfA69vw/NHBNs1BgUjgjUDEoEA66FAg/v5I3Fj8wUKBuMAFsIjhQFYwB+AFz0006KAKo1i4gtQQLGMonMj+QYPDYW51VMSgfiygQqGR0WjhiJ4Y18hGKmkwaMZ4XhvnSEcjdWCLQruj0VKhvjr68Y8reiPQxPE/QBrykIiUzRmL9sFEOvKRChLkzyTpsx1cEZKYzOR8Fkm0LVBQk6AMpXko2TNS8uwNBhSlKle5HU4O7QdeZKUsZ0nLrJhyZ42spS53eRtXmrGMQUsjL4dJzNfcUmdxLKYyl+kZPRbNmUTjIzOnSc3KHDNnhKymNrfJzYWQAl7dDKc4x0nOcprznOhMpzrXyc52uvOd8GzbGxS4A5FtQYFw/sDjRzpwqn/MM3j1HMg9g5dPgvhDHKv650ACKpCBDqSgI+HnQBQqEIb+w6ECgSgQEaqqMHYOjFUkyRY9qhiQ8q4gsYynSlfK0pa69KUwjalMZ0rTmtr0pjjNqU53ytOe+vSnQA2qULFiBA4VzVRDTao6USa0WCn1qeb02M2kajO8FAmqWO1mxHSWrGVl9avVpGrMxAqza4H1rNPUzQ+FttWckQutcC3mxoj2rrjadZdtxVleb9ae99z1r7Ik68sOBtjCqnKvNkNszChm2MZqckMdIppgXRYyx1r2spjNrGY3y9nOevazoA2taEdL2tKa9rSoTa1qV8va1rr2tbCN/q1sZ0vb2tr2trjNbR1TB06hZSAHGtCtcIPG1KAZoQ6fHK5yccbbojWXaDQAQw+WS92cKRZmKNhCC6rL3Zg9d2jfFVoR8JDc7pqXY2ot2nVftgd6hOK88B2ZI/xBiqKJ4RVuiK9+MbZel/V3vwAOsIAHTOACG/jACE6wghfM4AY7+MFNytsWDNi7gdDAgMor4EJV+AZs6U2FGsachCkssgv3DcSj2wGHPSypYXguFU+ssEBGaOG8nTB4KTRo8EzhOXAEz8V5g7EWB0Lj69kYhSr0RyEnJeN/VMIYBJFoQ40B5Yrak8oD8cIWkYEMzTU5FVX+hyOa/OQo93MLWLay/kDT/A8tEwQZrIAwUq55sx3Q2WY7QKWc9zwsaJrRl3wOtKC/cueYLQEWSRy0olcF6J/1Dpg/6wAywrzoSoOq0DDbgTAtzWlPNdpnjy6aBaTZ6VJrCtMvs/MTTc3qVrv61bCOtaxnTeta2/rWuM61rn0mDQcOpAMedkQlCmc7gTjCEbFsspOT3U8xF5t2Fgi2rwUCbM0Nm3fPPnayt1gJZltqHGrsnfUgKDrgye94/kjeFpknYjkuL9wwBOITyy3vcwNP3ZaKxuh6V7xATNt4lQvE7Bgwu2PLb4uBqN/oEv7Cfv+b4AEfeMEdIb+U7jqDqwaaqou2A09e/ON1+nTPEgx3SZCbXE2odtnGiZbnVAYoIAAh+QQBBwD/ACymADIAhwGqAqcODg4PDw8QEBARERERERERERERERERERERERERERERERERERERERESEhISEhISEhISEhISEhISEhISEhITExMTExMUFBQUFBQVFRUWFhYWFhYWFhYWFhYWFhYXFxcXFxcXFxcYGBgZGRkbGxscHBwdHR0fHx8hISEiIiIjIyMkJCQlJSUnJycoKCgqKiorKystLS0uLi4vLy8wMDAwMDAxMTEyMjIzMzMzMzM0NDQ0NDQ0NDQ1NTU1NTU1NTU2NjY3Nzc4ODg5OTk8PDw+Pj5BQUFDQ0NERERGRkZHR0dJSUlLS0tMTExNTU1NTU1OTk5PT09PT09QUFBRUVFSUlJTU1NVVVVXV1daWlpeXl5gYGBiYmJkZGRlZWVmZmZnZ2doaGhoaGhpaWlpaWlqampqampra2tra2tsbGxsbGxtbW1ubm5vb29wcHBycnJzc3N0dHR2dnZ3d3d4eHh4eHh5eXl6enp6enp7e3t8fHx8fHx9fX19fX1+fn5+fn5/f3+AgICCgoKDg4OEhISFhYWGhoaHh4eHh4eIiIiIiIiJiYmJiYmKioqKioqLi4uLi4uMjIyNjY2NjY2Ojo6Pj4+QkJCSkpKTk5OUlJSUlJSVlZWVlZWWlpaWlpaXl5eXl5eYmJiZmZmampqampqbm5ucnJydnZ2enp6goKChoaGjo6OkpKSlpaWnp6eoqKiqqqqsrKytra2vr6+xsbGysrKzs7O1tbW2tra3t7e5ubm7u7u+vr7AwMDCwsLCwsLDw8PDw8PExMTExMTExMTExMTFxcXFxcXFxcXGxsbGxsbGxsbHx8fIyMjIyMjLy8vNzc3Q0NDT09PW1tbZ2dnb29vd3d3e3t7f39/f39/g4ODh4eHi4uLi4uLj4+Pj4+Pk5OTk5OTk5OTl5eXm5ubo6Ojp6enq6urr6+vs7Ozt7e3u7u7v7+/y8vL09PT19fX39/f4+Pj5+fn7+/v9/f3+/v7+/v7+/v7+/v7+/v7+/v7+/v7+/v7+/v7+/v7+/v4yzTII/gD/CRxIsKDBgwgTKlzIsKHDhxAjSnTYw1+7iRgzatzIsaPHjyBDihxJciSMZ7tKqlzJsqXLlzBjypxJs6bNmzhz6tzJs6fPn0CDCh1KtKjRo0gTfoDxIanTp1Cj9oTgAoLUq1izagVpgxy1rWDDih1LtqzZs2jTql3Ltq3bt3CFCrEYt67duwppALOFt6/fv4ADCx5MuLDhw4gTK/5H1erix5BxNo5MuTJMGbtkWd7MubPnz6BDix5NuvTYihdNqxaNIx221bBjy55Nu7bt27hz697Nu+Hk3sDrprAEKLjx48iTK1/OvLlzlnNTP58eFTX16083GIGBvbv37+DD/osfT/7p0qbl09M8MeaK+vfw48ufT7++cev283PEr7//RBRsZOHfgAQWaOCBCCY4VVUKNvgPBkOw4OCEFFZo4YUYZqjhdfxtaJ8KnxTi4YgklmjiiSgSdl6K8f3Gono1kDPNizTWaOONOOYoU3Q6hqcXXz0GKeSQRBbJIiqvoGLkkkw26eSTUEYp5ZRUVmnllVhmqeWWXHbp5ZdghinmmGSWaeaZaKap5ppstunmm3DGKeecdNZp55145qnnnnz26eefgAYq6KCEFmrooYgmquiijDbq6KOQRirppJRWaumlmErUYaZhnZQSp6CGKuqoCq1IqlYunnpVV1+p6uqr/rAyummsSBWRjC605qrrrnmmyitRvv4qFGaaCWvssciCOWuyPLX2GrPQRivttIQGS61NwxV37bbcdjsij97atGy4L2n3ArnopquuftauqxIObXDh7rz01tvduPaChG++HgEoIL8AByxwbe0OrBGEEhqs8MIMN9zbvg47BCIhEVds8cV2mYpxRAVv7PHHIIcs8sgkl2zyySinrPLKLLfs8sswxyzzzDTXbPPNOOes88489+zzz0AHLfTQRBdt9NFIJ6300kw37fTTUEct9dRUV2311VhnrfXWXHft9ddgi6bkQIkkMtAU6AlU9mwQOKa2EwN9AMEZmyVCw0BtE5QJ/twCQZD2P4nQjbfggJs9kAt8A/4IQRDcTbbjNI0tkD/+DOSK3ANpU7lseQ/kTytxQzCMZZQn3jhB/hjO2AfceD5636J7rg1BLqhOuQ54J166TZL/0wroAq2BudrAx9a5QK0QLrfqkf0O+ekDyWL6B4sjT3jbqrfCvAuEt+IK7n0n7nzYEemxBsxMka+WNrO/TLn68C/3vvubr2aMMTB/8DfLx8dvoSzFaxmDXjbA1fzuSfObiOYG0orjGaN+2tAf2eqHlt31DXL/SB3eWOc5BFIwIuConyxc4IKBOKN+4IABdwSSiQ+ahXJaOBwSUJeJw8FAHGrCYP/A17e/0QCD/mf5IeMKwsPV+e+ISBzL8Fy2BsIl8YlQvFECWzZFlk0hcVHMohZNtMSWXXGLYAyjhqq4MjKqrIliTKMaG9RFlrVxjXCMoxwTY8aUuSKAc8yjHsfzRpX1MWXGeN0eB0lI7NQRZYEspCIXyRwS7G9ljoTZHRlJyUr25pAnw6QlN8nJTsbkjyhDoydHSUrQaLJkpyTZF0vJylZGBpQnW6UrZ0lLwqRyZLcUmShrycte+vKXwAymMIdJzGIa85jITKYyl8nMZjozMO2o3+XSdsKBcIMEJBjII6DhkUf8jRvSlKBAqimQa2ZTII9w4aWiaTlx/oOc/zCnNrnZEW8SBJzt/qRm/eSJTnVaChaMc9s/ZrhBgtCghB3pnw4FStAeGhSIz4yoRCdK0Ypa9KIYzahGN8rRjnr0oyANqUhHStKSmvSkKE1p0SBGMk+p9KXC1Bj/CsgyVsH0pr4EV8t+hNOe0rJjJQMqyYjl06KykqUjc5ZRl8pUYQl1ZNlqqlQpqVOWIVVk5pqqVgsp05Wxxz1bDWserxoysoLMX2JNaxyfKjKEqfWtcF2UWT82sbja9a54zate98rXvvr1r4ANrGAHS9jCGvawiE2sYhfL2MY69rGQjaxkJ0vZylr2spjN7KQS4Y/erUwNz/iDZkc7sq6qjK0hwwM5KkHa1n4snap4/lkZgHEH19r2YqgFWW4/5oVdyOG2wHUYZz2rMj+ko4bBTa5yg7NbjzHBEmBdrnTtBduXDfdlJjACCqbLXXqZNmVbsEUbukve8pr3vOhNr3rXy972uve98I1vz7q4hvMJxAkCPQPh8EuQKTjRnTRw4vECTBAdCLS+A+HvQPSbYIH6lyAAduKh9Oc2GiQwEQJdIPIcCEF3ctagbjtDAqdQ4QtnuH4NdNsDM+dhfw6KBMnAn0B0kIxkDER4BHGFjP/hzbS9YseuwOaNd/wPHaRtCvcbSBDSRmMbB+9vOtamO39sOSEHj8jyzbIUXWwyHXCjfVoOs5i3QuGXUY95Y05z9qVyCTIdsPljOtABRNVM50dF0mUksMIU6sznSL3ZY27mcsmCoOc+G7pRsCzZB+R86EY7miaBfpkOHoHmR1v60pjOtKY3zelOe/rToA61qEetnkfw0J3/kMSeBfKBc6LTvqyG9SOqJxASrJrHkoBwEU0dt7+pOm6u5jGs//EBWdP6H3dOlAUZg0EN9rB1kxNk2wTpDzAT23b+4CEEdOcP0zVbdX6DdgalHbvJWTvRgCrb8zD4iOnBOnB4mxvZ/pu4RPD6gmSzG97Y7e55x5tw8Gb1l0lN8DL9eWNJcIYzCs7wMKG7tA8XGYyx3PCKY+ngGPOytf0TEAAh+QQBBwD/ACypADMAEQLmAqcSEhISEhISEhISEhISEhISEhISEhITExMTExMTExMUFBQVFRUVFRUWFhYWFhYXFxcXFxcXFxcXFxcYGBgYGBgZGRkaGhoaGhocHBwdHR0fHx8hISEjIyMkJCQmJiYoKCgqKioqKiorKysrKysrKyssLCwsLCwsLCwsLCwtLS0tLS0tLS0uLi4uLi4uLi4vLy8wMDAwMDAxMTEyMjIyMjIzMzMzMzM0NDQ1NTU2NjY4ODg6Ojo8PDw9PT0/Pz9BQUFCQkJDQ0NERERFRUVGRkZISEhJSUlKSkpKSkpLS0tMTExNTU1OTk5PT09RUVFSUlJTU1NVVVVWVlZYWFhaWlpdXV1dXV1eXl5fX19gYGBiYmJjY2NkZGRmZmZoaGhqampra2tra2tra2ttbW1ubm5vb29xcXFzc3N1dXV3d3d6enp8fHx+fn6BgYGCgoKEhISEhISFhYWFhYWFhYWFhYWGhoaGhoaGhoaGhoaGhoaGhoaGhoaGhoaGhoaGhoaGhoaGhoaHh4eHh4eHh4eHh4eHh4eHh4eIiIiIiIiIiIiIiIiIiIiIiIiIiIiIiIiIiIiIiIiIiIiJiYmJiYmKioqLi4uNjY2Ojo6QkJCSkpKUlJSVlZWXl5eYmJiZmZmampqcnJyenp6goKChoaGioqKjo6OkpKSkpKSlpaWmpqampqanp6enp6enp6eoqKioqKipqampqamqqqqrq6usrKyurq6xsbG0tLS2tra3t7e5ubm6urq8vLy+vr6/v7/BwcHCwsLDw8PDw8PDw8PExMTFxcXFxcXGxsbHx8fHx8fIyMjIyMjJycnKysrLy8vMzMzOzs7R0dHU1NTY2Njb29ve3t7h4eHj4+Pl5eXn5+fp6enq6urs7Ozt7e3u7u7v7+/v7+/w8PDw8PDx8fHx8fHy8vLy8vLy8vLy8vLy8vLy8vLy8vLz8/Pz8/Pz8/P09PT19fX4+Pj6+vr8/Pz9/f39/f3+/v7+/v7+/v7+/v7+/v7+/v7+/v7+/v7+/v4yzTII/gD/CRxIsKDBgwgTKlzIsKHDhxAjSlyIw1+7iRgzatzIsaPHjyBDihxJsqTJkyhHVryYsqXLlzBjypxJs6bNmxBPKMDJs6fPn0CDCh1KtKjRo0iTKl3KtKnTp1CjSp1KtarVq1izasU5IMSArWDDih1LtuMGNmHKql3Ltq3bt3Djyp1Lt67du3jz6t3Lt6/VHRb9Ch5MWO3KwogTK5ZaIcqPxZAjS55MubLly5gza97MubPnzwUjqIgAurTpyxmiADnNurXr17Bjy55Nu7bt27gjH87Nu7fU3b6DC0e6oc2Y4ciTK1/OvLnz59CjS59+sOtX6tizP7Suvbt3hPXQ/n0fT768+fPo06tfzx408Pbwc3+YBSq+/fv48+vfz7+///iikfbfgJtxR+CBl7UgDTEINujggxBGKOGEFFZ4E2AsWahhXTZMs8yGIIYo4ogklmjiibwZiOKKV6nI4otSefBKJzDWaOONOOao4448mvRej0Di9GOQRNKkU5FIJqnkkkw26SR0Lj4ppVlsfDHllVhmqeWWXHY5FoZehpnQkGKKWYEUj5Wp5ppstunmm3DGKeecdNZp55145qnnnnz26eefgAYq6KCEFmrooYgmquiijDbq6KOQRirppJRWaumlmGaq6aacdurpp6CGKuqopJZq6qmopqrqqqy26uqr/rDGKuustNZq66245qrrrrz26uuvwAYr7LDEFmvsscgmOx6ZyjLHbLPLHQnttNRWa62kUV473Flpaevtt+CGSycS/rwjrnDPnktbY2mq6+678MbbY4Dy3pbaavXmq+++/EaYbr+f/QtwZx68YcbACCes8MLdZcswZw4/vFl4Elds8cUYtyZwxovNVx/HIIcs8sh9haBDCCRXFnHKiCnIIMswxyzzzFKBSXNiHTJz88489+yzTCv/bFfQQtM1QiyeFK300kw3jdDGTq8FddRqSUv11VhnHTLRWo9lQzfWdC322GSXbfbZaKet9tpst+3223DHLffcdNdt99145633/t589+3334AHLvjghBdu+OGIJ6744ow37vjjkEcu+eSUV2755ZhnrvnmnHfu+eeghy766KSXbvrpqKeu+uqst96gE5UQNICA/8TAyGsDLDEQI7cPNEAMkjHSrUADDM87QRHoLhAjldzgO/C7Q//PANcJVIny00dAxu5hs1eJPwTFQPsS/oDf2gC9/1O+9LlL5s/L0w+gykDlIz98+U74jn35w1NPkD/zI14EjEG/DKmHDK8I3/hUMT9sdK80xRsIA9mHvcWoon8RFAgDkYc9VbzCecTroCqw57+BvKJ/EYidBh/4H6+4biKjKY0T8vfCiNSvhhC5IQ5hpon07ZAh/jr8oW2WUEEhJiQCtDOiEns2BOkt8SAuBE0MnPjEggSxiv8z38LCoEMnVI98WgxD9dSnxbK8z3fyo18ZIzC8h6lBh1pAmUCwoEM1yFEgVxyLP5oxkBCEoBZqJIgK1NCjPPJmisgLHwiJVxAqksWJJRQIIgeSRB1VwodYzKQmN8mRCIxxkxiopCavcQ1OmvKUqARiGTdpDPil8pWw5KQnUTnLU7YylrjM5RMNicVrsFCXwAymMEengjty8pLDTKYyR8fLKjbziTpY5DKnSc3L1dKUTihiNbfJTcY9c4nfVGI2u0nOciLumpy8gSPNyc52urNr4TQiMt9Jz3rKDZ2g/hRlJklpz376U23xFOIt/0nQgmoNn5pEaCYHatCGOlRpAf2hLx9K0Ypa9KIYzahGN8rRjnr0oyANqUhHStKSmvSkKJ2ZFqNAOyfokAxJjOhCkDgQMuiQpQNxqRZhmkW6rbSlL43pKjNCU4HY9Kc5DWpP75bESTIyfB8Zo1P/0VRINjKlWM2qVrfK1a569atgDatYx0rWspr1rGhNq1rXyta2uvWtcI2rXOdK17raVTBTw2FecWi1u/r1r07imhC5BdjCGhZJNuPkXl/IrsM69rE5opcp7wXZyloWRYt1XWZbV5zjXPazoNWQYH842h9SLLSoTa2DNss6j6n2tbDt/o9kOVlaHLostrjNLXwSu8mc6fa3wC1PbWs43BfKiBPBTa5yqcPa1dXCH/JYrnSnS93qWve62M2udrfL3e5697vgDa94x0ve8pr3vOhNr3rXy972uve98I2vfOdL3/ra9774za9+90skRvhDFKf0L4BNiYATIIC/CE7wSIrruh+wAQkKjrCENfI9UgT4v6cMQRRgMOEOe7ghs91kC6RAgw+b+MQEEfCFB8xJILRBCSiO8YcZ3Doat04fLJaxjhOsYlNSYRZe2LGQERxiTZqBDQcbspKXzOQmO/nJUI6ylKdM5Spb+cpYznKnltDGSMagjUMYIxm2J8kxhmF4Sxgj/hbaWNR/cFl21fsyQcJMkDEPJAZmbuPYVFHGSHJRi1j4og7FuNR/qCKSzdAiMdrMZzgP5M8DCfRAwPjoMcr0Z6G0HgEp2VJjbPofRWjpMY6R0yR6eiCVaLMtPl0JDGAA1Z+maqc/HeqcjrrUBDl11zAQBRpq+dfWvfQLbyBs1+nADGQGtrKlq9AqIvGTy462tNNW7Nbd4BUBnLa2Y5tpUz77lAN05bbHHdpqs04Hx4g1uddt2WY/8dumxIAsEsjuelfW3M7Ft733ze9++/vfAA+4wAdO8IIb/OAITzi/K5Fsqia7EioUCAZ8DfEiUFKazeM0QSzhaySuAdUN1x6q/iP+j4mP3OICiQDGpTm2MxIvjXhc4/38gQX9qRGD/8s29fiIR/hRL9tBZKMaax7Cm59NeGjE3vEoKT3eDeF5u2MECcdYCQwScnkYVLoPI9B0RjydeF1XnruXqD09K/zsWdV36og9VCzeYJxoj3tWu81JXvta7ngvqdpRl4295/3vgA+84AdP+MIb/vCIT7ziF8/4xjv+8ZCPvOQnT/nKW/7ymM+85jfPebcNAAGgR8AIQg96ClAA9KRVgANMX4EXVOD1r89ABl7/QwQ4wAq4t8IXco/7LGQB97WngBX2QPxMEP/4k5gE8X9IgQxkIfmT0AT0kw/x5DPf+dCX/vSrYT+J2ldg+MU/PvGTv/wdIuD7xze++Mm/B++Dfw/qR77y229+9Id//fN3f/rFvwf2X//5yad90Md9/5d9yecFKqACL1AJ1ld/72d8ZxACxJcGXrAHEOaA+9cFSDB+yocEAQEAIf4VTWFkZSB3aXRoIFNjcmVlblRvR2lmADs=;" vertex="1" parent="1">
          <mxGeometry x="280" y="30" width="698" height="793" as="geometry" />
        </mxCell>
      </root>
    </mxGraphModel>
  </diagram>
</mxfile>
